<svg xmlns="http://www.w3.org/2000/svg" xmlns:xlink="http://www.w3.org/1999/xlink" width="1190.55" height="841.89" viewBox="0 0 1190.55 841.89">
  <defs>
    <style>
      .cls-1 {
        clip-path: url(#clip-Plan_de_travail_22);
      }

      .cls-2 {
        opacity: 0.5;
      }

      .cls-3 {
        fill: #5c782a;
      }

      .cls-11, .cls-12, .cls-13, .cls-14, .cls-15, .cls-16, .cls-17, .cls-18, .cls-19, .cls-20, .cls-21, .cls-22, .cls-23, .cls-24, .cls-25, .cls-26, .cls-27, .cls-28, .cls-29, .cls-30, .cls-32, .cls-34, .cls-35, .cls-36, .cls-37, .cls-38, .cls-39, .cls-4, .cls-40, .cls-41, .cls-42, .cls-43, .cls-44, .cls-45, .cls-46, .cls-47, .cls-48, .cls-49, .cls-50, .cls-51, .cls-53, .cls-55, .cls-56, .cls-57, .cls-58, .cls-59, .cls-6, .cls-60, .cls-61, .cls-62, .cls-63, .cls-64, .cls-65, .cls-66, .cls-67, .cls-68, .cls-69, .cls-70, .cls-71, .cls-73, .cls-86, .cls-87, .cls-88, .cls-89, .cls-9 {
        fill: none;
      }

      .cls-5 {
        opacity: 0.6;
      }

      .cls-12, .cls-13, .cls-14, .cls-15, .cls-16, .cls-17, .cls-18, .cls-19, .cls-20, .cls-21, .cls-22, .cls-23, .cls-24, .cls-25, .cls-26, .cls-27, .cls-28, .cls-29, .cls-30, .cls-6 {
        stroke: #cd171a;
      }

      .cls-34, .cls-6 {
        stroke-width: 5px;
      }

      .cls-7 {
        opacity: 0.2;
      }

      .cls-8 {
        opacity: 0.4;
        mix-blend-mode: multiply;
        isolation: isolate;
      }

      .cls-53, .cls-55, .cls-56, .cls-57, .cls-9 {
        stroke: #5baf31;
      }

      .cls-53, .cls-9 {
        stroke-width: 20px;
      }

      .cls-9 {
        stroke-dasharray: 12.398 12.398;
      }

      .cls-10 {
        fill: #5baf31;
      }

      .cls-11, .cls-35, .cls-36, .cls-37, .cls-38, .cls-39, .cls-40, .cls-41, .cls-42, .cls-43, .cls-44, .cls-45, .cls-46, .cls-47, .cls-48, .cls-49, .cls-50, .cls-51, .cls-58, .cls-59, .cls-60, .cls-61, .cls-62, .cls-63, .cls-64, .cls-65, .cls-66, .cls-67, .cls-68, .cls-69, .cls-70, .cls-71 {
        stroke: #000;
      }

      .cls-11 {
        stroke-width: 0.333px;
      }

      .cls-12, .cls-13, .cls-14, .cls-15, .cls-16, .cls-17, .cls-18, .cls-19, .cls-20, .cls-21, .cls-22, .cls-23, .cls-24, .cls-25, .cls-26, .cls-27, .cls-28, .cls-29, .cls-30, .cls-35, .cls-36, .cls-37, .cls-38, .cls-39, .cls-40, .cls-41, .cls-42, .cls-43, .cls-44, .cls-45, .cls-46, .cls-47, .cls-48, .cls-49, .cls-50, .cls-51, .cls-58, .cls-59, .cls-60, .cls-61, .cls-62, .cls-63, .cls-64, .cls-65, .cls-66, .cls-67, .cls-68, .cls-69, .cls-70, .cls-71, .cls-86, .cls-87, .cls-88, .cls-89 {
        stroke-linecap: round;
        stroke-linejoin: round;
      }

      .cls-12 {
        stroke-dasharray: 0 1.986;
      }

      .cls-13 {
        stroke-dasharray: 0 1.993;
      }

      .cls-14 {
        stroke-dasharray: 0 2.126;
      }

      .cls-15 {
        stroke-dasharray: 0 2.081;
      }

      .cls-16 {
        stroke-dasharray: 0 1.998;
      }

      .cls-17 {
        stroke-dasharray: 0 2.034;
      }

      .cls-18 {
        stroke-dasharray: 0 2.006;
      }

      .cls-19 {
        stroke-dasharray: 0 1.881;
      }

      .cls-20 {
        stroke-dasharray: 0 2.097;
      }

      .cls-21 {
        stroke-dasharray: 0 1.923;
      }

      .cls-22 {
        stroke-dasharray: 0 2.407;
      }

      .cls-23 {
        stroke-dasharray: 0 2.044;
      }

      .cls-24 {
        stroke-dasharray: 0 2.028;
      }

      .cls-25 {
        stroke-dasharray: 0 2.005;
      }

      .cls-26 {
        stroke-dasharray: 0 2.004;
      }

      .cls-27 {
        stroke-dasharray: 0 1.985;
      }

      .cls-28 {
        stroke-dasharray: 0 1.99;
      }

      .cls-29 {
        stroke-dasharray: 0 1.991;
      }

      .cls-31 {
        opacity: 0.9;
      }

      .cls-32, .cls-86, .cls-87, .cls-88, .cls-89 {
        stroke: #ffcf1b;
      }

      .cls-32 {
        stroke-width: 1.87px;
      }

      .cls-33 {
        fill: #ffcf1b;
      }

      .cls-34 {
        stroke: #3793d1;
      }

      .cls-35, .cls-36, .cls-37, .cls-38, .cls-39, .cls-40, .cls-41, .cls-42, .cls-43, .cls-44, .cls-45, .cls-46, .cls-47, .cls-48, .cls-49, .cls-50, .cls-51, .cls-58, .cls-59, .cls-60, .cls-61, .cls-62, .cls-63, .cls-64, .cls-65, .cls-66, .cls-67, .cls-68, .cls-69, .cls-70, .cls-71, .cls-86, .cls-87, .cls-88, .cls-89 {
        stroke-width: 3px;
      }

      .cls-35 {
        stroke-dasharray: 0 5.866;
      }

      .cls-36 {
        stroke-dasharray: 0 6.047;
      }

      .cls-37 {
        stroke-dasharray: 0 5.971;
      }

      .cls-38 {
        stroke-dasharray: 0 5.874;
      }

      .cls-39 {
        stroke-dasharray: 0 6.177;
      }

      .cls-40 {
        stroke-dasharray: 0 6.95;
      }

      .cls-42 {
        stroke-dasharray: 0 5.919;
      }

      .cls-43 {
        stroke-dasharray: 0 5.847;
      }

      .cls-44 {
        stroke-dasharray: 0 6.02;
      }

      .cls-45 {
        stroke-dasharray: 0 5.864;
      }

      .cls-46 {
        stroke-dasharray: 0 5.855;
      }

      .cls-47 {
        stroke-dasharray: 0 6.063;
      }

      .cls-48 {
        stroke-dasharray: 0 5.822;
      }

      .cls-49 {
        stroke-dasharray: 0 5.901;
      }

      .cls-50 {
        stroke-dasharray: 0 5.871;
      }

      .cls-51 {
        stroke-dasharray: 0 5.854;
      }

      .cls-52 {
        opacity: 0.3;
      }

      .cls-54 {
        fill: #fff;
      }

      .cls-56 {
        stroke-miterlimit: 10;
      }

      .cls-57 {
        stroke-width: 10px;
        stroke-dasharray: 12.388 12.388;
      }

      .cls-58 {
        stroke-dasharray: 0 5.697;
      }

      .cls-59 {
        stroke-dasharray: 0 5.535;
      }

      .cls-60 {
        stroke-dasharray: 0 6.021;
      }

      .cls-61 {
        stroke-dasharray: 0 6.31;
      }

      .cls-62 {
        stroke-dasharray: 0 6.136;
      }

      .cls-63 {
        stroke-dasharray: 0 5.293;
      }

      .cls-64 {
        stroke-dasharray: 0 6.314;
      }

      .cls-65 {
        stroke-dasharray: 0 5.691;
      }

      .cls-66 {
        stroke-dasharray: 0 5.458;
      }

      .cls-67 {
        stroke-dasharray: 0 6.068;
      }

      .cls-68 {
        stroke-dasharray: 0 5.692;
      }

      .cls-69 {
        stroke-dasharray: 0 6.07;
      }

      .cls-70 {
        stroke-dasharray: 0 5.558;
      }

      .cls-71 {
        stroke-dasharray: 0 5.696;
      }

      .cls-72 {
        fill: #5ab8b0;
      }

      .cls-73 {
        stroke: #588fa5;
      }

      .cls-74 {
        fill: #588fa5;
      }

      .cls-75 {
        font-size: 24px;
        font-family: GTAmerica-Light, GT America;
      }

      .cls-75, .cls-90 {
        font-weight: 300;
      }

      .cls-76 {
        letter-spacing: -0.009em;
      }

      .cls-77 {
        letter-spacing: -0.007em;
      }

      .cls-78 {
        letter-spacing: -0.004em;
      }

      .cls-79 {
        letter-spacing: -0.015em;
      }

      .cls-80 {
        letter-spacing: -0.002em;
      }

      .cls-81 {
        letter-spacing: -0.059em;
      }

      .cls-82 {
        letter-spacing: -0.006em;
      }

      .cls-83 {
        letter-spacing: -0.005em;
      }

      .cls-84 {
        letter-spacing: 0.018em;
      }

      .cls-85 {
        letter-spacing: 0.008em;
      }

      .cls-86 {
        stroke-dasharray: 0 6.144;
      }

      .cls-87 {
        stroke-dasharray: 0 6.045;
      }

      .cls-89 {
        stroke-dasharray: 0 6.162;
      }

      .cls-90 {
        font-size: 30px;
        font-family: GTAmerica-LightItalic, GT America;
        font-style: italic;
      }

      .cls-91 {
        letter-spacing: -0.014em;
      }

      .cls-92 {
        letter-spacing: -0.01em;
      }

      .cls-93 {
        letter-spacing: -0.019em;
      }

      .cls-94 {
        letter-spacing: -0.012em;
      }

      .cls-95 {
        letter-spacing: 0.028em;
      }

      .cls-96 {
        letter-spacing: -0.018em;
      }

      .cls-97 {
        letter-spacing: -0.016em;
      }

      .cls-98 {
        letter-spacing: -0.008em;
      }

      .cls-99 {
        letter-spacing: -0.017em;
      }
    </style>
    <clipPath id="clip-Plan_de_travail_22">
      <rect width="1190.55" height="841.89"/>
    </clipPath>
  </defs>
  <g id="Plan_de_travail_22" data-name="Plan de travail 22" class="cls-1">
    <rect class="cls-54" width="1190.55" height="841.89"/>
    <g id="Groupe_11" data-name="Groupe 11" class="cls-2" transform="translate(-1210.55 -1723.78)">
      <path id="Tracé_10" data-name="Tracé 10" class="cls-3" d="M1986.109,2100.22l20.977,7.088-19.276,57.045-48.213-14.969,18.449-58.517-19.949-7.088,15.13-48.188,48.756,15.874Zm-52.1,115.258-16.22,48.586-20.743-6.8-19.418,57.487-48.614-16.156,19.049-57.629,21.118,6.945,16.186-48.643Zm165.8,21.967-55.956-18.736,13.124-38.948,84.473,28.743-28.063-81.071-41.1,2.354-3.855-61.654-19.729-6.747,13.1-38.92,8.556,2.889c-.767-15.889-1.327-26.9-1.327-26.9l-51.667,9.922-95.877-32.315-36.453,108.34,52.894,18.227-18.567,56.834-53.007-17.858-53.788,160.442s146.112,45.521,147.342,45.707l15.948-47.125,105.7,34.668,23.045-28.149Z"/>
      <rect id="Rectangle_39" data-name="Rectangle 39" class="cls-4" width="346.89" height="379.691" transform="translate(1803.558 1969.065)"/>
    </g>
    <g id="Groupe_12" data-name="Groupe 12" class="cls-2" transform="translate(-1210.55 -1723.78)">
      <path id="Tracé_11" data-name="Tracé 11" class="cls-3" d="M1828.928,2298.93l-13.89-4.678,51.506-153.156,52.724,17.717,18.425-56.834-53.007-18.143,36.737-107.886,74.891,25.626-2.551,47.055-40.819-13.039-15.081,48.188,20.183,7.371-18.142,58.234,48.189,14.969s-10.063,20.056-19.559,30.262c-5.788,6.218-34.724,20.834-34.724,20.834l-48.756-16.583-15.924,49.456-21.068-7.5Z"/>
      <rect id="Rectangle_40" data-name="Rectangle 40" class="cls-4" width="199.276" height="330.981" transform="translate(1806.038 1968.949)"/>
    </g>
    <g id="Groupe_13" data-name="Groupe 13" class="cls-2" transform="translate(-1210.55 -1723.78)">
      <path id="Tracé_12" data-name="Tracé 12" class="cls-3" d="M1977.322,2300.348s-5.1-35.434-3.543-43.938,40.11-85.322,44.787-87.591,39.26,10.972,39.26,10.972l-12.9,38.776,55.418,18.568,4.252,70.016-22.366,27.127Z"/>
      <rect id="Rectangle_41" data-name="Rectangle 41" class="cls-4" width="149.115" height="173.718" transform="translate(1964.482 2161.559)"/>
    </g>
    <g id="Groupe_14" data-name="Groupe 14" class="cls-2" transform="translate(-1210.55 -1723.78)">
      <path id="Tracé_13" data-name="Tracé 13" class="cls-3" d="M2072.991,2130.693s-32.4,10.914-41.217,5.527-20.862-119.053-19.586-122.6,6.945-4.821,9.5-4.252,40.252,12.473,40.252,12.473l-13.465,39.683,20.977,7.512Z"/>
      <rect id="Rectangle_42" data-name="Rectangle 42" class="cls-4" width="78.897" height="136.475" transform="translate(2003.094 2002.24)"/>
    </g>
    <g id="Groupe_15" data-name="Groupe 15" class="cls-5" transform="translate(-1210.55 -1723.78)">
      <path id="Tracé_14" data-name="Tracé 14" class="cls-6" d="M2076.534,2027.371l31.068,10.545,5.669,89.4-40.989,2.524-.964-14.514"/>
      <rect id="Rectangle_43" data-name="Rectangle 43" class="cls-4" width="65.101" height="115.488" transform="translate(2059.824 2018.004)"/>
    </g>
    <g id="Groupe_16" data-name="Groupe 16" class="cls-5" transform="translate(-1210.55 -1723.78)">
      <path id="Tracé_15" data-name="Tracé 15" class="cls-6" d="M2043.936,2218.795l13.039-39.063,83.2,28.065,7.54,118.119-47.553,59.188-137.124-45.469,2.721-8.5"/>
      <rect id="Rectangle_44" data-name="Rectangle 44" class="cls-4" width="208.369" height="219.461" transform="translate(1950.9 2169.563)"/>
    </g>
    <g id="Groupe_17" data-name="Groupe 17" class="cls-2" transform="translate(-1210.55 -1723.78)">
      <rect id="Rectangle_45" data-name="Rectangle 45" class="cls-4" width="18" height="8" transform="translate(2048.33 2174.047)"/>
    </g>
    <g id="Groupe_18" data-name="Groupe 18" class="cls-2" transform="translate(-1210.55 -1723.78)">
      <rect id="Rectangle_46" data-name="Rectangle 46" class="cls-4" width="18" height="8" transform="translate(2049.109 2174.047)"/>
    </g>
    <g id="Groupe_19" data-name="Groupe 19" class="cls-2" transform="translate(-1210.55 -1723.78)">
      <rect id="Rectangle_47" data-name="Rectangle 47" class="cls-4" width="18" height="8" transform="translate(2049.109 2174.047)"/>
    </g>
    <g id="Groupe_20" data-name="Groupe 20" class="cls-5" transform="translate(-1210.55 -1723.78)">
      <path id="Tracé_16" data-name="Tracé 16" class="cls-6" d="M2102.33,2336.692"/>
      <rect id="Rectangle_48" data-name="Rectangle 48" class="cls-4" width="18" height="8" transform="translate(2093.33 2329.691)"/>
    </g>
    <g id="Groupe_21" data-name="Groupe 21" class="cls-7" transform="translate(-1210.55 -1723.78)">
      <path id="Tracé_17" data-name="Tracé 17" d="M1636.1,2526.834l21.614-58.277-15.59-5.789,19.842-55.131,70.158,25.511-18.78,53.5-10.63-2.74-15.236,42.922Z"/>
      <rect id="Rectangle_49" data-name="Rectangle 49" class="cls-4" width="114.024" height="127.197" transform="translate(1627.101 2400.637)"/>
    </g>
    <g id="Groupe_22" data-name="Groupe 22" class="cls-7" transform="translate(-1210.55 -1723.78)">
      <path id="Tracé_18" data-name="Tracé 18" d="M1821.948,2526.834l1.283-4.109-5.358-1.758,16.3-56.211,96.378,28.629-9.921,33.449Z"/>
      <rect id="Rectangle_50" data-name="Rectangle 50" class="cls-4" width="130.677" height="70.078" transform="translate(1808.873 2457.756)"/>
    </g>
    <g id="Groupe_23" data-name="Groupe 23" class="cls-7" transform="translate(-1210.55 -1723.78)">
      <path id="Tracé_19" data-name="Tracé 19" d="M2006.377,2526.834h47.906l-45.638-10.205Z"/>
      <rect id="Rectangle_51" data-name="Rectangle 51" class="cls-4" width="65.905" height="18.205" transform="translate(1997.377 2509.629)"/>
    </g>
    <g id="Groupe_24" data-name="Groupe 24" class="cls-2" transform="translate(-1210.55 -1723.78)">
      <path id="Tracé_20" data-name="Tracé 20" class="cls-3" d="M1767.558,2450.272l51.732,15.9-4.535,14.6-19.984-5.527-14.1,51.59h-34.016l5.882-16.555,17.8,3.629,13.521-41.924-20.834-6.52Z"/>
      <rect id="Rectangle_52" data-name="Rectangle 52" class="cls-4" width="90.638" height="84.562" transform="translate(1737.652 2443.272)"/>
    </g>
    <g id="Groupe_25" data-name="Groupe 25" class="cls-2" transform="translate(-1210.55 -1723.78)">
      <path id="Tracé_21" data-name="Tracé 21" class="cls-3" d="M1633.33,2387.855l2.771,2.064-2.771,7.088,13.756,5.811-10.489,27.963-3.267-.444Z"/>
      <rect id="Rectangle_53" data-name="Rectangle 53" class="cls-4" width="31.755" height="50.925" transform="translate(1624.33 2380.856)"/>
    </g>
    <g id="Groupe_26" data-name="Groupe 26" class="cls-2" transform="translate(-1210.55 -1723.78)">
      <path id="Tracé_22" data-name="Tracé 22" class="cls-3" d="M1935.156,2526.834h55.63l4.721-27.779-49.934-10.5Z"/>
      <rect id="Rectangle_54" data-name="Rectangle 54" class="cls-4" width="78.351" height="46.281" transform="translate(1926.156 2481.553)"/>
    </g>
    <g id="Groupe_27" data-name="Groupe 27" class="cls-2" transform="translate(-1210.55 -1723.78)">
      <path id="Tracé_23" data-name="Tracé 23" class="cls-3" d="M1874.211,2430.781l5.315-34.625,245.48,68.6-1.7,8.5Z"/>
      <rect id="Rectangle_55" data-name="Rectangle 55" class="cls-4" width="268.796" height="85.104" transform="translate(1865.211 2389.156)"/>
    </g>
    <g id="Groupe_28" data-name="Groupe 28" class="cls-2" transform="translate(-1210.55 -1723.78)">
      <path id="Tracé_24" data-name="Tracé 24" class="cls-3" d="M1851.18,2382.147l-13.465,41.789-204.534-75.471-.5-29.41Z"/>
      <rect id="Rectangle_56" data-name="Rectangle 56" class="cls-4" width="236.499" height="112.881" transform="translate(1623.681 2312.055)"/>
    </g>
    <g id="Groupe_29" data-name="Groupe 29" class="cls-8" transform="translate(-1210.55 -1723.78)">
      <line id="Ligne_2" data-name="Ligne 2" class="cls-9" x1="111.479" y2="315.627" transform="translate(1785.071 1991.571)"/>
      <path id="Tracé_25" data-name="Tracé 25" class="cls-10" d="M1902.44,1974.894l-32.821,17.182,47.571,16.8Z"/>
      <path id="Tracé_26" data-name="Tracé 26" class="cls-10" d="M1779.18,2323.875,1812,2306.692l-47.571-16.8Z"/>
      <rect id="Rectangle_57" data-name="Rectangle 57" class="cls-4" width="170.759" height="356.981" transform="translate(1755.43 1967.894)"/>
    </g>
    <g id="Groupe_30" data-name="Groupe 30" class="cls-2" transform="translate(-1210.55 -1723.78)">
      <path id="Tracé_27" data-name="Tracé 27" class="cls-3" d="M2030.195,1866.685c3.118,3.118,4.575,5.95,7.087,14.74,1.133,3.968-.851,18.709-5.953,28.063-6.288,11.528-13.323,22.394-10.772,28.063,2.473,5.5,11.622,7.37,14.457,17.008,3.056,10.391.85,17.292-10.488,23.811s-25.546-8.005-50.139-12.756c-24.945-4.819-39.153-10.533-51.909-19.037-14.518-9.679-15.07-19.028-11.388-31.845,3.664-12.755,10.042-22.677,18.192-33.874,4.407-6.055,8.787-14.173,24.378-17.574,19.388-4.231,32.881-1.135,51.023-1.135s22.394,1.418,25.512,4.536"/>
      <rect id="Rectangle_58" data-name="Rectangle 58" class="cls-4" width="146.409" height="126.968" transform="translate(1900.175 1854.057)"/>
    </g>
    <g id="Groupe_31" data-name="Groupe 31" class="cls-2" transform="translate(-1210.55 -1723.78)">
      <path id="Tracé_28" data-name="Tracé 28" d="M2145.707,2104.086l7.512-1.7,31.464,167.669h-7.37Z"/>
      <rect id="Rectangle_59" data-name="Rectangle 59" class="cls-4" width="56.977" height="175.669" transform="translate(2136.706 2095.386)"/>
    </g>
    <g id="Groupe_32" data-name="Groupe 32" class="cls-2" transform="translate(-1210.55 -1723.78)">
      <path id="Tracé_29" data-name="Tracé 29" d="M2172.494,2098.559l12.189-2.551L2217,2263.535l-12.756,2.552Z"/>
      <rect id="Rectangle_60" data-name="Rectangle 60" class="cls-4" width="62.506" height="178.079" transform="translate(2163.494 2089.008)"/>
    </g>
    <g id="Groupe_33" data-name="Groupe 33" class="cls-2" transform="translate(-1210.55 -1723.78)">
      <path id="Tracé_30" data-name="Tracé 30" d="M2236.84,2259.851l13.606-2.268-31.464-167.527-13.606,2.551Z"/>
      <rect id="Rectangle_61" data-name="Rectangle 61" class="cls-4" width="63.074" height="177.796" transform="translate(2196.376 2083.055)"/>
    </g>
    <path id="Tracé_31" data-name="Tracé 31" class="cls-11" d="M2152.414,1861.532c.535,3.52,13.114,86.228,13.114,88.775,0,2.3-.617,24.591-1.778,30.4-.439,2.194-2.219,8.673-4.472,16.876-3.575,13.015-8.025,29.212-9.417,36.694a63.385,63.385,0,0,0,0,25.677c.29,1.671,3.4,18.333,7.71,41.394,12.762,68.323,36.516,195.5,36.939,200.574l.15,1.774a119.168,119.168,0,0,1,.417,21.382c-.822,10.005-4.618,27.13-8.958,36.678-3.5,7.709-20.463,30.219-31.861,38.121-13.592,9.421-28.637,16.177-39.263,17.63-14.108,1.93-29.722,3.266-48.292,0-2.273-.4-7.028-1.211-13.1-2.247-18.8-3.209-50.26-8.58-59.482-10.511-12.063-2.524-24.284-6.206-24.406-6.243l-336.341-105.205" transform="translate(-1210.55 -1723.78)"/>
    <path id="Tracé_32" data-name="Tracé 32" class="cls-11" d="M2151.755,1861.633c.131.861,13.106,86.177,13.106,88.674,0,2.876-.668,24.782-1.765,30.265-.434,2.172-2.3,8.965-4.461,16.831-3.578,13.026-8.032,29.239-9.429,36.749a63.958,63.958,0,0,0,0,25.913c.291,1.675,3.4,18.339,7.712,41.4,12.759,68.313,36.51,195.467,36.93,200.507l.15,1.776a118.747,118.747,0,0,1,.417,21.271c-.818,9.948-4.589,26.971-8.9,36.457-3.478,7.653-20.317,30-31.634,37.847-13.511,9.366-28.444,16.079-38.973,17.519-14.054,1.923-29.606,3.254-48.086,0-2.273-.4-7.029-1.212-13.1-2.248-18.793-3.209-50.248-8.578-59.458-10.506-12.035-2.519-24.228-6.192-24.349-6.229l-336.335-105.2" transform="translate(-1210.55 -1723.78)"/>
    <path id="Tracé_33" data-name="Tracé 33" class="cls-11" d="M2164.036,1861.532c.108.709,10.782,70.953,11.623,77.964.938,7.809,1.936,27.553,0,37.8-.783,4.14-3.178,12.641-5.951,22.484-4.223,14.99-9.009,31.98-9.351,38.134-.553,9.955,2.651,31.421,3.963,37.9.413,2.043,42.223,219.128,43.092,233.9.691,11.738-.67,30.276-4.553,41.514-4.761,13.782-9.536,23.026-17.62,34.1-6.713,9.2-25.06,25.54-33.847,30.146-8.617,4.517-26.552,11.952-40.644,13.925-14.264,2-22.806,1.125-32.7.116-2.248-.229-4.574-.467-7.065-.681-17.675-1.524-53.286-8.091-65.516-10.494-15.71-3.086-368.675-113.172-372.239-114.284" transform="translate(-1210.55 -1723.78)"/>
    <path id="Tracé_34" data-name="Tracé 34" class="cls-11" d="M2163.377,1861.633c.108.708,10.781,70.942,11.621,77.942.933,7.776,1.929,27.421,0,37.6-.778,4.111-3.284,13.008-5.938,22.427-4.232,15.023-9.028,32.05-9.374,38.277-.557,10.015,2.658,31.567,3.974,38.069,2.037,10.063,42.249,219.665,43.081,233.812.686,11.673-.664,30.1-4.518,41.258-4.737,13.713-9.488,22.908-17.529,33.927-6.67,9.141-24.893,25.375-33.618,29.95-8.575,4.494-26.418,11.892-40.426,13.854-14.185,1.986-22.689,1.117-32.535.113-2.251-.23-4.581-.467-7.076-.682-17.645-1.522-53.224-8.083-65.444-10.484-15.675-3.079-368.6-113.155-372.169-114.266" transform="translate(-1210.55 -1723.78)"/>
    <path id="Tracé_35" data-name="Tracé 35" class="cls-11" d="M2165.523,1949.4c.787,4.328,78.688,432.963,81.138,443.463,2.535,10.865,19.356,45.689,27.309,57.791,7.566,11.514,44.909,80.163,48.577,90.068" transform="translate(-1210.55 -1723.78)"/>
    <path id="Tracé_36" data-name="Tracé 36" class="cls-11" d="M2164.867,1949.516c.787,4.329,78.69,432.98,81.144,443.5,2.547,10.914,19.424,45.866,27.4,58.005,8.464,12.88,45.187,80.96,48.51,89.933" transform="translate(-1210.55 -1723.78)"/>
    <path id="Tracé_37" data-name="Tracé 37" class="cls-11" d="M2177.287,1899.468c.779,4.3,77.919,429.692,80.28,436.773.776,2.33,1.214,3.935,1.677,5.634a131.106,131.106,0,0,0,5.191,15.327c2.414,6.217,19.439,37.617,35.9,67.983,15.2,28.033,29.555,54.51,30.927,58.453" transform="translate(-1210.55 -1723.78)"/>
    <path id="Tracé_38" data-name="Tracé 38" class="cls-11" d="M2176.63,1899.588c3.181,17.543,77.927,429.739,80.3,436.865.771,2.312,1.206,3.908,1.666,5.6a131.859,131.859,0,0,0,5.214,15.394c2.429,6.256,19.464,37.675,35.939,68.06,15.186,28.007,29.529,54.461,30.883,58.353" transform="translate(-1210.55 -1723.78)"/>
    <path id="Tracé_39" data-name="Tracé 39" class="cls-11" d="M2089.2,2419.316c6.19.825,151.753,20.268,164.865,25.326,13.753,5.3,32.81,16.418,39.983,23.316" transform="translate(-1210.55 -1723.78)"/>
    <path id="Tracé_40" data-name="Tracé 40" class="cls-11" d="M2089.111,2419.978c1.515.2,151.675,20.257,164.713,25.287,13.687,5.278,32.639,16.324,39.761,23.173" transform="translate(-1210.55 -1723.78)"/>
    <path id="Tracé_41" data-name="Tracé 41" class="cls-11" d="M2089.133,2430.451c6.147.821,150.628,20.173,157.78,23.843,1.678.86,3.827,1.839,6.316,2.971,8.167,3.717,19.354,8.808,27.2,15.785a97.492,97.492,0,0,1,16.5,19.351" transform="translate(-1210.55 -1723.78)"/>
    <path id="Tracé_42" data-name="Tracé 42" class="cls-11" d="M2089.045,2431.111c1.5.2,150.514,20.159,157.564,23.776,1.692.868,3.848,1.849,6.344,2.985,8.129,3.7,19.262,8.766,27.036,15.676a96.648,96.648,0,0,1,16.378,19.2" transform="translate(-1210.55 -1723.78)"/>
    <g id="Groupe_34" data-name="Groupe 34" class="cls-7" transform="translate(-1210.55 -1723.78)">
      <path id="Tracé_43" data-name="Tracé 43" d="M1803.612,2067.094l40.63,11.811-58.583,171.023-37.8-12.188Z"/>
      <rect id="Rectangle_62" data-name="Rectangle 62" class="cls-4" width="114.378" height="190.835" transform="translate(1738.864 2060.094)"/>
    </g>
    <g id="Groupe_35" data-name="Groupe 35" class="cls-7" transform="translate(-1210.55 -1723.78)">
      <path id="Tracé_44" data-name="Tracé 44" d="M1841.691,1961.362l23.244,8.22-4.252,13.323,13.89,4.819-13.039,39.969-27.213-9.355,1.984-6.519-17.008-5.67,11.679-36.283,7.6,1.984Z"/>
      <rect id="Rectangle_63" data-name="Rectangle 63" class="cls-4" width="73.276" height="74.331" transform="translate(1810.297 1954.362)"/>
    </g>
    <g id="Groupe_36" data-name="Groupe 36" class="cls-7" transform="translate(-1210.55 -1723.78)">
      <path id="Tracé_45" data-name="Tracé 45" d="M2078.1,1861.507l-3.118,14.249,7.724,27.992,9.567,13.11-4.252,6.024-6.378,28.7-28.771,6.024-3.473-6.024-22.323-16.3,7.8-12.047,10.63-55.984-8.5-5.67Z"/>
      <rect id="Rectangle_64" data-name="Rectangle 64" class="cls-4" width="83.196" height="104.1" transform="translate(2018.077 1854.507)"/>
    </g>
    <rect id="Rectangle_65" data-name="Rectangle 65" class="cls-4" width="1190.551" height="841.89"/>
    <line id="Ligne_3" data-name="Ligne 3" class="cls-12" x2="93.268" y2="31.089" transform="translate(712.679 252.95)"/>
    <line id="Ligne_4" data-name="Ligne 4" class="cls-13" y1="30.896" x2="159.49" transform="translate(808.846 253.079)"/>
    <line id="Ligne_5" data-name="Ligne 5" class="cls-14" x2="7.143" y2="2.083" transform="translate(971.355 253.485)"/>
    <line id="Ligne_6" data-name="Ligne 6" class="cls-15" x2="2.976" y2="6.647" transform="translate(980.369 257.765)"/>
    <line id="Ligne_7" data-name="Ligne 7" class="cls-16" x2="75.162" y2="423.947" transform="translate(984.119 267.329)"/>
    <line id="Ligne_8" data-name="Ligne 8" class="cls-17" x1="10.479" y2="8.062" transform="translate(1047.365 693.5)"/>
    <line id="Ligne_9" data-name="Ligne 9" class="cls-18" x1="4.762" y2="5.159" transform="translate(1040.435 703.655)"/>
    <line id="Ligne_10" data-name="Ligne 10" class="cls-19" x1="5.791" y2="8.575" transform="translate(1032.911 711.11)"/>
    <line id="Ligne_11" data-name="Ligne 11" class="cls-20" x1="1.191" y1="7.242" transform="translate(1030.854 711.153)"/>
    <line id="Ligne_12" data-name="Ligne 12" class="cls-21" x1="5.209" y2="6.91" transform="translate(1024.318 711.653)"/>
    <line id="Ligne_13" data-name="Ligne 13" class="cls-22" x1="0.886" y2="0.814" transform="translate(1021.082 720.96)"/>
    <line id="Ligne_14" data-name="Ligne 14" class="cls-23" x1="2.551" y2="1.701" transform="translate(1015.944 723.724)"/>
    <line id="Ligne_15" data-name="Ligne 15" class="cls-24" x1="39.088" y1="6.054" transform="translate(974.001 719.627)"/>
    <line id="Ligne_16" data-name="Ligne 16" class="cls-25" x1="378.583" y1="108.87" transform="translate(592.489 610.048)"/>
    <line id="Ligne_17" data-name="Ligne 17" class="cls-26" y1="189.056" x2="63.321" transform="translate(592.163 418.815)"/>
    <line id="Ligne_18" data-name="Ligne 18" class="cls-27" x2="49.9" y2="16.633" transform="translate(657.685 418.493)"/>
    <line id="Ligne_19" data-name="Ligne 19" class="cls-28" y1="53.858" x2="17.773" transform="translate(709.15 379.693)"/>
    <line id="Ligne_20" data-name="Ligne 20" class="cls-29" x1="49.9" y1="17.169" transform="translate(675.452 360.93)"/>
    <line id="Ligne_21" data-name="Ligne 21" class="cls-26" y1="105.434" x2="35.329" transform="translate(675.147 253.272)"/>
    <path id="Tracé_46" data-name="Tracé 46" class="cls-30" d="M1921.345,1976.1h0m-36.284,108.283h0m52.724,18.142h0m-18.708,56.693h0m-52.725-17.575h0m-64.275,191.905h0m381.472,109.7h0m42.095,6.52h0m5.1-3.4h0m3.543-3.259h0m6.945-9.213h0m1.7,10.346h0m7.37-10.913h0m6.8-7.37h0m12.9-9.922h0m-75.685-426.9h0m-4.252-9.5h0m-10.205-2.976h0m-162.425,31.464h0" transform="translate(-1210.55 -1723.78)"/>
    <g id="Groupe_37" data-name="Groupe 37" class="cls-31" transform="translate(-1210.55 -1723.78)">
      <path id="Tracé_47" data-name="Tracé 47" class="cls-32" d="M1980.272,2481.524l-9.76-2.179m10.887-2.87-9.76-2.179m10.887-2.87-9.76-2.179m10.887-2.869-9.76-2.179m10.887-2.87-9.76-2.178m10.887-2.869-9.76-2.18m10.887-2.869-9.76-2.179m10.887-2.87L1978.4,2444m10.887-2.869-9.76-2.179m10.887-2.87-9.76-2.179m10.887-2.87-9.76-2.178m10.887-2.869-9.76-2.179m10.887-2.87-9.76-2.179m10.887-2.869-9.76-2.18m10.887-2.869-9.76-2.179"/>
      <path id="Tracé_48" data-name="Tracé 48" class="cls-33" d="M1993.628,2398.748l-19.082,13.115,30.775,6.87Z"/>
      <path id="Tracé_49" data-name="Tracé 49" class="cls-33" d="M1972.935,2491.442l19.082-13.115-30.775-6.871Z"/>
      <rect id="Rectangle_66" data-name="Rectangle 66" class="cls-4" width="122.186" height="168.504" transform="translate(1922.188 2357.843)"/>
    </g>
    <g id="Groupe_38" data-name="Groupe 38" class="cls-31" transform="translate(-1210.55 -1723.78)">
      <path id="Tracé_50" data-name="Tracé 50" class="cls-32" d="M1753.7,2421.09l-9.536-3.01m11.066-1.834-9.536-3.012m11.066-1.833-9.536-3.012m11.066-1.834-9.536-3.011m11.066-1.834-9.536-3.01m11.066-1.834-9.536-3.012m11.066-1.833-9.536-3.013m11.066-1.832-9.536-3.012m11.066-1.834-9.536-3.01m11.065-1.834-9.535-3.012m11.065-1.833-9.535-3.011m11.065-1.835-9.536-3.01m11.066-1.834-9.536-3.012m11.066-1.833-9.536-3.012m11.066-1.834-9.536-3.011m11.066-1.834-9.536-3.01m11.066-1.833-9.536-3.012m11.066-1.834-9.536-3.012"/>
      <path id="Tracé_51" data-name="Tracé 51" class="cls-33" d="M1778.336,2326.465l-20.141,11.423,30.069,9.5Z"/>
      <path id="Tracé_52" data-name="Tracé 52" class="cls-33" d="M1745.535,2430.339l20.141-11.423-30.069-9.494Z"/>
      <rect id="Rectangle_67" data-name="Rectangle 67" class="cls-4" width="142.759" height="195.351" transform="translate(1690.896 2277.746)"/>
    </g>
    <g id="Groupe_39" data-name="Groupe 39" class="cls-31" transform="translate(-1210.55 -1723.78)">
      <path id="Tracé_53" data-name="Tracé 53" class="cls-32" d="M2199.41,2509.276l-10,.171m9.91-5.343-10,.171m9.91-5.342-10,.171m9.909-5.344-10,.171m9.91-5.344-10,.173m9.91-5.344-10,.171m9.909-5.344-10,.172m9.91-5.344-10,.171m9.91-5.344-10,.172m9.91-5.342-10,.171m9.909-5.343-10,.17m9.91-5.344-10,.173m9.91-5.344-10,.171m9.91-5.344-10,.173m9.91-5.344-10,.171m9.91-5.344-10,.171m9.91-5.343-10,.172m9.909-5.343-10,.17m9.91-5.342-10,.171m9.91-5.344-10,.171m9.91-5.344-10,.173"/>
      <path id="Tracé_54" data-name="Tracé 54" class="cls-33" d="M2194.6,2520.639l15.473-17.226-31.528.54Z"/>
      <rect id="Rectangle_68" data-name="Rectangle 68" class="cls-4" width="150.535" height="216.712" transform="translate(2117.785 2346.322)"/>
    </g>
    <g id="Groupe_40" data-name="Groupe 40" class="cls-31" transform="translate(-1210.55 -1723.78)">
      <path id="Tracé_55" data-name="Tracé 55" class="cls-32" d="M2173.565,2388.721l6.15-7.886m-2.153,11,6.149-7.886m-2.152,11,6.149-7.885m-2.152,11,6.149-7.886m2.852,9.782-3.169-9.485m7.966,7.889-3.144-9.493m7.946,7.909-3.122-9.5m7.926,7.93-3.095-9.509m7.9,7.952-3.068-9.517m7.874,7.979-3.026-9.531m7.838,8.013-2.984-9.545m7.8,8.053-2.928-9.562m7.743,8.1-2.855-9.584m7.654,8.189-2.72-9.623m7.467,8.343-2.427-9.7m6.878,8.787-1.4-9.9m6.113,9.36-.754-9.971m5.38,9.826.121-10m4.911,10.156.188-10m4.974,10.012v-10m5.069,10v-10m5.068,10v-10m5.068,10v-10m5.069,10v-10m5.069,10v-10m5.068,10v-10m5.068,10v-10m5.068,10v-10m5.068,10v-10m5.069,10v-10m5.069,10v-10"/>
      <path id="Tracé_56" data-name="Tracé 56" class="cls-33" d="M2333.573,2378.551l-16.958-15.766v31.533Z"/>
      <path id="Tracé_57" data-name="Tracé 57" class="cls-33" d="M2167.746,2377.843l3.677,22.86,19.391-24.865Z"/>
      <rect id="Rectangle_69" data-name="Rectangle 69" class="cls-4" width="253.328" height="114.07" transform="translate(2122.902 2326.843)"/>
    </g>
    <g id="Groupe_41" data-name="Groupe 41" class="cls-31" transform="translate(-1210.55 -1723.78)">
      <path id="Tracé_58" data-name="Tracé 58" class="cls-34" d="M1825.108,2327.882"/>
      <rect id="Rectangle_70" data-name="Rectangle 70" class="cls-4" width="18" height="8" transform="translate(1816.108 2320.882)"/>
    </g>
    <g id="Groupe_42" data-name="Groupe 42" class="cls-2" transform="translate(-1210.55 -1723.78)">
      <line id="Ligne_22" data-name="Ligne 22" class="cls-35" y1="30.578" x2="10.29" transform="translate(2050.569 2025.248)"/>
      <line id="Ligne_23" data-name="Ligne 23" class="cls-36" x2="37.242" y2="12.574" transform="translate(2067.524 2024.402)"/>
      <line id="Ligne_24" data-name="Ligne 24" class="cls-37" x2="5.128" y2="80.439" transform="translate(2108.01 2043.902)"/>
      <line id="Ligne_25" data-name="Ligne 25" class="cls-38" x1="32.25" y2="1.937" transform="translate(2075.214 2127.674)"/>
      <line id="Ligne_26" data-name="Ligne 26" class="cls-39" x1="3.277" y1="52.404" transform="translate(2068.62 2071.217)"/>
      <line id="Ligne_27" data-name="Ligne 27" class="cls-40" x1="9.865" y1="3.373" transform="translate(2051.986 2062.512)"/>
      <path id="Tracé_59" data-name="Tracé 59" class="cls-41" d="M2048.7,2061.387h0m19.729,6.746h0m3.855,61.654h0m41.046-2.466h0m-5.7-89.377h0m-45.836-15.477h0"/>
      <rect id="Rectangle_71" data-name="Rectangle 71" class="cls-4" width="85.63" height="118.32" transform="translate(2038.198 2013.967)"/>
    </g>
    <g id="Groupe_43" data-name="Groupe 43" class="cls-8" transform="translate(-1210.55 -1723.78)">
      <path id="Tracé_60" data-name="Tracé 60" class="cls-33" d="M2122.538,2037.7c16.213,4.969,28.712-17.9,27.635-36.447-1.118-19.268-12.414-13.469-30.8-10.9-15.192,2.127-44.245,7.59-44.884,16.727s33.391,26.127,48.045,30.617"/>
      <rect id="Rectangle_72" data-name="Rectangle 72" class="cls-4" width="97.349" height="66.07" transform="translate(2063.52 1975.432)"/>
    </g>
    <g id="Groupe_44" data-name="Groupe 44" class="cls-8" transform="translate(-1210.55 -1723.78)">
      <path id="Tracé_61" data-name="Tracé 61" class="cls-33" d="M2166.518,2269.246c-13.11-10.16,4.637,26.941-14.7,65.045-21.543,42.459-61.383,57.785-49.493,70.6,16.016,17.27,74.126-28.439,80.788-54.093,10.937-42.118-4.749-72.371-16.6-81.557"/>
      <rect id="Rectangle_73" data-name="Rectangle 73" class="cls-4" width="111.64" height="162.105" transform="translate(2089.761 2260.884)"/>
    </g>
    <g id="Groupe_45" data-name="Groupe 45" class="cls-2" transform="translate(-1210.55 -1723.78)">
      <line id="Ligne_28" data-name="Ligne 28" class="cls-42" x2="6.922" y2="109.287" transform="translate(2140.574 2213.676)"/>
      <line id="Ligne_29" data-name="Ligne 29" class="cls-43" x1="42.042" y2="52.48" transform="translate(2101.986 2330.48)"/>
      <line id="Ligne_30" data-name="Ligne 30" class="cls-44" x1="128.525" y1="42.756" transform="translate(1965.922 2340.586)"/>
      <line id="Ligne_31" data-name="Ligne 31" class="cls-45" y1="30.648" x2="10.043" transform="translate(1964.892 2303.417)"/>
      <line id="Ligne_32" data-name="Ligne 32" class="cls-46" x2="97.359" y2="31.932" transform="translate(1981.411 2302.455)"/>
      <line id="Ligne_33" data-name="Ligne 33" class="cls-47" y1="21.111" x2="17.284" transform="translate(2085.393 2309.497)"/>
      <line id="Ligne_34" data-name="Ligne 34" class="cls-48" x1="4.192" y1="60.99" transform="translate(2100.006 2240.352)"/>
      <line id="Ligne_35" data-name="Ligne 35" class="cls-49" x1="47.563" y1="15.926" transform="translate(2046.648 2219.646)"/>
      <line id="Ligne_36" data-name="Ligne 36" class="cls-50" y1="30.604" x2="10.312" transform="translate(2045.726 2182.543)"/>
      <line id="Ligne_37" data-name="Ligne 37" class="cls-51" x2="74.903" y2="25.205" transform="translate(2062.523 2181.629)"/>
      <path id="Tracé_62" data-name="Tracé 62" class="cls-41" d="M2140.2,2207.768h0m-83.226-28.006h0m-13.124,38.947h0m55.956,18.738h0m4.79,69.7h0m-23.045,28.149h0m-105.7-34.668h0m-12.782,39h0m137.093,45.607h0m47.525-59.326h0"/>
      <rect id="Rectangle_74" data-name="Rectangle 74" class="cls-4" width="205.618" height="216.48" transform="translate(1952.566 2171.262)"/>
    </g>
    <g id="Groupe_46" data-name="Groupe 46" class="cls-2" transform="translate(-1210.55 -1723.78)">
      <rect id="Rectangle_75" data-name="Rectangle 75" class="cls-4" width="18" height="8" transform="translate(2082.571 2274.768)"/>
    </g>
    <g id="Groupe_47" data-name="Groupe 47" class="cls-2" transform="translate(-1210.55 -1723.78)">
      <rect id="Rectangle_76" data-name="Rectangle 76" class="cls-4" width="18" height="8" transform="translate(2083.125 2275.774)"/>
    </g>
    <g id="Groupe_48" data-name="Groupe 48" class="cls-52" transform="translate(-1210.55 -1723.78)">
      <path id="Tracé_63" data-name="Tracé 63" class="cls-53" d="M2143.951,1975.584l-123.115,24.769-281.912-99.918"/>
      <path id="Tracé_64" data-name="Tracé 64" class="cls-10" d="M2161.29,1972.1l-31.574-19.379,9.95,49.461Z"/>
      <path id="Tracé_65" data-name="Tracé 65" class="cls-10" d="M1722.254,1894.526l17.146,32.84,16.854-47.552Z"/>
      <rect id="Rectangle_77" data-name="Rectangle 77" class="cls-4" width="457.036" height="138.887" transform="translate(1713.254 1872.814)"/>
    </g>
    <path id="Tracé_66" data-name="Tracé 66" class="cls-54" d="M1805.421,1893.618s-12,0-12,12v39.488s0,12,12,12h24.337s12,0,12-12v-39.488s0-12-12-12Z" transform="translate(-1210.55 -1723.78)"/>
    <path id="Tracé_67" data-name="Tracé 67" class="cls-55" d="M1805.421,1893.618s-12,0-12,12v39.488s0,12,12,12h24.337s12,0,12-12v-39.488s0-12-12-12Z" transform="translate(-1210.55 -1723.78)"/>
    <path id="Tracé_68" data-name="Tracé 68" class="cls-10" d="M1823.377,1896.055h-.264a2.734,2.734,0,1,0,0,5.468h.529a2.734,2.734,0,0,0,0-5.468Z" transform="translate(-1210.55 -1723.78)"/>
    <path id="Tracé_69" data-name="Tracé 69" class="cls-10" d="M1810.672,1907.3h-.2a2.022,2.022,0,0,0,0,4.045h.392a2.022,2.022,0,0,0,0-4.045Z" transform="translate(-1210.55 -1723.78)"/>
    <path id="Tracé_70" data-name="Tracé 70" class="cls-10" d="M1824.182,1924.315v-7.179h-1.55v7.179l-.019.212-.094.19-.1.19-.157.143-.157.143-.2.076-.2.077h-.424l-.2-.077-.2-.076-.157-.143-.156-.143-.1-.19-.094-.19-.019-.212v-7.179a3.381,3.381,0,0,1-1.584-.277q-.667-3.038.48-10.96a20.222,20.222,0,0,0-2.861,8.033l-.053.149-.1.122-.1.119-.14.073-.139.074-.158.017-.157.019-.153-.041-.153-.041-.127-.093-.127-.095-.085-.134-.085-.132-.03-.156-.03-.156.029-.155q1.88-10.727,8-11.125c.126-.006.253-.012.381-.012l.986-.013,0,.036q6,.51,7.859,11.114l.029.155-.03.156-.03.156-.085.132-.084.134-.128.095-.127.093-.153.041-.153.041-.156-.019-.158-.017-.14-.074-.139-.073-.1-.119-.1-.122-.053-.149a20.238,20.238,0,0,0-2.86-8.033q1.146,7.923.481,10.96a3.4,3.4,0,0,1-1.586.277v7.179l-.019.212-.094.19-.095.19-.157.143-.157.143-.2.076-.2.077h-.424l-.2-.077-.2-.076-.157-.143-.156-.143-.095-.19-.095-.19Zm-1.01-21.944.986-.019-.986.013Z" transform="translate(-1210.55 -1723.78)"/>
    <rect id="Rectangle_78" data-name="Rectangle 78" class="cls-4" width="1190.551" height="841.89"/>
    <path id="Tracé_71" data-name="Tracé 71" class="cls-10" d="M1813.015,1925.085v-10.728l1.564.822.135.032.138-.009.139-.006.131-.046.132-.045.113-.078.115-.08.087-.106.089-.108.055-.128.056-.127.018-.137.019-.138-.02-.136-.02-.139-.056-.125-.056-.128-.089-.106-.09-.106-.114-.08-.115-.078-.131-.043-.132-.043-.138-.007-2.026-1.066h-4.479l-2.8,5.94-.057.181.012.188.013.189.081.17.081.171.139.13.138.13.176.069.177.069.189,0h.189l.175-.069.177-.071.137-.13.137-.13.08-.171.955-1.717v7.992l.09.119.116.1.115.1.135.067.134.067.146.034.147.035h.3l.148-.035.145-.034.135-.067.134-.067.116-.1.115-.1.09-.119v-5.619h.448v5.619l.091.13.12.106.12.106.141.073.141.076.156.037.154.039h.32l.155-.039.156-.037.141-.076.142-.073.119-.106.12-.106Z" transform="translate(-1210.55 -1723.78)"/>
    <rect id="Rectangle_79" data-name="Rectangle 79" class="cls-10" width="36.679" height="2.126" transform="translate(588.7 203.483)"/>
    <path id="Tracé_72" data-name="Tracé 72" class="cls-56" d="M1824.323,1933.728l-2.611-1.52c-.259-.153-.3-.385-.113-.7h3.618q.393-.395,1.775-.017.83,1.354-.677,1.736Zm4.842,12.226h-7.537m2.153-10.317,5.384,10.317m-10.23-.543,5.385-11.946m-13.461,2.172,8.076,9.774m-8.076-9.774h12.922m-15.614-3.8h3.769l-5.384,14.117m18.719-6.005h0a6.687,6.687,0,0,0-2.951,8.339,6.588,6.588,0,0,0,7.87,3.921,6.662,6.662,0,0,0-1.995-13.07m-19.221.428h0a6.571,6.571,0,0,0-7.969,2.746,6.7,6.7,0,0,0,1.193,8.407,6.56,6.56,0,0,0,8.414.382,6.693,6.693,0,0,0,1.937-8.265m0,0-.177-.36-.22-.336-.217-.336-.257-.307" transform="translate(-1210.55 -1723.78)"/>
    <g id="Groupe_49" data-name="Groupe 49" class="cls-52" transform="translate(-1210.55 -1723.78)">
      <line id="Ligne_38" data-name="Ligne 38" class="cls-53" y1="21.971" x2="93.688" transform="translate(2275.454 1931.143)"/>
      <path id="Tracé_73" data-name="Tracé 73" class="cls-10" d="M2258.235,1957.152l32.175,18.365-11.519-49.119Z"/>
      <path id="Tracé_74" data-name="Tracé 74" class="cls-10" d="M2386.361,1927.105l-32.175-18.365,11.519,49.119Z"/>
      <rect id="Rectangle_80" data-name="Rectangle 80" class="cls-4" width="146.13" height="74.776" transform="translate(2249.23 1901.741)"/>
    </g>
    <g id="Groupe_50" data-name="Groupe 50" class="cls-8" transform="translate(-1210.55 -1723.78)">
      <line id="Ligne_39" data-name="Ligne 39" class="cls-57" y1="9.563" x2="61.199" transform="translate(2178.879 1959.822)"/>
      <path id="Tracé_75" data-name="Tracé 75" class="cls-10" d="M2168.66,1970.982l19.188,12.959-4.868-31.154Z"/>
      <path id="Tracé_76" data-name="Tracé 76" class="cls-10" d="M2250.3,1958.226l-19.188-12.959,4.867,31.154Z"/>
      <rect id="Rectangle_81" data-name="Rectangle 81" class="cls-4" width="99.64" height="46.674" transform="translate(2159.66 1938.267)"/>
    </g>
    <g id="Groupe_51" data-name="Groupe 51" class="cls-2" transform="translate(-1210.55 -1723.78)">
      <line id="Ligne_40" data-name="Ligne 40" class="cls-58" x2="40.63" y2="13.229" transform="translate(1958.645 2037.355)"/>
      <line id="Ligne_41" data-name="Ligne 41" class="cls-58" x1="13.228" y2="40.629" transform="translate(1986.991 2056.883)"/>
      <line id="Ligne_42" data-name="Ligne 42" class="cls-59" x2="13.11" y2="4.43" transform="translate(1991.353 2101.992)"/>
      <line id="Ligne_43" data-name="Ligne 43" class="cls-60" x1="16.384" y2="48.49" transform="translate(1988.774 2113.012)"/>
      <line id="Ligne_44" data-name="Ligne 44" class="cls-61" x1="39.173" y1="12.162" transform="translate(1942.61 2150.321)"/>
      <line id="Ligne_45" data-name="Ligne 45" class="cls-62" y1="49.74" x2="15.682" transform="translate(1941.442 2093.793)"/>
      <line id="Ligne_46" data-name="Ligne 46" class="cls-63" x1="12.468" y1="4.43" transform="translate(1940.591 2084.666)"/>
      <line id="Ligne_47" data-name="Ligne 47" class="cls-64" y1="39.152" x2="12.293" transform="translate(1939.988 2038.604)"/>
      <path id="Tracé_77" data-name="Tracé 77" class="cls-41" d="M1953.227,2035.592h0m-15.13,48.187h0m19.949,7.088h0m-18.449,58.518h0m48.213,14.969h0m19.275-57.045h0m-20.976-7.088h0m15.874-48.756h0"/>
      <rect id="Rectangle_82" data-name="Rectangle 82" class="cls-4" width="89.988" height="139.762" transform="translate(1927.597 2027.092)"/>
    </g>
    <g id="Groupe_52" data-name="Groupe 52" class="cls-2" transform="translate(-1210.55 -1723.78)">
      <line id="Ligne_48" data-name="Ligne 48" class="cls-58" x2="40.535" y2="13.512" transform="translate(1890.771 2201.064)"/>
      <line id="Ligne_49" data-name="Ligne 49" class="cls-65" x1="13.517" y2="40.488" transform="translate(1918.689 2220.877)"/>
      <line id="Ligne_50" data-name="Ligne 50" class="cls-66" x1="12.965" y1="4.252" transform="translate(1899.637 2258.111)"/>
      <line id="Ligne_51" data-name="Ligne 51" class="cls-67" x1="16.505" y2="48.863" transform="translate(1878.598 2263.01)"/>
      <line id="Ligne_52" data-name="Ligne 52" class="cls-68" x1="40.512" y1="13.465" transform="translate(1831.714 2299.486)"/>
      <line id="Ligne_53" data-name="Ligne 53" class="cls-69" y1="48.984" x2="16.191" transform="translate(1830.918 2243.842)"/>
      <line id="Ligne_54" data-name="Ligne 54" class="cls-70" x2="13.199" y2="4.34" transform="translate(1853.341 2242.697)"/>
      <line id="Ligne_55" data-name="Ligne 55" class="cls-71" y1="40.535" x2="13.488" transform="translate(1870.978 2201.967)"/>
      <path id="Tracé_78" data-name="Tracé 78" class="cls-41" d="M1885.365,2199.264h0m-16.185,48.643h0m-21.118-6.946h0m-19.049,57.629h0m48.614,16.159h0m19.417-57.489h0m20.744,6.8h0m16.22-48.586h0"/>
      <rect id="Rectangle_83" data-name="Rectangle 83" class="cls-4" width="125.995" height="126.484" transform="translate(1818.513 2190.764)"/>
    </g>
    <g id="Groupe_53" data-name="Groupe 53" class="cls-5" transform="translate(-1210.55 -1723.78)">
      <path id="Tracé_79" data-name="Tracé 79" class="cls-72" d="M1885.026,2084.631l52.838,17.971-18.652,57.006-52.866-18.284Z"/>
      <rect id="Rectangle_84" data-name="Rectangle 84" class="cls-4" width="89.518" height="82.977" transform="translate(1857.345 2077.631)"/>
    </g>
    <path id="Tracé_80" data-name="Tracé 80" class="cls-73" d="M1903.643,2101.826l.946,26.856m-16.26,13.038,11.547-37.9q3.438-3.26,7.94-.4l8.886,39.125" transform="translate(-1210.55 -1723.78)"/>
    <rect id="Rectangle_85" data-name="Rectangle 85" class="cls-4" width="1190.551" height="841.89"/>
    <path id="Tracé_81" data-name="Tracé 81" class="cls-74" d="M1900.548,2136.008l6.571.229-.054,1.552-5.94.566Z" transform="translate(-1210.55 -1723.78)"/>
    <path id="Tracé_82" data-name="Tracé 82" class="cls-74" d="M1907.936,2122.939h0a2.124,2.124,0,1,0,2,2.2,2.1,2.1,0,0,0-2-2.2" transform="translate(-1210.55 -1723.78)"/>
    <path id="Tracé_83" data-name="Tracé 83" class="cls-74" d="M1908.827,2128.7a1.647,1.647,0,0,0-1.708-1.1,2.134,2.134,0,0,0-1.332,1.487v.047a3.348,3.348,0,0,1-3.76-.759l-.146-.087-.165-.025-.166-.028-.164.039-.164.038-.14.1-.14.095-.1.141-.1.141-.042.168-.041.169.02.17.02.173.079.154.08.15.127.115-.119-.13a5.5,5.5,0,0,0,3.443,1.524,4.655,4.655,0,0,0,.793-.043c0,.009-.009.015-.012.024a12.8,12.8,0,0,1-.887,2.035q-4.43-.789-8.126,3.192l-.06.179-.009.186-.009.186.043.183.044.183.092.162.092.161.133.13.134.127.164.085.163.085.18.035.18.034.184-.019.182-.019.17-.071,1.018-.968.388-.354.595-.37.846-.408.565-.217.523-.164.677-.086h.906l1.028.1a4.711,4.711,0,0,0,1.98.065,3.7,3.7,0,0,0,1.4-1.849q1.737-3.377,1.132-5.165" transform="translate(-1210.55 -1723.78)"/>
    <rect id="Rectangle_86" data-name="Rectangle 86" class="cls-4" width="1190.551" height="841.89"/>
    <text id="_" data-name="•" class="cls-75" transform="translate(36 276.001)"><tspan x="0" y="0">•</tspan></text>
    <text id="_2" data-name=" " class="cls-75" transform="translate(43.248 276.001)"><tspan x="0" y="0"> </tspan></text>
    <text id="Une_continuité_végétale_à_" data-name="Une continuité végétale à " class="cls-75" transform="translate(54 276.001)"><tspan x="0" y="0">Une co</tspan><tspan class="cls-76" y="0">n</tspan><tspan y="0">tinui</tspan><tspan class="cls-77" y="0">t</tspan><tspan y="0">é </tspan><tspan class="cls-78" y="0">v</tspan><tspan y="0">é</tspan><tspan class="cls-79" y="0">g</tspan><tspan class="cls-80" y="0">é</tspan><tspan class="cls-78" y="0">t</tspan><tspan y="0">ale à </tspan></text>
    <text id="l_échelle_du_secteur_" data-name="l’échelle du secteur " class="cls-75" transform="translate(54 300.001)"><tspan x="0" y="0">l</tspan><tspan class="cls-81" y="0">’</tspan><tspan y="0">échelle du se</tspan><tspan class="cls-80" y="0">c</tspan><tspan class="cls-82" y="0">t</tspan><tspan y="0">eur </tspan></text>
    <text id="_3" data-name="•" class="cls-75" transform="translate(36 348)"><tspan x="0" y="0">•</tspan></text>
    <text id="_4" data-name=" " class="cls-75" transform="translate(43.248 348)"><tspan x="0" y="0"> </tspan></text>
    <text id="Un_grand_parc_habité_et_ouvert" data-name="Un grand parc habité et ouvert" class="cls-75" transform="translate(54 348)"><tspan x="0" y="0">Un </tspan><tspan class="cls-83" y="0">g</tspan><tspan class="cls-76" y="0">r</tspan><tspan y="0">and pa</tspan><tspan class="cls-77" y="0">r</tspan><tspan y="0">c habi</tspan><tspan class="cls-77" y="0">t</tspan><tspan y="0">é </tspan><tspan class="cls-80" y="0">e</tspan><tspan y="0">t ou</tspan><tspan class="cls-78" y="0">v</tspan><tspan y="0">e</tspan><tspan class="cls-84" y="0">r</tspan><tspan y="0">t</tspan></text>
    <text id="_5" data-name="•" class="cls-75" transform="translate(36 396)"><tspan x="0" y="0">•</tspan></text>
    <text id="_6" data-name=" " class="cls-75" transform="translate(43.248 396)"><tspan x="0" y="0"> </tspan></text>
    <text id="Des_perméabilités_nord-sud" data-name="Des perméabilités nord-sud" class="cls-75" transform="translate(54 396)"><tspan class="cls-85" x="0" y="0">D</tspan><tspan y="0">es perméabili</tspan><tspan class="cls-77" y="0">t</tspan><tspan y="0">és no</tspan><tspan class="cls-77" y="0">r</tspan><tspan y="0">d-sud</tspan></text>
    <g id="Groupe_54" data-name="Groupe 54" class="cls-31" transform="translate(-1210.55 -1723.78)">
      <path id="Tracé_84" data-name="Tracé 84" class="cls-86" d="M2005.613,2036.084c2.5,21.025,10.552,90.107,10.234,107"/>
      <path id="Tracé_85" data-name="Tracé 85" class="cls-87" d="M2013.259,2151.713c-12.567,26.684-70.99,132.961-80.357,152.389"/>
      <path id="Tracé_86" data-name="Tracé 86" class="cls-88" d="M1931.684,2306.868h0m83.905-160.725h0m-10.709-116.158h0"/>
      <path id="Tracé_87" data-name="Tracé 87" class="cls-33" d="M2004.251,2024.818l-6.38,8.793,14.685-1.789Z"/>
      <path id="Tracé_88" data-name="Tracé 88" class="cls-33" d="M1930.154,2311.84l9.409-5.43-14.139-4.349Z"/>
      <rect id="Rectangle_87" data-name="Rectangle 87" class="cls-4" width="109.931" height="295.022" transform="translate(1916.424 2017.818)"/>
    </g>
    <g id="Groupe_55" data-name="Groupe 55" class="cls-31" transform="translate(-1210.55 -1723.78)">
      <line id="Ligne_56" data-name="Ligne 56" class="cls-89" x2="39.061" y2="8.854" transform="translate(2022.307 2148.213)"/>
      <path id="Tracé_89" data-name="Tracé 89" class="cls-88" d="M2064.373,2157.748h0m-48.075-10.9h0"/>
      <path id="Tracé_90" data-name="Tracé 90" class="cls-33" d="M2069.448,2158.9l-6.124-8.973-3.27,14.428Z"/>
      <rect id="Rectangle_88" data-name="Rectangle 88" class="cls-4" width="72.65" height="27.002" transform="translate(2005.798 2138.352)"/>
    </g>
    <path id="Tracé_91" data-name="Tracé 91" class="cls-54" d="M1814.343,2115.319s-12,0-12,12v39.488s0,12,12,12h24.337s12,0,12-12v-39.488s0-12-12-12Z" transform="translate(-1210.55 -1723.78)"/>
    <path id="Tracé_92" data-name="Tracé 92" class="cls-55" d="M1814.343,2115.319s-12,0-12,12v39.488s0,12,12,12h24.337s12,0,12-12v-39.488s0-12-12-12Z" transform="translate(-1210.55 -1723.78)"/>
    <path id="Tracé_93" data-name="Tracé 93" class="cls-10" d="M1832.3,2117.756h-.264a2.734,2.734,0,1,0,0,5.468h.529a2.734,2.734,0,0,0,0-5.468Z" transform="translate(-1210.55 -1723.78)"/>
    <path id="Tracé_94" data-name="Tracé 94" class="cls-10" d="M1819.594,2129h-.2a2.023,2.023,0,0,0,0,4.045h.392a2.023,2.023,0,0,0,0-4.045Z" transform="translate(-1210.55 -1723.78)"/>
    <path id="Tracé_95" data-name="Tracé 95" class="cls-10" d="M1833.1,2146.016v-7.179h-1.55v7.179l-.019.212-.094.19-.1.19-.157.143-.157.143-.2.075-.2.078h-.424l-.2-.078-.2-.075-.157-.143-.156-.143-.1-.19-.094-.19-.019-.212v-7.179a3.383,3.383,0,0,1-1.584-.277q-.667-3.038.48-10.96a20.22,20.22,0,0,0-2.861,8.033l-.053.149-.1.122-.1.119-.14.073-.14.074-.157.017-.157.019-.153-.041-.153-.041-.127-.093-.127-.095-.085-.134-.085-.132-.03-.156-.03-.156.029-.155q1.88-10.726,8-11.125c.126-.006.253-.013.381-.013l.986-.012,0,.036q6,.51,7.859,11.114l.029.155-.03.156-.03.156-.085.132-.085.134-.127.095-.127.093-.153.041-.153.041-.156-.019-.158-.017-.14-.074-.139-.073-.1-.119-.1-.122-.053-.149a20.236,20.236,0,0,0-2.86-8.033q1.146,7.923.481,10.96a3.4,3.4,0,0,1-1.586.277v7.179l-.019.212-.094.19-.095.19-.157.143-.157.143-.2.075-.2.078h-.424l-.2-.078-.2-.075-.157-.143-.156-.143-.095-.19-.095-.19Zm-1.01-21.944.986-.019-.986.012Z" transform="translate(-1210.55 -1723.78)"/>
    <rect id="Rectangle_89" data-name="Rectangle 89" class="cls-4" width="1190.551" height="841.89"/>
    <path id="Tracé_96" data-name="Tracé 96" class="cls-10" d="M1821.937,2146.786v-10.728l1.564.821.135.033.138-.009.139-.006.131-.046.132-.045.113-.078.115-.08.087-.106.089-.108.055-.128.056-.127.018-.137.019-.138-.02-.136-.02-.139-.056-.125-.056-.128-.089-.106-.09-.106-.114-.08-.115-.078-.131-.043-.132-.043-.138-.007-2.026-1.066h-4.479l-2.8,5.94-.057.181.012.188.013.189.081.17.081.171.139.13.138.13.176.069.177.069.189,0h.189l.175-.069.177-.071.137-.13.137-.13.08-.171.955-1.717v7.992l.09.119.116.1.116.095.134.068.134.067.146.034.147.035h.3l.148-.035.145-.034.135-.067.134-.068.116-.095.115-.1.09-.119v-5.619h.448v5.619l.091.13.12.106.12.106.141.073.141.076.156.037.154.039h.32l.155-.039.156-.037.142-.076.141-.073.119-.106.12-.106Z" transform="translate(-1210.55 -1723.78)"/>
    <rect id="Rectangle_90" data-name="Rectangle 90" class="cls-10" width="36.679" height="2.126" transform="translate(597.622 425.184)"/>
    <path id="Tracé_97" data-name="Tracé 97" class="cls-56" d="M1833.246,2155.43l-2.611-1.52c-.259-.153-.3-.385-.114-.7h3.619q.391-.394,1.774-.018.831,1.356-.676,1.737Zm4.842,12.226h-7.537m2.153-10.317,5.384,10.317m-10.23-.543,5.384-11.946m-13.46,2.172,8.076,9.774m-8.076-9.774H1832.7m-15.614-3.8h3.769l-5.384,14.117m18.719-6.005h0a6.684,6.684,0,0,0-2.951,8.339,6.587,6.587,0,0,0,7.87,3.921,6.662,6.662,0,0,0-2-13.07m-19.222.428h0a6.57,6.57,0,0,0-7.968,2.746,6.7,6.7,0,0,0,1.194,8.407,6.558,6.558,0,0,0,8.413.382,6.693,6.693,0,0,0,1.937-8.265m0,0-.177-.36-.219-.336-.218-.336-.256-.307" transform="translate(-1210.55 -1723.78)"/>
    <rect id="Rectangle_91" data-name="Rectangle 91" class="cls-4" width="1190.551" height="841.89"/>
    <path id="Tracé_98" data-name="Tracé 98" d="M1303.836,1777.32l4.89-.48c.03,2.34,1.32,3.72,3.36,3.72a2.715,2.715,0,0,0,3-3.03c0-1.92-1.14-2.91-3.6-2.91h-1.11v-3.3h1.08c2.1,0,3.18-1.08,3.18-2.909a2.5,2.5,0,0,0-2.76-2.73c-1.95,0-3.06,1.41-3.06,3.78l-4.77-.63c0-4.17,3.12-6.81,8.07-6.81,4.8,0,7.5,2.16,7.5,5.82a5.013,5.013,0,0,1-4.169,4.889c3.089.48,4.739,2.22,4.739,5.13,0,3.96-3.18,6.42-8.129,6.42C1307.046,1784.28,1303.9,1781.58,1303.836,1777.32Zm23.97,6.51h-5.13v-4.92h5.13Zm16.17-4.8v4.8h-4.77v-4.8h-9.6v-3.24l9.03-13.259h5.34v12.959h3.12v3.54Zm-4.53-12.089h-.06a9.961,9.961,0,0,1-1.2,2.16l-2.97,4.559a13.474,13.474,0,0,1-1.38,1.83h5.55v-6.179C1339.386,1768.2,1339.386,1767.691,1339.446,1766.941Zm22.23-4.41v13.649a3.96,3.96,0,1,0,7.919,0v-13.649h5.07v13.859c0,4.86-3.36,7.95-9.029,7.95s-9.03-3.09-9.03-7.95v-13.859Zm17.07,0h5.61l6.839,12.149a22.15,22.15,0,0,1,1.29,2.76h.06c0-.84-.03-1.71-.03-2.73v-12.179h4.65v21.3h-5.4l-7.079-12.27a18.341,18.341,0,0,1-1.26-2.609h-.06c0,.87.03,1.769.03,2.819v12.06h-4.65Zm47.369,6.69c0,4.229-2.97,6.869-7.77,6.869h-4.26v7.74h-5.069v-21.3h9.449C1423.085,1762.531,1426.115,1765.171,1426.115,1769.221Zm-5.31.15c0-2.01-1.29-3.18-3.57-3.18h-3.15v6.359h3.15C1419.485,1772.55,1420.805,1771.38,1420.805,1769.371Zm18.18,9.479h-7.86l-1.62,4.98h-5.069l7.739-21.3h5.79l7.74,21.3h-5.1Zm-1.17-3.57-1.95-5.939a25.653,25.653,0,0,1-.78-3h-.06a20.821,20.821,0,0,1-.78,3l-1.95,5.939Zm18.63.39h-3.06v8.16h-5.07v-21.3h9.36c5.4,0,7.8,2.64,7.8,6.54a5.89,5.89,0,0,1-4.17,5.849l4.71,8.91h-5.49Zm-3.06-3.48h3.27c2.46,0,3.54-1.2,3.54-3.119,0-1.86-1.05-2.97-3.54-2.97h-3.27Zm13.86,1.02c0-6.719,3.96-11.189,10.44-11.189,5.429,0,8.849,3,9.419,7.65l-5.129.9c-.3-2.819-1.86-4.469-4.41-4.469-3.24,0-5.13,2.73-5.13,7.079,0,4.23,1.92,7.05,5.28,7.05,2.37,0,3.96-1.62,4.38-4.38l5.129,1.11c-1.02,4.5-4.32,7.38-9.6,7.38C1470.875,1784.34,1467.245,1779.93,1467.245,1773.21Zm28.98-.03c0-6.869,4.11-11.159,10.5-11.159s10.5,4.29,10.5,11.159-4.11,11.16-10.5,11.16S1496.225,1780.02,1496.225,1773.18Zm15.779,0c0-4.5-1.95-7.2-5.28-7.2s-5.309,2.7-5.309,7.2c0,4.47,1.979,7.2,5.309,7.2S1512,1777.68,1512,1773.18Zm13.02-10.649v13.649a3.961,3.961,0,1,0,7.92,0v-13.649h5.07v13.859c0,4.86-3.36,7.95-9.03,7.95s-9.029-3.09-9.029-7.95v-13.859Zm14.911,0h5.4l3.96,13.739a17.432,17.432,0,0,1,.66,2.94h.12a18,18,0,0,1,.69-2.94l3.96-13.739h5.4l-7.17,21.3h-5.85Zm37.259,17.549v3.75h-14.789v-21.3h14.579v3.75h-9.51v4.8h9v3.72h-9v5.28Zm11.82-4.41h-3.06v8.16h-5.07v-21.3h9.36c5.4,0,7.8,2.64,7.8,6.54a5.89,5.89,0,0,1-4.17,5.849l4.71,8.91h-5.49Zm-3.06-3.48h3.27c2.46,0,3.54-1.2,3.54-3.119,0-1.86-1.05-2.97-3.54-2.97h-3.27Zm30.567-5.639h-6.21v17.279h-5.04v-17.279h-6.18v-4.02h17.43Zm24.6,13.529v3.75h-14.789v-21.3h14.579v3.75H1631.4v4.8h9v3.72h-9v5.28Zm19.23-13.529h-6.21v17.279H1649.1v-17.279h-6.18v-4.02h17.429Zm28.14,17.279h-5.07v-8.85h-8.19v8.85h-5.07v-21.3h5.07v8.549h8.19v-8.549h5.07Zm17.19-4.98h-7.86l-1.62,4.98h-5.069l7.739-21.3h5.79l7.74,21.3h-5.1Zm-1.17-3.57-1.95-5.939a25.629,25.629,0,0,1-.78-3h-.06a20.806,20.806,0,0,1-.78,3l-1.95,5.939Zm27.72,2.55c0,3.36-2.37,6-7.23,6h-9.99v-21.3h9.6c4.86,0,7.08,2.37,7.08,5.49a4.99,4.99,0,0,0,.54,9.809Zm-12.15-11.729v5.189h3.18c2.28,0,3.15-1.17,3.15-2.609,0-1.5-.96-2.58-3.15-2.58Zm6.87,11.309c0-1.65-1.11-2.76-3.24-2.76h-3.63v5.61h3.51C1725.9,1780.26,1726.95,1779.03,1726.95,1777.41Zm8.49,6.42v-21.3h5.07v21.3Zm24.93-17.279h-6.21v17.279h-5.04v-17.279h-6.18v-4.02h17.43Zm17.19,13.529v3.75h-14.79v-21.3h14.58v3.75h-9.51v4.8h9v3.72h-9v5.28Zm-5.46-18.839h-3.66l2.97-3.54h4.17Z" transform="translate(-1210.55 -1723.78)"/>
    <text id="Une_inscription_dans_les_continuités_vertes_alentours" data-name="Une inscription dans les continuités vertes alentours" class="cls-90" transform="translate(92.626 95.99)"><tspan x="0" y="0">Une inscri</tspan><tspan class="cls-91" y="0">p</tspan><tspan y="0">tion dans les co</tspan><tspan class="cls-92" y="0">n</tspan><tspan y="0">tinui</tspan><tspan class="cls-93" y="0">t</tspan><tspan y="0">és </tspan><tspan class="cls-94" y="0">v</tspan><tspan y="0">e</tspan><tspan class="cls-95" y="0">r</tspan><tspan class="cls-96" y="0">t</tspan><tspan y="0">es ale</tspan><tspan class="cls-92" y="0">n</tspan><tspan class="cls-96" y="0">t</tspan><tspan y="0">ou</tspan><tspan class="cls-77" y="0">r</tspan><tspan y="0">s</tspan></text>
    <text id="_4_aires_d_implantation" data-name="4 aires d’implantation" class="cls-90" transform="translate(92.626 131.99)"><tspan x="0" y="0">4 ai</tspan><tspan class="cls-97" y="0">r</tspan><tspan y="0">es d’i</tspan><tspan class="cls-80" y="0">m</tspan><tspan y="0">pla</tspan><tspan class="cls-92" y="0">n</tspan><tspan class="cls-98" y="0">t</tspan><tspan class="cls-99" y="0">a</tspan><tspan y="0">tion</tspan></text>
    <rect id="Rectangle_92" data-name="Rectangle 92" class="cls-4" width="1190.55" height="841.89"/>
    <rect id="Rectangle_93" data-name="Rectangle 93" class="cls-4" width="1190.55" height="841.89"/>
  </g>
</svg>
