<svg xmlns="http://www.w3.org/2000/svg" xmlns:xlink="http://www.w3.org/1999/xlink" width="1190.55" height="841.89" viewBox="0 0 1190.55 841.89">
  <defs>
    <style>
      .cls-1 {
        clip-path: url(#clip-Plan_de_travail_1);
      }

      .cls-17, .cls-2 {
        font-size: 35px;
      }

      .cls-2, .cls-28 {
        font-family: GTAmerica-Bold, GT America;
        font-weight: 700;
      }

      .cls-3 {
        letter-spacing: -0.01em;
      }

      .cls-4 {
        letter-spacing: -0.013em;
      }

      .cls-5 {
        letter-spacing: -0.001em;
      }

      .cls-6 {
        letter-spacing: 0.006em;
      }

      .cls-7 {
        letter-spacing: -0.009em;
      }

      .cls-8 {
        letter-spacing: 0.02em;
      }

      .cls-9 {
        letter-spacing: -0.023em;
      }

      .cls-10 {
        font-size: 30px;
      }

      .cls-10, .cls-17 {
        font-family: GTAmerica-Light, GT America;
        font-weight: 300;
      }

      .cls-11 {
        letter-spacing: -0.005em;
      }

      .cls-12 {
        letter-spacing: -0.007em;
      }

      .cls-13 {
        letter-spacing: -0.035em;
      }

      .cls-14 {
        letter-spacing: -0.032em;
      }

      .cls-15 {
        letter-spacing: -0.028em;
      }

      .cls-16 {
        letter-spacing: -0.021em;
      }

      .cls-18 {
        letter-spacing: 0.008em;
      }

      .cls-19 {
        letter-spacing: 0.017em;
      }

      .cls-20 {
        letter-spacing: -0.004em;
      }

      .cls-21 {
        letter-spacing: -0.006em;
      }

      .cls-22 {
        letter-spacing: -0.003em;
      }

      .cls-23 {
        letter-spacing: -0.014em;
      }

      .cls-24 {
        letter-spacing: -0.012em;
      }

      .cls-25 {
        opacity: 0.8;
      }

      .cls-26 {
        fill: #f59e00;
      }

      .cls-27 {
        fill: none;
      }

      .cls-28, .cls-36 {
        fill: #fff;
      }

      .cls-28 {
        font-size: 36px;
      }

      .cls-29 {
        letter-spacing: 0.003em;
      }

      .cls-30 {
        letter-spacing: -0.037em;
      }

      .cls-31 {
        fill: #a8ba00;
      }

      .cls-32 {
        letter-spacing: 0.004em;
      }

      .cls-33 {
        fill: #008ea5;
      }

      .cls-34 {
        letter-spacing: 0.009em;
      }

      .cls-35 {
        fill: #ffce00;
      }
    </style>
    <clipPath id="clip-Plan_de_travail_1">
      <rect width="1190.55" height="841.89"/>
    </clipPath>
  </defs>
  <g id="Plan_de_travail_1" data-name="Plan de travail 1" class="cls-1">
    <rect class="cls-36" width="1190.55" height="841.89"/>
    <text id="SECTEUR_DES_SEMAILLES_LANCY" data-name="SECTEUR DES SEMAILLES, LANCY" class="cls-2" transform="translate(306.354 315.191)"><tspan x="0" y="0">S</tspan><tspan class="cls-3" y="0">E</tspan><tspan class="cls-4" y="0">C</tspan><tspan y="0">TEUR D</tspan><tspan class="cls-5" y="0">E</tspan><tspan y="0">S SEMAI</tspan><tspan class="cls-6" y="0">LL</tspan><tspan class="cls-5" y="0">E</tspan><tspan class="cls-7" y="0">S</tspan><tspan y="0">, </tspan><tspan class="cls-8" y="0">L</tspan><tspan y="0">AN</tspan><tspan class="cls-9" y="0">C</tspan><tspan y="0">Y</tspan></text>
    <text id="Avant-projet_de_PLQ_n_30047" data-name="Avant-projet de PLQ n°30047" class="cls-10" transform="translate(397.533 361.722)"><tspan class="cls-11" x="0" y="0">A</tspan><tspan class="cls-12" y="0">v</tspan><tspan y="0">a</tspan><tspan class="cls-3" y="0">n</tspan><tspan class="cls-13" y="0">t</tspan><tspan y="0">-p</tspan><tspan class="cls-12" y="0">r</tspan><tspan y="0">oj</tspan><tspan class="cls-5" y="0">e</tspan><tspan y="0">t de P</tspan><tspan class="cls-14" y="0">L</tspan><tspan y="0">Q </tspan><tspan class="cls-15" y="0">n</tspan><tspan y="0">°300</tspan><tspan class="cls-16" y="0">4</tspan><tspan y="0">7</tspan></text>
    <text id="Concertation_II_:_Espaces_publics" data-name="Concertation II : Espaces publics" class="cls-17" transform="translate(335.387 448.419)"><tspan class="cls-18" x="0" y="0">C</tspan><tspan y="0">once</tspan><tspan class="cls-19" y="0">r</tspan><tspan class="cls-20" y="0">t</tspan><tspan class="cls-5" y="0">a</tspan><tspan y="0">tion II : </tspan><tspan class="cls-21" y="0">E</tspan><tspan y="0">sp</tspan><tspan class="cls-22" y="0">a</tspan><tspan y="0">ces publics</tspan></text>
    <text id="_2_février_2021" data-name="2 février 2021" class="cls-17" transform="translate(490.297 494.935)"><tspan x="0" y="0">2 </tspan><tspan class="cls-23" y="0">f</tspan><tspan class="cls-20" y="0">é</tspan><tspan y="0">vrier </tspan><tspan class="cls-24" y="0">2</tspan><tspan y="0">021</tspan></text>
    <g id="Groupe_400" data-name="Groupe 400" class="cls-25" transform="translate(-7576)">
      <path id="Tracé_837" data-name="Tracé 837" class="cls-26" d="M7662.111,557.908c-5.814,0-10.526,4.229-10.526,9.444v108.67c0,5.216,4.712,9.445,10.526,9.445h191.546c5.813,0,10.526-4.229,10.526-9.445V567.352c0-5.215-4.713-9.444-10.526-9.444Z"/>
      <rect id="Rectangle_595" data-name="Rectangle 595" class="cls-27" width="230.599" height="135.558" transform="translate(7642.585 550.908)"/>
    </g>
    <rect id="Rectangle_596" data-name="Rectangle 596" class="cls-27" width="1190.551" height="841.89"/>
    <text id="AETC" class="cls-28" transform="translate(132.762 635.817)"><tspan x="0" y="0">A</tspan><tspan class="cls-29" y="0">E</tspan><tspan class="cls-30" y="0">T</tspan><tspan y="0">C</tspan></text>
    <g id="Groupe_401" data-name="Groupe 401" class="cls-25" transform="translate(-7576)">
      <path id="Tracé_838" data-name="Tracé 838" class="cls-31" d="M7818.606,674.646s-8.748,0-8.748,8.748V793.457s0,8.748,8.748,8.748h195.1s8.748,0,8.748-8.748V683.394s0-8.748-8.748-8.748Z"/>
      <rect id="Rectangle_597" data-name="Rectangle 597" class="cls-27" width="230.599" height="135.559" transform="translate(7800.858 667.646)"/>
    </g>
    <rect id="Rectangle_598" data-name="Rectangle 598" class="cls-27" width="1190.551" height="841.89"/>
    <text id="ECOTEC" class="cls-28" transform="translate(268.698 752.555)"><tspan class="cls-7" x="0" y="0">E</tspan><tspan class="cls-32" y="0">C</tspan><tspan class="cls-30" y="0">O</tspan><tspan y="0">T</tspan><tspan class="cls-3" y="0">E</tspan><tspan y="0">C</tspan></text>
    <g id="Groupe_402" data-name="Groupe 402" class="cls-25" transform="translate(-7576)">
      <path id="Tracé_839" data-name="Tracé 839" class="cls-33" d="M8021.772,600.441s-8.748,0-8.748,8.748V719.253s0,8.748,8.748,8.748h195.1s8.748,0,8.748-8.748V609.189s0-8.748-8.748-8.748Z"/>
      <rect id="Rectangle_599" data-name="Rectangle 599" class="cls-27" width="230.598" height="135.559" transform="translate(8004.024 593.441)"/>
    </g>
    <rect id="Rectangle_600" data-name="Rectangle 600" class="cls-27" width="1190.551" height="841.89"/>
    <text id="TRANSITEC" class="cls-28" transform="translate(441.498 677.268)"><tspan x="0" y="0">T</tspan><tspan class="cls-34" y="0">R</tspan><tspan y="0">ANSIT</tspan><tspan class="cls-3" y="0">E</tspan><tspan y="0">C</tspan></text>
    <g id="Groupe_403" data-name="Groupe 403" class="cls-25" transform="translate(-7576)">
      <path id="Tracé_840" data-name="Tracé 840" class="cls-35" d="M7852.622,497.131s-8.748,0-8.748,8.748v59.9s0,8.748,8.748,8.748h98.242s8.748,0,8.748-8.748v-59.9s0-8.748-8.748-8.748Z"/>
      <rect id="Rectangle_601" data-name="Rectangle 601" class="cls-27" width="133.738" height="85.394" transform="translate(7834.874 490.131)"/>
    </g>
    <g id="Groupe_404" data-name="Groupe 404" class="cls-25" transform="translate(-7576)">
      <path id="Rectangle_602" data-name="Rectangle 602" class="cls-26" d="M8.269,0H158.743a8.27,8.27,0,0,1,8.27,8.27v95.143a8.269,8.269,0,0,1-8.269,8.269H8.27A8.27,8.27,0,0,1,0,103.412V8.269A8.269,8.269,0,0,1,8.269,0Z" transform="translate(8547.345 383.395)"/>
      <rect id="Rectangle_603" data-name="Rectangle 603" class="cls-27" width="185.015" height="119.682" transform="translate(8538.345 376.395)"/>
    </g>
    <rect id="Rectangle_604" data-name="Rectangle 604" class="cls-27" width="1190.551" height="841.89"/>
    <text id="_..." data-name="..." class="cls-28" transform="translate(1037.812 453.367)"><tspan x="0" y="0">...</tspan></text>
    <g id="Groupe_405" data-name="Groupe 405" class="cls-25" transform="translate(-7576)">
      <path id="Tracé_841" data-name="Tracé 841" class="cls-33" d="M8487.857,330.236s-8.748,0-8.748,8.748v44.8s0,8.748,8.748,8.748h64.251s8.748,0,8.748-8.748v-44.8s0-8.748-8.748-8.748Z"/>
      <rect id="Rectangle_605" data-name="Rectangle 605" class="cls-27" width="99.747" height="70.3" transform="translate(8470.109 323.236)"/>
    </g>
    <rect id="Rectangle_606" data-name="Rectangle 606" class="cls-27" width="1190.551" height="841.89"/>
    <text id="_...-2" data-name="..." class="cls-28" transform="translate(929.377 369.196)"><tspan x="0" y="0">...</tspan></text>
    <g id="Groupe_406" data-name="Groupe 406" class="cls-25" transform="translate(-7576)">
      <path id="Tracé_842" data-name="Tracé 842" class="cls-31" d="M8545.693,233.859s-8.748,0-8.748,8.748v87.386s0,8.748,8.748,8.748h183.764s8.748,0,8.748-8.748V242.607s0-8.748-8.748-8.748Z"/>
      <rect id="Rectangle_607" data-name="Rectangle 607" class="cls-27" width="219.255" height="112.882" transform="translate(8527.945 226.859)"/>
    </g>
    <rect id="Rectangle_608" data-name="Rectangle 608" class="cls-27" width="1190.551" height="841.89"/>
    <text id="_...-3" data-name="..." class="cls-28" transform="translate(1046.186 296.174)"><tspan x="0" y="0">...</tspan></text>
    <g id="Groupe_407" data-name="Groupe 407" class="cls-25" transform="translate(-7576)">
      <path id="Tracé_843" data-name="Tracé 843" class="cls-35" d="M8363.3,94.96s-8.748,0-8.748,8.748v138.8s0,8.748,8.748,8.748h204.583s8.748,0,8.748-8.748v-138.8s0-8.748-8.748-8.748Z"/>
      <rect id="Rectangle_609" data-name="Rectangle 609" class="cls-27" width="240.079" height="164.299" transform="translate(8345.551 87.96)"/>
    </g>
    <rect id="Rectangle_610" data-name="Rectangle 610" class="cls-27" width="1190.551" height="841.89"/>
    <text id="_...-4" data-name="..." class="cls-28" transform="translate(874.201 187.24)"><tspan x="0" y="0">...</tspan></text>
    <rect id="Rectangle_611" data-name="Rectangle 611" class="cls-27" width="1190.55" height="841.89"/>
    <rect id="Rectangle_612" data-name="Rectangle 612" class="cls-27" width="1190.55" height="841.89"/>
  </g>
</svg>
