<svg id="Calque_1" data-name="Calque 1" xmlns="http://www.w3.org/2000/svg" xmlns:xlink="http://www.w3.org/1999/xlink" viewBox="0 0 1190.55 841.89"><defs><style>.cls-1,.cls-7{fill:none;}.cls-2{clip-path:url(#clip-path);}.cls-3{clip-path:url(#clip-path-3);}.cls-4{opacity:0.6;}.cls-5{clip-path:url(#clip-path-4);}.cls-6{fill:#eadfde;}.cls-7{stroke:#283583;stroke-miterlimit:10;stroke-width:1.5px;}.cls-8{fill:#283583;}</style><clipPath id="clip-path"><rect class="cls-1" width="1190.55" height="841.89"/></clipPath><clipPath id="clip-path-3"><rect class="cls-1" width="1190.55" height="841.89"/></clipPath><clipPath id="clip-path-4"><rect class="cls-1" x="27" y="158.83" width="1136.55" height="387.84"/></clipPath></defs><g class="cls-2"><g class="cls-2"><g class="cls-3"><g class="cls-4"><g class="cls-5"><rect class="cls-6" x="36" y="165.83" width="1118.55" height="379.84"/></g></g></g><line class="cls-7" x1="947.6" y1="207" x2="1154.55" y2="207"/><path d="M51.67,193.29c0-6.54,3.33-11.1,9.57-11.1,5.13,0,7.83,3.09,8.37,7.5l-2.37.24c-.45-3.45-2.55-5.73-6.12-5.73-4.47,0-7,3.63-7,9.06,0,5.22,2.37,9.21,7.08,9.21,3.3,0,5.52-2.13,6.18-5.55l2.25.36c-.78,4-3.33,7.23-8.46,7.23C54.61,204.51,51.67,199.47,51.67,193.29Z"/><path d="M85.63,197H74.74c0,3.39,1.89,5.46,4.8,5.46a4.21,4.21,0,0,0,4.23-3.21l1.77.72a6.07,6.07,0,0,1-6.15,4.35c-4.26,0-6.75-2.73-6.75-7.77s2.52-8,6.66-8,6.33,2.4,6.33,7Zm-2.13-2c0-3.09-1.56-4.74-4.23-4.74s-4.47,1.92-4.53,5H83.5Z"/><path d="M87.34,189H90.1v-4l2.1-.9V189h3.87v1.74H92.2v9c0,1.77.78,2.55,2.34,2.55a6.12,6.12,0,0,0,1.53-.18V204a7.07,7.07,0,0,1-2.07.27c-2.91,0-3.9-1.77-3.9-4.44v-9.09H87.34Z"/><path d="M98.14,189h2.76v-4l2.1-.9V189h3.87v1.74H103v9c0,1.77.78,2.55,2.34,2.55a6.12,6.12,0,0,0,1.53-.18V204a7.07,7.07,0,0,1-2.07.27c-2.91,0-3.9-1.77-3.9-4.44v-9.09H98.14Z"/><path d="M121.78,197H110.89c0,3.39,1.89,5.46,4.8,5.46a4.21,4.21,0,0,0,4.23-3.21l1.77.72a6.07,6.07,0,0,1-6.15,4.35c-4.26,0-6.75-2.73-6.75-7.77s2.52-8,6.66-8,6.33,2.4,6.33,7Zm-2.13-2c0-3.09-1.56-4.74-4.23-4.74s-4.47,1.92-4.53,5h8.76Z"/><path d="M133.21,189h2v3.18a5.32,5.32,0,0,1,5.13-3.54c3.69,0,6.09,3.15,6.09,7.86s-2.55,7.86-6.24,7.86a5.06,5.06,0,0,1-4.89-3.18v8.67h-2.07Zm11,7.5c0-3.72-1.62-6-4.38-6s-4.56,2.34-4.56,5.64v.66c0,3.36,1.68,5.7,4.44,5.7S144.19,200.22,144.19,196.5Z"/><path d="M157.24,188.64a3.63,3.63,0,0,1,.57,0v2h-.24a4.39,4.39,0,0,0-3.21,1.14c-1.38,1.38-1.65,3.39-1.65,5.28V204h-2.07V189h2v3.66C153.28,190.35,154.93,188.64,157.24,188.64Z"/><path d="M172.3,197H161.41c0,3.39,1.89,5.46,4.8,5.46a4.21,4.21,0,0,0,4.23-3.21l1.77.72a6.07,6.07,0,0,1-6.15,4.35c-4.26,0-6.75-2.73-6.75-7.77s2.52-8,6.66-8,6.33,2.4,6.33,7Zm-2.13-2c0-3.09-1.56-4.74-4.23-4.74s-4.47,1.92-4.53,5h8.76Zm-3.33-8.46h-2l3-4.29h2.58Z"/><path d="M175.27,199.71l2.13-.36c.36,2.13,1.89,3.27,4.26,3.27,2.19,0,3.42-1.05,3.42-2.55s-.84-2.1-2.43-2.4l-2.91-.57c-2.49-.48-3.9-1.83-3.9-4.11,0-2.52,2.13-4.35,5.52-4.35s5.49,1.47,5.79,4.14l-2.1.45c-.3-1.83-1.59-2.88-3.78-2.88s-3.39,1-3.39,2.55c0,1.41.93,2.1,2.49,2.4l2.94.57c2.67.54,3.84,1.83,3.84,4,0,2.67-2,4.47-5.55,4.47S175.75,202.71,175.27,199.71Z"/><path d="M203.14,197H192.25c0,3.39,1.89,5.46,4.8,5.46a4.21,4.21,0,0,0,4.23-3.21l1.77.72a6.07,6.07,0,0,1-6.15,4.35c-4.26,0-6.75-2.73-6.75-7.77s2.52-8,6.66-8,6.33,2.4,6.33,7Zm-2.13-2c0-3.09-1.56-4.74-4.23-4.74s-4.47,1.92-4.53,5H201Z"/><path d="M207.52,189h2v3.3a5.11,5.11,0,0,1,5.13-3.66c3.36,0,5.1,2.07,5.1,6.09V204h-2.1v-9.15c0-2.91-1.26-4.41-3.63-4.41-2.7,0-4.41,2.16-4.41,5.67V204h-2.07Z"/><path d="M222.34,189h2.76v-4l2.1-.9V189h3.87v1.74H227.2v9c0,1.77.78,2.55,2.34,2.55a6.12,6.12,0,0,0,1.53-.18V204a7.07,7.07,0,0,1-2.07.27c-2.91,0-3.9-1.77-3.9-4.44v-9.09h-2.76Z"/><path d="M233.32,200a3.79,3.79,0,0,1,1.83-3.36,12.9,12.9,0,0,1,4.92-1.35l3.33-.39v-.24c0-3.09-1.08-4.32-3.63-4.32-2.25,0-3.63,1.17-3.75,3.3h-2.25c.18-3.09,2.52-5,6-5,4,0,5.76,1.86,5.76,6.21v3.9A21.14,21.14,0,0,0,246,204h-2.19a20.58,20.58,0,0,1-.27-3,5.14,5.14,0,0,1-5.22,3.36C235.3,204.36,233.32,202.62,233.32,200Zm10.11-2.58v-1l-4.26.6c-2.55.36-3.66,1.23-3.66,2.88s1.26,2.64,3.27,2.64C241.57,202.62,243.43,200.52,243.43,197.46Z"/><path d="M248,189h2.76v-4l2.1-.9V189h3.87v1.74h-3.87v9c0,1.77.78,2.55,2.34,2.55a6.12,6.12,0,0,0,1.53-.18V204a7.07,7.07,0,0,1-2.07.27c-2.91,0-3.9-1.77-3.9-4.44v-9.09H248Z"/><path d="M260.44,183h2.37v3.3h-2.37Zm.15,6h2.07v15h-2.07Z"/><path d="M266.89,196.5c0-4.89,2.73-7.86,6.9-7.86s6.87,3,6.87,7.86-2.73,7.86-6.87,7.86S266.89,201.39,266.89,196.5Zm11.55,0c0-3.9-1.77-6-4.65-6s-4.68,2.13-4.68,6,1.77,6,4.68,6S278.44,200.4,278.44,196.5Z"/><path d="M284.86,189h2v3.3a5.11,5.11,0,0,1,5.13-3.66c3.36,0,5.1,2.07,5.1,6.09V204H295v-9.15c0-2.91-1.26-4.41-3.63-4.41-2.7,0-4.41,2.16-4.41,5.67V204h-2.07Z"/><path d="M320.86,197H310c0,3.39,1.89,5.46,4.8,5.46a4.21,4.21,0,0,0,4.23-3.21l1.77.72a6.07,6.07,0,0,1-6.15,4.35c-4.26,0-6.75-2.73-6.75-7.77s2.52-8,6.66-8,6.33,2.4,6.33,7Zm-2.13-2c0-3.09-1.56-4.74-4.23-4.74s-4.47,1.92-4.53,5h8.76Z"/><path d="M322.57,189h2.76v-4l2.1-.9V189h3.87v1.74h-3.87v9c0,1.77.78,2.55,2.34,2.55a6.12,6.12,0,0,0,1.53-.18V204a7.07,7.07,0,0,1-2.07.27c-2.91,0-3.9-1.77-3.9-4.44v-9.09h-2.76Z"/><path d="M344.47,204H342.4V182.25h2.07Z"/><path d="M361.84,197H351c0,3.39,1.89,5.46,4.8,5.46a4.21,4.21,0,0,0,4.23-3.21l1.77.72a6.07,6.07,0,0,1-6.15,4.35c-4.26,0-6.75-2.73-6.75-7.77s2.52-8,6.66-8,6.33,2.4,6.33,7Zm-2.13-2c0-3.09-1.56-4.74-4.23-4.74s-4.47,1.92-4.53,5h8.76Z"/><path d="M364.81,199.71l2.13-.36c.36,2.13,1.89,3.27,4.26,3.27,2.19,0,3.42-1.05,3.42-2.55s-.84-2.1-2.43-2.4l-2.91-.57c-2.49-.48-3.9-1.83-3.9-4.11,0-2.52,2.13-4.35,5.52-4.35s5.49,1.47,5.79,4.14l-2.1.45c-.3-1.83-1.59-2.88-3.78-2.88s-3.39,1-3.39,2.55c0,1.41.93,2.1,2.49,2.4l2.94.57c2.67.54,3.84,1.83,3.84,4,0,2.67-2,4.47-5.55,4.47S365.29,202.71,364.81,199.71Z"/><path d="M390.1,189v2.91a4.47,4.47,0,0,1,4.44-3.27,4.23,4.23,0,0,1,4.32,3.21,4.76,4.76,0,0,1,4.62-3.21c2.94,0,4.62,2,4.62,5.55V204H406v-9.63c0-2.55-1.08-3.93-3.15-3.93-2.28,0-3.69,1.68-3.69,4.44V204h-2.07v-9.75c0-2.43-1.14-3.81-3.12-3.81-2.28,0-3.75,1.86-3.75,4.8V204h-2.07V189Z"/><path d="M411.94,200a3.79,3.79,0,0,1,1.83-3.36,12.9,12.9,0,0,1,4.92-1.35l3.33-.39v-.24c0-3.09-1.08-4.32-3.63-4.32-2.25,0-3.63,1.17-3.75,3.3h-2.25c.18-3.09,2.52-5,6-5,4,0,5.76,1.86,5.76,6.21v3.9a21.14,21.14,0,0,0,.48,5.25h-2.19a20.58,20.58,0,0,1-.27-3,5.14,5.14,0,0,1-5.22,3.36C413.92,204.36,411.94,202.62,411.94,200Zm10.11-2.58v-1l-4.26.6c-2.55.36-3.66,1.23-3.66,2.88s1.26,2.64,3.27,2.64C420.19,202.62,422.05,200.52,422.05,197.46Z"/><path d="M438.94,201a5.1,5.1,0,0,1-4.95,3.36c-3.69,0-6.18-3.09-6.18-7.86s2.67-7.86,6.39-7.86a4.81,4.81,0,0,1,4.83,3.18l.45-2.82H441v20.85h-2.1Zm0-4.11v-.75c0-3.36-1.65-5.64-4.47-5.64s-4.47,2.25-4.47,6,1.65,6,4.44,6S439,200.22,439,196.89Z"/><path d="M446.2,198.51V189h2.07v9.3c0,2.94,1.38,4.26,3.42,4.26,2.73,0,4.38-2.34,4.38-5.37V189h2.1v15h-2v-3.09a5.14,5.14,0,0,1-4.86,3.45C447.58,204.36,446.2,202.08,446.2,198.51Z"/><path d="M475.36,197H464.47c0,3.39,1.89,5.46,4.8,5.46a4.21,4.21,0,0,0,4.23-3.21l1.77.72a6.07,6.07,0,0,1-6.15,4.35c-4.26,0-6.75-2.73-6.75-7.77s2.52-8,6.66-8,6.33,2.4,6.33,7Zm-2.13-2c0-3.09-1.56-4.74-4.23-4.74s-4.47,1.92-4.53,5h8.76Z"/><path d="M477.07,189h2.76v-4l2.1-.9V189h3.87v1.74h-3.87v9c0,1.77.78,2.55,2.34,2.55a6.12,6.12,0,0,0,1.53-.18V204a7.07,7.07,0,0,1-2.07.27c-2.91,0-3.9-1.77-3.9-4.44v-9.09h-2.76Z"/><path d="M487.87,189h2.76v-4l2.1-.9V189h3.87v1.74h-3.87v9c0,1.77.78,2.55,2.34,2.55a6.12,6.12,0,0,0,1.53-.18V204a7.07,7.07,0,0,1-2.07.27c-2.91,0-3.9-1.77-3.9-4.44v-9.09h-2.76Z"/><path d="M511.51,197H500.62c0,3.39,1.89,5.46,4.8,5.46a4.21,4.21,0,0,0,4.23-3.21l1.77.72a6.07,6.07,0,0,1-6.15,4.35c-4.26,0-6.75-2.73-6.75-7.77s2.52-8,6.66-8,6.33,2.4,6.33,7Zm-2.13-2c0-3.09-1.56-4.74-4.23-4.74s-4.47,1.92-4.53,5h8.76Z"/><path d="M514.45,199.71l2.13-.36c.36,2.13,1.89,3.27,4.26,3.27,2.19,0,3.42-1.05,3.42-2.55s-.84-2.1-2.43-2.4l-2.91-.57c-2.49-.48-3.9-1.83-3.9-4.11,0-2.52,2.13-4.35,5.52-4.35s5.49,1.47,5.79,4.14l-2.1.45c-.3-1.83-1.59-2.88-3.78-2.88s-3.39,1-3.39,2.55c0,1.41.93,2.1,2.49,2.4l2.94.57c2.67.54,3.84,1.83,3.84,4,0,2.67-2,4.47-5.55,4.47S514.93,202.71,514.45,199.71Z"/><path d="M536.38,199.71l2.13-.36c.36,2.13,1.89,3.27,4.26,3.27,2.19,0,3.42-1.05,3.42-2.55s-.84-2.1-2.43-2.4l-2.91-.57c-2.49-.48-3.9-1.83-3.9-4.11,0-2.52,2.13-4.35,5.52-4.35s5.49,1.47,5.79,4.14l-2.1.45c-.3-1.83-1.59-2.88-3.78-2.88s-3.39,1-3.39,2.55c0,1.41.93,2.1,2.49,2.4l2.94.57c2.67.54,3.84,1.83,3.84,4,0,2.67-2,4.47-5.55,4.47S536.86,202.71,536.38,199.71Z"/><path d="M564.22,197H553.33c0,3.39,1.89,5.46,4.8,5.46a4.21,4.21,0,0,0,4.23-3.21l1.77.72a6.07,6.07,0,0,1-6.15,4.35c-4.26,0-6.75-2.73-6.75-7.77s2.52-8,6.66-8,6.33,2.4,6.33,7Zm-2.13-2c0-3.09-1.56-4.74-4.23-4.74s-4.47,1.92-4.53,5h8.76Z"/><path d="M575.17,188.64a3.63,3.63,0,0,1,.57,0v2h-.24a4.39,4.39,0,0,0-3.21,1.14c-1.38,1.38-1.65,3.39-1.65,5.28V204h-2.07V189h1.95v3.66C571.21,190.35,572.86,188.64,575.17,188.64Z"/><path d="M577.24,196.5c0-4.89,2.73-7.86,6.9-7.86s6.87,3,6.87,7.86-2.73,7.86-6.87,7.86S577.24,201.39,577.24,196.5Zm11.55,0c0-3.9-1.77-6-4.65-6s-4.68,2.13-4.68,6,1.77,6,4.68,6S588.79,200.4,588.79,196.5Z"/><path d="M595.21,189h2v3.3a5.11,5.11,0,0,1,5.13-3.66c3.36,0,5.1,2.07,5.1,6.09V204h-2.1v-9.15c0-2.91-1.26-4.41-3.63-4.41-2.7,0-4.41,2.16-4.41,5.67V204h-2.07Z"/><path d="M610,189h2.76v-4l2.1-.9V189h3.87v1.74h-3.87v9c0,1.77.78,2.55,2.34,2.55a6.12,6.12,0,0,0,1.53-.18V204a7.07,7.07,0,0,1-2.07.27c-2.91,0-3.9-1.77-3.9-4.44v-9.09H610Z"/><path d="M628.36,200a3.79,3.79,0,0,1,1.83-3.36,12.9,12.9,0,0,1,4.92-1.35l3.33-.39v-.24c0-3.09-1.08-4.32-3.63-4.32-2.25,0-3.63,1.17-3.75,3.3h-2.25c.18-3.09,2.52-5,6-5,4,0,5.76,1.86,5.76,6.21v3.9A21.14,21.14,0,0,0,641,204h-2.19a20.58,20.58,0,0,1-.27-3,5.14,5.14,0,0,1-5.22,3.36C630.34,204.36,628.36,202.62,628.36,200Zm10.11-2.58v-1l-4.26.6c-2.55.36-3.66,1.23-3.66,2.88s1.26,2.64,3.27,2.64C636.61,202.62,638.47,200.52,638.47,197.46Z"/><path d="M644.23,196.5c0-4.89,2.61-7.86,6.81-7.86a5.67,5.67,0,0,1,6.06,5.43l-2.13.24c-.3-2.49-1.74-3.84-4-3.84-2.79,0-4.5,2.25-4.5,6s1.71,6.06,4.59,6.06c2.25,0,3.66-1.35,4.05-3.84l2,.3c-.54,3.39-2.76,5.37-6.06,5.37C646.87,204.36,644.23,201.33,644.23,196.5Z"/><path d="M660,196.5c0-4.89,2.61-7.86,6.81-7.86a5.67,5.67,0,0,1,6.06,5.43l-2.13.24c-.3-2.49-1.74-3.84-4-3.84-2.79,0-4.5,2.25-4.5,6s1.71,6.06,4.59,6.06c2.25,0,3.66-1.35,4-3.84l2,.3c-.54,3.39-2.76,5.37-6.06,5.37C662.59,204.36,660,201.33,660,196.5Z"/><path d="M688.63,197H677.74c0,3.39,1.89,5.46,4.8,5.46a4.21,4.21,0,0,0,4.23-3.21l1.77.72a6.08,6.08,0,0,1-6.15,4.35c-4.26,0-6.75-2.73-6.75-7.77s2.52-8,6.66-8,6.33,2.4,6.33,7Zm-2.13-2c0-3.09-1.56-4.74-4.23-4.74s-4.47,1.92-4.53,5h8.76Z"/><path d="M691.57,199.71l2.13-.36c.36,2.13,1.89,3.27,4.26,3.27,2.19,0,3.42-1.05,3.42-2.55s-.85-2.1-2.44-2.4l-2.9-.57c-2.49-.48-3.9-1.83-3.9-4.11,0-2.52,2.13-4.35,5.51-4.35s5.5,1.47,5.79,4.14l-2.09.45c-.3-1.83-1.59-2.88-3.79-2.88s-3.38,1-3.38,2.55c0,1.41.92,2.1,2.49,2.4l2.93.57c2.67.54,3.84,1.83,3.84,4,0,2.67-2,4.47-5.54,4.47S692.05,202.71,691.57,199.71Z"/><path d="M706.18,199.71l2.13-.36c.35,2.13,1.88,3.27,4.25,3.27,2.19,0,3.42-1.05,3.42-2.55s-.84-2.1-2.43-2.4l-2.9-.57c-2.5-.48-3.91-1.83-3.91-4.11,0-2.52,2.13-4.35,5.52-4.35s5.49,1.47,5.79,4.14l-2.1.45c-.3-1.83-1.59-2.88-3.78-2.88s-3.39,1-3.39,2.55c0,1.41.93,2.1,2.49,2.4l2.94.57c2.67.54,3.84,1.83,3.84,4,0,2.67-2,4.47-5.55,4.47S706.65,202.71,706.18,199.71Z"/><path d="M722.28,183h2.37v3.3h-2.37Zm.15,6h2.07v15h-2.07Z"/><path d="M732.27,201l-.39,3h-1.59V182.25h2.07v9.81a5.2,5.2,0,0,1,5-3.42c3.69,0,6.09,3.21,6.09,7.86s-2.46,7.86-6.24,7.86A5.2,5.2,0,0,1,732.27,201Zm9-4.5c0-3.63-1.62-6-4.5-6s-4.44,2.25-4.44,5.7v.72c0,3.33,1.68,5.58,4.38,5.58S741.27,200.16,741.27,196.5Z"/><path d="M749.91,204h-2.07V182.25h2.07Z"/><path d="M767.25,197H756.36c0,3.39,1.89,5.46,4.8,5.46a4.21,4.21,0,0,0,4.23-3.21l1.77.72a6.07,6.07,0,0,1-6.15,4.35c-4.26,0-6.75-2.73-6.75-7.77s2.52-8,6.66-8,6.33,2.4,6.33,7Zm-2.13-2c0-3.09-1.56-4.74-4.23-4.74s-4.47,1.92-4.53,5h8.76Z"/><path d="M770.22,199.71l2.13-.36c.36,2.13,1.89,3.27,4.26,3.27,2.19,0,3.42-1.05,3.42-2.55s-.84-2.1-2.43-2.4l-2.91-.57c-2.49-.48-3.9-1.83-3.9-4.11,0-2.52,2.13-4.35,5.52-4.35s5.49,1.47,5.79,4.14l-2.1.45c-.3-1.83-1.59-2.88-3.78-2.88s-3.39,1-3.39,2.55c0,1.41.93,2.1,2.49,2.4l2.94.57c2.67.54,3.84,1.83,3.84,4,0,2.67-2,4.47-5.55,4.47S770.7,202.71,770.22,199.71Z"/><path d="M805.14,197H794.25c0,3.39,1.89,5.46,4.8,5.46a4.21,4.21,0,0,0,4.23-3.21l1.77.72a6.07,6.07,0,0,1-6.15,4.35c-4.26,0-6.75-2.73-6.75-7.77s2.52-8,6.66-8,6.33,2.4,6.33,7Zm-2.13-2c0-3.09-1.56-4.74-4.23-4.74s-4.47,1.92-4.53,5H803Z"/><path d="M809.49,189h2v3.3a5.11,5.11,0,0,1,5.13-3.66c3.36,0,5.1,2.07,5.1,6.09V204h-2.1v-9.15c0-2.91-1.26-4.41-3.63-4.41-2.7,0-4.41,2.16-4.41,5.67V204h-2.07Z"/><path d="M836.13,204h-2.07V182.25h2.07Z"/><path d="M841.74,183h2.37v3.3h-2.37Zm.15,6H844v15h-2.07Z"/><path d="M858.57,190.05a4.86,4.86,0,0,1,1.5,3.63c0,2.91-2.07,5.07-5.46,5.07a6.18,6.18,0,0,1-2.88-.66,1.81,1.81,0,0,0-1.29,1.65c0,1,.75,1.71,2.55,1.71h3.93c3.24,0,4.89,1.47,4.89,4.08,0,2.82-2.22,4.68-7.23,4.68s-6.72-1.89-6.72-4.17a3.31,3.31,0,0,1,2.52-3.18,2.65,2.65,0,0,1-1.8-2.58,3,3,0,0,1,2.13-2.88,5,5,0,0,1-1.56-3.72c0-2.91,2.1-5,5.46-5a6.35,6.35,0,0,1,2.94.66,3.45,3.45,0,0,1,3.54-2.7,4.51,4.51,0,0,1,.87.09v1.86a4.18,4.18,0,0,0-1-.12A2.4,2.4,0,0,0,858.57,190.05Zm-5.64,13.23c-.42,0-.81,0-1.17-.06a2.63,2.63,0,0,0-1.83,2.46c0,2,2,2.79,4.89,2.79,3.72,0,4.89-1.17,4.89-2.82s-1.11-2.37-3.27-2.37Zm5.16-9.57a3.48,3.48,0,1,0-3.48,3.42A3.3,3.3,0,0,0,858.09,193.71Z"/><path d="M864.81,189h2v3.3a5.11,5.11,0,0,1,5.13-3.66c3.36,0,5.1,2.07,5.1,6.09V204h-2.1v-9.15c0-2.91-1.26-4.41-3.63-4.41-2.7,0-4.41,2.16-4.41,5.67V204h-2.07Z"/><path d="M893.73,197H882.84c0,3.39,1.89,5.46,4.8,5.46a4.21,4.21,0,0,0,4.23-3.21l1.77.72a6.07,6.07,0,0,1-6.15,4.35c-4.26,0-6.75-2.73-6.75-7.77s2.52-8,6.66-8,6.33,2.4,6.33,7Zm-2.13-2c0-3.09-1.56-4.74-4.23-4.74s-4.47,1.92-4.53,5h8.76Z"/><path d="M903.75,199.71l2.13-.36c.36,2.13,1.89,3.27,4.26,3.27,2.19,0,3.42-1.05,3.42-2.55s-.84-2.1-2.43-2.4l-2.91-.57c-2.49-.48-3.9-1.83-3.9-4.11,0-2.52,2.13-4.35,5.52-4.35s5.49,1.47,5.79,4.14l-2.1.45c-.3-1.83-1.59-2.88-3.78-2.88s-3.39,1-3.39,2.55c0,1.41.93,2.1,2.49,2.4l2.94.57c2.67.54,3.84,1.83,3.84,4,0,2.67-2,4.47-5.55,4.47S904.23,202.71,903.75,199.71Z"/><path d="M919.59,198.51V189h2.07v9.3c0,2.94,1.38,4.26,3.42,4.26,2.73,0,4.38-2.34,4.38-5.37V189h2.1v15h-2v-3.09a5.14,5.14,0,0,1-4.86,3.45C921,204.36,919.59,202.08,919.59,198.51Z"/><path d="M943.77,188.64a3.63,3.63,0,0,1,.57,0v2h-.24a4.39,4.39,0,0,0-3.21,1.14c-1.38,1.38-1.65,3.39-1.65,5.28V204h-2.07V189h2v3.66C939.81,190.35,941.46,188.64,943.77,188.64Z"/><path class="cls-8" d="M950.72,189h2v3.18a5.32,5.32,0,0,1,5.13-3.54c3.69,0,6.09,3.15,6.09,7.86s-2.55,7.86-6.24,7.86a5.06,5.06,0,0,1-4.89-3.18v8.67h-2.07Zm11,7.5c0-3.72-1.62-6-4.38-6s-4.56,2.34-4.56,5.64v.66c0,3.36,1.68,5.7,4.44,5.7S961.7,200.22,961.7,196.5Z"/><path class="cls-8" d="M966.65,200a3.79,3.79,0,0,1,1.83-3.36,12.9,12.9,0,0,1,4.92-1.35l3.33-.39v-.24c0-3.09-1.08-4.32-3.63-4.32-2.25,0-3.63,1.17-3.75,3.3H967.1c.18-3.09,2.52-5,6-5,4,0,5.76,1.86,5.76,6.21v3.9a21.14,21.14,0,0,0,.48,5.25h-2.19a20.58,20.58,0,0,1-.27-3,5.14,5.14,0,0,1-5.22,3.36C968.63,204.36,966.65,202.62,966.65,200Zm10.11-2.58v-1l-4.26.6c-2.55.36-3.66,1.23-3.66,2.88s1.26,2.64,3.27,2.64C974.9,202.62,976.76,200.52,976.76,197.46Z"/><path class="cls-8" d="M990.68,188.64a3.63,3.63,0,0,1,.57,0v2H991a4.39,4.39,0,0,0-3.21,1.14c-1.38,1.38-1.65,3.39-1.65,5.28V204h-2.07V189H986v3.66C986.72,190.35,988.37,188.64,990.68,188.64Z"/><path class="cls-8" d="M993.29,189h2.76v-4l2.1-.9V189H1002v1.74h-3.87v9c0,1.77.78,2.55,2.34,2.55a6.12,6.12,0,0,0,1.53-.18V204a7.07,7.07,0,0,1-2.07.27c-2.91,0-3.9-1.77-3.9-4.44v-9.09h-2.76Z"/><path class="cls-8" d="M1005.74,183h2.37v3.3h-2.37Zm.15,6H1008v15h-2.07Z"/><path class="cls-8" d="M1012.19,196.5c0-4.89,2.61-7.86,6.81-7.86a5.67,5.67,0,0,1,6.06,5.43l-2.13.24c-.3-2.49-1.74-3.84-4-3.84-2.79,0-4.5,2.25-4.5,6s1.71,6.06,4.59,6.06c2.25,0,3.66-1.35,4-3.84l2,.3c-.54,3.39-2.76,5.37-6.06,5.37C1014.83,204.36,1012.19,201.33,1012.19,196.5Z"/><path class="cls-8" d="M1029.14,183h2.37v3.3h-2.37Zm.15,6h2.07v15h-2.07Z"/><path class="cls-8" d="M1037,189h2v3.18a5.32,5.32,0,0,1,5.13-3.54c3.69,0,6.09,3.15,6.09,7.86s-2.55,7.86-6.24,7.86a5.06,5.06,0,0,1-4.89-3.18v8.67H1037Zm11,7.5c0-3.72-1.62-6-4.38-6s-4.56,2.34-4.56,5.64v.66c0,3.36,1.68,5.7,4.44,5.7S1048,200.22,1048,196.5Z"/><path class="cls-8" d="M1066,197h-10.89c0,3.39,1.89,5.46,4.8,5.46a4.21,4.21,0,0,0,4.23-3.21l1.77.72a6.07,6.07,0,0,1-6.15,4.35c-4.26,0-6.75-2.73-6.75-7.77s2.52-8,6.66-8,6.33,2.4,6.33,7Zm-2.13-2c0-3.09-1.56-4.74-4.23-4.74s-4.47,1.92-4.53,5h8.76Z"/><path class="cls-8" d="M1077,188.64a3.63,3.63,0,0,1,.57,0v2h-.24a4.39,4.39,0,0,0-3.21,1.14c-1.38,1.38-1.65,3.39-1.65,5.28V204h-2.07V189h2v3.66C1073,190.35,1074.65,188.64,1077,188.64Z"/><path class="cls-8" d="M1081.7,204h-2.82v-3.36h2.82Z"/><path class="cls-8" d="M1096,190.05a4.86,4.86,0,0,1,1.5,3.63c0,2.91-2.07,5.07-5.46,5.07a6.18,6.18,0,0,1-2.88-.66,1.81,1.81,0,0,0-1.29,1.65c0,1,.75,1.71,2.55,1.71h3.93c3.24,0,4.89,1.47,4.89,4.08,0,2.82-2.22,4.68-7.23,4.68s-6.72-1.89-6.72-4.17a3.31,3.31,0,0,1,2.52-3.18,2.65,2.65,0,0,1-1.8-2.58,3,3,0,0,1,2.13-2.88,5,5,0,0,1-1.56-3.72c0-2.91,2.1-5,5.46-5a6.35,6.35,0,0,1,2.94.66,3.45,3.45,0,0,1,3.54-2.7,4.51,4.51,0,0,1,.87.09v1.86a4.18,4.18,0,0,0-1-.12A2.4,2.4,0,0,0,1096,190.05Zm-5.64,13.23c-.42,0-.81,0-1.17-.06a2.63,2.63,0,0,0-1.83,2.46c0,2,1.95,2.79,4.89,2.79,3.72,0,4.89-1.17,4.89-2.82s-1.11-2.37-3.27-2.37Zm5.16-9.57a3.48,3.48,0,1,0-3.48,3.42A3.3,3.3,0,0,0,1095.56,193.71Z"/><path class="cls-8" d="M1114,197h-10.89c0,3.39,1.89,5.46,4.8,5.46a4.21,4.21,0,0,0,4.23-3.21l1.77.72a6.07,6.07,0,0,1-6.15,4.35c-4.26,0-6.75-2.73-6.75-7.77s2.52-8,6.66-8,6.33,2.4,6.33,7Zm-2.13-2c0-3.09-1.56-4.74-4.23-4.74s-4.47,1.92-4.53,5h8.76Z"/><path class="cls-8" d="M1120.22,204h-2.82v-3.36h2.82Z"/><path class="cls-8" d="M1123.49,196.5c0-4.89,2.61-7.86,6.81-7.86a5.67,5.67,0,0,1,6.06,5.43l-2.13.24c-.3-2.49-1.74-3.84-4-3.84-2.79,0-4.5,2.25-4.5,6s1.71,6.06,4.59,6.06c2.25,0,3.66-1.35,4-3.84l2,.3c-.54,3.39-2.76,5.37-6.06,5.37C1126.13,204.36,1123.49,201.33,1123.49,196.5Z"/><path class="cls-8" d="M1140.74,182.25h2.07v9.93a5.14,5.14,0,0,1,5.13-3.54c3.27,0,5,2.07,5,6.06V204h-2.1v-9.18c0-2.88-1.23-4.38-3.6-4.38-2.73,0-4.44,2.16-4.44,5.67V204h-2.07Z"/><path d="M51.67,272a3.79,3.79,0,0,1,1.83-3.36,12.9,12.9,0,0,1,4.92-1.35l3.33-.39v-.24c0-3.09-1.08-4.32-3.63-4.32-2.25,0-3.63,1.17-3.75,3.3H52.12c.18-3.09,2.52-5,6-5,4,0,5.76,1.86,5.76,6.21v3.9a21.14,21.14,0,0,0,.48,5.25H62.14a20.58,20.58,0,0,1-.27-3,5.14,5.14,0,0,1-5.22,3.36C53.65,276.36,51.67,274.62,51.67,272Zm10.11-2.58v-1l-4.26.6c-2.55.36-3.66,1.23-3.66,2.88s1.26,2.64,3.27,2.64C59.92,274.62,61.78,272.52,61.78,269.46Z"/><path d="M69,255h2.37v3.3H69Zm.15,6h2.07v15H69.16Z"/><path d="M76.93,261h2v3.3A5.11,5.11,0,0,1,84,260.64c3.36,0,5.1,2.07,5.1,6.09V276H87v-9.15c0-2.91-1.26-4.41-3.63-4.41-2.7,0-4.41,2.16-4.41,5.67V276H76.93Z"/><path d="M93,271.71l2.13-.36c.36,2.13,1.89,3.27,4.26,3.27,2.19,0,3.42-1.05,3.42-2.55s-.84-2.1-2.43-2.4l-2.91-.57c-2.49-.48-3.9-1.83-3.9-4.11,0-2.52,2.13-4.35,5.52-4.35s5.49,1.47,5.79,4.14l-2.1.45c-.3-1.83-1.59-2.88-3.78-2.88s-3.39,1-3.39,2.55c0,1.41.93,2.1,2.49,2.4l2.94.57c2.67.54,3.84,1.83,3.84,4,0,2.67-2,4.47-5.55,4.47S93.43,274.71,93,271.71Z"/><path d="M109.15,255h2.37v3.3h-2.37Zm.15,6h2.07v15H109.3Z"/><path d="M134.74,273a5.1,5.1,0,0,1-5,3.36c-3.69,0-6.18-3.09-6.18-7.86s2.67-7.86,6.39-7.86a4.81,4.81,0,0,1,4.83,3.18l.45-2.82h1.56v20.85h-2.1Zm0-4.11v-.75c0-3.36-1.65-5.64-4.47-5.64s-4.47,2.25-4.47,6,1.65,6,4.44,6S134.77,272.22,134.77,268.89Z"/><path d="M142.06,270.51V261h2.07v9.3c0,2.94,1.38,4.26,3.42,4.26,2.73,0,4.38-2.34,4.38-5.37V261H154v15h-2v-3.09a5.14,5.14,0,0,1-4.86,3.45C143.44,276.36,142.06,274.08,142.06,270.51Z"/><path d="M159,260.94a2.57,2.57,0,0,0,1.59-2.82v-.06h-1.5V254.7h2.85v3.18c0,2.22-.57,3.3-2.37,4.14Z"/><path d="M166.45,270.51V261h2.07v9.3c0,2.94,1.38,4.26,3.42,4.26,2.73,0,4.38-2.34,4.38-5.37V261h2.1v15h-2v-3.09a5.14,5.14,0,0,1-4.86,3.45C167.83,276.36,166.45,274.08,166.45,270.51Z"/><path d="M184.12,261h2v3.3a5.11,5.11,0,0,1,5.13-3.66c3.36,0,5.1,2.07,5.1,6.09V276h-2.1v-9.15c0-2.91-1.26-4.41-3.63-4.41-2.7,0-4.41,2.16-4.41,5.67V276h-2.07Z"/><path d="M217.93,273.66a4.83,4.83,0,0,1-4.53,2.7c-3.57,0-6-3.09-6-7.8,0-4.89,2.55-7.92,6.33-7.92a4.46,4.46,0,0,1,4.41,2.58l.39-2.22h4.17v20.85h-4.8Zm.06-4.47v-1.38c0-2.4-1.05-3.84-2.79-3.84s-2.82,1.59-2.82,4.5,1.05,4.56,2.85,4.56S218,271.56,218,269.19Z"/><path d="M226.54,270.72V261h4.8v8.88c0,1.86.75,2.82,2.16,2.82,1.56,0,2.52-1.23,2.52-3.12V261h4.83v15h-4.59v-2.73a4.84,4.84,0,0,1-4.68,3.09C228,276.36,226.54,274.23,226.54,270.72Z"/><path d="M258.7,269.58H248.29a3.23,3.23,0,0,0,3.45,3.33,3.48,3.48,0,0,0,3.27-2.1l3.54,1.62a7.33,7.33,0,0,1-6.87,3.93c-5,0-8-2.85-8-7.71s2.94-8,7.62-8,7.35,2.73,7.35,7.5Zm-4.65-2.82c0-2.13-1-3.27-2.79-3.27s-2.91,1.26-3,3.39h5.76Z"/><path d="M260.11,272.88l2.76-2a5.56,5.56,0,0,0,4.74,2.25c1.65,0,2.43-.54,2.43-1.35s-.48-1.11-2.13-1.35l-2.34-.42c-3.09-.51-4.65-2-4.65-4.59,0-2.85,2.49-4.74,6.6-4.74,3,0,5.55,1,6.78,2.79l-2.49,2.22a6.17,6.17,0,0,0-4.56-1.8c-1.41,0-2.1.42-2.1,1.26s.48,1,1.65,1.23l3,.51c3.09.51,4.38,2,4.38,4.56,0,3-2.4,4.95-6.63,4.95C264.25,276.36,261.52,275.16,260.11,272.88Z"/><path d="M275.41,261H278v-3.6l4.8-1.86V261h3.57v3.21h-3.57V270a2,2,0,0,0,2.19,2.28,6.27,6.27,0,0,0,1.38-.15V276a13.74,13.74,0,0,1-2.73.3c-4,0-5.64-1.8-5.64-5.1v-7h-2.61Z"/><path d="M289.06,254.46h5v4.38h-5Zm.09,6.54H294v15h-4.83Z"/><path d="M296.86,268.47c0-5.16,3.36-7.83,7.77-7.83s7.8,2.67,7.8,7.83-3.36,7.89-7.8,7.89S296.86,273.63,296.86,268.47Zm10.77,0c0-3.09-1.11-4.5-3-4.5s-3,1.41-3,4.5,1.11,4.56,3,4.56S307.63,271.53,307.63,268.47Z"/><path d="M315.31,261h4.62v2.88a5.16,5.16,0,0,1,5-3.24c3.24,0,4.89,2.07,4.89,6.06V276H325v-8.64c0-2.07-.72-3.06-2.25-3.06-1.68,0-2.61,1.29-2.61,3.6V276h-4.83Z"/><path d="M333.58,261h4.62v2.88a5.16,5.16,0,0,1,5-3.24c3.24,0,4.89,2.07,4.89,6.06V276h-4.8v-8.64c0-2.07-.72-3.06-2.25-3.06s-2.61,1.29-2.61,3.6V276h-4.83Z"/><path d="M350.62,271.92a3.74,3.74,0,0,1,1.53-3.24,10.57,10.57,0,0,1,4.71-1.47l3.63-.51v-.51c0-1.71-.72-2.46-2.22-2.46a2.16,2.16,0,0,0-2.4,2.22H351.1c.24-3.33,2.94-5.31,7.2-5.31,4.83,0,7,1.89,7,6.21v5a16.32,16.32,0,0,0,.42,4.17H361a14.39,14.39,0,0,1-.24-2.37c-.75,1.68-2.67,2.73-5,2.73C352.69,276.36,350.62,274.59,350.62,271.92Zm10-1.65v-1.2l-2.58.42c-1.77.33-2.58,1-2.58,2.07s.84,1.74,2.1,1.74A2.89,2.89,0,0,0,360.64,270.27Z"/><path d="M369,254.46h5v4.38h-5ZM369,261h4.83v15H369Z"/><path d="M387.43,260.64h.3v4.59a8.44,8.44,0,0,0-.9,0,4.32,4.32,0,0,0-2.91.9,4.93,4.93,0,0,0-1.2,3.78V276h-4.83V261h4.53v3.87C383.2,262.17,384.85,260.64,387.43,260.64Z"/><path d="M403.84,269.58H393.43a3.23,3.23,0,0,0,3.45,3.33,3.48,3.48,0,0,0,3.27-2.1l3.54,1.62a7.33,7.33,0,0,1-6.87,3.93c-4.95,0-7.95-2.85-7.95-7.71s2.94-8,7.62-8,7.35,2.73,7.35,7.5Zm-4.65-2.82c0-2.13-1-3.27-2.79-3.27s-2.91,1.26-3,3.39h5.76Z"/><path d="M53.32,348V326.7h2.31V348Z"/><path d="M63.85,348H61.78V326.25h2.07Z"/><path d="M77.65,333h2v3.18a5.32,5.32,0,0,1,5.13-3.54c3.69,0,6.09,3.15,6.09,7.86s-2.55,7.86-6.24,7.86a5.06,5.06,0,0,1-4.89-3.18v8.67H77.65Zm11,7.5c0-3.72-1.62-6-4.38-6s-4.56,2.34-4.56,5.64v.66c0,3.36,1.68,5.7,4.44,5.7S88.63,344.22,88.63,340.5Z"/><path d="M106.72,341H95.83c0,3.39,1.89,5.46,4.8,5.46a4.21,4.21,0,0,0,4.23-3.21l1.77.72a6.07,6.07,0,0,1-6.15,4.35c-4.26,0-6.75-2.73-6.75-7.77s2.52-7.95,6.66-7.95,6.33,2.4,6.33,7Zm-2.13-2c0-3.09-1.56-4.74-4.23-4.74s-4.47,1.92-4.53,5h8.76Z"/><path d="M117.76,332.64a3.63,3.63,0,0,1,.57,0v2h-.24a4.39,4.39,0,0,0-3.21,1.14c-1.38,1.38-1.65,3.39-1.65,5.28V348h-2.07V333h2v3.66C113.8,334.35,115.45,332.64,117.76,332.64Z"/><path d="M123.79,333v2.91a4.47,4.47,0,0,1,4.44-3.27,4.23,4.23,0,0,1,4.32,3.21,4.76,4.76,0,0,1,4.62-3.21c2.94,0,4.62,2,4.62,5.55V348h-2.1v-9.63c0-2.55-1.08-3.93-3.15-3.93-2.28,0-3.69,1.68-3.69,4.44V348h-2.07v-9.75c0-2.43-1.14-3.81-3.12-3.81-2.28,0-3.75,1.86-3.75,4.8V348h-2.07V333Z"/><path d="M158.62,341H147.73c0,3.39,1.89,5.46,4.8,5.46a4.21,4.21,0,0,0,4.23-3.21l1.77.72a6.07,6.07,0,0,1-6.15,4.35c-4.26,0-6.75-2.73-6.75-7.77s2.52-7.95,6.66-7.95,6.33,2.4,6.33,7Zm-2.13-2c0-3.09-1.56-4.74-4.23-4.74s-4.47,1.92-4.53,5h8.76Z"/><path d="M160.45,333h2.76v-4l2.1-.9V333h3.87v1.74h-3.87v9c0,1.77.78,2.55,2.34,2.55a6.12,6.12,0,0,0,1.53-.18V348a7.07,7.07,0,0,1-2.07.27c-2.91,0-3.9-1.77-3.9-4.44v-9.09h-2.76Z"/><path d="M171.34,333h2.76v-4l2.1-.9V333h3.87v1.74H176.2v9c0,1.77.78,2.55,2.34,2.55a6.12,6.12,0,0,0,1.53-.18V348a7.07,7.07,0,0,1-2.07.27c-2.91,0-3.9-1.77-3.9-4.44v-9.09h-2.76Z"/><path d="M190.63,332.64a3.63,3.63,0,0,1,.57,0v2H191a4.39,4.39,0,0,0-3.21,1.14c-1.38,1.38-1.65,3.39-1.65,5.28V348H184V333H186v3.66C186.67,334.35,188.32,332.64,190.63,332.64Z"/><path d="M192.94,344a3.79,3.79,0,0,1,1.83-3.36,12.9,12.9,0,0,1,4.92-1.35l3.33-.39v-.24c0-3.09-1.08-4.32-3.63-4.32-2.25,0-3.63,1.17-3.75,3.3h-2.25c.18-3.09,2.52-5,6-5,4,0,5.76,1.86,5.76,6.21v3.9a21.14,21.14,0,0,0,.48,5.25h-2.19a20.58,20.58,0,0,1-.27-3,5.14,5.14,0,0,1-5.22,3.36C194.92,348.36,192.94,346.62,192.94,344Zm10.11-2.58v-1l-4.26.6c-2.55.36-3.66,1.23-3.66,2.88s1.26,2.64,3.27,2.64C201.19,346.62,203.05,344.52,203.05,341.46Z"/><path d="M217,340.5c0-4.62,2.61-7.86,6.42-7.86a4.78,4.78,0,0,1,4.71,3.09v-9.48h2.1V348h-2v-3.18a5.23,5.23,0,0,1-5.07,3.54C219.43,348.36,217,345.18,217,340.5Zm11.16.33v-.63c0-3.42-1.65-5.7-4.44-5.7s-4.5,2.25-4.5,6,1.68,6,4.47,6S228.13,344.16,228.13,340.83Z"/><path d="M247.6,341H236.71c0,3.39,1.89,5.46,4.8,5.46a4.21,4.21,0,0,0,4.23-3.21l1.77.72a6.07,6.07,0,0,1-6.15,4.35c-4.26,0-6.75-2.73-6.75-7.77s2.52-7.95,6.66-7.95,6.33,2.4,6.33,7Zm-2.13-2c0-3.09-1.56-4.74-4.23-4.74s-4.47,1.92-4.53,5h8.76Z"/><path d="M258.58,340.5c0-4.89,2.61-7.86,6.81-7.86a5.67,5.67,0,0,1,6.06,5.43l-2.13.24c-.3-2.49-1.74-3.84-4-3.84-2.79,0-4.5,2.25-4.5,6s1.71,6.06,4.59,6.06c2.25,0,3.66-1.35,4.05-3.84l2,.3c-.54,3.39-2.76,5.37-6.06,5.37C261.22,348.36,258.58,345.33,258.58,340.5Z"/><path d="M274.36,340.5c0-4.89,2.73-7.86,6.9-7.86s6.87,3,6.87,7.86-2.73,7.86-6.87,7.86S274.36,345.39,274.36,340.5Zm11.55,0c0-3.9-1.77-6-4.65-6s-4.68,2.13-4.68,6,1.77,6,4.68,6S285.91,344.4,285.91,340.5Z"/><path d="M294.37,333v2.91a4.47,4.47,0,0,1,4.44-3.27,4.23,4.23,0,0,1,4.32,3.21,4.76,4.76,0,0,1,4.62-3.21c2.94,0,4.62,2,4.62,5.55V348h-2.1v-9.63c0-2.55-1.08-3.93-3.15-3.93-2.28,0-3.69,1.68-3.69,4.44V348h-2.07v-9.75c0-2.43-1.14-3.81-3.12-3.81-2.28,0-3.75,1.86-3.75,4.8V348h-2.07V333Z"/><path d="M317.59,333h2v3.18a5.32,5.32,0,0,1,5.13-3.54c3.69,0,6.09,3.15,6.09,7.86s-2.55,7.86-6.24,7.86a5.06,5.06,0,0,1-4.89-3.18v8.67h-2.07Zm11,7.5c0-3.72-1.62-6-4.38-6s-4.56,2.34-4.56,5.64v.66c0,3.36,1.68,5.7,4.44,5.7S328.57,344.22,328.57,340.5Z"/><path d="M337.3,348h-2.07V326.25h2.07Z"/><path d="M354.73,341H343.84c0,3.39,1.89,5.46,4.8,5.46a4.21,4.21,0,0,0,4.23-3.21l1.77.72a6.07,6.07,0,0,1-6.15,4.35c-4.26,0-6.75-2.73-6.75-7.77s2.52-7.95,6.66-7.95,6.33,2.4,6.33,7Zm-2.13-2c0-3.09-1.56-4.74-4.23-4.74s-4.47,1.92-4.53,5h8.76Zm-3.33-8.46h-2l3-4.29h2.58Z"/><path d="M356.53,333h2.76v-4l2.1-.9V333h3.87v1.74h-3.87v9c0,1.77.78,2.55,2.34,2.55a6.12,6.12,0,0,0,1.53-.18V348a7.07,7.07,0,0,1-2.07.27c-2.91,0-3.9-1.77-3.9-4.44v-9.09h-2.76Z"/><path d="M380.29,341H369.4c0,3.39,1.89,5.46,4.8,5.46a4.21,4.21,0,0,0,4.23-3.21l1.77.72a6.07,6.07,0,0,1-6.15,4.35c-4.26,0-6.75-2.73-6.75-7.77s2.52-7.95,6.66-7.95,6.33,2.4,6.33,7Zm-2.13-2c0-3.09-1.56-4.74-4.23-4.74s-4.47,1.92-4.53,5h8.76Z"/><path d="M391.33,332.64a3.63,3.63,0,0,1,.57,0v2h-.24a4.39,4.39,0,0,0-3.21,1.14c-1.38,1.38-1.65,3.39-1.65,5.28V348h-2.07V333h1.95v3.66C387.37,334.35,389,332.64,391.33,332.64Z"/><path d="M404.41,348h-2.07V326.25h2.07Z"/><path d="M421.84,341H411c0,3.39,1.89,5.46,4.8,5.46a4.21,4.21,0,0,0,4.23-3.21l1.77.72a6.07,6.07,0,0,1-6.15,4.35c-4.26,0-6.75-2.73-6.75-7.77s2.52-7.95,6.66-7.95,6.33,2.4,6.33,7Zm-2.13-2c0-3.09-1.56-4.74-4.23-4.74s-4.47,1.92-4.53,5h8.76Z"/><path d="M424.87,343.71l2.13-.36c.36,2.13,1.89,3.27,4.26,3.27,2.19,0,3.42-1.05,3.42-2.55s-.84-2.1-2.43-2.4l-2.91-.57c-2.49-.48-3.9-1.83-3.9-4.11,0-2.52,2.13-4.35,5.52-4.35s5.49,1.47,5.79,4.14l-2.1.45c-.3-1.83-1.59-2.88-3.78-2.88s-3.39,1-3.39,2.55c0,1.41.93,2.1,2.49,2.4l2.94.57c2.67.54,3.84,1.83,3.84,4,0,2.67-2,4.47-5.55,4.47S425.35,346.71,424.87,343.71Z"/><path d="M447.76,340.5c0-4.62,2.61-7.86,6.42-7.86a4.78,4.78,0,0,1,4.71,3.09v-9.48H461V348h-2v-3.18a5.23,5.23,0,0,1-5.07,3.54C450.22,348.36,447.76,345.18,447.76,340.5Zm11.16.33v-.63c0-3.42-1.65-5.7-4.44-5.7s-4.5,2.25-4.5,6,1.68,6,4.47,6S458.92,344.16,458.92,340.83Z"/><path d="M466.66,327H469v3.3h-2.37Zm.15,6h2.07v15h-2.07Z"/><path d="M473.17,343.71l2.13-.36c.36,2.13,1.89,3.27,4.26,3.27,2.19,0,3.42-1.05,3.42-2.55s-.84-2.1-2.43-2.4l-2.91-.57c-2.49-.48-3.9-1.83-3.9-4.11,0-2.52,2.13-4.35,5.52-4.35s5.49,1.47,5.79,4.14l-2.1.45c-.3-1.83-1.59-2.88-3.78-2.88s-3.39,1-3.39,2.55c0,1.41.93,2.1,2.49,2.4l2.94.57c2.67.54,3.84,1.83,3.84,4,0,2.67-2,4.47-5.55,4.47S473.65,346.71,473.17,343.71Z"/><path d="M488.11,340.5c0-4.89,2.61-7.86,6.81-7.86a5.67,5.67,0,0,1,6.06,5.43l-2.13.24c-.3-2.49-1.74-3.84-4-3.84-2.79,0-4.5,2.25-4.5,6s1.71,6.06,4.59,6.06c2.25,0,3.66-1.35,4.05-3.84l2,.3c-.54,3.39-2.76,5.37-6.06,5.37C490.75,348.36,488.11,345.33,488.11,340.5Z"/><path d="M504.85,342.51V333h2.07v9.3c0,2.94,1.38,4.26,3.42,4.26,2.73,0,4.38-2.34,4.38-5.37V333h2.1v15h-2v-3.09a5.14,5.14,0,0,1-4.86,3.45C506.23,348.36,504.85,346.08,504.85,342.51Z"/><path d="M521.11,343.71l2.13-.36c.36,2.13,1.89,3.27,4.26,3.27,2.19,0,3.42-1.05,3.42-2.55s-.84-2.1-2.43-2.4l-2.91-.57c-2.49-.48-3.9-1.83-3.9-4.11,0-2.52,2.13-4.35,5.52-4.35s5.49,1.47,5.79,4.14l-2.1.45c-.3-1.83-1.59-2.88-3.78-2.88s-3.39,1-3.39,2.55c0,1.41.93,2.1,2.49,2.4l2.94.57c2.67.54,3.84,1.83,3.84,4,0,2.67-2,4.47-5.55,4.47S521.59,346.71,521.11,343.71Z"/><path d="M535.81,343.71l2.13-.36c.36,2.13,1.89,3.27,4.26,3.27,2.19,0,3.42-1.05,3.42-2.55s-.84-2.1-2.43-2.4l-2.91-.57c-2.49-.48-3.9-1.83-3.9-4.11,0-2.52,2.13-4.35,5.52-4.35s5.49,1.47,5.79,4.14l-2.1.45c-.3-1.83-1.59-2.88-3.78-2.88s-3.39,1-3.39,2.55c0,1.41.93,2.1,2.49,2.4l2.94.57c2.67.54,3.84,1.83,3.84,4,0,2.67-2,4.47-5.55,4.47S536.29,346.71,535.81,343.71Z"/><path d="M552,327h2.37v3.3H552Zm.15,6h2.07v15h-2.07Z"/><path d="M558.52,340.5c0-4.89,2.73-7.86,6.9-7.86s6.86,3,6.86,7.86-2.72,7.86-6.86,7.86S558.52,345.39,558.52,340.5Zm11.54,0c0-3.9-1.76-6-4.64-6s-4.68,2.13-4.68,6,1.77,6,4.68,6S570.06,344.4,570.06,340.5Z"/><path d="M576.58,333h2v3.3a5.11,5.11,0,0,1,5.13-3.66c3.36,0,5.1,2.07,5.1,6.09V348h-2.1v-9.15c0-2.91-1.26-4.41-3.63-4.41-2.7,0-4.41,2.16-4.41,5.67V348h-2.07Z"/><path d="M592.6,343.71l2.13-.36c.36,2.13,1.89,3.27,4.26,3.27,2.19,0,3.42-1.05,3.42-2.55s-.85-2.1-2.43-2.4l-2.91-.57c-2.49-.48-3.9-1.83-3.9-4.11,0-2.52,2.13-4.35,5.52-4.35s5.49,1.47,5.79,4.14l-2.1.45c-.3-1.83-1.59-2.88-3.78-2.88s-3.39,1-3.39,2.55c0,1.41.93,2.1,2.49,2.4l2.94.57c2.67.54,3.84,1.83,3.84,4,0,2.67-2,4.47-5.55,4.47S593.08,346.71,592.6,343.71Z"/><path d="M615.49,340.5c0-4.62,2.61-7.86,6.41-7.86a4.77,4.77,0,0,1,4.71,3.09v-9.48h2.1V348h-2v-3.18a5.23,5.23,0,0,1-5.06,3.54C617.94,348.36,615.49,345.18,615.49,340.5Zm11.16.33v-.63c0-3.42-1.66-5.7-4.45-5.7s-4.49,2.25-4.49,6,1.68,6,4.47,6S626.65,344.16,626.65,340.83Z"/><path d="M633.78,332.94c1.36-.69,1.59-1.41,1.59-2.82v-.06h-1.5V326.7h2.86v3.18c0,2.22-.58,3.3-2.38,4.14Z"/><path d="M640,344a3.79,3.79,0,0,1,1.83-3.36,12.9,12.9,0,0,1,4.92-1.35l3.33-.39v-.24c0-3.09-1.08-4.32-3.63-4.32-2.25,0-3.63,1.17-3.75,3.3h-2.25c.18-3.09,2.52-5,6-5,4,0,5.76,1.86,5.76,6.21v3.9a21.14,21.14,0,0,0,.48,5.25h-2.19a20.58,20.58,0,0,1-.27-3,5.14,5.14,0,0,1-5.22,3.36C642,348.36,640,346.62,640,344Zm10.11-2.58v-1l-4.26.6c-2.55.36-3.66,1.23-3.66,2.88s1.26,2.64,3.27,2.64C648.24,346.62,650.1,344.52,650.1,341.46Z"/><path d="M657,342.51V333h2.07v9.3c0,2.94,1.38,4.26,3.42,4.26,2.73,0,4.38-2.34,4.38-5.37V333H669v15h-2v-3.09a5.14,5.14,0,0,1-4.86,3.45C658.41,348.36,657,346.08,657,342.51Z"/><path d="M671.25,353.88v-1.8c.78.06,1.14.09,1.44.09,1.2,0,1.89-.57,1.89-2.61V333h2.1v16.8c0,2.34-1,4.26-3.69,4.26A8.15,8.15,0,0,1,671.25,353.88ZM674.43,327h2.37v3.3h-2.37Z"/><path d="M680.94,340.5c0-4.89,2.73-7.86,6.9-7.86s6.87,3,6.87,7.86-2.73,7.86-6.87,7.86S680.94,345.39,680.94,340.5Zm11.55,0c0-3.9-1.77-6-4.65-6s-4.68,2.13-4.68,6,1.77,6,4.68,6S692.49,344.4,692.49,340.5Z"/><path d="M698.55,342.51V333h2.07v9.3c0,2.94,1.38,4.26,3.42,4.26,2.73,0,4.38-2.34,4.38-5.37V333h2.1v15h-2v-3.09a5.14,5.14,0,0,1-4.86,3.45C699.93,348.36,698.55,346.08,698.55,342.51Z"/><path d="M722.82,332.64a3.63,3.63,0,0,1,.57,0v2h-.24a4.39,4.39,0,0,0-3.21,1.14c-1.38,1.38-1.65,3.39-1.65,5.28V348h-2.07V333h1.95v3.66C718.86,334.35,720.51,332.64,722.82,332.64Z"/><path d="M725,340.5c0-4.62,2.61-7.86,6.42-7.86a4.78,4.78,0,0,1,4.71,3.09v-9.48h2.1V348h-2v-3.18a5.23,5.23,0,0,1-5.07,3.54C727.47,348.36,725,345.18,725,340.5Zm11.16.33v-.63c0-3.42-1.65-5.7-4.44-5.7s-4.5,2.25-4.5,6,1.68,6,4.47,6S736.17,344.16,736.17,340.83Z"/><path d="M743.31,332.94a2.57,2.57,0,0,0,1.59-2.82v-.06h-1.5V326.7h2.85v3.18c0,2.22-.57,3.3-2.37,4.14Z"/><path d="M751.38,326.25h2.07v9.93a5.14,5.14,0,0,1,5.13-3.54c3.27,0,5,2.07,5,6.06V348h-2.1v-9.18c0-2.88-1.23-4.38-3.6-4.38-2.73,0-4.44,2.16-4.44,5.67V348h-2.07Z"/><path d="M768.36,342.51V333h2.07v9.3c0,2.94,1.38,4.26,3.42,4.26,2.73,0,4.38-2.34,4.38-5.37V333h2.1v15h-2v-3.09a5.14,5.14,0,0,1-4.86,3.45C769.74,348.36,768.36,346.08,768.36,342.51Z"/><path d="M785.88,327h2.37v3.3h-2.37Zm.15,6h2.07v15H786Z"/><path d="M803.88,336.36h-2.82V333h2.82Zm0,11.64h-2.82v-3.36h2.82Z"/><path d="M91,373.65a2.37,2.37,0,1,1,4.74,0,2.37,2.37,0,0,1-4.74,0Z"/><path d="M121.3,377H110.41c0,3.39,1.89,5.46,4.8,5.46a4.21,4.21,0,0,0,4.23-3.21l1.77.72a6.07,6.07,0,0,1-6.15,4.35c-4.26,0-6.75-2.73-6.75-7.77s2.52-7.95,6.66-7.95,6.33,2.4,6.33,7Zm-2.13-2c0-3.09-1.56-4.74-4.23-4.74s-4.47,1.92-4.53,5h8.76Zm-3.33-8.46h-2l3-4.29h2.58Z"/><path d="M122.86,369h2.28l3.72,10.62c.27.84.48,1.53.63,2.22h.09c.15-.69.39-1.38.66-2.22L134,369h2.28l-5.55,15h-2.28Z"/><path d="M137.71,380a3.79,3.79,0,0,1,1.83-3.36,12.9,12.9,0,0,1,4.92-1.35l3.33-.39v-.24c0-3.09-1.08-4.32-3.63-4.32-2.25,0-3.63,1.17-3.75,3.3h-2.25c.18-3.09,2.52-5,6-5,4,0,5.76,1.86,5.76,6.21v3.9a21.14,21.14,0,0,0,.48,5.25h-2.19a20.58,20.58,0,0,1-.27-3,5.14,5.14,0,0,1-5.22,3.36C139.69,384.36,137.71,382.62,137.71,380Zm10.11-2.58v-1l-4.26.6c-2.55.36-3.66,1.23-3.66,2.88s1.26,2.64,3.27,2.64C146,382.62,147.82,380.52,147.82,377.46Z"/><path d="M157.42,384h-2.07V362.25h2.07Z"/><path d="M162.82,378.51V369h2.07v9.3c0,2.94,1.38,4.26,3.42,4.26,2.73,0,4.38-2.34,4.38-5.37V369h2.1v15h-2v-3.09a5.14,5.14,0,0,1-4.86,3.45C164.2,384.36,162.82,382.08,162.82,378.51Z"/><path d="M192.07,377H181.18c0,3.39,1.89,5.46,4.8,5.46a4.21,4.21,0,0,0,4.23-3.21L192,380a6.07,6.07,0,0,1-6.15,4.35c-4.26,0-6.75-2.73-6.75-7.77s2.52-7.95,6.66-7.95,6.33,2.4,6.33,7Zm-2.13-2c0-3.09-1.56-4.74-4.23-4.74s-4.47,1.92-4.53,5h8.76Z"/><path d="M203.11,368.64a3.63,3.63,0,0,1,.57,0v2h-.24a4.39,4.39,0,0,0-3.21,1.14c-1.38,1.38-1.65,3.39-1.65,5.28V384h-2.07V369h2v3.66C199.15,370.35,200.8,368.64,203.11,368.64Z"/><path d="M216.19,384h-2.07V362.25h2.07Z"/><path d="M233.62,377H222.73c0,3.39,1.89,5.46,4.8,5.46a4.21,4.21,0,0,0,4.23-3.21l1.77.72a6.07,6.07,0,0,1-6.15,4.35c-4.26,0-6.75-2.73-6.75-7.77s2.52-7.95,6.66-7.95,6.33,2.4,6.33,7Zm-2.13-2c0-3.09-1.56-4.74-4.23-4.74s-4.47,1.92-4.53,5h8.76Z"/><path d="M236.65,379.71l2.13-.36c.36,2.13,1.89,3.27,4.26,3.27,2.19,0,3.42-1.05,3.42-2.55s-.84-2.1-2.43-2.4l-2.91-.57c-2.49-.48-3.9-1.83-3.9-4.11,0-2.52,2.13-4.35,5.52-4.35s5.49,1.47,5.79,4.14l-2.1.45c-.3-1.83-1.59-2.88-3.78-2.88s-3.39,1-3.39,2.55c0,1.41.93,2.1,2.49,2.4l2.94.57c2.67.54,3.84,1.83,3.84,4,0,2.67-2,4.47-5.55,4.47S237.13,382.71,236.65,379.71Z"/><path d="M259.54,379.71l2.13-.36c.36,2.13,1.89,3.27,4.26,3.27,2.19,0,3.42-1.05,3.42-2.55s-.84-2.1-2.43-2.4L264,377.1c-2.49-.48-3.9-1.83-3.9-4.11,0-2.52,2.13-4.35,5.52-4.35s5.49,1.47,5.79,4.14l-2.1.45c-.3-1.83-1.59-2.88-3.78-2.88s-3.39,1-3.39,2.55c0,1.41.93,2.1,2.49,2.4l2.94.57c2.67.54,3.84,1.83,3.84,4,0,2.67-2,4.47-5.55,4.47S260,382.71,259.54,379.71Z"/><path d="M274.48,376.5c0-4.89,2.61-7.86,6.81-7.86a5.67,5.67,0,0,1,6.06,5.43l-2.13.24c-.3-2.49-1.74-3.84-4-3.84-2.79,0-4.5,2.25-4.5,6s1.71,6.06,4.59,6.06c2.25,0,3.66-1.35,4-3.84l2,.3c-.54,3.39-2.76,5.37-6.06,5.37C277.12,384.36,274.48,381.33,274.48,376.5Z"/><path d="M303.25,377H292.36c0,3.39,1.89,5.46,4.8,5.46a4.21,4.21,0,0,0,4.23-3.21l1.77.72a6.07,6.07,0,0,1-6.15,4.35c-4.26,0-6.75-2.73-6.75-7.77s2.52-7.95,6.66-7.95,6.33,2.4,6.33,7Zm-2.13-2c0-3.09-1.56-4.74-4.23-4.74s-4.47,1.92-4.53,5h8.76Zm-3.33-8.46h-2l3-4.29h2.58Z"/><path d="M307.69,369h2v3.3a5.11,5.11,0,0,1,5.13-3.66c3.36,0,5.1,2.07,5.1,6.09V384h-2.1v-9.15c0-2.91-1.26-4.41-3.63-4.41-2.7,0-4.41,2.16-4.41,5.67V384h-2.07Z"/><path d="M323.77,380a3.79,3.79,0,0,1,1.83-3.36,12.9,12.9,0,0,1,4.92-1.35l3.33-.39v-.24c0-3.09-1.08-4.32-3.63-4.32-2.25,0-3.63,1.17-3.75,3.3h-2.25c.18-3.09,2.52-5,6-5,4,0,5.76,1.86,5.76,6.21v3.9a21.14,21.14,0,0,0,.48,5.25h-2.19a20.58,20.58,0,0,1-.27-3,5.14,5.14,0,0,1-5.22,3.36C325.75,384.36,323.77,382.62,323.77,380Zm10.11-2.58v-1l-4.26.6c-2.55.36-3.66,1.23-3.66,2.88s1.26,2.64,3.27,2.64C332,382.62,333.88,380.52,333.88,377.46Z"/><path d="M347.86,368.64a3.63,3.63,0,0,1,.57,0v2h-.24a4.39,4.39,0,0,0-3.21,1.14c-1.38,1.38-1.65,3.39-1.65,5.28V384h-2.07V369h1.95v3.66C343.9,370.35,345.55,368.64,347.86,368.64Z"/><path d="M351.79,363h2.37v3.3h-2.37Zm.15,6H354v15h-2.07Z"/><path d="M358.3,376.5c0-4.89,2.73-7.86,6.9-7.86s6.87,3,6.87,7.86-2.73,7.86-6.87,7.86S358.3,381.39,358.3,376.5Zm11.55,0c0-3.9-1.77-6-4.65-6s-4.68,2.13-4.68,6,1.77,6,4.68,6S369.85,380.4,369.85,376.5Z"/><path d="M375,379.71l2.13-.36c.36,2.13,1.89,3.27,4.26,3.27,2.19,0,3.42-1.05,3.42-2.55s-.84-2.1-2.43-2.4l-2.91-.57c-2.49-.48-3.9-1.83-3.9-4.11,0-2.52,2.13-4.35,5.52-4.35s5.49,1.47,5.79,4.14l-2.1.45c-.3-1.83-1.59-2.88-3.78-2.88s-3.39,1-3.39,2.55c0,1.41.93,2.1,2.49,2.4l2.94.57c2.67.54,3.84,1.83,3.84,4,0,2.67-2,4.47-5.55,4.47S375.43,382.71,375,379.71Z"/><path d="M91,409.65a2.37,2.37,0,1,1,4.74,0,2.37,2.37,0,0,1-4.74,0Z"/><path d="M108.37,416a3.79,3.79,0,0,1,1.83-3.36,12.9,12.9,0,0,1,4.92-1.35l3.33-.39v-.24c0-3.09-1.08-4.32-3.63-4.32-2.25,0-3.63,1.17-3.75,3.3h-2.25c.18-3.09,2.52-5,6-5,4,0,5.76,1.86,5.76,6.21v3.9A21.14,21.14,0,0,0,121,420h-2.19a20.58,20.58,0,0,1-.27-3,5.14,5.14,0,0,1-5.22,3.36C110.35,420.36,108.37,418.62,108.37,416Zm10.11-2.58v-1l-4.26.6c-2.55.36-3.66,1.23-3.66,2.88s1.26,2.64,3.27,2.64C116.62,418.62,118.48,416.52,118.48,413.46Z"/><path d="M122.41,425.88v-1.8c.78.06,1.14.09,1.44.09,1.2,0,1.89-.57,1.89-2.61V405h2.1v16.8c0,2.34-1,4.26-3.69,4.26A8.15,8.15,0,0,1,122.41,425.88ZM125.59,399H128v3.3h-2.37Z"/><path d="M132.1,412.5c0-4.89,2.73-7.86,6.9-7.86s6.87,3,6.87,7.86-2.73,7.86-6.87,7.86S132.1,417.39,132.1,412.5Zm11.55,0c0-3.9-1.77-6-4.65-6s-4.68,2.13-4.68,6,1.77,6,4.68,6S143.65,416.4,143.65,412.5Z"/><path d="M149.71,414.51V405h2.07v9.3c0,2.94,1.38,4.26,3.42,4.26,2.73,0,4.38-2.34,4.38-5.37V405h2.1v15h-2v-3.09a5.14,5.14,0,0,1-4.86,3.45C151.09,420.36,149.71,418.08,149.71,414.51Z"/><path d="M165.16,405h2.76v-4l2.1-.9V405h3.87v1.74H170v9c0,1.77.78,2.55,2.34,2.55a6.12,6.12,0,0,0,1.53-.18V420a7.07,7.07,0,0,1-2.07.27c-2.91,0-3.9-1.77-3.9-4.44v-9.09h-2.76Z"/><path d="M188.89,413H178c0,3.39,1.89,5.46,4.8,5.46a4.21,4.21,0,0,0,4.23-3.21l1.77.72a6.07,6.07,0,0,1-6.15,4.35c-4.26,0-6.75-2.73-6.75-7.77s2.52-7.95,6.66-7.95,6.33,2.4,6.33,7Zm-2.13-2c0-3.09-1.56-4.74-4.23-4.74s-4.47,1.92-4.53,5h8.76Z"/><path d="M199.93,404.64a3.63,3.63,0,0,1,.57,0v2h-.24a4.39,4.39,0,0,0-3.21,1.14c-1.38,1.38-1.65,3.39-1.65,5.28V420h-2.07V405h1.95v3.66C196,406.35,197.62,404.64,199.93,404.64Z"/><path d="M209.38,412.5c0-4.62,2.61-7.86,6.42-7.86a4.78,4.78,0,0,1,4.71,3.09v-9.48h2.1V420h-2v-3.18a5.23,5.23,0,0,1-5.07,3.54C211.84,420.36,209.38,417.18,209.38,412.5Zm11.16.33v-.63c0-3.42-1.65-5.7-4.44-5.7s-4.5,2.25-4.5,6,1.68,6,4.47,6S220.54,416.16,220.54,412.83Z"/><path d="M240,413H229.12c0,3.39,1.89,5.46,4.8,5.46a4.21,4.21,0,0,0,4.23-3.21l1.77.72a6.07,6.07,0,0,1-6.15,4.35c-4.26,0-6.75-2.73-6.75-7.77s2.52-7.95,6.66-7.95,6.33,2.4,6.33,7Zm-2.13-2c0-3.09-1.56-4.74-4.23-4.74s-4.47,1.92-4.53,5h8.76Z"/><path d="M243,415.71l2.13-.36c.36,2.13,1.89,3.27,4.26,3.27,2.19,0,3.42-1.05,3.42-2.55s-.84-2.1-2.43-2.4l-2.91-.57c-2.49-.48-3.9-1.83-3.9-4.11,0-2.52,2.13-4.35,5.52-4.35s5.49,1.47,5.79,4.14l-2.1.45c-.3-1.83-1.59-2.88-3.78-2.88s-3.39,1-3.39,2.55c0,1.41.93,2.1,2.49,2.4l2.94.57c2.67.54,3.84,1.83,3.84,4,0,2.67-2,4.47-5.55,4.47S243.52,418.71,243,415.71Z"/><path d="M265.93,412.5c0-4.89,2.73-7.86,6.9-7.86s6.87,3,6.87,7.86-2.73,7.86-6.87,7.86S265.93,417.39,265.93,412.5Zm11.55,0c0-3.9-1.77-6-4.65-6s-4.68,2.13-4.68,6,1.77,6,4.68,6S277.48,416.4,277.48,412.5Z"/><path d="M286.12,417l-.39,3h-1.59V398.25h2.07v9.81a5.2,5.2,0,0,1,5-3.42c3.69,0,6.09,3.21,6.09,7.86s-2.46,7.86-6.24,7.86A5.2,5.2,0,0,1,286.12,417Zm9-4.5c0-3.63-1.62-6-4.5-6s-4.44,2.25-4.44,5.7v.72c0,3.33,1.68,5.58,4.38,5.58C293.41,418.5,295.12,416.16,295.12,412.5Z"/><path d="M300.22,415.71l2.13-.36c.36,2.13,1.89,3.27,4.26,3.27,2.19,0,3.42-1.05,3.42-2.55s-.84-2.1-2.43-2.4l-2.91-.57c-2.49-.48-3.9-1.83-3.9-4.11,0-2.52,2.13-4.35,5.52-4.35s5.49,1.47,5.79,4.14l-2.1.45c-.3-1.83-1.59-2.88-3.78-2.88s-3.39,1-3.39,2.55c0,1.41.93,2.1,2.49,2.4l2.94.57c2.67.54,3.84,1.83,3.84,4,0,2.67-2,4.47-5.55,4.47S300.7,418.71,300.22,415.71Z"/><path d="M328.15,413H317.26c0,3.39,1.89,5.46,4.8,5.46a4.21,4.21,0,0,0,4.23-3.21l1.77.72a6.07,6.07,0,0,1-6.15,4.35c-4.26,0-6.75-2.73-6.75-7.77s2.52-7.95,6.66-7.95,6.33,2.4,6.33,7Zm-2.13-2c0-3.09-1.56-4.74-4.23-4.74s-4.47,1.92-4.53,5H326Z"/><path d="M339.19,404.64a3.63,3.63,0,0,1,.57,0v2h-.24a4.39,4.39,0,0,0-3.21,1.14c-1.38,1.38-1.65,3.39-1.65,5.28V420h-2.07V405h2v3.66C335.23,406.35,336.88,404.64,339.19,404.64Z"/><path d="M341.62,405h2.28l3.72,10.62c.27.84.48,1.53.63,2.22h.09c.15-.69.39-1.38.66-2.22L352.72,405H355l-5.55,15h-2.28Z"/><path d="M356.47,416a3.79,3.79,0,0,1,1.83-3.36,12.9,12.9,0,0,1,4.92-1.35l3.33-.39v-.24c0-3.09-1.08-4.32-3.63-4.32-2.25,0-3.63,1.17-3.75,3.3h-2.25c.18-3.09,2.52-5,6-5,4,0,5.76,1.86,5.76,6.21v3.9a21.14,21.14,0,0,0,.48,5.25h-2.19a20.58,20.58,0,0,1-.27-3,5.14,5.14,0,0,1-5.22,3.36C358.45,420.36,356.47,418.62,356.47,416Zm10.11-2.58v-1l-4.26.6c-2.55.36-3.66,1.23-3.66,2.88s1.26,2.64,3.27,2.64C364.72,418.62,366.58,416.52,366.58,413.46Z"/><path d="M371.23,405H374v-4l2.1-.9V405H380v1.74h-3.87v9c0,1.77.78,2.55,2.34,2.55a6.12,6.12,0,0,0,1.53-.18V420a7.07,7.07,0,0,1-2.07.27c-2.91,0-3.9-1.77-3.9-4.44v-9.09h-2.76Z"/><path d="M383.77,399h2.37v3.3h-2.37Zm.15,6H386v15h-2.07Z"/><path d="M390.28,412.5c0-4.89,2.73-7.86,6.9-7.86s6.87,3,6.87,7.86-2.73,7.86-6.87,7.86S390.28,417.39,390.28,412.5Zm11.55,0c0-3.9-1.77-6-4.65-6s-4.68,2.13-4.68,6,1.77,6,4.68,6S401.83,416.4,401.83,412.5Z"/><path d="M408.34,405h2v3.3a5.11,5.11,0,0,1,5.13-3.66c3.36,0,5.1,2.07,5.1,6.09V420h-2.1v-9.15c0-2.91-1.26-4.41-3.63-4.41-2.7,0-4.41,2.16-4.41,5.67V420h-2.07Z"/><path d="M424.36,415.71l2.13-.36c.36,2.13,1.89,3.27,4.26,3.27,2.19,0,3.42-1.05,3.42-2.55s-.84-2.1-2.43-2.4l-2.91-.57c-2.49-.48-3.9-1.83-3.9-4.11,0-2.52,2.13-4.35,5.52-4.35s5.49,1.47,5.79,4.14l-2.1.45c-.3-1.83-1.59-2.88-3.78-2.88s-3.39,1-3.39,2.55c0,1.41.93,2.1,2.49,2.4l2.94.57c2.67.54,3.84,1.83,3.84,4,0,2.67-2,4.47-5.55,4.47S424.84,418.71,424.36,415.71Z"/><path d="M439.66,422.88a2.55,2.55,0,0,0,1.59-2.79V420h-1.5v-3.36h2.85v3.18c0,2.22-.57,3.3-2.37,4.14Z"/><path d="M454.12,412.5c0-4.62,2.61-7.86,6.42-7.86a4.78,4.78,0,0,1,4.71,3.09v-9.48h2.1V420h-2v-3.18a5.23,5.23,0,0,1-5.07,3.54C456.58,420.36,454.12,417.18,454.12,412.5Zm11.16.33v-.63c0-3.42-1.65-5.7-4.44-5.7s-4.5,2.25-4.5,6,1.68,6,4.47,6S465.28,416.16,465.28,412.83Z"/><path d="M484.75,413H473.86c0,3.39,1.89,5.46,4.8,5.46a4.21,4.21,0,0,0,4.23-3.21l1.77.72a6.07,6.07,0,0,1-6.15,4.35c-4.26,0-6.75-2.73-6.75-7.77s2.52-7.95,6.66-7.95,6.33,2.4,6.33,7Zm-2.13-2c0-3.09-1.56-4.74-4.23-4.74s-4.47,1.92-4.53,5h8.76Z"/><path d="M487.78,415.71l2.13-.36c.36,2.13,1.89,3.27,4.26,3.27,2.19,0,3.42-1.05,3.42-2.55s-.84-2.1-2.43-2.4l-2.91-.57c-2.49-.48-3.9-1.83-3.9-4.11,0-2.52,2.13-4.35,5.52-4.35s5.49,1.47,5.79,4.14l-2.1.45c-.3-1.83-1.59-2.88-3.78-2.88s-3.39,1-3.39,2.55c0,1.41.93,2.1,2.49,2.4l2.94.57c2.67.54,3.84,1.83,3.84,4,0,2.67-2,4.47-5.55,4.47S488.26,418.71,487.78,415.71Z"/><path d="M518.68,404.64a3.63,3.63,0,0,1,.57,0v2H519a4.39,4.39,0,0,0-3.21,1.14c-1.38,1.38-1.65,3.39-1.65,5.28V420h-2.07V405H514v3.66C514.72,406.35,516.37,404.64,518.68,404.64Z"/><path d="M533.86,413H523c0,3.39,1.89,5.46,4.8,5.46a4.21,4.21,0,0,0,4.23-3.21l1.77.72a6.07,6.07,0,0,1-6.15,4.35c-4.26,0-6.75-2.73-6.75-7.77s2.52-7.95,6.66-7.95,6.33,2.4,6.33,7Zm-2.13-2c0-3.09-1.56-4.74-4.23-4.74s-4.47,1.92-4.53,5h8.76Z"/><path d="M540.25,405v2.91a4.47,4.47,0,0,1,4.44-3.27,4.23,4.23,0,0,1,4.32,3.21,4.76,4.76,0,0,1,4.62-3.21c2.94,0,4.62,2,4.62,5.55V420h-2.1v-9.63c0-2.55-1.08-3.93-3.15-3.93-2.28,0-3.69,1.68-3.69,4.44V420h-2.07v-9.75c0-2.43-1.14-3.81-3.12-3.81-2.28,0-3.75,1.86-3.75,4.8V420H538.3V405Z"/><path d="M562.15,416a3.79,3.79,0,0,1,1.83-3.36,12.9,12.9,0,0,1,4.92-1.35l3.33-.39v-.24c0-3.09-1.08-4.32-3.63-4.32-2.25,0-3.63,1.17-3.75,3.3H562.6c.18-3.09,2.52-5,6-5,4,0,5.76,1.86,5.76,6.21v3.9a21.14,21.14,0,0,0,.48,5.25h-2.19a20.58,20.58,0,0,1-.27-3,5.14,5.14,0,0,1-5.22,3.36C564.13,420.36,562.15,418.62,562.15,416Zm10.11-2.58v-1l-4.26.6c-2.55.36-3.66,1.23-3.66,2.88s1.26,2.64,3.27,2.64C570.4,418.62,572.26,416.52,572.26,413.46Z"/><path d="M586.24,404.64a3.63,3.63,0,0,1,.57,0v2h-.24a4.39,4.39,0,0,0-3.21,1.14c-1.38,1.38-1.65,3.39-1.65,5.28V420h-2.07V405h2v3.66C582.28,406.35,583.93,404.64,586.24,404.64Z"/><path d="M599.53,417a5.1,5.1,0,0,1-4.95,3.36c-3.69,0-6.18-3.09-6.18-7.86s2.67-7.86,6.39-7.86a4.81,4.81,0,0,1,4.83,3.18l.45-2.82h1.56v20.85h-2.1Zm0-4.11v-.75c0-3.36-1.65-5.64-4.47-5.64s-4.47,2.25-4.47,6,1.65,6,4.44,6S599.56,416.22,599.56,412.89Z"/><path d="M606.85,414.51V405h2.07v9.3c0,2.94,1.38,4.26,3.42,4.26,2.73,0,4.38-2.34,4.38-5.37V405h2.1v15h-2v-3.09a5.14,5.14,0,0,1-4.86,3.45C608.23,420.36,606.85,418.08,606.85,414.51Z"/><path d="M636.1,413H625.21c0,3.39,1.89,5.46,4.8,5.46a4.21,4.21,0,0,0,4.22-3.21L636,416a6.08,6.08,0,0,1-6.16,4.35c-4.25,0-6.75-2.73-6.75-7.77s2.53-7.95,6.67-7.95,6.33,2.4,6.33,7Zm-2.13-2c0-3.09-1.57-4.74-4.24-4.74s-4.46,1.92-4.52,5H634Z"/><path d="M639.13,415.71l2.13-.36c.36,2.13,1.89,3.27,4.26,3.27,2.19,0,3.42-1.05,3.42-2.55s-.84-2.1-2.43-2.4l-2.91-.57c-2.49-.48-3.9-1.83-3.9-4.11,0-2.52,2.13-4.35,5.52-4.35s5.49,1.47,5.79,4.14l-2.1.45c-.3-1.83-1.59-2.88-3.78-2.88s-3.39,1-3.39,2.55c0,1.41.93,2.1,2.49,2.4l2.94.57c2.67.54,3.84,1.83,3.84,4,0,2.67-2,4.47-5.55,4.47S639.61,418.71,639.13,415.71Z"/><path d="M654.43,422.88a2.55,2.55,0,0,0,1.59-2.79V420h-1.5v-3.36h2.85v3.18c0,2.22-.57,3.3-2.37,4.14Z"/><path d="M668.89,412.5c0-4.62,2.61-7.86,6.42-7.86a4.78,4.78,0,0,1,4.71,3.09v-9.48h2.09V420h-2v-3.18a5.23,5.23,0,0,1-5.07,3.54C671.35,420.36,668.89,417.18,668.89,412.5Zm11.16.33v-.63c0-3.42-1.65-5.7-4.45-5.7s-4.49,2.25-4.49,6,1.68,6,4.47,6S680.05,416.16,680.05,412.83Z"/><path d="M699.52,413H688.63c0,3.39,1.89,5.46,4.8,5.46a4.21,4.21,0,0,0,4.22-3.21l1.78.72a6.08,6.08,0,0,1-6.16,4.35c-4.25,0-6.75-2.73-6.75-7.77s2.53-7.95,6.67-7.95,6.33,2.4,6.33,7Zm-2.13-2c0-3.09-1.57-4.74-4.24-4.74s-4.46,1.92-4.52,5h8.76Z"/><path d="M702.54,415.71l2.14-.36c.35,2.13,1.88,3.27,4.26,3.27,2.18,0,3.41-1.05,3.41-2.55s-.84-2.1-2.43-2.4l-2.9-.57c-2.5-.48-3.91-1.83-3.91-4.11,0-2.52,2.13-4.35,5.52-4.35s5.49,1.47,5.79,4.14l-2.1.45c-.3-1.83-1.59-2.88-3.78-2.88s-3.39,1-3.39,2.55c0,1.41.93,2.1,2.5,2.4l2.93.57c2.67.54,3.84,1.83,3.84,4,0,2.67-2,4.47-5.55,4.47S703,418.71,702.54,415.71Z"/><path d="M726.84,405h2v3.18a5.32,5.32,0,0,1,5.13-3.54c3.69,0,6.09,3.15,6.09,7.86s-2.55,7.86-6.24,7.86a5.06,5.06,0,0,1-4.89-3.18v8.67h-2.07Zm11,7.5c0-3.72-1.62-6-4.38-6s-4.56,2.34-4.56,5.64v.66c0,3.36,1.68,5.7,4.44,5.7S737.82,416.22,737.82,412.5Z"/><path d="M750.93,404.64a3.63,3.63,0,0,1,.57,0v2h-.24a4.39,4.39,0,0,0-3.21,1.14c-1.38,1.38-1.65,3.39-1.65,5.28V420h-2.07V405h1.95v3.66C747,406.35,748.62,404.64,750.93,404.64Z"/><path d="M753.12,412.5c0-4.89,2.73-7.86,6.9-7.86s6.87,3,6.87,7.86-2.73,7.86-6.87,7.86S753.12,417.39,753.12,412.5Zm11.55,0c0-3.9-1.77-6-4.65-6s-4.68,2.13-4.68,6,1.77,6,4.68,6S764.67,416.4,764.67,412.5Z"/><path d="M771.18,405h2v3.18a5.32,5.32,0,0,1,5.13-3.54c3.69,0,6.09,3.15,6.09,7.86s-2.55,7.86-6.24,7.86a5.06,5.06,0,0,1-4.89-3.18v8.67h-2.07Zm11,7.5c0-3.72-1.62-6-4.38-6s-4.56,2.34-4.56,5.64v.66c0,3.36,1.68,5.7,4.44,5.7S782.16,416.22,782.16,412.5Z"/><path d="M787.26,412.5c0-4.89,2.73-7.86,6.9-7.86s6.87,3,6.87,7.86-2.73,7.86-6.87,7.86S787.26,417.39,787.26,412.5Zm11.55,0c0-3.9-1.77-6-4.65-6s-4.68,2.13-4.68,6,1.77,6,4.68,6S798.81,416.4,798.81,412.5Z"/><path d="M803.91,415.71l2.13-.36c.36,2.13,1.89,3.27,4.26,3.27,2.19,0,3.42-1.05,3.42-2.55s-.84-2.1-2.43-2.4l-2.91-.57c-2.49-.48-3.9-1.83-3.9-4.11,0-2.52,2.13-4.35,5.52-4.35s5.49,1.47,5.79,4.14l-2.1.45c-.3-1.83-1.59-2.88-3.78-2.88s-3.39,1-3.39,2.55c0,1.41.93,2.1,2.49,2.4l2.94.57c2.67.54,3.84,1.83,3.84,4,0,2.67-2,4.47-5.55,4.47S804.39,418.71,803.91,415.71Z"/><path d="M820.11,399h2.37v3.3h-2.37Zm.15,6h2.07v15h-2.07Z"/><path d="M825.81,405h2.76v-4l2.1-.9V405h3.87v1.74h-3.87v9c0,1.77.78,2.55,2.34,2.55a6.12,6.12,0,0,0,1.53-.18V420a7.07,7.07,0,0,1-2.07.27c-2.91,0-3.9-1.77-3.9-4.44v-9.09h-2.76Z"/><path d="M838.35,399h2.37v3.3h-2.37Zm.15,6h2.07v15H838.5Z"/><path d="M844.86,412.5c0-4.89,2.73-7.86,6.9-7.86s6.87,3,6.87,7.86-2.73,7.86-6.87,7.86S844.86,417.39,844.86,412.5Zm11.55,0c0-3.9-1.77-6-4.65-6s-4.68,2.13-4.68,6,1.77,6,4.68,6S856.41,416.4,856.41,412.5Z"/><path d="M862.92,405h2v3.3a5.11,5.11,0,0,1,5.13-3.66c3.36,0,5.1,2.07,5.1,6.09V420H873v-9.15c0-2.91-1.26-4.41-3.63-4.41-2.7,0-4.41,2.16-4.41,5.67V420h-2.07Z"/><path d="M878.94,415.71l2.13-.36c.36,2.13,1.89,3.27,4.26,3.27,2.19,0,3.42-1.05,3.42-2.55s-.84-2.1-2.43-2.4l-2.91-.57c-2.49-.48-3.9-1.83-3.9-4.11,0-2.52,2.13-4.35,5.52-4.35s5.49,1.47,5.79,4.14l-2.1.45c-.3-1.83-1.59-2.88-3.78-2.88s-3.39,1-3.39,2.55c0,1.41.93,2.1,2.49,2.4l2.94.57c2.67.54,3.84,1.83,3.84,4,0,2.67-2,4.47-5.55,4.47S879.42,418.71,878.94,415.71Z"/><path d="M91,445.65a2.37,2.37,0,1,1,4.74,0,2.37,2.37,0,0,1-4.74,0Z"/><path d="M116.32,440.64a3.63,3.63,0,0,1,.57,0v2h-.24a4.39,4.39,0,0,0-3.21,1.14c-1.38,1.38-1.65,3.39-1.65,5.28V456h-2.07V441h2v3.66C112.36,442.35,114,440.64,116.32,440.64Z"/><path d="M131.5,449H120.61c0,3.39,1.89,5.46,4.8,5.46a4.21,4.21,0,0,0,4.23-3.21l1.77.72a6.07,6.07,0,0,1-6.15,4.35c-4.26,0-6.75-2.73-6.75-7.77s2.52-7.95,6.66-7.95,6.33,2.4,6.33,7Zm-2.13-2c0-3.09-1.56-4.74-4.23-4.74s-4.47,1.92-4.53,5h8.76Z"/><path d="M134.53,448.5c0-4.89,2.61-7.86,6.81-7.86a5.67,5.67,0,0,1,6.06,5.43l-2.13.24c-.3-2.49-1.74-3.84-4-3.84-2.79,0-4.5,2.25-4.5,6s1.71,6.06,4.59,6.06c2.25,0,3.66-1.35,4-3.84l2,.3c-.54,3.39-2.76,5.37-6.06,5.37C137.17,456.36,134.53,453.33,134.53,448.5Z"/><path d="M151.27,450.51V441h2.07v9.3c0,2.94,1.38,4.26,3.42,4.26,2.73,0,4.38-2.34,4.38-5.37V441h2.1v15h-2v-3.09a5.14,5.14,0,0,1-4.86,3.45C152.65,456.36,151.27,454.08,151.27,450.51Z"/><path d="M180.52,449H169.63c0,3.39,1.89,5.46,4.8,5.46a4.21,4.21,0,0,0,4.23-3.21l1.77.72a6.07,6.07,0,0,1-6.15,4.35c-4.26,0-6.75-2.73-6.75-7.77s2.52-7.95,6.66-7.95,6.33,2.4,6.33,7Zm-2.13-2c0-3.09-1.56-4.74-4.23-4.74s-4.47,1.92-4.53,5h8.76Z"/><path d="M184.81,435h2.37v3.3h-2.37Zm.15,6H187v15H185Z"/><path d="M195,456h-2.07V434.25H195Z"/><path d="M203,456H201V434.25H203Z"/><path d="M208.72,435h2.37v3.3h-2.37Zm.15,6h2.07v15h-2.07Z"/><path d="M223.24,440.64a3.63,3.63,0,0,1,.57,0v2h-.24a4.39,4.39,0,0,0-3.21,1.14c-1.38,1.38-1.65,3.39-1.65,5.28V456h-2.07V441h2v3.66C219.28,442.35,220.93,440.64,223.24,440.64Z"/><path d="M230.83,441h2.28l3.72,10.62c.27.84.48,1.53.63,2.22h.09c.15-.69.39-1.38.66-2.22L241.93,441h2.28l-5.55,15h-2.28Z"/><path d="M245.62,448.5c0-4.89,2.73-7.86,6.9-7.86s6.87,3,6.87,7.86-2.73,7.86-6.87,7.86S245.62,453.39,245.62,448.5Zm11.55,0c0-3.9-1.77-6-4.65-6s-4.68,2.13-4.68,6,1.77,6,4.68,6S257.17,452.4,257.17,448.5Z"/><path d="M262.27,451.71l2.13-.36c.36,2.13,1.89,3.27,4.26,3.27,2.19,0,3.42-1.05,3.42-2.55s-.84-2.1-2.43-2.4l-2.91-.57c-2.49-.48-3.9-1.83-3.9-4.11,0-2.52,2.13-4.35,5.52-4.35s5.49,1.47,5.79,4.14l-2.1.45c-.3-1.83-1.59-2.88-3.78-2.88s-3.39,1-3.39,2.55c0,1.41.93,2.1,2.49,2.4l2.94.57c2.67.54,3.84,1.83,3.84,4,0,2.67-2,4.47-5.55,4.47S262.75,454.71,262.27,451.71Z"/><path d="M285.22,452a3.79,3.79,0,0,1,1.83-3.36,12.9,12.9,0,0,1,4.92-1.35l3.33-.39v-.24c0-3.09-1.08-4.32-3.63-4.32-2.25,0-3.63,1.17-3.75,3.3h-2.25c.18-3.09,2.52-5,6-5,4,0,5.76,1.86,5.76,6.21v3.9a21.14,21.14,0,0,0,.48,5.25h-2.19a20.58,20.58,0,0,1-.27-3,5.14,5.14,0,0,1-5.22,3.36C287.2,456.36,285.22,454.62,285.22,452Zm10.11-2.58v-1l-4.26.6c-2.55.36-3.66,1.23-3.66,2.88s1.26,2.64,3.27,2.64C293.47,454.62,295.33,452.52,295.33,449.46Z"/><path d="M299.68,441H302l3.72,10.62c.27.84.48,1.53.63,2.22h.09c.15-.69.39-1.38.66-2.22L310.78,441h2.28l-5.55,15h-2.28Z"/><path d="M316.09,435h2.37v3.3h-2.37Zm.15,6h2.07v15h-2.07Z"/><path d="M322.6,451.71l2.13-.36c.36,2.13,1.89,3.27,4.26,3.27,2.19,0,3.42-1.05,3.42-2.55s-.84-2.1-2.43-2.4l-2.91-.57c-2.49-.48-3.9-1.83-3.9-4.11,0-2.52,2.13-4.35,5.52-4.35s5.49,1.47,5.79,4.14l-2.1.45c-.3-1.83-1.59-2.88-3.78-2.88s-3.39,1-3.39,2.55c0,1.41.93,2.1,2.49,2.4l2.94.57c2.67.54,3.84,1.83,3.84,4,0,2.67-2,4.47-5.55,4.47S323.08,454.71,322.6,451.71Z"/><path d="M346.9,441h2v3.18a5.32,5.32,0,0,1,5.13-3.54c3.69,0,6.09,3.15,6.09,7.86s-2.55,7.86-6.24,7.86a5.06,5.06,0,0,1-4.89-3.18v8.67H346.9Zm11,7.5c0-3.72-1.62-6-4.38-6s-4.56,2.34-4.56,5.64v.66c0,3.36,1.68,5.7,4.44,5.7S357.88,452.22,357.88,448.5Z"/><path d="M376,449H365.08c0,3.39,1.89,5.46,4.8,5.46a4.21,4.21,0,0,0,4.23-3.21l1.77.72a6.07,6.07,0,0,1-6.15,4.35c-4.26,0-6.75-2.73-6.75-7.77s2.52-7.95,6.66-7.95,6.33,2.4,6.33,7Zm-2.13-2c0-3.09-1.56-4.74-4.23-4.74s-4.47,1.92-4.53,5h8.76Z"/><path d="M387,440.64a3.63,3.63,0,0,1,.57,0v2h-.24a4.39,4.39,0,0,0-3.21,1.14c-1.38,1.38-1.65,3.39-1.65,5.28V456h-2.07V441h1.95v3.66C383.05,442.35,384.7,440.64,387,440.64Z"/><path d="M389.47,451.71l2.13-.36c.36,2.13,1.89,3.27,4.26,3.27,2.19,0,3.42-1.05,3.42-2.55s-.84-2.1-2.43-2.4l-2.91-.57c-2.49-.48-3.9-1.83-3.9-4.11,0-2.52,2.13-4.35,5.52-4.35s5.49,1.47,5.79,4.14l-2.1.45c-.3-1.83-1.59-2.88-3.78-2.88s-3.39,1-3.39,2.55c0,1.41.93,2.1,2.49,2.4l2.94.57c2.67.54,3.84,1.83,3.84,4,0,2.67-2,4.47-5.55,4.47S390,454.71,389.47,451.71Z"/><path d="M404.41,448.5c0-4.89,2.73-7.86,6.9-7.86s6.87,3,6.87,7.86-2.73,7.86-6.87,7.86S404.41,453.39,404.41,448.5Zm11.55,0c0-3.9-1.77-6-4.65-6s-4.68,2.13-4.68,6,1.77,6,4.68,6S416,452.4,416,448.5Z"/><path d="M422.47,441h2v3.3a5.11,5.11,0,0,1,5.13-3.66c3.36,0,5.1,2.07,5.1,6.09V456h-2.1v-9.15c0-2.91-1.26-4.41-3.63-4.41-2.7,0-4.41,2.16-4.41,5.67V456h-2.07Z"/><path d="M439.84,441h2v3.3a5.11,5.11,0,0,1,5.13-3.66c3.36,0,5.1,2.07,5.1,6.09V456H450v-9.15c0-2.91-1.26-4.41-3.63-4.41-2.7,0-4.41,2.16-4.41,5.67V456h-2.07Z"/><path d="M468.85,449H458c0,3.39,1.89,5.46,4.8,5.46a4.21,4.21,0,0,0,4.23-3.21l1.77.72a6.07,6.07,0,0,1-6.15,4.35c-4.26,0-6.75-2.73-6.75-7.77s2.52-7.95,6.66-7.95,6.33,2.4,6.33,7Zm-2.13-2c0-3.09-1.56-4.74-4.23-4.74s-4.47,1.92-4.53,5h8.76Z"/><path d="M475.51,456h-2.07V434.25h2.07Z"/><path d="M480,451.71l2.13-.36c.36,2.13,1.89,3.27,4.26,3.27,2.19,0,3.42-1.05,3.42-2.55s-.84-2.1-2.43-2.4l-2.91-.57c-2.49-.48-3.9-1.83-3.9-4.11,0-2.52,2.13-4.35,5.52-4.35s5.49,1.47,5.79,4.14l-2.1.45c-.3-1.83-1.59-2.88-3.78-2.88s-3.39,1-3.39,2.55c0,1.41.93,2.1,2.49,2.4l2.94.57c2.67.54,3.84,1.83,3.84,4,0,2.67-2,4.47-5.55,4.47S480.43,454.71,480,451.71Z"/><path d="M64.72,521.79H55.54L53.29,528H50.86L59,506.7H61.3L69.4,528H67Zm-5.61-16.38-3.06-3.09h2.37l2.73,3.09ZM64,519.81l-3.15-8.73c-.3-.84-.48-1.41-.69-2.07H60.1c-.21.66-.36,1.23-.69,2.07l-3.15,8.73Z"/><path d="M86.38,512.64a3.63,3.63,0,0,1,.57,0v2h-.24a4.39,4.39,0,0,0-3.21,1.14c-1.38,1.38-1.65,3.39-1.65,5.28V528H79.78V513h2v3.66C82.42,514.35,84.07,512.64,86.38,512.64Z"/><path d="M101.56,521H90.67c0,3.39,1.89,5.46,4.8,5.46a4.21,4.21,0,0,0,4.23-3.21l1.77.72a6.07,6.07,0,0,1-6.15,4.35c-4.26,0-6.75-2.73-6.75-7.77s2.52-8,6.66-8,6.33,2.4,6.33,7Zm-2.13-2c0-3.09-1.56-4.74-4.23-4.74s-4.47,1.92-4.53,5h8.76Z"/><path d="M108,513v2.91a4.47,4.47,0,0,1,4.44-3.27,4.23,4.23,0,0,1,4.32,3.21,4.76,4.76,0,0,1,4.62-3.21c2.94,0,4.62,2,4.62,5.55V528h-2.1v-9.63c0-2.55-1.08-3.93-3.15-3.93-2.28,0-3.69,1.68-3.69,4.44V528h-2.07v-9.75c0-2.43-1.14-3.81-3.12-3.81-2.28,0-3.75,1.86-3.75,4.8V528H106V513Z"/><path d="M131.14,513h2v3.18a5.32,5.32,0,0,1,5.13-3.54c3.69,0,6.09,3.15,6.09,7.86s-2.55,7.86-6.24,7.86a5.06,5.06,0,0,1-4.89-3.18v8.67h-2.07Zm11,7.5c0-3.72-1.62-6-4.38-6s-4.56,2.34-4.56,5.64v.66c0,3.36,1.68,5.7,4.44,5.7S142.12,524.22,142.12,520.5Z"/><path d="M150.85,528h-2.07V506.25h2.07Z"/><path d="M156.55,507h2.37v3.3h-2.37Zm.15,6h2.07v15H156.7Z"/><path d="M171.07,512.64a3.63,3.63,0,0,1,.57,0v2h-.24a4.39,4.39,0,0,0-3.21,1.14c-1.38,1.38-1.65,3.39-1.65,5.28V528h-2.07V513h1.95v3.66C167.11,514.35,168.76,512.64,171.07,512.64Z"/><path d="M180.52,520.5c0-4.62,2.61-7.86,6.42-7.86a4.78,4.78,0,0,1,4.71,3.09v-9.48h2.1V528h-2v-3.18a5.23,5.23,0,0,1-5.07,3.54C183,528.36,180.52,525.18,180.52,520.5Zm11.16.33v-.63c0-3.42-1.65-5.7-4.44-5.7s-4.5,2.25-4.5,6,1.68,6,4.47,6S191.68,524.16,191.68,520.83Z"/><path d="M198.82,512.94a2.57,2.57,0,0,0,1.59-2.82v-.06h-1.5V506.7h2.85v3.18c0,2.22-.57,3.3-2.37,4.14Z"/><path d="M206.59,507H209v3.3h-2.37Zm.15,6h2.07v15h-2.07Z"/><path d="M213.1,520.5c0-4.89,2.61-7.86,6.81-7.86a5.67,5.67,0,0,1,6.06,5.43l-2.13.24c-.3-2.49-1.74-3.84-4-3.84-2.79,0-4.5,2.25-4.5,6s1.71,6.06,4.59,6.06c2.25,0,3.66-1.35,4.05-3.84l2,.3c-.54,3.39-2.76,5.37-6.06,5.37C215.74,528.36,213.1,525.33,213.1,520.5Z"/><path d="M230.14,507h2.37v3.3h-2.37Zm.15,6h2.07v15h-2.07Z"/><path d="M244.66,524a3.79,3.79,0,0,1,1.83-3.36,12.9,12.9,0,0,1,4.92-1.35l3.33-.39v-.24c0-3.09-1.08-4.32-3.63-4.32-2.25,0-3.63,1.17-3.75,3.3h-2.25c.18-3.09,2.52-5,6-5,4,0,5.76,1.86,5.76,6.21v3.9a21.14,21.14,0,0,0,.48,5.25h-2.19a20.58,20.58,0,0,1-.27-3,5.14,5.14,0,0,1-5.22,3.36C246.64,528.36,244.66,526.62,244.66,524Zm10.11-2.58v-1l-4.26.6c-2.55.36-3.66,1.23-3.66,2.88s1.26,2.64,3.27,2.64C252.91,526.62,254.77,524.52,254.77,521.46Z"/><path d="M261.7,522.51V513h2.07v9.3c0,2.94,1.38,4.26,3.42,4.26,2.73,0,4.38-2.34,4.38-5.37V513h2.1v15h-2v-3.09a5.14,5.14,0,0,1-4.86,3.45C263.08,528.36,261.7,526.08,261.7,522.51Z"/><path d="M287.32,513h2v3.18a5.32,5.32,0,0,1,5.13-3.54c3.69,0,6.09,3.15,6.09,7.86s-2.55,7.86-6.24,7.86a5.06,5.06,0,0,1-4.89-3.18v8.67h-2.07Zm11,7.5c0-3.72-1.62-6-4.38-6s-4.56,2.34-4.56,5.64v.66c0,3.36,1.68,5.7,4.44,5.7S298.3,524.22,298.3,520.5Z"/><path d="M307,528H305V506.25H307Z"/><path d="M312.43,522.51V513h2.07v9.3c0,2.94,1.38,4.26,3.42,4.26,2.73,0,4.38-2.34,4.38-5.37V513h2.1v15h-2v-3.09a5.14,5.14,0,0,1-4.86,3.45C313.81,528.36,312.43,526.08,312.43,522.51Z"/><path d="M328.69,523.71l2.13-.36c.36,2.13,1.89,3.27,4.26,3.27,2.19,0,3.42-1,3.42-2.55s-.84-2.1-2.43-2.4l-2.91-.57c-2.49-.48-3.9-1.83-3.9-4.11,0-2.52,2.13-4.35,5.52-4.35s5.49,1.47,5.79,4.14l-2.1.45c-.3-1.83-1.59-2.88-3.78-2.88s-3.39,1-3.39,2.55c0,1.41.93,2.1,2.49,2.4l2.94.57c2.67.54,3.84,1.83,3.84,4,0,2.67-2,4.47-5.55,4.47S329.17,526.71,328.69,523.71Z"/><path d="M350.47,513h2.76v-4l2.1-.9V513h3.87v1.74h-3.87v9c0,1.77.78,2.55,2.34,2.55a6.12,6.12,0,0,0,1.53-.18V528a7.07,7.07,0,0,1-2.07.27c-2.91,0-3.9-1.77-3.9-4.44v-9.09h-2.76Z"/><path d="M361.57,524a3.79,3.79,0,0,1,1.83-3.36,12.9,12.9,0,0,1,4.92-1.35l3.33-.39v-.24c0-3.09-1.08-4.32-3.63-4.32-2.25,0-3.63,1.17-3.75,3.3H362c.18-3.09,2.52-5,6-5,4,0,5.76,1.86,5.76,6.21v3.9a21.14,21.14,0,0,0,.48,5.25H372a20.58,20.58,0,0,1-.27-3,5.14,5.14,0,0,1-5.22,3.36C363.55,528.36,361.57,526.62,361.57,524Zm10.11-2.58v-1l-4.26.6c-2.55.36-3.66,1.23-3.66,2.88s1.26,2.64,3.27,2.64C369.82,526.62,371.68,524.52,371.68,521.46Z"/><path d="M385.66,512.64a3.63,3.63,0,0,1,.57,0v2H386a4.39,4.39,0,0,0-3.21,1.14c-1.38,1.38-1.65,3.39-1.65,5.28V528h-2.07V513H381v3.66C381.7,514.35,383.35,512.64,385.66,512.64Z"/><path d="M387.82,520.5c0-4.62,2.61-7.86,6.42-7.86a4.78,4.78,0,0,1,4.71,3.09v-9.48h2.1V528h-2v-3.18a5.23,5.23,0,0,1-5.07,3.54C390.28,528.36,387.82,525.18,387.82,520.5Zm11.16.33v-.63c0-3.42-1.65-5.7-4.44-5.7s-4.5,2.25-4.5,6,1.68,6,4.47,6S399,524.16,399,520.83Z"/><path d="M417,528H415V506.25H417Z"/><path d="M434.47,521H423.58c0,3.39,1.89,5.46,4.8,5.46a4.21,4.21,0,0,0,4.23-3.21l1.77.72a6.07,6.07,0,0,1-6.15,4.35c-4.26,0-6.75-2.73-6.75-7.77s2.52-8,6.66-8,6.33,2.4,6.33,7Zm-2.13-2c0-3.09-1.56-4.74-4.23-4.74s-4.47,1.92-4.53,5h8.76Z"/><path d="M448.33,527.67c0-6.66,2.82-12.84,7.53-18.48H444.94v-2h13.41v1.77a27.44,27.44,0,0,0-7.59,18.54V528h-2.43Z"/><path d="M476.26,514.74h-3.9V528h-2.07V514.74h-2.82V513h2.82v-2.49c0-2.7,1.59-4.44,4.2-4.44a6.37,6.37,0,0,1,1.77.21v1.8a8.76,8.76,0,0,0-1.5-.15c-1.68,0-2.4.9-2.4,2.85V513h3.9Z"/><path d="M490.81,521H479.92c0,3.39,1.89,5.46,4.8,5.46a4.21,4.21,0,0,0,4.23-3.21l1.77.72a6.07,6.07,0,0,1-6.15,4.35c-4.26,0-6.75-2.73-6.75-7.77s2.52-8,6.66-8,6.33,2.4,6.33,7Zm-2.13-2c0-3.09-1.56-4.74-4.23-4.74s-4.47,1.92-4.53,5h8.76Zm-3.33-8.46h-2l3-4.29h2.58Z"/><path d="M492.37,513h2.28l3.72,10.62c.27.84.48,1.53.63,2.22h.09c.15-.69.39-1.38.66-2.22L503.47,513h2.28l-5.55,15h-2.28Z"/><path d="M515.53,512.64a3.63,3.63,0,0,1,.57,0v2h-.24a4.39,4.39,0,0,0-3.21,1.14c-1.38,1.38-1.65,3.39-1.65,5.28V528h-2.07V513h1.95v3.66C511.57,514.35,513.22,512.64,515.53,512.64Z"/><path d="M519.46,507h2.36v3.3h-2.36Zm.14,6h2.08v15H519.6Z"/><path d="M539,521H528.07c0,3.39,1.89,5.46,4.8,5.46a4.21,4.21,0,0,0,4.23-3.21l1.77.72a6.07,6.07,0,0,1-6.15,4.35c-4.26,0-6.75-2.73-6.75-7.77s2.52-8,6.66-8,6.33,2.4,6.33,7Zm-2.13-2c0-3.09-1.56-4.74-4.23-4.74s-4.47,1.92-4.53,5h8.76Z"/><path d="M550,512.64a3.63,3.63,0,0,1,.57,0v2h-.24a4.41,4.41,0,0,0-3.21,1.14c-1.38,1.38-1.64,3.39-1.64,5.28V528H543.4V513h2v3.66C546,514.35,547.69,512.64,550,512.64Z"/><path d="M559.15,526.17a72,72,0,0,0,7.5-6.36c2.51-2.52,3.47-4.41,3.47-6.87,0-2.73-1.52-4.32-4.17-4.32s-4.31,1.59-4.31,4.08a10.11,10.11,0,0,0,.24,1.92l-2.22-.21a6.92,6.92,0,0,1-.22-1.74c0-3.66,2.5-6,6.63-6s6.37,2.25,6.37,6.21c0,2.85-1.38,5.34-4.38,8.22a44.2,44.2,0,0,1-5.95,4.89h10.66v2H559.15Z"/><path d="M575.19,517.56c0-6.66,2.76-10.86,7.92-10.86s7.89,4.2,7.89,10.89-2.73,10.86-7.89,10.86S575.19,524.25,575.19,517.56Zm13.62,0c0-5.55-1.92-9-5.7-9s-5.7,3.45-5.7,9,1.92,9,5.7,9S588.81,523.14,588.81,517.59Z"/><path d="M593.76,526.17a71,71,0,0,0,7.5-6.36c2.52-2.52,3.48-4.41,3.48-6.87,0-2.73-1.53-4.32-4.17-4.32s-4.32,1.59-4.32,4.08a10.11,10.11,0,0,0,.24,1.92l-2.22-.21a6.9,6.9,0,0,1-.21-1.74c0-3.66,2.49-6,6.63-6,4,0,6.36,2.25,6.36,6.21,0,2.85-1.38,5.34-4.38,8.22a44.1,44.1,0,0,1-5.94,4.89h10.65v2H593.76Z"/><path d="M614.49,511a4.59,4.59,0,0,1-3.66,1.65h-1v-2h.57a4.34,4.34,0,0,0,4.38-3.54h1.86V528h-2.19Z"/><path d="M107.29,55.26v4.8h-4.77v-4.8h-9.6V52l9-13.26h5.34v13h3.12v3.54Zm-4.53-12.09h-.06a10,10,0,0,1-1.2,2.16l-3,4.56a13.47,13.47,0,0,1-1.38,1.83h5.55V45.54C102.7,44.43,102.7,43.92,102.76,43.17Zm14.79,16.89h-5.13V55.14h5.13Zm28.44.75a6,6,0,0,0,1.68-.24V64.5a13.67,13.67,0,0,1-2.25.18c-3.6,0-5.94-1.53-7-4.11H138c-6.39,0-10.5-4.32-10.5-11.16s4.11-11.16,10.5-11.16,10.5,4.29,10.5,11.16c0,5-2.22,8.7-5.91,10.29A4.89,4.89,0,0,0,146,60.81Zm-8-4.2c3.33,0,5.28-2.7,5.28-7.2s-1.95-7.2-5.28-7.2-5.31,2.7-5.31,7.2S134.71,56.61,138,56.61Zm18.3-17.85V52.41a4,4,0,1,0,7.92,0V38.76h5.07V52.62c0,4.86-3.36,8-9,8s-9-3.09-9-8V38.76ZM188.2,56.31v3.75H173.41V38.76H188v3.75h-9.51v4.8h9V51h-9v5.28Zm1.38-.69L193.33,53a6.17,6.17,0,0,0,5.79,3.66c2,0,3.66-.75,3.66-2.43s-.93-2.19-3.09-2.64l-2.85-.6c-3.72-.81-5.88-2.82-5.88-6.39,0-3.9,3.18-6.33,8.31-6.33,3.78,0,7,1.38,8.46,4.23l-3.3,2.79A6,6,0,0,0,198.94,42c-2,0-3.3.84-3.3,2.19s.84,2.07,3.09,2.58l3.09.66c3.78.84,5.82,2.64,5.82,6.3,0,4.05-3.12,6.84-8.7,6.84C194.35,60.57,191.05,58.62,189.58,55.62ZM226,42.78h-6.21V60.06h-5V42.78h-6.18v-4H226Zm2.4,17.28V38.76h5.07v21.3Zm8.16-10.65c0-6.87,4.11-11.16,10.5-11.16s10.5,4.29,10.5,11.16S253.42,60.57,247,60.57,236.53,56.25,236.53,49.41Zm15.78,0c0-4.5-1.95-7.2-5.28-7.2s-5.31,2.7-5.31,7.2,2,7.2,5.31,7.2S252.31,53.91,252.31,49.41Zm8.31-10.65h5.61l6.84,12.15a22.16,22.16,0,0,1,1.29,2.76h.06c0-.84,0-1.71,0-2.73V38.76H279v21.3h-5.4l-7.08-12.27a20.24,20.24,0,0,1-1.26-2.61h-.06c0,.87,0,1.77,0,2.82V60.06h-4.65Zm22.86,0h5.61l6.84,12.15a22.16,22.16,0,0,1,1.29,2.76h.06c0-.84,0-1.71,0-2.73V38.76h4.65v21.3h-5.4l-7.08-12.27a20.24,20.24,0,0,1-1.26-2.61h-.06c0,.87,0,1.77,0,2.82V60.06h-4.65Zm35.61,16.32h-7.86l-1.62,5h-5.07l7.74-21.3h5.79l7.74,21.3h-5.1Zm-1.17-3.57L316,45.57a18.76,18.76,0,0,1-.78-3h-.06a18.76,18.76,0,0,1-.78,3l-2,5.94Zm10.5,8.55V38.76h5.07v21.3Zm17.64-8.16H343v8.16h-5.07V38.76h9.36c5.4,0,7.8,2.64,7.8,6.54a5.89,5.89,0,0,1-4.17,5.85l4.71,8.91h-5.49ZM343,48.42h3.27c2.46,0,3.54-1.2,3.54-3.12s-1.05-3-3.54-3H343Zm30.51,7.89v3.75H358.72V38.76H373.3v3.75h-9.51v4.8h9V51h-9v5.28Zm25.89,0v3.75H384.61V38.76h14.58v3.75h-9.51v4.8h9V51h-9v5.28Zm3.69-17.55h5.61l6.84,12.15a22.16,22.16,0,0,1,1.29,2.76h.06c0-.84,0-1.71,0-2.73V38.76h4.65v21.3h-5.4L409,47.79a20.24,20.24,0,0,1-1.26-2.61h-.06c0,.87,0,1.77,0,2.82V60.06h-4.65Zm30.27,0h5.07V56h8.64v4.11H433.36ZM450,60.06V38.76h5.07v21.3Zm8.16-10.62c0-6.69,4-11.19,10.56-11.19,5.58,0,8.61,3,9.27,6.54l-5,.93a4.1,4.1,0,0,0-4.29-3.66c-3.39,0-5.34,2.82-5.34,7.32s1.83,7.29,5.4,7.29a4.49,4.49,0,0,0,4.71-4.38v-.45h-5.25V48.21h9.87V60.06h-3.6l-.21-3.12c-1.08,2.28-3.45,3.63-6.66,3.63C461.71,60.57,458.14,56.19,458.14,49.44Zm23.67-10.68h5.61l6.84,12.15a22.16,22.16,0,0,1,1.29,2.76h.06c0-.84,0-1.71,0-2.73V38.76h4.65v21.3h-5.4l-7.08-12.27a20.24,20.24,0,0,1-1.26-2.61h-.06c0,.87,0,1.77,0,2.82V60.06h-4.65Zm37.65,17.55v3.75H504.67V38.76h14.58v3.75h-9.51v4.8h9V51h-9v5.28Z"/></g></g></svg>