<svg xmlns="http://www.w3.org/2000/svg" xmlns:xlink="http://www.w3.org/1999/xlink" width="1190.55" height="841.89" viewBox="0 0 1190.55 841.89">
  <defs>
    <style>
      .cls-1 {
        clip-path: url(#clip-Plan_de_travail_27);
      }

      .cls-2 {
        font-size: 30px;
      }

      .cls-15, .cls-2 {
        font-family: GTAmerica-Bold, GT America;
        font-weight: 700;
      }

      .cls-3 {
        letter-spacing: -0.017em;
      }

      .cls-4 {
        letter-spacing: -0.025em;
      }

      .cls-5 {
        letter-spacing: -0.036em;
      }

      .cls-6 {
        letter-spacing: -0.083em;
      }

      .cls-7 {
        letter-spacing: -0.019em;
      }

      .cls-8 {
        letter-spacing: -0.09em;
      }

      .cls-9 {
        opacity: 0.8;
      }

      .cls-10 {
        fill: #ffce00;
      }

      .cls-11 {
        fill: none;
      }

      .cls-12 {
        fill: #f59e00;
      }

      .cls-13 {
        fill: #a8ba00;
      }

      .cls-14 {
        fill: #008ea5;
      }

      .cls-15, .cls-16 {
        fill: #fff;
      }

      .cls-15 {
        font-size: 39.6px;
      }
    </style>
    <clipPath id="clip-Plan_de_travail_27">
      <rect width="1190.55" height="841.89"/>
    </clipPath>
  </defs>
  <g id="Plan_de_travail_27" data-name="Plan de travail 27" class="cls-1">
    <rect class="cls-16" width="1190.55" height="841.89"/>
    <text id="MERCI_DE_VOTRE_PARTICIPATION_" data-name="MERCI DE VOTRE PARTICIPATION !!" class="cls-2" transform="translate(338.883 428.87)"><tspan x="0" y="0">ME</tspan><tspan class="cls-3" y="0">R</tspan><tspan y="0">CI DE </tspan><tspan class="cls-4" y="0">V</tspan><tspan class="cls-5" y="0">O</tspan><tspan y="0">TRE </tspan><tspan class="cls-6" y="0">P</tspan><tspan y="0">A</tspan><tspan class="cls-7" y="0">R</tspan><tspan y="0">TICI</tspan><tspan class="cls-6" y="0">P</tspan><tspan class="cls-8" y="0">A</tspan><tspan y="0">TION !!</tspan></text>
    <g id="Groupe_1" data-name="Groupe 1" class="cls-9" transform="translate(-7263.3 -1723.78)">
      <path id="Rectangle_1" data-name="Rectangle 1" class="cls-10" d="M9.623,0h175.1a9.622,9.622,0,0,1,9.622,9.622V120.339a9.622,9.622,0,0,1-9.622,9.622H9.623A9.623,9.623,0,0,1,0,120.338V9.623A9.623,9.623,0,0,1,9.623,0Z" transform="translate(8155.936 1930.574)"/>
      <rect id="Rectangle_2" data-name="Rectangle 2" class="cls-11" width="212.354" height="137.961" transform="translate(8146.937 1923.574)"/>
    </g>
    <g id="Groupe_2" data-name="Groupe 2" class="cls-9" transform="translate(-7263.3 -1723.78)">
      <path id="Rectangle_3" data-name="Rectangle 3" class="cls-12" d="M9.623,0h175.1a9.622,9.622,0,0,1,9.622,9.622V120.339a9.622,9.622,0,0,1-9.622,9.622H9.623A9.623,9.623,0,0,1,0,120.338V9.623A9.623,9.623,0,0,1,9.623,0Z" transform="translate(8002.894 2252.876)"/>
      <rect id="Rectangle_4" data-name="Rectangle 4" class="cls-11" width="212.35" height="137.961" transform="translate(7993.895 2245.876)"/>
    </g>
    <g id="Groupe_3" data-name="Groupe 3" class="cls-9" transform="translate(-7263.3 -1723.78)">
      <path id="Tracé_1" data-name="Tracé 1" class="cls-12" d="M7485.53,1943.8a6.89,6.89,0,0,0-6.8,6.98v80.311a6.89,6.89,0,0,0,6.8,6.98h123.686a6.891,6.891,0,0,0,6.8-6.98v-80.311a6.891,6.891,0,0,0-6.8-6.98Z"/>
      <rect id="Rectangle_5" data-name="Rectangle 5" class="cls-11" width="155.281" height="102.27" transform="translate(7469.733 1936.804)"/>
    </g>
    <g id="Groupe_4" data-name="Groupe 4" class="cls-9" transform="translate(-7263.3 -1723.78)">
      <path id="Tracé_2" data-name="Tracé 2" class="cls-10" d="M7400.68,2217.443s-9.623,0-9.623,9.623v110.716s0,9.623,9.623,9.623h173.1s9.623,0,9.623-9.623V2227.066s0-9.623-9.623-9.623Z"/>
      <rect id="Rectangle_6" data-name="Rectangle 6" class="cls-11" width="210.35" height="137.962" transform="translate(7382.057 2210.442)"/>
    </g>
    <g id="Groupe_5" data-name="Groupe 5" class="cls-9" transform="translate(-7263.3 -1723.78)">
      <path id="Tracé_3" data-name="Tracé 3" class="cls-13" d="M7601.032,1819.174s-9.623,0-9.623,9.622v125.67s0,9.623,9.623,9.623h181.387s9.623,0,9.623-9.623V1828.8s0-9.622-9.623-9.622Z"/>
      <rect id="Rectangle_7" data-name="Rectangle 7" class="cls-11" width="218.633" height="152.915" transform="translate(7582.409 1812.174)"/>
    </g>
    <g id="Groupe_6" data-name="Groupe 6" class="cls-9" transform="translate(-7263.3 -1723.78)">
      <path id="Tracé_4" data-name="Tracé 4" class="cls-13" d="M8199.781,2196.114s-9.624,0-9.624,9.623v52.135s0,9.623,9.624,9.623h82.966s9.623,0,9.623-9.623v-52.135s0-9.623-9.623-9.623Z"/>
      <rect id="Rectangle_8" data-name="Rectangle 8" class="cls-11" width="120.213" height="79.381" transform="translate(8181.157 2189.114)"/>
    </g>
    <g id="Groupe_7" data-name="Groupe 7" class="cls-9" transform="translate(-7263.3 -1723.78)">
      <path id="Tracé_5" data-name="Tracé 5" class="cls-14" d="M8082.78,1892.247s-9.623,0-9.623,9.623v44.822s0,9.623,9.623,9.623h82.967s9.623,0,9.623-9.623V1901.87s0-9.623-9.623-9.623Z"/>
      <rect id="Rectangle_9" data-name="Rectangle 9" class="cls-11" width="120.212" height="72.069" transform="translate(8064.157 1885.247)"/>
    </g>
    <g id="Groupe_8" data-name="Groupe 8" class="cls-9" transform="translate(-7263.3 -1723.78)">
      <path id="Tracé_6" data-name="Tracé 6" class="cls-14" d="M7564.381,2326.658s-9.623,0-9.623,9.622v115.812s0,9.623,9.623,9.623h225.041s9.623,0,9.623-9.623V2336.28s0-9.622-9.623-9.622Z"/>
      <rect id="Rectangle_10" data-name="Rectangle 10" class="cls-11" width="262.287" height="143.057" transform="translate(7545.758 2319.658)"/>
    </g>
    <rect id="Rectangle_11" data-name="Rectangle 11" class="cls-11" width="1190.551" height="841.89"/>
    <text id="_..." data-name="..." class="cls-15" transform="translate(970.962 287.318)"><tspan x="0" y="0">...</tspan></text>
    <text id="_" data-name="?" class="cls-15" transform="translate(850.459 215.92)"><tspan x="0" y="0">?</tspan></text>
    <text id="_...-2" data-name="..." class="cls-15" transform="translate(411.494 183.368)"><tspan x="0" y="0">...</tspan></text>
    <rect id="Rectangle_12" data-name="Rectangle 12" class="cls-16" width="12.948" height="5.346" transform="translate(277.725 266.846)"/>
    <text id="_2" data-name="!!" class="cls-15" transform="translate(210.88 574.14)"><tspan x="0" y="0">!!</tspan></text>
    <text id="_...-3" data-name="..." class="cls-15" transform="translate(396.683 685.892)"><tspan x="0" y="0">...</tspan></text>
    <text id="_...-4" data-name="..." class="cls-15" transform="translate(819.849 609.543)"><tspan x="0" y="0">...</tspan></text>
    <text id="_3" data-name="*" class="cls-15" transform="translate(970.448 528.403)"><tspan x="0" y="0">*</tspan></text>
    <rect id="Rectangle_13" data-name="Rectangle 13" class="cls-11" width="1190.55" height="841.89"/>
    <rect id="Rectangle_14" data-name="Rectangle 14" class="cls-11" width="1190.55" height="841.89"/>
  </g>
</svg>
