<svg id="Calque_1" data-name="Calque 1" xmlns="http://www.w3.org/2000/svg" xmlns:xlink="http://www.w3.org/1999/xlink" viewBox="0 0 1190.55 841.89"><defs><style>.cls-1,.cls-7{fill:none;}.cls-2{clip-path:url(#clip-path);}.cls-3{clip-path:url(#clip-path-3);}.cls-4{opacity:0.6;}.cls-5{clip-path:url(#clip-path-4);}.cls-6{fill:#eadfde;}.cls-7{stroke:#283583;stroke-miterlimit:10;stroke-width:1.5px;}.cls-8{fill:#283583;}</style><clipPath id="clip-path"><rect class="cls-1" width="1190.55" height="841.89"/></clipPath><clipPath id="clip-path-3"><rect class="cls-1" width="1190.55" height="841.89"/></clipPath><clipPath id="clip-path-4"><rect class="cls-1" x="27" y="158.83" width="1136.55" height="387.84"/></clipPath></defs><g class="cls-2"><g class="cls-2"><g class="cls-3"><g class="cls-4"><g class="cls-5"><rect class="cls-6" x="36" y="165.83" width="1118.55" height="379.84"/></g></g></g><line class="cls-7" x1="948.73" y1="207" x2="1154.55" y2="207"/><path d="M51.67,193.29c0-6.54,3.33-11.1,9.57-11.1,5.13,0,7.83,3.09,8.37,7.5l-2.37.24c-.45-3.45-2.55-5.73-6.12-5.73-4.47,0-7,3.63-7,9.06,0,5.22,2.37,9.21,7.08,9.21,3.3,0,5.52-2.13,6.18-5.55l2.25.36c-.78,4-3.33,7.23-8.46,7.23C54.61,204.51,51.67,199.47,51.67,193.29Z"/><path d="M85.72,197H74.83c0,3.39,1.89,5.46,4.8,5.46a4.21,4.21,0,0,0,4.23-3.21l1.77.72a6.07,6.07,0,0,1-6.15,4.35c-4.26,0-6.75-2.73-6.75-7.77s2.52-8,6.66-8,6.33,2.4,6.33,7Zm-2.13-2c0-3.09-1.56-4.74-4.23-4.74s-4.47,1.92-4.53,5h8.76Z"/><path d="M87.7,189h2.76v-4l2.1-.9V189h3.87v1.74H92.56v9c0,1.77.78,2.55,2.34,2.55a6.12,6.12,0,0,0,1.53-.18V204a7.07,7.07,0,0,1-2.07.27c-2.91,0-3.9-1.77-3.9-4.44v-9.09H87.7Z"/><path d="M98.41,189h2.76v-4l2.1-.9V189h3.87v1.74h-3.87v9c0,1.77.78,2.55,2.34,2.55a6.12,6.12,0,0,0,1.53-.18V204a7.07,7.07,0,0,1-2.07.27c-2.91,0-3.9-1.77-3.9-4.44v-9.09H98.41Z"/><path d="M122.32,197H111.43c0,3.39,1.89,5.46,4.8,5.46a4.21,4.21,0,0,0,4.23-3.21l1.77.72a6.07,6.07,0,0,1-6.15,4.35c-4.26,0-6.75-2.73-6.75-7.77s2.52-8,6.66-8,6.33,2.4,6.33,7Zm-2.13-2c0-3.09-1.56-4.74-4.23-4.74s-4.47,1.92-4.53,5h8.76Z"/><path d="M133.57,189h2v3.18a5.32,5.32,0,0,1,5.13-3.54c3.69,0,6.09,3.15,6.09,7.86s-2.55,7.86-6.24,7.86a5.06,5.06,0,0,1-4.89-3.18v8.67h-2.07Zm11,7.5c0-3.72-1.62-6-4.38-6s-4.56,2.34-4.56,5.64v.66c0,3.36,1.68,5.7,4.44,5.7S144.55,200.22,144.55,196.5Z"/><path d="M157.51,188.64a3.63,3.63,0,0,1,.57,0v2h-.24a4.39,4.39,0,0,0-3.21,1.14c-1.38,1.38-1.65,3.39-1.65,5.28V204h-2.07V189h2v3.66C153.55,190.35,155.2,188.64,157.51,188.64Z"/><path d="M172.75,197H161.86c0,3.39,1.89,5.46,4.8,5.46a4.21,4.21,0,0,0,4.23-3.21l1.77.72a6.07,6.07,0,0,1-6.15,4.35c-4.26,0-6.75-2.73-6.75-7.77s2.52-8,6.66-8,6.33,2.4,6.33,7Zm-2.13-2c0-3.09-1.56-4.74-4.23-4.74s-4.47,1.92-4.53,5h8.76Zm-3.33-8.46h-2l3-4.29h2.58Z"/><path d="M175.63,199.71l2.13-.36c.36,2.13,1.89,3.27,4.26,3.27,2.19,0,3.42-1.05,3.42-2.55s-.84-2.1-2.43-2.4l-2.91-.57c-2.49-.48-3.9-1.83-3.9-4.11,0-2.52,2.13-4.35,5.52-4.35s5.49,1.47,5.79,4.14l-2.1.45c-.3-1.83-1.59-2.88-3.78-2.88s-3.39,1-3.39,2.55c0,1.41.93,2.1,2.49,2.4l2.94.57c2.67.54,3.84,1.83,3.84,4,0,2.67-2,4.47-5.55,4.47S176.11,202.71,175.63,199.71Z"/><path d="M203.41,197H192.52c0,3.39,1.89,5.46,4.8,5.46a4.21,4.21,0,0,0,4.23-3.21l1.77.72a6.07,6.07,0,0,1-6.15,4.35c-4.26,0-6.75-2.73-6.75-7.77s2.52-8,6.66-8,6.33,2.4,6.33,7Zm-2.13-2c0-3.09-1.56-4.74-4.23-4.74s-4.47,1.92-4.53,5h8.76Z"/><path d="M207.7,189h2v3.3a5.11,5.11,0,0,1,5.13-3.66c3.36,0,5.1,2.07,5.1,6.09V204h-2.1v-9.15c0-2.91-1.26-4.41-3.63-4.41-2.7,0-4.41,2.16-4.41,5.67V204H207.7Z"/><path d="M222.43,189h2.76v-4l2.1-.9V189h3.87v1.74h-3.87v9c0,1.77.78,2.55,2.34,2.55a6.12,6.12,0,0,0,1.53-.18V204a7.07,7.07,0,0,1-2.07.27c-2.91,0-3.9-1.77-3.9-4.44v-9.09h-2.76Z"/><path d="M233.44,200a3.79,3.79,0,0,1,1.83-3.36,12.9,12.9,0,0,1,4.92-1.35l3.33-.39v-.24c0-3.09-1.08-4.32-3.63-4.32-2.25,0-3.63,1.17-3.75,3.3h-2.25c.18-3.09,2.52-5,6-5,4,0,5.76,1.86,5.76,6.21v3.9a21.14,21.14,0,0,0,.48,5.25h-2.19a20.58,20.58,0,0,1-.27-3,5.14,5.14,0,0,1-5.22,3.36C235.42,204.36,233.44,202.62,233.44,200Zm10.11-2.58v-1l-4.26.6c-2.55.36-3.66,1.23-3.66,2.88s1.26,2.64,3.27,2.64C241.69,202.62,243.55,200.52,243.55,197.46Z"/><path d="M248.47,189h2.76v-4l2.1-.9V189h3.87v1.74h-3.87v9c0,1.77.78,2.55,2.34,2.55a6.12,6.12,0,0,0,1.53-.18V204a7.07,7.07,0,0,1-2.07.27c-2.91,0-3.9-1.77-3.9-4.44v-9.09h-2.76Z"/><path d="M260.83,183h2.37v3.3h-2.37Zm.15,6h2.07v15H261Z"/><path d="M267.19,196.5c0-4.89,2.73-7.86,6.9-7.86s6.87,3,6.87,7.86-2.73,7.86-6.87,7.86S267.19,201.39,267.19,196.5Zm11.55,0c0-3.9-1.77-6-4.65-6s-4.68,2.13-4.68,6,1.77,6,4.68,6S278.74,200.4,278.74,196.5Z"/><path d="M285.1,189h2v3.3a5.11,5.11,0,0,1,5.13-3.66c3.36,0,5.1,2.07,5.1,6.09V204h-2.1v-9.15c0-2.91-1.26-4.41-3.63-4.41-2.7,0-4.41,2.16-4.41,5.67V204H285.1Z"/><path d="M320.92,197H310c0,3.39,1.89,5.46,4.8,5.46a4.21,4.21,0,0,0,4.23-3.21l1.77.72a6.07,6.07,0,0,1-6.15,4.35c-4.26,0-6.75-2.73-6.75-7.77s2.52-8,6.66-8,6.33,2.4,6.33,7Zm-2.13-2c0-3.09-1.56-4.74-4.23-4.74s-4.47,1.92-4.53,5h8.76Z"/><path d="M322.9,189h2.76v-4l2.1-.9V189h3.87v1.74h-3.87v9c0,1.77.78,2.55,2.34,2.55a6.12,6.12,0,0,0,1.53-.18V204a7.07,7.07,0,0,1-2.07.27c-2.91,0-3.9-1.77-3.9-4.44v-9.09H322.9Z"/><path d="M344.65,204h-2.07V182.25h2.07Z"/><path d="M361.93,197H351c0,3.39,1.89,5.46,4.8,5.46a4.21,4.21,0,0,0,4.23-3.21l1.77.72a6.07,6.07,0,0,1-6.15,4.35c-4.26,0-6.75-2.73-6.75-7.77s2.52-8,6.66-8,6.33,2.4,6.33,7Zm-2.13-2c0-3.09-1.56-4.74-4.23-4.74s-4.47,1.92-4.53,5h8.76Z"/><path d="M364.81,199.71l2.13-.36c.36,2.13,1.89,3.27,4.26,3.27,2.19,0,3.42-1.05,3.42-2.55s-.84-2.1-2.43-2.4l-2.91-.57c-2.49-.48-3.9-1.83-3.9-4.11,0-2.52,2.13-4.35,5.52-4.35s5.49,1.47,5.79,4.14l-2.1.45c-.3-1.83-1.59-2.88-3.78-2.88s-3.39,1-3.39,2.55c0,1.41.93,2.1,2.49,2.4l2.94.57c2.67.54,3.84,1.83,3.84,4,0,2.67-2,4.47-5.55,4.47S365.29,202.71,364.81,199.71Z"/><path d="M390,189v2.91a4.47,4.47,0,0,1,4.44-3.27,4.23,4.23,0,0,1,4.32,3.21,4.76,4.76,0,0,1,4.62-3.21c2.94,0,4.62,2,4.62,5.55V204h-2.1v-9.63c0-2.55-1.08-3.93-3.15-3.93-2.28,0-3.69,1.68-3.69,4.44V204h-2.07v-9.75c0-2.43-1.14-3.81-3.12-3.81-2.28,0-3.75,1.86-3.75,4.8V204H388V189Z"/><path d="M411.7,200a3.79,3.79,0,0,1,1.83-3.36,12.9,12.9,0,0,1,4.92-1.35l3.33-.39v-.24c0-3.09-1.08-4.32-3.63-4.32-2.25,0-3.63,1.17-3.75,3.3h-2.25c.18-3.09,2.52-5,6-5,4,0,5.76,1.86,5.76,6.21v3.9a21.14,21.14,0,0,0,.48,5.25h-2.19a20.58,20.58,0,0,1-.27-3,5.14,5.14,0,0,1-5.22,3.36C413.68,204.36,411.7,202.62,411.7,200Zm10.11-2.58v-1l-4.26.6c-2.55.36-3.66,1.23-3.66,2.88s1.26,2.64,3.27,2.64C420,202.62,421.81,200.52,421.81,197.46Z"/><path d="M438.61,201a5.1,5.1,0,0,1-4.95,3.36c-3.69,0-6.18-3.09-6.18-7.86s2.67-7.86,6.39-7.86a4.81,4.81,0,0,1,4.83,3.18l.45-2.82h1.56v20.85h-2.1Zm0-4.11v-.75c0-3.36-1.65-5.64-4.47-5.64s-4.47,2.25-4.47,6,1.65,6,4.44,6S438.64,200.22,438.64,196.89Z"/><path d="M445.78,198.51V189h2.07v9.3c0,2.94,1.38,4.26,3.42,4.26,2.73,0,4.38-2.34,4.38-5.37V189h2.1v15h-2v-3.09a5.14,5.14,0,0,1-4.86,3.45C447.16,204.36,445.78,202.08,445.78,198.51Z"/><path d="M474.88,197H464c0,3.39,1.89,5.46,4.8,5.46a4.21,4.21,0,0,0,4.23-3.21l1.77.72a6.07,6.07,0,0,1-6.15,4.35c-4.26,0-6.75-2.73-6.75-7.77s2.52-8,6.66-8,6.33,2.4,6.33,7Zm-2.13-2c0-3.09-1.56-4.74-4.23-4.74s-4.47,1.92-4.53,5h8.76Z"/><path d="M476.89,189h2.76v-4l2.1-.9V189h3.87v1.74h-3.87v9c0,1.77.78,2.55,2.34,2.55a6.12,6.12,0,0,0,1.53-.18V204a7.07,7.07,0,0,1-2.07.27c-2.91,0-3.9-1.77-3.9-4.44v-9.09h-2.76Z"/><path d="M487.6,189h2.76v-4l2.1-.9V189h3.87v1.74h-3.87v9c0,1.77.78,2.55,2.34,2.55a6.12,6.12,0,0,0,1.53-.18V204a7.07,7.07,0,0,1-2.07.27c-2.91,0-3.9-1.77-3.9-4.44v-9.09H487.6Z"/><path d="M511.48,197H500.59c0,3.39,1.89,5.46,4.8,5.46a4.21,4.21,0,0,0,4.23-3.21l1.77.72a6.07,6.07,0,0,1-6.15,4.35c-4.26,0-6.75-2.73-6.75-7.77s2.52-8,6.66-8,6.33,2.4,6.33,7Zm-2.13-2c0-3.09-1.56-4.74-4.23-4.74s-4.47,1.92-4.53,5h8.76Z"/><path d="M514.36,199.71l2.13-.36c.36,2.13,1.89,3.27,4.26,3.27,2.19,0,3.42-1.05,3.42-2.55s-.84-2.1-2.43-2.4l-2.91-.57c-2.49-.48-3.9-1.83-3.9-4.11,0-2.52,2.13-4.35,5.52-4.35s5.49,1.47,5.79,4.14l-2.1.45c-.3-1.83-1.59-2.88-3.78-2.88s-3.39,1-3.39,2.55c0,1.41.93,2.1,2.49,2.4l2.94.57c2.67.54,3.84,1.83,3.84,4,0,2.67-2,4.47-5.55,4.47S514.84,202.71,514.36,199.71Z"/><path d="M536.14,199.71l2.13-.36c.36,2.13,1.89,3.27,4.26,3.27,2.19,0,3.42-1.05,3.42-2.55s-.84-2.1-2.43-2.4l-2.91-.57c-2.49-.48-3.9-1.83-3.9-4.11,0-2.52,2.13-4.35,5.52-4.35s5.49,1.47,5.79,4.14l-2.1.45c-.3-1.83-1.59-2.88-3.78-2.88s-3.39,1-3.39,2.55c0,1.41.93,2.1,2.49,2.4l2.94.57c2.67.54,3.84,1.83,3.84,4,0,2.67-2,4.47-5.55,4.47S536.62,202.71,536.14,199.71Z"/><path d="M563.92,197H553c0,3.39,1.89,5.46,4.8,5.46a4.21,4.21,0,0,0,4.23-3.21l1.77.72a6.07,6.07,0,0,1-6.15,4.35c-4.26,0-6.75-2.73-6.75-7.77s2.52-8,6.66-8,6.33,2.4,6.33,7Zm-2.13-2c0-3.09-1.56-4.74-4.23-4.74s-4.47,1.92-4.53,5h8.76Z"/><path d="M574.81,188.64a3.63,3.63,0,0,1,.57,0v2h-.24a4.39,4.39,0,0,0-3.21,1.14c-1.38,1.38-1.65,3.39-1.65,5.28V204h-2.07V189h1.95v3.66C570.85,190.35,572.5,188.64,574.81,188.64Z"/><path d="M577.06,196.5c0-4.89,2.73-7.86,6.9-7.86s6.87,3,6.87,7.86-2.73,7.86-6.87,7.86S577.06,201.39,577.06,196.5Zm11.55,0c0-3.9-1.77-6-4.65-6s-4.68,2.13-4.68,6,1.77,6,4.68,6S588.61,200.4,588.61,196.5Z"/><path d="M595,189h2v3.3a5.11,5.11,0,0,1,5.13-3.66c3.36,0,5.1,2.07,5.1,6.09V204h-2.1v-9.15c0-2.91-1.26-4.41-3.63-4.41-2.7,0-4.41,2.16-4.41,5.67V204H595Z"/><path d="M609.7,189h2.76v-4l2.1-.9V189h3.87v1.74h-3.87v9c0,1.77.78,2.55,2.34,2.55a6.12,6.12,0,0,0,1.53-.18V204a7.07,7.07,0,0,1-2.07.27c-2.91,0-3.9-1.77-3.9-4.44v-9.09H609.7Z"/><path d="M627.85,200a3.79,3.79,0,0,1,1.83-3.36,12.9,12.9,0,0,1,4.92-1.35l3.33-.39v-.24c0-3.09-1.08-4.32-3.63-4.32-2.25,0-3.63,1.17-3.75,3.3H628.3c.18-3.09,2.52-5,6-5,4,0,5.76,1.86,5.76,6.21v3.9a21.14,21.14,0,0,0,.48,5.25h-2.19a20.58,20.58,0,0,1-.27-3,5.14,5.14,0,0,1-5.22,3.36C629.83,204.36,627.85,202.62,627.85,200ZM638,197.46v-1l-4.26.6c-2.55.36-3.66,1.23-3.66,2.88s1.26,2.64,3.27,2.64C636.1,202.62,638,200.52,638,197.46Z"/><path d="M643.63,196.5c0-4.89,2.61-7.86,6.81-7.86a5.67,5.67,0,0,1,6.06,5.43l-2.13.24c-.3-2.49-1.74-3.84-4-3.84-2.79,0-4.5,2.25-4.5,6s1.71,6.06,4.59,6.06c2.25,0,3.66-1.35,4-3.84l2,.3c-.54,3.39-2.76,5.37-6.06,5.37C646.27,204.36,643.63,201.33,643.63,196.5Z"/><path d="M659.26,196.5c0-4.89,2.61-7.86,6.81-7.86a5.67,5.67,0,0,1,6.06,5.43l-2.13.24c-.3-2.49-1.74-3.84-4-3.84-2.79,0-4.5,2.25-4.5,6s1.71,6.06,4.59,6.06c2.25,0,3.66-1.35,4-3.84l2,.3c-.54,3.39-2.76,5.37-6.06,5.37C661.9,204.36,659.26,201.33,659.26,196.5Z"/><path d="M687.88,197H677c0,3.39,1.89,5.46,4.8,5.46a4.21,4.21,0,0,0,4.23-3.21l1.77.72a6.08,6.08,0,0,1-6.15,4.35c-4.26,0-6.75-2.73-6.75-7.77s2.52-8,6.66-8,6.33,2.4,6.33,7Zm-2.13-2c0-3.09-1.56-4.74-4.23-4.74s-4.47,1.92-4.53,5h8.76Z"/><path d="M690.76,199.71l2.13-.36c.36,2.13,1.89,3.27,4.26,3.27,2.19,0,3.42-1.05,3.42-2.55s-.84-2.1-2.43-2.4l-2.91-.57c-2.49-.48-3.9-1.83-3.9-4.11,0-2.52,2.13-4.35,5.52-4.35s5.49,1.47,5.79,4.14l-2.1.45c-.3-1.83-1.59-2.88-3.78-2.88s-3.39,1-3.39,2.55c0,1.41.93,2.1,2.49,2.4l2.94.57c2.67.54,3.84,1.83,3.84,4,0,2.67-2,4.47-5.55,4.47S691.24,202.71,690.76,199.71Z"/><path d="M705.27,199.71l2.14-.36c.36,2.13,1.89,3.27,4.26,3.27,2.18,0,3.42-1.05,3.42-2.55s-.85-2.1-2.44-2.4l-2.9-.57c-2.49-.48-3.9-1.83-3.9-4.11,0-2.52,2.13-4.35,5.51-4.35s5.49,1.47,5.79,4.14l-2.09.45c-.3-1.83-1.59-2.88-3.79-2.88s-3.38,1-3.38,2.55c0,1.41.92,2.1,2.49,2.4l2.93.57c2.67.54,3.84,1.83,3.84,4,0,2.67-2,4.47-5.55,4.47S705.76,202.71,705.27,199.71Z"/><path d="M721.32,183h2.37v3.3h-2.37Zm.15,6h2.07v15h-2.07Z"/><path d="M731.22,201l-.39,3h-1.59V182.25h2.07v9.81a5.2,5.2,0,0,1,5-3.42c3.69,0,6.09,3.21,6.09,7.86s-2.46,7.86-6.24,7.86A5.2,5.2,0,0,1,731.22,201Zm9-4.5c0-3.63-1.62-6-4.5-6s-4.44,2.25-4.44,5.7v.72c0,3.33,1.68,5.58,4.38,5.58C738.51,202.5,740.22,200.16,740.22,196.5Z"/><path d="M748.77,204H746.7V182.25h2.07Z"/><path d="M766,197H755.13c0,3.39,1.89,5.46,4.8,5.46a4.21,4.21,0,0,0,4.23-3.21l1.77.72a6.07,6.07,0,0,1-6.15,4.35c-4.26,0-6.75-2.73-6.75-7.77s2.52-8,6.66-8,6.33,2.4,6.33,7Zm-2.13-2c0-3.09-1.56-4.74-4.23-4.74s-4.47,1.92-4.53,5h8.76Z"/><path d="M768.9,199.71l2.13-.36c.36,2.13,1.89,3.27,4.26,3.27,2.19,0,3.42-1.05,3.42-2.55s-.84-2.1-2.43-2.4l-2.91-.57c-2.49-.48-3.9-1.83-3.9-4.11,0-2.52,2.13-4.35,5.52-4.35s5.49,1.47,5.79,4.14l-2.1.45c-.3-1.83-1.59-2.88-3.78-2.88s-3.39,1-3.39,2.55c0,1.41.93,2.1,2.49,2.4l2.94.57c2.67.54,3.84,1.83,3.84,4,0,2.67-2,4.47-5.55,4.47S769.38,202.71,768.9,199.71Z"/><path d="M803.64,197H792.75c0,3.39,1.89,5.46,4.8,5.46a4.21,4.21,0,0,0,4.23-3.21l1.77.72a6.07,6.07,0,0,1-6.15,4.35c-4.26,0-6.75-2.73-6.75-7.77s2.52-8,6.66-8,6.33,2.4,6.33,7Zm-2.13-2c0-3.09-1.56-4.74-4.23-4.74s-4.47,1.92-4.53,5h8.76Z"/><path d="M807.9,189h2v3.3a5.11,5.11,0,0,1,5.13-3.66c3.36,0,5.1,2.07,5.1,6.09V204H818v-9.15c0-2.91-1.26-4.41-3.63-4.41-2.7,0-4.41,2.16-4.41,5.67V204H807.9Z"/><path d="M834.36,204h-2.07V182.25h2.07Z"/><path d="M839.88,183h2.37v3.3h-2.37Zm.15,6h2.07v15H840Z"/><path d="M856.65,190.05a4.86,4.86,0,0,1,1.5,3.63c0,2.91-2.07,5.07-5.46,5.07a6.18,6.18,0,0,1-2.88-.66,1.81,1.81,0,0,0-1.29,1.65c0,1,.75,1.71,2.55,1.71H855c3.24,0,4.89,1.47,4.89,4.08,0,2.82-2.22,4.68-7.23,4.68s-6.72-1.89-6.72-4.17a3.31,3.31,0,0,1,2.52-3.18,2.65,2.65,0,0,1-1.8-2.58,3,3,0,0,1,2.13-2.88,5,5,0,0,1-1.56-3.72c0-2.91,2.1-5,5.46-5a6.35,6.35,0,0,1,2.94.66,3.45,3.45,0,0,1,3.54-2.7,4.51,4.51,0,0,1,.87.09v1.86a4.18,4.18,0,0,0-1-.12A2.4,2.4,0,0,0,856.65,190.05ZM851,203.28c-.42,0-.81,0-1.17-.06a2.63,2.63,0,0,0-1.83,2.46c0,2,2,2.79,4.89,2.79,3.72,0,4.89-1.17,4.89-2.82s-1.11-2.37-3.27-2.37Zm5.16-9.57a3.48,3.48,0,1,0-3.48,3.42A3.3,3.3,0,0,0,856.17,193.71Z"/><path d="M863.25,189h2v3.3a5.11,5.11,0,0,1,5.13-3.66c3.36,0,5.1,2.07,5.1,6.09V204h-2.1v-9.15c0-2.91-1.26-4.41-3.63-4.41-2.7,0-4.41,2.16-4.41,5.67V204h-2.07Z"/><path d="M892.08,197H881.19c0,3.39,1.89,5.46,4.8,5.46a4.21,4.21,0,0,0,4.23-3.21L892,200a6.07,6.07,0,0,1-6.15,4.35c-4.26,0-6.75-2.73-6.75-7.77s2.52-8,6.66-8,6.33,2.4,6.33,7Zm-2.13-2c0-3.09-1.56-4.74-4.23-4.74s-4.47,1.92-4.53,5H890Z"/><path d="M901.92,199.71l2.13-.36c.36,2.13,1.89,3.27,4.26,3.27,2.19,0,3.42-1.05,3.42-2.55s-.84-2.1-2.43-2.4l-2.91-.57c-2.49-.48-3.9-1.83-3.9-4.11,0-2.52,2.13-4.35,5.52-4.35s5.49,1.47,5.79,4.14l-2.1.45c-.3-1.83-1.59-2.88-3.78-2.88s-3.39,1-3.39,2.55c0,1.41.93,2.1,2.49,2.4l2.94.57c2.67.54,3.84,1.83,3.84,4,0,2.67-2,4.47-5.55,4.47S902.4,202.71,901.92,199.71Z"/><path d="M917.67,198.51V189h2.07v9.3c0,2.94,1.38,4.26,3.42,4.26,2.73,0,4.38-2.34,4.38-5.37V189h2.1v15h-2v-3.09a5.14,5.14,0,0,1-4.86,3.45C919.05,204.36,917.67,202.08,917.67,198.51Z"/><path d="M941.79,188.64a3.63,3.63,0,0,1,.57,0v2h-.24a4.39,4.39,0,0,0-3.21,1.14c-1.38,1.38-1.65,3.39-1.65,5.28V204h-2.07V189h1.95v3.66C937.83,190.35,939.48,188.64,941.79,188.64Z"/><path class="cls-8" d="M951.56,189h2v3.18a5.32,5.32,0,0,1,5.13-3.54c3.69,0,6.09,3.15,6.09,7.86s-2.55,7.86-6.24,7.86a5.06,5.06,0,0,1-4.89-3.18v8.67h-2.07Zm11,7.5c0-3.72-1.62-6-4.38-6s-4.56,2.34-4.56,5.64v.66c0,3.36,1.68,5.7,4.44,5.7S962.54,200.22,962.54,196.5Z"/><path class="cls-8" d="M967.52,200a3.79,3.79,0,0,1,1.83-3.36,12.9,12.9,0,0,1,4.92-1.35l3.33-.39v-.24c0-3.09-1.08-4.32-3.63-4.32-2.25,0-3.63,1.17-3.75,3.3H968c.18-3.09,2.52-5,6-5,4,0,5.76,1.86,5.76,6.21v3.9a21.14,21.14,0,0,0,.48,5.25H978a20.58,20.58,0,0,1-.27-3,5.14,5.14,0,0,1-5.22,3.36C969.5,204.36,967.52,202.62,967.52,200Zm10.11-2.58v-1l-4.26.6c-2.55.36-3.66,1.23-3.66,2.88s1.26,2.64,3.27,2.64C975.77,202.62,977.63,200.52,977.63,197.46Z"/><path class="cls-8" d="M991.46,188.64a3.63,3.63,0,0,1,.57,0v2h-.24a4.39,4.39,0,0,0-3.21,1.14c-1.38,1.38-1.65,3.39-1.65,5.28V204h-2.07V189h1.95v3.66C987.5,190.35,989.15,188.64,991.46,188.64Z"/><path class="cls-8" d="M993.65,189h2.76v-4l2.1-.9V189h3.87v1.74h-3.87v9c0,1.77.78,2.55,2.34,2.55a6.12,6.12,0,0,0,1.53-.18V204a7.07,7.07,0,0,1-2.07.27c-2.91,0-3.9-1.77-3.9-4.44v-9.09h-2.76Z"/><path class="cls-8" d="M1006,183h2.37v3.3H1006Zm.15,6h2.07v15h-2.07Z"/><path class="cls-8" d="M1012.4,196.5c0-4.89,2.61-7.86,6.81-7.86a5.67,5.67,0,0,1,6.06,5.43l-2.13.24c-.3-2.49-1.74-3.84-4-3.84-2.79,0-4.5,2.25-4.5,6s1.71,6.06,4.59,6.06c2.25,0,3.66-1.35,4-3.84l2,.3c-.54,3.39-2.76,5.37-6.06,5.37C1015,204.36,1012.4,201.33,1012.4,196.5Z"/><path class="cls-8" d="M1029.29,183h2.37v3.3h-2.37Zm.15,6h2.07v15h-2.07Z"/><path class="cls-8" d="M1037.06,189h2v3.18a5.32,5.32,0,0,1,5.13-3.54c3.69,0,6.09,3.15,6.09,7.86s-2.55,7.86-6.24,7.86a5.06,5.06,0,0,1-4.89-3.18v8.67h-2.07Zm11,7.5c0-3.72-1.62-6-4.38-6s-4.56,2.34-4.56,5.64v.66c0,3.36,1.68,5.7,4.44,5.7S1048,200.22,1048,196.5Z"/><path class="cls-8" d="M1066,197h-10.89c0,3.39,1.89,5.46,4.8,5.46a4.21,4.21,0,0,0,4.23-3.21l1.77.72a6.07,6.07,0,0,1-6.15,4.35c-4.26,0-6.75-2.73-6.75-7.77s2.52-8,6.66-8,6.33,2.4,6.33,7Zm-2.13-2c0-3.09-1.56-4.74-4.23-4.74s-4.47,1.92-4.53,5h8.76Z"/><path class="cls-8" d="M1076.84,188.64a3.63,3.63,0,0,1,.57,0v2h-.24a4.39,4.39,0,0,0-3.21,1.14c-1.38,1.38-1.65,3.39-1.65,5.28V204h-2.07V189h2v3.66C1072.88,190.35,1074.53,188.64,1076.84,188.64Z"/><path class="cls-8" d="M1081.52,204h-2.82v-3.36h2.82Z"/><path class="cls-8" d="M1095.77,190.05a4.86,4.86,0,0,1,1.5,3.63c0,2.91-2.07,5.07-5.46,5.07a6.18,6.18,0,0,1-2.88-.66,1.81,1.81,0,0,0-1.29,1.65c0,1,.75,1.71,2.55,1.71h3.93c3.24,0,4.89,1.47,4.89,4.08,0,2.82-2.22,4.68-7.23,4.68s-6.72-1.89-6.72-4.17a3.31,3.31,0,0,1,2.52-3.18,2.65,2.65,0,0,1-1.8-2.58,3,3,0,0,1,2.13-2.88,5,5,0,0,1-1.56-3.72c0-2.91,2.1-5,5.46-5a6.35,6.35,0,0,1,2.94.66,3.45,3.45,0,0,1,3.54-2.7,4.51,4.51,0,0,1,.87.09v1.86a4.18,4.18,0,0,0-1-.12A2.4,2.4,0,0,0,1095.77,190.05Zm-5.64,13.23c-.42,0-.81,0-1.17-.06a2.63,2.63,0,0,0-1.83,2.46c0,2,1.95,2.79,4.89,2.79,3.72,0,4.89-1.17,4.89-2.82s-1.11-2.37-3.27-2.37Zm5.16-9.57a3.48,3.48,0,1,0-3.48,3.42A3.3,3.3,0,0,0,1095.29,193.71Z"/><path class="cls-8" d="M1113.68,197h-10.89c0,3.39,1.89,5.46,4.8,5.46a4.21,4.21,0,0,0,4.23-3.21l1.77.72a6.07,6.07,0,0,1-6.15,4.35c-4.26,0-6.75-2.73-6.75-7.77s2.52-8,6.66-8,6.33,2.4,6.33,7Zm-2.13-2c0-3.09-1.56-4.74-4.23-4.74s-4.47,1.92-4.53,5h8.76Z"/><path class="cls-8" d="M1119.8,204H1117v-3.36h2.82Z"/><path class="cls-8" d="M1123,196.5c0-4.89,2.61-7.86,6.81-7.86a5.67,5.67,0,0,1,6.06,5.43l-2.13.24c-.3-2.49-1.74-3.84-4-3.84-2.79,0-4.5,2.25-4.5,6s1.71,6.06,4.59,6.06c2.25,0,3.66-1.35,4-3.84l2,.3c-.54,3.39-2.76,5.37-6.06,5.37C1125.62,204.36,1123,201.33,1123,196.5Z"/><path class="cls-8" d="M1140.17,182.25h2.07v9.93a5.14,5.14,0,0,1,5.13-3.54c3.27,0,5,2.07,5,6.06V204h-2.1v-9.18c0-2.88-1.23-4.38-3.6-4.38-2.73,0-4.44,2.16-4.44,5.67V204h-2.07Z"/><path d="M51.67,272a3.79,3.79,0,0,1,1.83-3.36,12.9,12.9,0,0,1,4.92-1.35l3.33-.39v-.24c0-3.09-1.08-4.32-3.63-4.32-2.25,0-3.63,1.17-3.75,3.3H52.12c.18-3.09,2.52-5,6-5,4,0,5.76,1.86,5.76,6.21v3.9a21.14,21.14,0,0,0,.48,5.25H62.14a20.58,20.58,0,0,1-.27-3,5.14,5.14,0,0,1-5.22,3.36C53.65,276.36,51.67,274.62,51.67,272Zm10.11-2.58v-1l-4.26.6c-2.55.36-3.66,1.23-3.66,2.88s1.26,2.64,3.27,2.64C59.92,274.62,61.78,272.52,61.78,269.46Z"/><path d="M69,255h2.37v3.3H69Zm.15,6h2.07v15H69.16Z"/><path d="M76.93,261h2v3.3A5.11,5.11,0,0,1,84,260.64c3.36,0,5.1,2.07,5.1,6.09V276H87v-9.15c0-2.91-1.26-4.41-3.63-4.41-2.7,0-4.41,2.16-4.41,5.67V276H76.93Z"/><path d="M93,271.71l2.13-.36c.36,2.13,1.89,3.27,4.26,3.27,2.19,0,3.42-1.05,3.42-2.55s-.84-2.1-2.43-2.4l-2.91-.57c-2.49-.48-3.9-1.83-3.9-4.11,0-2.52,2.13-4.35,5.52-4.35s5.49,1.47,5.79,4.14l-2.1.45c-.3-1.83-1.59-2.88-3.78-2.88s-3.39,1-3.39,2.55c0,1.41.93,2.1,2.49,2.4l2.94.57c2.67.54,3.84,1.83,3.84,4,0,2.67-2,4.47-5.55,4.47S93.43,274.71,93,271.71Z"/><path d="M109.15,255h2.37v3.3h-2.37Zm.15,6h2.07v15H109.3Z"/><path d="M134.74,273a5.1,5.1,0,0,1-5,3.36c-3.69,0-6.18-3.09-6.18-7.86s2.67-7.86,6.39-7.86a4.81,4.81,0,0,1,4.83,3.18l.45-2.82h1.56v20.85h-2.1Zm0-4.11v-.75c0-3.36-1.65-5.64-4.47-5.64s-4.47,2.25-4.47,6,1.65,6,4.44,6S134.77,272.22,134.77,268.89Z"/><path d="M142.06,270.51V261h2.07v9.3c0,2.94,1.38,4.26,3.42,4.26,2.73,0,4.38-2.34,4.38-5.37V261H154v15h-2v-3.09a5.14,5.14,0,0,1-4.86,3.45C143.44,276.36,142.06,274.08,142.06,270.51Z"/><path d="M159,260.94a2.57,2.57,0,0,0,1.59-2.82v-.06h-1.5V254.7h2.85v3.18c0,2.22-.57,3.3-2.37,4.14Z"/><path d="M166.45,270.51V261h2.07v9.3c0,2.94,1.38,4.26,3.42,4.26,2.73,0,4.38-2.34,4.38-5.37V261h2.1v15h-2v-3.09a5.14,5.14,0,0,1-4.86,3.45C167.83,276.36,166.45,274.08,166.45,270.51Z"/><path d="M184.12,261h2v3.3a5.11,5.11,0,0,1,5.13-3.66c3.36,0,5.1,2.07,5.1,6.09V276h-2.1v-9.15c0-2.91-1.26-4.41-3.63-4.41-2.7,0-4.41,2.16-4.41,5.67V276h-2.07Z"/><path d="M218.11,273.66a4.83,4.83,0,0,1-4.53,2.7c-3.57,0-6-3.09-6-7.8,0-4.89,2.55-7.92,6.33-7.92a4.46,4.46,0,0,1,4.41,2.58l.39-2.22h4.17v20.85h-4.8Zm.06-4.47v-1.38c0-2.4-1-3.84-2.79-3.84s-2.82,1.59-2.82,4.5,1.05,4.56,2.85,4.56S218.17,271.56,218.17,269.19Z"/><path d="M226.72,270.72V261h4.8v8.88c0,1.86.75,2.82,2.16,2.82,1.56,0,2.52-1.23,2.52-3.12V261H241v15h-4.59v-2.73a4.84,4.84,0,0,1-4.68,3.09C228.22,276.36,226.72,274.23,226.72,270.72Z"/><path d="M258.88,269.58H248.47a3.23,3.23,0,0,0,3.45,3.33,3.48,3.48,0,0,0,3.27-2.1l3.54,1.62a7.33,7.33,0,0,1-6.87,3.93c-5,0-8-2.85-8-7.71s2.94-8,7.62-8,7.35,2.73,7.35,7.5Zm-4.65-2.82c0-2.13-1-3.27-2.79-3.27s-2.91,1.26-3,3.39h5.76Z"/><path d="M260.29,272.88l2.76-2a5.56,5.56,0,0,0,4.74,2.25c1.65,0,2.43-.54,2.43-1.35s-.48-1.11-2.13-1.35l-2.34-.42c-3.09-.51-4.65-2-4.65-4.59,0-2.85,2.49-4.74,6.6-4.74,3,0,5.55,1,6.78,2.79L272,265.65a6.17,6.17,0,0,0-4.56-1.8c-1.41,0-2.1.42-2.1,1.26s.48,1,1.65,1.23l3,.51c3.09.51,4.38,2,4.38,4.56,0,3-2.4,4.95-6.63,4.95C264.43,276.36,261.7,275.16,260.29,272.88Z"/><path d="M275.65,261h2.61v-3.6l4.8-1.86V261h3.57v3.21h-3.57V270a2,2,0,0,0,2.19,2.28,6.27,6.27,0,0,0,1.38-.15V276a13.74,13.74,0,0,1-2.73.3c-4,0-5.64-1.8-5.64-5.1v-7h-2.61Z"/><path d="M289.3,254.46h5v4.38h-5Zm.09,6.54h4.83v15h-4.83Z"/><path d="M297.1,268.47c0-5.16,3.36-7.83,7.77-7.83s7.8,2.67,7.8,7.83-3.36,7.89-7.8,7.89S297.1,273.63,297.1,268.47Zm10.77,0c0-3.09-1.11-4.5-3-4.5s-3,1.41-3,4.5,1.11,4.56,3,4.56S307.87,271.53,307.87,268.47Z"/><path d="M315.55,261h4.62v2.88a5.16,5.16,0,0,1,5-3.24c3.24,0,4.89,2.07,4.89,6.06V276h-4.8v-8.64c0-2.07-.72-3.06-2.25-3.06-1.68,0-2.61,1.29-2.61,3.6V276h-4.83Z"/><path d="M333.82,261h4.62v2.88a5.16,5.16,0,0,1,5-3.24c3.24,0,4.89,2.07,4.89,6.06V276h-4.8v-8.64c0-2.07-.72-3.06-2.25-3.06s-2.61,1.29-2.61,3.6V276h-4.83Z"/><path d="M350.86,271.92a3.74,3.74,0,0,1,1.53-3.24,10.57,10.57,0,0,1,4.71-1.47l3.63-.51v-.51c0-1.71-.72-2.46-2.22-2.46a2.16,2.16,0,0,0-2.4,2.22h-4.77c.24-3.33,2.94-5.31,7.2-5.31,4.83,0,7,1.89,7,6.21v5A16.32,16.32,0,0,0,366,276h-4.68a14.39,14.39,0,0,1-.24-2.37c-.75,1.68-2.67,2.73-5,2.73C352.93,276.36,350.86,274.59,350.86,271.92Zm10-1.65v-1.2l-2.58.42c-1.77.33-2.58,1-2.58,2.07s.84,1.74,2.1,1.74A2.89,2.89,0,0,0,360.88,270.27Z"/><path d="M369.19,254.46h5v4.38h-5Zm.09,6.54h4.83v15h-4.83Z"/><path d="M387.67,260.64h.3v4.59a8.44,8.44,0,0,0-.9,0,4.32,4.32,0,0,0-2.91.9,4.93,4.93,0,0,0-1.2,3.78V276h-4.83V261h4.53v3.87C383.44,262.17,385.09,260.64,387.67,260.64Z"/><path d="M404.2,269.58H393.79a3.23,3.23,0,0,0,3.45,3.33,3.48,3.48,0,0,0,3.27-2.1l3.54,1.62a7.33,7.33,0,0,1-6.87,3.93c-4.95,0-7.95-2.85-7.95-7.71s2.94-8,7.62-8,7.35,2.73,7.35,7.5Zm-4.65-2.82c0-2.13-1-3.27-2.79-3.27s-2.91,1.26-3,3.39h5.76Z"/><path d="M53.32,348V326.7h2.31V348Z"/><path d="M63.85,348H61.78V326.25h2.07Z"/><path d="M77.65,333h2v3.18a5.32,5.32,0,0,1,5.13-3.54c3.69,0,6.09,3.15,6.09,7.86s-2.55,7.86-6.24,7.86a5.06,5.06,0,0,1-4.89-3.18v8.67H77.65Zm11,7.5c0-3.72-1.62-6-4.38-6s-4.56,2.34-4.56,5.64v.66c0,3.36,1.68,5.7,4.44,5.7S88.63,344.22,88.63,340.5Z"/><path d="M106.72,341H95.83c0,3.39,1.89,5.46,4.8,5.46a4.21,4.21,0,0,0,4.23-3.21l1.77.72a6.07,6.07,0,0,1-6.15,4.35c-4.26,0-6.75-2.73-6.75-7.77s2.52-7.95,6.66-7.95,6.33,2.4,6.33,7Zm-2.13-2c0-3.09-1.56-4.74-4.23-4.74s-4.47,1.92-4.53,5h8.76Z"/><path d="M117.76,332.64a3.63,3.63,0,0,1,.57,0v2h-.24a4.39,4.39,0,0,0-3.21,1.14c-1.38,1.38-1.65,3.39-1.65,5.28V348h-2.07V333h2v3.66C113.8,334.35,115.45,332.64,117.76,332.64Z"/><path d="M123.79,333v2.91a4.47,4.47,0,0,1,4.44-3.27,4.23,4.23,0,0,1,4.32,3.21,4.76,4.76,0,0,1,4.62-3.21c2.94,0,4.62,2,4.62,5.55V348h-2.1v-9.63c0-2.55-1.08-3.93-3.15-3.93-2.28,0-3.69,1.68-3.69,4.44V348h-2.07v-9.75c0-2.43-1.14-3.81-3.12-3.81-2.28,0-3.75,1.86-3.75,4.8V348h-2.07V333Z"/><path d="M158.62,341H147.73c0,3.39,1.89,5.46,4.8,5.46a4.21,4.21,0,0,0,4.23-3.21l1.77.72a6.07,6.07,0,0,1-6.15,4.35c-4.26,0-6.75-2.73-6.75-7.77s2.52-7.95,6.66-7.95,6.33,2.4,6.33,7Zm-2.13-2c0-3.09-1.56-4.74-4.23-4.74s-4.47,1.92-4.53,5h8.76Z"/><path d="M160.78,333h2.76v-4l2.1-.9V333h3.87v1.74h-3.87v9c0,1.77.78,2.55,2.34,2.55a6.12,6.12,0,0,0,1.53-.18V348a7.07,7.07,0,0,1-2.07.27c-2.91,0-3.9-1.77-3.9-4.44v-9.09h-2.76Z"/><path d="M171.7,333h2.76v-4l2.1-.9V333h3.87v1.74h-3.87v9c0,1.77.78,2.55,2.34,2.55a6.12,6.12,0,0,0,1.53-.18V348a7.07,7.07,0,0,1-2.07.27c-2.91,0-3.9-1.77-3.9-4.44v-9.09H171.7Z"/><path d="M191,332.64a3.63,3.63,0,0,1,.57,0v2h-.24a4.39,4.39,0,0,0-3.21,1.14c-1.38,1.38-1.65,3.39-1.65,5.28V348h-2.07V333h2v3.66C187,334.35,188.68,332.64,191,332.64Z"/><path d="M193.42,344a3.79,3.79,0,0,1,1.83-3.36,12.9,12.9,0,0,1,4.92-1.35l3.33-.39v-.24c0-3.09-1.08-4.32-3.63-4.32-2.25,0-3.63,1.17-3.75,3.3h-2.25c.18-3.09,2.52-5,6-5,4,0,5.76,1.86,5.76,6.21v3.9a21.14,21.14,0,0,0,.48,5.25h-2.19a20.58,20.58,0,0,1-.27-3,5.14,5.14,0,0,1-5.22,3.36C195.4,348.36,193.42,346.62,193.42,344Zm10.11-2.58v-1l-4.26.6c-2.55.36-3.66,1.23-3.66,2.88s1.26,2.64,3.27,2.64C201.67,346.62,203.53,344.52,203.53,341.46Z"/><path d="M217.45,340.5c0-4.62,2.61-7.86,6.42-7.86a4.78,4.78,0,0,1,4.71,3.09v-9.48h2.1V348h-2v-3.18a5.23,5.23,0,0,1-5.07,3.54C219.91,348.36,217.45,345.18,217.45,340.5Zm11.16.33v-.63c0-3.42-1.65-5.7-4.44-5.7s-4.5,2.25-4.5,6,1.68,6,4.47,6S228.61,344.16,228.61,340.83Z"/><path d="M248.08,341H237.19c0,3.39,1.89,5.46,4.8,5.46a4.21,4.21,0,0,0,4.23-3.21L248,344a6.07,6.07,0,0,1-6.15,4.35c-4.26,0-6.75-2.73-6.75-7.77s2.52-7.95,6.66-7.95,6.33,2.4,6.33,7Zm-2.13-2c0-3.09-1.56-4.74-4.23-4.74s-4.47,1.92-4.53,5H246Z"/><path d="M259.06,340.5c0-4.89,2.61-7.86,6.81-7.86a5.67,5.67,0,0,1,6.06,5.43l-2.13.24c-.3-2.49-1.74-3.84-4-3.84-2.79,0-4.5,2.25-4.5,6s1.71,6.06,4.59,6.06c2.25,0,3.66-1.35,4.05-3.84l2,.3c-.54,3.39-2.76,5.37-6.06,5.37C261.7,348.36,259.06,345.33,259.06,340.5Z"/><path d="M274.84,340.5c0-4.89,2.73-7.86,6.9-7.86s6.87,3,6.87,7.86-2.73,7.86-6.87,7.86S274.84,345.39,274.84,340.5Zm11.55,0c0-3.9-1.77-6-4.65-6s-4.68,2.13-4.68,6,1.77,6,4.68,6S286.39,344.4,286.39,340.5Z"/><path d="M294.85,333v2.91a4.47,4.47,0,0,1,4.44-3.27,4.23,4.23,0,0,1,4.32,3.21,4.76,4.76,0,0,1,4.62-3.21c2.94,0,4.62,2,4.62,5.55V348h-2.1v-9.63c0-2.55-1.08-3.93-3.15-3.93-2.28,0-3.69,1.68-3.69,4.44V348h-2.07v-9.75c0-2.43-1.14-3.81-3.12-3.81-2.28,0-3.75,1.86-3.75,4.8V348H292.9V333Z"/><path d="M318.07,333h2v3.18a5.32,5.32,0,0,1,5.13-3.54c3.69,0,6.09,3.15,6.09,7.86s-2.55,7.86-6.24,7.86a5.06,5.06,0,0,1-4.89-3.18v8.67h-2.07Zm11,7.5c0-3.72-1.62-6-4.38-6s-4.56,2.34-4.56,5.64v.66c0,3.36,1.68,5.7,4.44,5.7S329.05,344.22,329.05,340.5Z"/><path d="M337.78,348h-2.07V326.25h2.07Z"/><path d="M355.21,341H344.32c0,3.39,1.89,5.46,4.8,5.46a4.21,4.21,0,0,0,4.23-3.21l1.77.72a6.07,6.07,0,0,1-6.15,4.35c-4.26,0-6.75-2.73-6.75-7.77s2.52-7.95,6.66-7.95,6.33,2.4,6.33,7Zm-2.13-2c0-3.09-1.56-4.74-4.23-4.74s-4.47,1.92-4.53,5h8.76Zm-3.33-8.46h-2l3-4.29h2.58Z"/><path d="M357.4,333h2.76v-4l2.1-.9V333h3.87v1.74h-3.87v9c0,1.77.78,2.55,2.34,2.55a6.12,6.12,0,0,0,1.53-.18V348a7.07,7.07,0,0,1-2.07.27c-2.91,0-3.9-1.77-3.9-4.44v-9.09H357.4Z"/><path d="M381.49,341H370.6c0,3.39,1.89,5.46,4.8,5.46a4.21,4.21,0,0,0,4.23-3.21l1.77.72a6.07,6.07,0,0,1-6.15,4.35c-4.26,0-6.75-2.73-6.75-7.77s2.52-7.95,6.66-7.95,6.33,2.4,6.33,7Zm-2.13-2c0-3.09-1.56-4.74-4.23-4.74s-4.47,1.92-4.53,5h8.76Z"/><path d="M392.53,332.64a3.63,3.63,0,0,1,.57,0v2h-.24a4.39,4.39,0,0,0-3.21,1.14c-1.38,1.38-1.65,3.39-1.65,5.28V348h-2.07V333h1.95v3.66C388.57,334.35,390.22,332.64,392.53,332.64Z"/><path d="M406.78,348h-2.07V326.25h2.07Z"/><path d="M424.21,341H413.32c0,3.39,1.89,5.46,4.8,5.46a4.21,4.21,0,0,0,4.23-3.21l1.77.72a6.07,6.07,0,0,1-6.15,4.35c-4.26,0-6.75-2.73-6.75-7.77s2.52-7.95,6.66-7.95,6.33,2.4,6.33,7Zm-2.13-2c0-3.09-1.56-4.74-4.23-4.74s-4.47,1.92-4.53,5h8.76Z"/><path d="M427.24,343.71l2.13-.36c.36,2.13,1.89,3.27,4.26,3.27,2.19,0,3.42-1.05,3.42-2.55s-.84-2.1-2.43-2.4l-2.91-.57c-2.49-.48-3.9-1.83-3.9-4.11,0-2.52,2.13-4.35,5.52-4.35s5.49,1.47,5.79,4.14l-2.1.45c-.3-1.83-1.59-2.88-3.78-2.88s-3.39,1-3.39,2.55c0,1.41.93,2.1,2.49,2.4l2.94.57c2.67.54,3.84,1.83,3.84,4,0,2.67-2,4.47-5.55,4.47S427.72,346.71,427.24,343.71Z"/><path d="M450.13,340.5c0-4.62,2.61-7.86,6.42-7.86a4.78,4.78,0,0,1,4.71,3.09v-9.48h2.1V348h-2v-3.18a5.23,5.23,0,0,1-5.07,3.54C452.59,348.36,450.13,345.18,450.13,340.5Zm11.16.33v-.63c0-3.42-1.65-5.7-4.44-5.7s-4.5,2.25-4.5,6,1.68,6,4.47,6S461.29,344.16,461.29,340.83Z"/><path d="M469,327h2.37v3.3H469Zm.15,6h2.07v15h-2.07Z"/><path d="M475.54,343.71l2.13-.36c.36,2.13,1.89,3.27,4.26,3.27,2.19,0,3.42-1.05,3.42-2.55s-.84-2.1-2.43-2.4L480,341.1c-2.49-.48-3.9-1.83-3.9-4.11,0-2.52,2.13-4.35,5.52-4.35s5.49,1.47,5.79,4.14l-2.1.45c-.3-1.83-1.59-2.88-3.78-2.88s-3.39,1-3.39,2.55c0,1.41.93,2.1,2.49,2.4l2.94.57c2.67.54,3.84,1.83,3.84,4,0,2.67-2,4.47-5.55,4.47S476,346.71,475.54,343.71Z"/><path d="M490.48,340.5c0-4.89,2.61-7.86,6.81-7.86a5.67,5.67,0,0,1,6.06,5.43l-2.13.24c-.3-2.49-1.74-3.84-4-3.84-2.79,0-4.5,2.25-4.5,6s1.71,6.06,4.59,6.06c2.25,0,3.66-1.35,4-3.84l2,.3c-.54,3.39-2.76,5.37-6.06,5.37C493.12,348.36,490.48,345.33,490.48,340.5Z"/><path d="M507.22,342.51V333h2.07v9.3c0,2.94,1.38,4.26,3.42,4.26,2.73,0,4.38-2.34,4.38-5.37V333h2.1v15h-2v-3.09a5.14,5.14,0,0,1-4.86,3.45C508.6,348.36,507.22,346.08,507.22,342.51Z"/><path d="M523.48,343.71l2.13-.36c.36,2.13,1.89,3.27,4.26,3.27,2.19,0,3.42-1.05,3.42-2.55s-.84-2.1-2.43-2.4L528,341.1c-2.49-.48-3.9-1.83-3.9-4.11,0-2.52,2.13-4.35,5.52-4.35s5.49,1.47,5.79,4.14l-2.1.45c-.3-1.83-1.59-2.88-3.78-2.88s-3.39,1-3.39,2.55c0,1.41.93,2.1,2.49,2.4l2.94.57c2.67.54,3.84,1.83,3.84,4,0,2.67-2,4.47-5.55,4.47S524,346.71,523.48,343.71Z"/><path d="M538.18,343.71l2.13-.36c.36,2.13,1.89,3.27,4.26,3.27,2.19,0,3.42-1.05,3.42-2.55s-.84-2.1-2.43-2.4l-2.91-.57c-2.49-.48-3.9-1.83-3.9-4.11,0-2.52,2.13-4.35,5.52-4.35s5.49,1.47,5.79,4.14l-2.1.45c-.3-1.83-1.59-2.88-3.78-2.88s-3.39,1-3.39,2.55c0,1.41.93,2.1,2.49,2.4l2.94.57c2.67.54,3.84,1.83,3.84,4,0,2.67-2,4.47-5.55,4.47S538.66,346.71,538.18,343.71Z"/><path d="M554.38,327h2.37v3.3h-2.37Zm.15,6h2.07v15h-2.07Z"/><path d="M560.89,340.5c0-4.89,2.73-7.86,6.9-7.86s6.86,3,6.86,7.86-2.72,7.86-6.86,7.86S560.89,345.39,560.89,340.5Zm11.55,0c0-3.9-1.77-6-4.65-6s-4.68,2.13-4.68,6,1.77,6,4.68,6S572.44,344.4,572.44,340.5Z"/><path d="M578.94,333h2v3.3a5.09,5.09,0,0,1,5.13-3.66c3.35,0,5.09,2.07,5.09,6.09V348h-2.1v-9.15c0-2.91-1.26-4.41-3.62-4.41-2.7,0-4.41,2.16-4.41,5.67V348h-2.08Z"/><path d="M595,343.71l2.13-.36c.36,2.13,1.89,3.27,4.26,3.27,2.19,0,3.42-1.05,3.42-2.55s-.84-2.1-2.43-2.4l-2.91-.57c-2.49-.48-3.9-1.83-3.9-4.11,0-2.52,2.13-4.35,5.52-4.35s5.49,1.47,5.79,4.14l-2.1.45c-.3-1.83-1.59-2.88-3.78-2.88s-3.39,1-3.39,2.55c0,1.41.93,2.1,2.49,2.4l2.94.57c2.67.54,3.84,1.83,3.84,4,0,2.67-2,4.47-5.55,4.47S595.45,346.71,595,343.71Z"/><path d="M617.85,340.5c0-4.62,2.62-7.86,6.42-7.86a4.76,4.76,0,0,1,4.71,3.09v-9.48h2.1V348h-2v-3.18a5.22,5.22,0,0,1-5.06,3.54C620.31,348.36,617.85,345.18,617.85,340.5Zm11.17.33v-.63c0-3.42-1.66-5.7-4.44-5.7s-4.5,2.25-4.5,6,1.68,6,4.47,6S629,344.16,629,340.83Z"/><path d="M636.15,332.94c1.36-.69,1.59-1.41,1.59-2.82v-.06h-1.5V326.7h2.86v3.18c0,2.22-.58,3.3-2.37,4.14Z"/><path d="M642.4,344a3.76,3.76,0,0,1,1.83-3.36,12.85,12.85,0,0,1,4.92-1.35l3.32-.39v-.24c0-3.09-1.07-4.32-3.63-4.32-2.24,0-3.63,1.17-3.74,3.3h-2.25c.17-3.09,2.51-5,6-5,4,0,5.76,1.86,5.76,6.21v3.9a21.14,21.14,0,0,0,.48,5.25h-2.19a20.58,20.58,0,0,1-.27-3,5.14,5.14,0,0,1-5.22,3.36C644.37,348.36,642.4,346.62,642.4,344Zm10.1-2.58v-1l-4.26.6c-2.55.36-3.66,1.23-3.66,2.88s1.27,2.64,3.27,2.64C650.65,346.62,652.5,344.52,652.5,341.46Z"/><path d="M659.44,342.51V333h2.06v9.3c0,2.94,1.38,4.26,3.42,4.26,2.73,0,4.38-2.34,4.38-5.37V333h2.1v15h-2v-3.09a5.14,5.14,0,0,1-4.86,3.45C660.81,348.36,659.44,346.08,659.44,342.51Z"/><path d="M673.65,353.88v-1.8c.78.06,1.14.09,1.44.09,1.2,0,1.89-.57,1.89-2.61V333h2.1v16.8c0,2.34-1,4.26-3.69,4.26A8.15,8.15,0,0,1,673.65,353.88ZM676.83,327h2.37v3.3h-2.37Z"/><path d="M683.34,340.5c0-4.89,2.73-7.86,6.9-7.86s6.87,3,6.87,7.86-2.73,7.86-6.87,7.86S683.34,345.39,683.34,340.5Zm11.55,0c0-3.9-1.77-6-4.65-6s-4.68,2.13-4.68,6,1.77,6,4.68,6S694.89,344.4,694.89,340.5Z"/><path d="M701,342.51V333H703v9.3c0,2.94,1.38,4.26,3.42,4.26,2.73,0,4.38-2.34,4.38-5.37V333h2.1v15h-2v-3.09a5.14,5.14,0,0,1-4.86,3.45C702.33,348.36,701,346.08,701,342.51Z"/><path d="M725.22,332.64a3.63,3.63,0,0,1,.57,0v2h-.24a4.39,4.39,0,0,0-3.21,1.14c-1.38,1.38-1.65,3.39-1.65,5.28V348h-2.07V333h2v3.66C721.26,334.35,722.91,332.64,725.22,332.64Z"/><path d="M727.68,340.5c0-4.62,2.61-7.86,6.42-7.86a4.78,4.78,0,0,1,4.71,3.09v-9.48h2.1V348h-2v-3.18a5.23,5.23,0,0,1-5.07,3.54C730.14,348.36,727.68,345.18,727.68,340.5Zm11.16.33v-.63c0-3.42-1.65-5.7-4.44-5.7s-4.5,2.25-4.5,6,1.68,6,4.47,6S738.84,344.16,738.84,340.83Z"/><path d="M746,332.94a2.57,2.57,0,0,0,1.59-2.82v-.06h-1.5V326.7h2.85v3.18c0,2.22-.57,3.3-2.37,4.14Z"/><path d="M754.05,326.25h2.07v9.93a5.14,5.14,0,0,1,5.13-3.54c3.27,0,5,2.07,5,6.06V348h-2.1v-9.18c0-2.88-1.23-4.38-3.6-4.38-2.73,0-4.44,2.16-4.44,5.67V348h-2.07Z"/><path d="M771,342.51V333h2.07v9.3c0,2.94,1.38,4.26,3.42,4.26,2.73,0,4.38-2.34,4.38-5.37V333H783v15h-2v-3.09a5.14,5.14,0,0,1-4.86,3.45C772.41,348.36,771,346.08,771,342.51Z"/><path d="M788.55,327h2.37v3.3h-2.37Zm.15,6h2.07v15H788.7Z"/><path d="M806.55,336.36h-2.82V333h2.82Zm0,11.64h-2.82v-3.36h2.82Z"/><path d="M91,373.65a2.37,2.37,0,1,1,4.74,0,2.37,2.37,0,0,1-4.74,0Z"/><path d="M121.3,377H110.41c0,3.39,1.89,5.46,4.8,5.46a4.21,4.21,0,0,0,4.23-3.21l1.77.72a6.07,6.07,0,0,1-6.15,4.35c-4.26,0-6.75-2.73-6.75-7.77s2.52-7.95,6.66-7.95,6.33,2.4,6.33,7Zm-2.13-2c0-3.09-1.56-4.74-4.23-4.74s-4.47,1.92-4.53,5h8.76Zm-3.33-8.46h-2l3-4.29h2.58Z"/><path d="M123.07,369h2.28l3.72,10.62c.27.84.48,1.53.63,2.22h.09c.15-.69.39-1.38.66-2.22L134.17,369h2.28l-5.55,15h-2.28Z"/><path d="M138.07,380a3.79,3.79,0,0,1,1.83-3.36,12.9,12.9,0,0,1,4.92-1.35l3.33-.39v-.24c0-3.09-1.08-4.32-3.63-4.32-2.25,0-3.63,1.17-3.75,3.3h-2.25c.18-3.09,2.52-5,6-5,4,0,5.76,1.86,5.76,6.21v3.9a21.14,21.14,0,0,0,.48,5.25h-2.19a20.58,20.58,0,0,1-.27-3,5.14,5.14,0,0,1-5.22,3.36C140.05,384.36,138.07,382.62,138.07,380Zm10.11-2.58v-1l-4.26.6c-2.55.36-3.66,1.23-3.66,2.88s1.26,2.64,3.27,2.64C146.32,382.62,148.18,380.52,148.18,377.46Z"/><path d="M157.78,384h-2.07V362.25h2.07Z"/><path d="M163.18,378.51V369h2.07v9.3c0,2.94,1.38,4.26,3.42,4.26,2.73,0,4.38-2.34,4.38-5.37V369h2.1v15h-2v-3.09a5.14,5.14,0,0,1-4.86,3.45C164.56,384.36,163.18,382.08,163.18,378.51Z"/><path d="M192.43,377H181.54c0,3.39,1.89,5.46,4.8,5.46a4.21,4.21,0,0,0,4.23-3.21l1.77.72a6.07,6.07,0,0,1-6.15,4.35c-4.26,0-6.75-2.73-6.75-7.77s2.52-7.95,6.66-7.95,6.33,2.4,6.33,7Zm-2.13-2c0-3.09-1.56-4.74-4.23-4.74s-4.47,1.92-4.53,5h8.76Z"/><path d="M203.47,368.64a3.63,3.63,0,0,1,.57,0v2h-.24a4.39,4.39,0,0,0-3.21,1.14c-1.38,1.38-1.65,3.39-1.65,5.28V384h-2.07V369h1.95v3.66C199.51,370.35,201.16,368.64,203.47,368.64Z"/><path d="M217.72,384h-2.07V362.25h2.07Z"/><path d="M235.15,377H224.26c0,3.39,1.89,5.46,4.8,5.46a4.21,4.21,0,0,0,4.23-3.21l1.77.72a6.07,6.07,0,0,1-6.15,4.35c-4.26,0-6.75-2.73-6.75-7.77s2.52-7.95,6.66-7.95,6.33,2.4,6.33,7Zm-2.13-2c0-3.09-1.56-4.74-4.23-4.74s-4.47,1.92-4.53,5H233Z"/><path d="M238.18,379.71l2.13-.36c.36,2.13,1.89,3.27,4.26,3.27,2.19,0,3.42-1.05,3.42-2.55s-.84-2.1-2.43-2.4l-2.91-.57c-2.49-.48-3.9-1.83-3.9-4.11,0-2.52,2.13-4.35,5.52-4.35s5.49,1.47,5.79,4.14l-2.1.45c-.3-1.83-1.59-2.88-3.78-2.88s-3.39,1-3.39,2.55c0,1.41.93,2.1,2.49,2.4l2.94.57c2.67.54,3.84,1.83,3.84,4,0,2.67-2,4.47-5.55,4.47S238.66,382.71,238.18,379.71Z"/><path d="M261.07,379.71l2.13-.36c.36,2.13,1.89,3.27,4.26,3.27,2.19,0,3.42-1.05,3.42-2.55s-.84-2.1-2.43-2.4l-2.91-.57c-2.49-.48-3.9-1.83-3.9-4.11,0-2.52,2.13-4.35,5.52-4.35s5.49,1.47,5.79,4.14l-2.1.45c-.3-1.83-1.59-2.88-3.78-2.88s-3.39,1-3.39,2.55c0,1.41.93,2.1,2.49,2.4l2.94.57c2.67.54,3.84,1.83,3.84,4,0,2.67-2,4.47-5.55,4.47S261.55,382.71,261.07,379.71Z"/><path d="M276,376.5c0-4.89,2.61-7.86,6.81-7.86a5.67,5.67,0,0,1,6.06,5.43l-2.13.24c-.3-2.49-1.74-3.84-4-3.84-2.79,0-4.5,2.25-4.5,6s1.71,6.06,4.59,6.06c2.25,0,3.66-1.35,4.05-3.84l2,.3c-.54,3.39-2.76,5.37-6.06,5.37C278.65,384.36,276,381.33,276,376.5Z"/><path d="M304.78,377H293.89c0,3.39,1.89,5.46,4.8,5.46a4.21,4.21,0,0,0,4.23-3.21l1.77.72a6.07,6.07,0,0,1-6.15,4.35c-4.26,0-6.75-2.73-6.75-7.77s2.52-7.95,6.66-7.95,6.33,2.4,6.33,7Zm-2.13-2c0-3.09-1.56-4.74-4.23-4.74s-4.47,1.92-4.53,5h8.76Zm-3.33-8.46h-2l3-4.29h2.58Z"/><path d="M309.22,369h2v3.3a5.11,5.11,0,0,1,5.13-3.66c3.36,0,5.1,2.07,5.1,6.09V384h-2.1v-9.15c0-2.91-1.26-4.41-3.63-4.41-2.7,0-4.41,2.16-4.41,5.67V384h-2.07Z"/><path d="M325.3,380a3.79,3.79,0,0,1,1.83-3.36,12.9,12.9,0,0,1,4.92-1.35l3.33-.39v-.24c0-3.09-1.08-4.32-3.63-4.32-2.25,0-3.63,1.17-3.75,3.3h-2.25c.18-3.09,2.52-5,6-5,4,0,5.76,1.86,5.76,6.21v3.9A21.14,21.14,0,0,0,338,384h-2.19a20.58,20.58,0,0,1-.27-3,5.14,5.14,0,0,1-5.22,3.36C327.28,384.36,325.3,382.62,325.3,380Zm10.11-2.58v-1l-4.26.6c-2.55.36-3.66,1.23-3.66,2.88s1.26,2.64,3.27,2.64C333.55,382.62,335.41,380.52,335.41,377.46Z"/><path d="M349.39,368.64a3.63,3.63,0,0,1,.57,0v2h-.24a4.39,4.39,0,0,0-3.21,1.14c-1.38,1.38-1.65,3.39-1.65,5.28V384h-2.07V369h1.95v3.66C345.43,370.35,347.08,368.64,349.39,368.64Z"/><path d="M353.32,363h2.37v3.3h-2.37Zm.15,6h2.07v15h-2.07Z"/><path d="M359.83,376.5c0-4.89,2.73-7.86,6.9-7.86s6.87,3,6.87,7.86-2.73,7.86-6.87,7.86S359.83,381.39,359.83,376.5Zm11.55,0c0-3.9-1.77-6-4.65-6s-4.68,2.13-4.68,6,1.77,6,4.68,6S371.38,380.4,371.38,376.5Z"/><path d="M376.48,379.71l2.13-.36c.36,2.13,1.89,3.27,4.26,3.27,2.19,0,3.42-1.05,3.42-2.55s-.84-2.1-2.43-2.4L381,377.1c-2.49-.48-3.9-1.83-3.9-4.11,0-2.52,2.13-4.35,5.52-4.35s5.49,1.47,5.79,4.14l-2.1.45c-.3-1.83-1.59-2.88-3.78-2.88s-3.39,1-3.39,2.55c0,1.41.93,2.1,2.49,2.4l2.94.57c2.67.54,3.84,1.83,3.84,4,0,2.67-2,4.47-5.55,4.47S377,382.71,376.48,379.71Z"/><path d="M91,409.65a2.37,2.37,0,1,1,4.74,0,2.37,2.37,0,0,1-4.74,0Z"/><path d="M108.37,416a3.79,3.79,0,0,1,1.83-3.36,12.9,12.9,0,0,1,4.92-1.35l3.33-.39v-.24c0-3.09-1.08-4.32-3.63-4.32-2.25,0-3.63,1.17-3.75,3.3h-2.25c.18-3.09,2.52-5,6-5,4,0,5.76,1.86,5.76,6.21v3.9A21.14,21.14,0,0,0,121,420h-2.19a20.58,20.58,0,0,1-.27-3,5.14,5.14,0,0,1-5.22,3.36C110.35,420.36,108.37,418.62,108.37,416Zm10.11-2.58v-1l-4.26.6c-2.55.36-3.66,1.23-3.66,2.88s1.26,2.64,3.27,2.64C116.62,418.62,118.48,416.52,118.48,413.46Z"/><path d="M122.41,425.88v-1.8c.78.06,1.14.09,1.44.09,1.2,0,1.89-.57,1.89-2.61V405h2.1v16.8c0,2.34-1,4.26-3.69,4.26A8.15,8.15,0,0,1,122.41,425.88ZM125.59,399H128v3.3h-2.37Z"/><path d="M132.1,412.5c0-4.89,2.73-7.86,6.9-7.86s6.87,3,6.87,7.86-2.73,7.86-6.87,7.86S132.1,417.39,132.1,412.5Zm11.55,0c0-3.9-1.77-6-4.65-6s-4.68,2.13-4.68,6,1.77,6,4.68,6S143.65,416.4,143.65,412.5Z"/><path d="M149.71,414.51V405h2.07v9.3c0,2.94,1.38,4.26,3.42,4.26,2.73,0,4.38-2.34,4.38-5.37V405h2.1v15h-2v-3.09a5.14,5.14,0,0,1-4.86,3.45C151.09,420.36,149.71,418.08,149.71,414.51Z"/><path d="M165.16,405h2.76v-4l2.1-.9V405h3.87v1.74H170v9c0,1.77.78,2.55,2.34,2.55a6.12,6.12,0,0,0,1.53-.18V420a7.07,7.07,0,0,1-2.07.27c-2.91,0-3.9-1.77-3.9-4.44v-9.09h-2.76Z"/><path d="M189.25,413H178.36c0,3.39,1.89,5.46,4.8,5.46a4.21,4.21,0,0,0,4.23-3.21l1.77.72a6.07,6.07,0,0,1-6.15,4.35c-4.26,0-6.75-2.73-6.75-7.77s2.52-7.95,6.66-7.95,6.33,2.4,6.33,7Zm-2.13-2c0-3.09-1.56-4.74-4.23-4.74s-4.47,1.92-4.53,5h8.76Z"/><path d="M200.29,404.64a3.63,3.63,0,0,1,.57,0v2h-.24a4.39,4.39,0,0,0-3.21,1.14c-1.38,1.38-1.65,3.39-1.65,5.28V420h-2.07V405h1.95v3.66C196.33,406.35,198,404.64,200.29,404.64Z"/><path d="M210.91,412.5c0-4.62,2.61-7.86,6.42-7.86a4.78,4.78,0,0,1,4.71,3.09v-9.48h2.1V420h-2v-3.18a5.23,5.23,0,0,1-5.07,3.54C213.37,420.36,210.91,417.18,210.91,412.5Zm11.16.33v-.63c0-3.42-1.65-5.7-4.44-5.7s-4.5,2.25-4.5,6,1.68,6,4.47,6S222.07,416.16,222.07,412.83Z"/><path d="M241.54,413H230.65c0,3.39,1.89,5.46,4.8,5.46a4.21,4.21,0,0,0,4.23-3.21l1.77.72a6.07,6.07,0,0,1-6.15,4.35c-4.26,0-6.75-2.73-6.75-7.77s2.52-7.95,6.66-7.95,6.33,2.4,6.33,7Zm-2.13-2c0-3.09-1.56-4.74-4.23-4.74s-4.47,1.92-4.53,5h8.76Z"/><path d="M244.57,415.71l2.13-.36c.36,2.13,1.89,3.27,4.26,3.27,2.19,0,3.42-1.05,3.42-2.55s-.84-2.1-2.43-2.4L249,413.1c-2.49-.48-3.9-1.83-3.9-4.11,0-2.52,2.13-4.35,5.52-4.35s5.49,1.47,5.79,4.14l-2.1.45c-.3-1.83-1.59-2.88-3.78-2.88s-3.39,1-3.39,2.55c0,1.41.93,2.1,2.49,2.4l2.94.57c2.67.54,3.84,1.83,3.84,4,0,2.67-2,4.47-5.55,4.47S245.05,418.71,244.57,415.71Z"/><path d="M267.46,412.5c0-4.89,2.73-7.86,6.9-7.86s6.87,3,6.87,7.86-2.73,7.86-6.87,7.86S267.46,417.39,267.46,412.5Zm11.55,0c0-3.9-1.77-6-4.65-6s-4.68,2.13-4.68,6,1.77,6,4.68,6S279,416.4,279,412.5Z"/><path d="M287.65,417l-.39,3h-1.59V398.25h2.07v9.81a5.2,5.2,0,0,1,5-3.42c3.69,0,6.09,3.21,6.09,7.86s-2.46,7.86-6.24,7.86A5.2,5.2,0,0,1,287.65,417Zm9-4.5c0-3.63-1.62-6-4.5-6-2.73,0-4.44,2.25-4.44,5.7v.72c0,3.33,1.68,5.58,4.38,5.58C294.94,418.5,296.65,416.16,296.65,412.5Z"/><path d="M301.75,415.71l2.13-.36c.36,2.13,1.89,3.27,4.26,3.27,2.19,0,3.42-1.05,3.42-2.55s-.84-2.1-2.43-2.4l-2.91-.57c-2.49-.48-3.9-1.83-3.9-4.11,0-2.52,2.13-4.35,5.52-4.35s5.49,1.47,5.79,4.14l-2.1.45c-.3-1.83-1.59-2.88-3.78-2.88s-3.39,1-3.39,2.55c0,1.41.93,2.1,2.49,2.4l2.94.57c2.67.54,3.84,1.83,3.84,4,0,2.67-2,4.47-5.55,4.47S302.23,418.71,301.75,415.71Z"/><path d="M329.68,413H318.79c0,3.39,1.89,5.46,4.8,5.46a4.21,4.21,0,0,0,4.23-3.21l1.77.72a6.07,6.07,0,0,1-6.15,4.35c-4.26,0-6.75-2.73-6.75-7.77s2.52-7.95,6.66-7.95,6.33,2.4,6.33,7Zm-2.13-2c0-3.09-1.56-4.74-4.23-4.74s-4.47,1.92-4.53,5h8.76Z"/><path d="M340.72,404.64a3.63,3.63,0,0,1,.57,0v2h-.24a4.39,4.39,0,0,0-3.21,1.14c-1.38,1.38-1.65,3.39-1.65,5.28V420h-2.07V405h1.95v3.66C336.76,406.35,338.41,404.64,340.72,404.64Z"/><path d="M342.91,405h2.28l3.72,10.62c.27.84.48,1.53.63,2.22h.09c.15-.69.39-1.38.66-2.22L354,405h2.28l-5.55,15h-2.28Z"/><path d="M357.91,416a3.79,3.79,0,0,1,1.83-3.36,12.9,12.9,0,0,1,4.92-1.35l3.33-.39v-.24c0-3.09-1.08-4.32-3.63-4.32-2.25,0-3.63,1.17-3.75,3.3h-2.25c.18-3.09,2.52-5,6-5,4,0,5.76,1.86,5.76,6.21v3.9a21.14,21.14,0,0,0,.48,5.25h-2.19a20.58,20.58,0,0,1-.27-3,5.14,5.14,0,0,1-5.22,3.36C359.89,420.36,357.91,418.62,357.91,416ZM368,413.46v-1l-4.26.6c-2.55.36-3.66,1.23-3.66,2.88s1.26,2.64,3.27,2.64C366.16,418.62,368,416.52,368,413.46Z"/><path d="M373.15,405h2.76v-4l2.1-.9V405h3.87v1.74H378v9c0,1.77.78,2.55,2.34,2.55a6.12,6.12,0,0,0,1.53-.18V420a7.07,7.07,0,0,1-2.07.27c-2.91,0-3.9-1.77-3.9-4.44v-9.09h-2.76Z"/><path d="M385.69,399h2.37v3.3h-2.37Zm.15,6h2.07v15h-2.07Z"/><path d="M392.2,412.5c0-4.89,2.73-7.86,6.9-7.86s6.87,3,6.87,7.86-2.73,7.86-6.87,7.86S392.2,417.39,392.2,412.5Zm11.55,0c0-3.9-1.77-6-4.65-6s-4.68,2.13-4.68,6,1.77,6,4.68,6S403.75,416.4,403.75,412.5Z"/><path d="M410.26,405h2v3.3a5.11,5.11,0,0,1,5.13-3.66c3.36,0,5.1,2.07,5.1,6.09V420h-2.1v-9.15c0-2.91-1.26-4.41-3.63-4.41-2.7,0-4.41,2.16-4.41,5.67V420h-2.07Z"/><path d="M426.28,415.71l2.13-.36c.36,2.13,1.89,3.27,4.26,3.27,2.19,0,3.42-1.05,3.42-2.55s-.84-2.1-2.43-2.4l-2.91-.57c-2.49-.48-3.9-1.83-3.9-4.11,0-2.52,2.13-4.35,5.52-4.35s5.49,1.47,5.79,4.14l-2.1.45c-.3-1.83-1.59-2.88-3.78-2.88s-3.39,1-3.39,2.55c0,1.41.93,2.1,2.49,2.4l2.94.57c2.67.54,3.84,1.83,3.84,4,0,2.67-2,4.47-5.55,4.47S426.76,418.71,426.28,415.71Z"/><path d="M441.55,422.88a2.55,2.55,0,0,0,1.59-2.79V420h-1.5v-3.36h2.85v3.18c0,2.22-.57,3.3-2.37,4.14Z"/><path d="M456,412.5c0-4.62,2.61-7.86,6.42-7.86a4.78,4.78,0,0,1,4.71,3.09v-9.48h2.1V420h-2v-3.18a5.23,5.23,0,0,1-5.07,3.54C458.47,420.36,456,417.18,456,412.5Zm11.16.33v-.63c0-3.42-1.65-5.7-4.44-5.7s-4.5,2.25-4.5,6,1.68,6,4.47,6S467.17,416.16,467.17,412.83Z"/><path d="M486.64,413H475.75c0,3.39,1.89,5.46,4.8,5.46a4.21,4.21,0,0,0,4.23-3.21l1.77.72a6.07,6.07,0,0,1-6.15,4.35c-4.26,0-6.75-2.73-6.75-7.77s2.52-7.95,6.66-7.95,6.33,2.4,6.33,7Zm-2.13-2c0-3.09-1.56-4.74-4.23-4.74s-4.47,1.92-4.53,5h8.76Z"/><path d="M489.67,415.71l2.13-.36c.36,2.13,1.89,3.27,4.26,3.27,2.19,0,3.42-1.05,3.42-2.55s-.84-2.1-2.43-2.4l-2.91-.57c-2.49-.48-3.9-1.83-3.9-4.11,0-2.52,2.13-4.35,5.52-4.35s5.49,1.47,5.79,4.14l-2.1.45c-.3-1.83-1.59-2.88-3.78-2.88s-3.39,1-3.39,2.55c0,1.41.93,2.1,2.49,2.4l2.94.57c2.67.54,3.84,1.83,3.84,4,0,2.67-2,4.47-5.55,4.47S490.15,418.71,489.67,415.71Z"/><path d="M520.57,404.64a3.63,3.63,0,0,1,.57,0v2h-.24a4.39,4.39,0,0,0-3.21,1.14c-1.38,1.38-1.65,3.39-1.65,5.28V420H514V405h1.95v3.66C516.61,406.35,518.26,404.64,520.57,404.64Z"/><path d="M536,413H525.13c0,3.39,1.89,5.46,4.8,5.46a4.21,4.21,0,0,0,4.23-3.21l1.77.72a6.07,6.07,0,0,1-6.15,4.35c-4.26,0-6.75-2.73-6.75-7.77s2.52-7.95,6.66-7.95,6.33,2.4,6.33,7Zm-2.13-2c0-3.09-1.56-4.74-4.23-4.74s-4.47,1.92-4.53,5h8.76Z"/><path d="M542.41,405v2.91a4.47,4.47,0,0,1,4.44-3.27,4.23,4.23,0,0,1,4.32,3.21,4.76,4.76,0,0,1,4.62-3.21c2.94,0,4.62,2,4.62,5.55V420h-2.1v-9.63c0-2.55-1.08-3.93-3.15-3.93-2.28,0-3.69,1.68-3.69,4.44V420H549.4v-9.75c0-2.43-1.14-3.81-3.12-3.81-2.28,0-3.75,1.86-3.75,4.8V420h-2.07V405Z"/><path d="M564.31,416a3.79,3.79,0,0,1,1.83-3.36,12.9,12.9,0,0,1,4.92-1.35l3.33-.39v-.24c0-3.09-1.08-4.32-3.63-4.32-2.25,0-3.63,1.17-3.75,3.3h-2.25c.18-3.09,2.52-5,6-5,4,0,5.76,1.86,5.76,6.21v3.9A21.14,21.14,0,0,0,577,420h-2.19a20.58,20.58,0,0,1-.27-3,5.14,5.14,0,0,1-5.22,3.36C566.29,420.36,564.31,418.62,564.31,416Zm10.11-2.58v-1l-4.26.6c-2.55.36-3.66,1.23-3.66,2.88s1.26,2.64,3.27,2.64C572.56,418.62,574.42,416.52,574.42,413.46Z"/><path d="M588.4,404.64a3.63,3.63,0,0,1,.57,0v2h-.24a4.39,4.39,0,0,0-3.21,1.14c-1.38,1.38-1.65,3.39-1.65,5.28V420H581.8V405h2v3.66C584.44,406.35,586.09,404.64,588.4,404.64Z"/><path d="M602,417a5.1,5.1,0,0,1-5,3.36c-3.69,0-6.18-3.09-6.18-7.86s2.67-7.86,6.39-7.86a4.81,4.81,0,0,1,4.83,3.18l.45-2.82h1.56v20.85H602Zm0-4.11v-.75c0-3.36-1.65-5.64-4.47-5.64s-4.47,2.25-4.47,6,1.65,6,4.44,6S602,416.22,602,412.89Z"/><path d="M609.31,414.51V405h2.07v9.3c0,2.94,1.38,4.26,3.42,4.26,2.73,0,4.38-2.34,4.38-5.37V405h2.1v15h-2v-3.09a5.14,5.14,0,0,1-4.86,3.45C610.69,420.36,609.31,418.08,609.31,414.51Z"/><path d="M638.56,413H627.67c0,3.39,1.89,5.46,4.8,5.46a4.21,4.21,0,0,0,4.23-3.21l1.77.72a6.07,6.07,0,0,1-6.15,4.35c-4.26,0-6.75-2.73-6.75-7.77s2.52-7.95,6.66-7.95,6.33,2.4,6.33,7Zm-2.13-2c0-3.09-1.56-4.74-4.23-4.74s-4.47,1.92-4.53,5h8.76Z"/><path d="M641.59,415.71l2.13-.36c.36,2.13,1.89,3.27,4.26,3.27,2.19,0,3.42-1.05,3.42-2.55s-.84-2.1-2.43-2.4l-2.91-.57c-2.49-.48-3.9-1.83-3.9-4.11,0-2.52,2.13-4.35,5.52-4.35s5.49,1.47,5.79,4.14l-2.1.45c-.3-1.83-1.59-2.88-3.78-2.88s-3.39,1-3.39,2.55c0,1.41.93,2.1,2.49,2.4l2.94.57c2.67.54,3.84,1.83,3.84,4,0,2.67-2,4.47-5.55,4.47S642.07,418.71,641.59,415.71Z"/><path d="M656.89,422.88a2.55,2.55,0,0,0,1.59-2.79V420H657v-3.36h2.85v3.18c0,2.22-.57,3.3-2.37,4.14Z"/><path d="M671.35,412.5c0-4.62,2.61-7.86,6.42-7.86a4.78,4.78,0,0,1,4.71,3.09v-9.48h2.09V420h-2v-3.18a5.23,5.23,0,0,1-5.07,3.54C673.81,420.36,671.35,417.18,671.35,412.5Zm11.16.33v-.63c0-3.42-1.66-5.7-4.44-5.7s-4.5,2.25-4.5,6,1.68,6,4.47,6S682.51,416.16,682.51,412.83Z"/><path d="M702,413H691.09c0,3.39,1.89,5.46,4.8,5.46a4.21,4.21,0,0,0,4.22-3.21l1.78.72a6.08,6.08,0,0,1-6.16,4.35c-4.25,0-6.74-2.73-6.74-7.77s2.52-7.95,6.66-7.95,6.33,2.4,6.33,7Zm-2.13-2c0-3.09-1.57-4.74-4.24-4.74s-4.46,1.92-4.52,5h8.76Z"/><path d="M705,415.71l2.13-.36c.35,2.13,1.88,3.27,4.26,3.27,2.18,0,3.41-1.05,3.41-2.55s-.84-2.1-2.43-2.4l-2.9-.57c-2.5-.48-3.91-1.83-3.91-4.11,0-2.52,2.13-4.35,5.52-4.35s5.49,1.47,5.79,4.14l-2.1.45c-.3-1.83-1.59-2.88-3.78-2.88s-3.39,1-3.39,2.55c0,1.41.93,2.1,2.49,2.4l2.94.57c2.67.54,3.84,1.83,3.84,4,0,2.67-2,4.47-5.55,4.47S705.48,418.71,705,415.71Z"/><path d="M729.3,405h2v3.18a5.32,5.32,0,0,1,5.13-3.54c3.69,0,6.09,3.15,6.09,7.86s-2.55,7.86-6.24,7.86a5.06,5.06,0,0,1-4.89-3.18v8.67H729.3Zm11,7.5c0-3.72-1.62-6-4.38-6s-4.56,2.34-4.56,5.64v.66c0,3.36,1.68,5.7,4.44,5.7S740.28,416.22,740.28,412.5Z"/><path d="M753.39,404.64a3.63,3.63,0,0,1,.57,0v2h-.24a4.39,4.39,0,0,0-3.21,1.14c-1.38,1.38-1.65,3.39-1.65,5.28V420h-2.07V405h2v3.66C749.44,406.35,751.08,404.64,753.39,404.64Z"/><path d="M755.82,412.5c0-4.89,2.73-7.86,6.9-7.86s6.87,3,6.87,7.86-2.73,7.86-6.87,7.86S755.82,417.39,755.82,412.5Zm11.55,0c0-3.9-1.77-6-4.65-6s-4.68,2.13-4.68,6,1.77,6,4.68,6S767.37,416.4,767.37,412.5Z"/><path d="M773.88,405h2v3.18a5.32,5.32,0,0,1,5.13-3.54c3.69,0,6.09,3.15,6.09,7.86s-2.55,7.86-6.24,7.86a5.06,5.06,0,0,1-4.89-3.18v8.67h-2.07Zm11,7.5c0-3.72-1.62-6-4.38-6s-4.56,2.34-4.56,5.64v.66c0,3.36,1.68,5.7,4.44,5.7S784.86,416.22,784.86,412.5Z"/><path d="M790,412.5c0-4.89,2.73-7.86,6.9-7.86s6.87,3,6.87,7.86-2.73,7.86-6.87,7.86S790,417.39,790,412.5Zm11.55,0c0-3.9-1.77-6-4.65-6s-4.68,2.13-4.68,6,1.77,6,4.68,6S801.51,416.4,801.51,412.5Z"/><path d="M806.61,415.71l2.13-.36c.36,2.13,1.89,3.27,4.26,3.27,2.19,0,3.42-1.05,3.42-2.55s-.84-2.1-2.43-2.4l-2.91-.57c-2.49-.48-3.9-1.83-3.9-4.11,0-2.52,2.13-4.35,5.52-4.35s5.49,1.47,5.79,4.14l-2.1.45c-.3-1.83-1.59-2.88-3.78-2.88s-3.39,1-3.39,2.55c0,1.41.93,2.1,2.49,2.4l2.94.57c2.67.54,3.84,1.83,3.84,4,0,2.67-2,4.47-5.55,4.47S807.09,418.71,806.61,415.71Z"/><path d="M822.81,399h2.37v3.3h-2.37Zm.15,6H825v15H823Z"/><path d="M828.51,405h2.76v-4l2.1-.9V405h3.87v1.74h-3.87v9c0,1.77.78,2.55,2.34,2.55a6.12,6.12,0,0,0,1.53-.18V420a7.07,7.07,0,0,1-2.07.27c-2.91,0-3.9-1.77-3.9-4.44v-9.09h-2.76Z"/><path d="M841.05,399h2.37v3.3h-2.37Zm.15,6h2.07v15H841.2Z"/><path d="M847.56,412.5c0-4.89,2.73-7.86,6.9-7.86s6.87,3,6.87,7.86-2.73,7.86-6.87,7.86S847.56,417.39,847.56,412.5Zm11.55,0c0-3.9-1.77-6-4.65-6s-4.68,2.13-4.68,6,1.77,6,4.68,6S859.11,416.4,859.11,412.5Z"/><path d="M865.62,405h2v3.3a5.11,5.11,0,0,1,5.13-3.66c3.36,0,5.1,2.07,5.1,6.09V420h-2.1v-9.15c0-2.91-1.26-4.41-3.63-4.41-2.7,0-4.41,2.16-4.41,5.67V420h-2.07Z"/><path d="M881.64,415.71l2.13-.36c.36,2.13,1.89,3.27,4.26,3.27,2.19,0,3.42-1.05,3.42-2.55s-.84-2.1-2.43-2.4l-2.91-.57c-2.49-.48-3.9-1.83-3.9-4.11,0-2.52,2.13-4.35,5.52-4.35s5.49,1.47,5.79,4.14l-2.1.45c-.3-1.83-1.59-2.88-3.78-2.88s-3.39,1-3.39,2.55c0,1.41.93,2.1,2.49,2.4l2.94.57c2.67.54,3.84,1.83,3.84,4,0,2.67-2,4.47-5.55,4.47S882.12,418.71,881.64,415.71Z"/><path d="M91,445.65a2.37,2.37,0,1,1,4.74,0,2.37,2.37,0,0,1-4.74,0Z"/><path d="M116.32,440.64a3.63,3.63,0,0,1,.57,0v2h-.24a4.39,4.39,0,0,0-3.21,1.14c-1.38,1.38-1.65,3.39-1.65,5.28V456h-2.07V441h2v3.66C112.36,442.35,114,440.64,116.32,440.64Z"/><path d="M131.77,449H120.88c0,3.39,1.89,5.46,4.8,5.46a4.21,4.21,0,0,0,4.23-3.21l1.77.72a6.07,6.07,0,0,1-6.15,4.35c-4.26,0-6.75-2.73-6.75-7.77s2.52-7.95,6.66-7.95,6.33,2.4,6.33,7Zm-2.13-2c0-3.09-1.56-4.74-4.23-4.74s-4.47,1.92-4.53,5h8.76Z"/><path d="M134.8,448.5c0-4.89,2.61-7.86,6.81-7.86a5.67,5.67,0,0,1,6.06,5.43l-2.13.24c-.3-2.49-1.74-3.84-4-3.84-2.79,0-4.5,2.25-4.5,6s1.71,6.06,4.59,6.06c2.25,0,3.66-1.35,4-3.84l2,.3c-.54,3.39-2.76,5.37-6.06,5.37C137.44,456.36,134.8,453.33,134.8,448.5Z"/><path d="M151.54,450.51V441h2.07v9.3c0,2.94,1.38,4.26,3.42,4.26,2.73,0,4.38-2.34,4.38-5.37V441h2.1v15h-2v-3.09a5.14,5.14,0,0,1-4.86,3.45C152.92,456.36,151.54,454.08,151.54,450.51Z"/><path d="M180.79,449H169.9c0,3.39,1.89,5.46,4.8,5.46a4.21,4.21,0,0,0,4.23-3.21l1.77.72a6.07,6.07,0,0,1-6.15,4.35c-4.26,0-6.75-2.73-6.75-7.77s2.52-7.95,6.66-7.95,6.33,2.4,6.33,7Zm-2.13-2c0-3.09-1.56-4.74-4.23-4.74s-4.47,1.92-4.53,5h8.76Z"/><path d="M185.08,435h2.37v3.3h-2.37Zm.15,6h2.07v15h-2.07Z"/><path d="M195.22,456h-2.07V434.25h2.07Z"/><path d="M203.29,456h-2.07V434.25h2.07Z"/><path d="M209,435h2.37v3.3H209Zm.15,6h2.07v15h-2.07Z"/><path d="M223.51,440.64a3.63,3.63,0,0,1,.57,0v2h-.24a4.39,4.39,0,0,0-3.21,1.14c-1.38,1.38-1.65,3.39-1.65,5.28V456h-2.07V441h2v3.66C219.55,442.35,221.2,440.64,223.51,440.64Z"/><path d="M233,441h2.28L239,451.62c.27.84.48,1.53.63,2.22h.09c.15-.69.39-1.38.66-2.22L244.12,441h2.28l-5.55,15h-2.28Z"/><path d="M248,448.5c0-4.89,2.73-7.86,6.9-7.86s6.87,3,6.87,7.86-2.73,7.86-6.87,7.86S248,453.39,248,448.5Zm11.55,0c0-3.9-1.77-6-4.65-6s-4.68,2.13-4.68,6,1.77,6,4.68,6S259.57,452.4,259.57,448.5Z"/><path d="M264.67,451.71l2.13-.36c.36,2.13,1.89,3.27,4.26,3.27,2.19,0,3.42-1.05,3.42-2.55s-.84-2.1-2.43-2.4l-2.91-.57c-2.49-.48-3.9-1.83-3.9-4.11,0-2.52,2.13-4.35,5.52-4.35s5.49,1.47,5.79,4.14l-2.1.45c-.3-1.83-1.59-2.88-3.78-2.88s-3.39,1-3.39,2.55c0,1.41.93,2.1,2.49,2.4l2.94.57c2.67.54,3.84,1.83,3.84,4,0,2.67-2,4.47-5.55,4.47S265.15,454.71,264.67,451.71Z"/><path d="M287.62,452a3.79,3.79,0,0,1,1.83-3.36,12.9,12.9,0,0,1,4.92-1.35l3.33-.39v-.24c0-3.09-1.08-4.32-3.63-4.32-2.25,0-3.63,1.17-3.75,3.3h-2.25c.18-3.09,2.52-5,6-5,4,0,5.76,1.86,5.76,6.21v3.9a21.14,21.14,0,0,0,.48,5.25h-2.19a20.58,20.58,0,0,1-.27-3,5.14,5.14,0,0,1-5.22,3.36C289.6,456.36,287.62,454.62,287.62,452Zm10.11-2.58v-1l-4.26.6c-2.55.36-3.66,1.23-3.66,2.88s1.26,2.64,3.27,2.64C295.87,454.62,297.73,452.52,297.73,449.46Z"/><path d="M302.44,441h2.28l3.72,10.62c.27.84.48,1.53.63,2.22h.09c.15-.69.39-1.38.66-2.22L313.54,441h2.28l-5.55,15H308Z"/><path d="M318.85,435h2.37v3.3h-2.37Zm.15,6h2.07v15H319Z"/><path d="M325.36,451.71l2.13-.36c.36,2.13,1.89,3.27,4.26,3.27,2.19,0,3.42-1.05,3.42-2.55s-.84-2.1-2.43-2.4l-2.91-.57c-2.49-.48-3.9-1.83-3.9-4.11,0-2.52,2.13-4.35,5.52-4.35s5.49,1.47,5.79,4.14l-2.1.45c-.3-1.83-1.59-2.88-3.78-2.88s-3.39,1-3.39,2.55c0,1.41.93,2.1,2.49,2.4l2.94.57c2.67.54,3.84,1.83,3.84,4,0,2.67-2,4.47-5.55,4.47S325.84,454.71,325.36,451.71Z"/><path d="M349.66,441h2v3.18a5.32,5.32,0,0,1,5.13-3.54c3.69,0,6.09,3.15,6.09,7.86s-2.55,7.86-6.24,7.86a5.06,5.06,0,0,1-4.89-3.18v8.67h-2.07Zm11,7.5c0-3.72-1.62-6-4.38-6s-4.56,2.34-4.56,5.64v.66c0,3.36,1.68,5.7,4.44,5.7S360.64,452.22,360.64,448.5Z"/><path d="M378.73,449H367.84c0,3.39,1.89,5.46,4.8,5.46a4.21,4.21,0,0,0,4.23-3.21l1.77.72a6.07,6.07,0,0,1-6.15,4.35c-4.26,0-6.75-2.73-6.75-7.77s2.52-7.95,6.66-7.95,6.33,2.4,6.33,7Zm-2.13-2c0-3.09-1.56-4.74-4.23-4.74s-4.47,1.92-4.53,5h8.76Z"/><path d="M389.77,440.64a3.63,3.63,0,0,1,.57,0v2h-.24a4.39,4.39,0,0,0-3.21,1.14c-1.38,1.38-1.65,3.39-1.65,5.28V456h-2.07V441h1.95v3.66C385.81,442.35,387.46,440.64,389.77,440.64Z"/><path d="M392.32,451.71l2.13-.36c.36,2.13,1.89,3.27,4.26,3.27,2.19,0,3.42-1.05,3.42-2.55s-.84-2.1-2.43-2.4l-2.91-.57c-2.49-.48-3.9-1.83-3.9-4.11,0-2.52,2.13-4.35,5.52-4.35s5.49,1.47,5.79,4.14l-2.1.45c-.3-1.83-1.59-2.88-3.78-2.88s-3.39,1-3.39,2.55c0,1.41.93,2.1,2.49,2.4l2.94.57c2.67.54,3.84,1.83,3.84,4,0,2.67-2,4.47-5.55,4.47S392.8,454.71,392.32,451.71Z"/><path d="M407.26,448.5c0-4.89,2.73-7.86,6.9-7.86s6.87,3,6.87,7.86-2.73,7.86-6.87,7.86S407.26,453.39,407.26,448.5Zm11.55,0c0-3.9-1.77-6-4.65-6s-4.68,2.13-4.68,6,1.77,6,4.68,6S418.81,452.4,418.81,448.5Z"/><path d="M425.32,441h2v3.3a5.11,5.11,0,0,1,5.13-3.66c3.36,0,5.1,2.07,5.1,6.09V456h-2.1v-9.15c0-2.91-1.26-4.41-3.63-4.41-2.7,0-4.41,2.16-4.41,5.67V456h-2.07Z"/><path d="M442.72,441h2v3.3a5.11,5.11,0,0,1,5.13-3.66c3.36,0,5.1,2.07,5.1,6.09V456h-2.1v-9.15c0-2.91-1.26-4.41-3.63-4.41-2.7,0-4.41,2.16-4.41,5.67V456h-2.07Z"/><path d="M471.73,449H460.84c0,3.39,1.89,5.46,4.8,5.46a4.21,4.21,0,0,0,4.23-3.21l1.77.72a6.07,6.07,0,0,1-6.15,4.35c-4.26,0-6.75-2.73-6.75-7.77s2.52-7.95,6.66-7.95,6.33,2.4,6.33,7Zm-2.13-2c0-3.09-1.56-4.74-4.23-4.74s-4.47,1.92-4.53,5h8.76Z"/><path d="M478.39,456h-2.07V434.25h2.07Z"/><path d="M482.83,451.71l2.13-.36c.36,2.13,1.89,3.27,4.26,3.27,2.19,0,3.42-1.05,3.42-2.55s-.84-2.1-2.43-2.4l-2.91-.57c-2.49-.48-3.9-1.83-3.9-4.11,0-2.52,2.13-4.35,5.52-4.35s5.49,1.47,5.79,4.14l-2.1.45c-.3-1.83-1.59-2.88-3.78-2.88s-3.39,1-3.39,2.55c0,1.41.93,2.1,2.49,2.4l2.94.57c2.67.54,3.84,1.83,3.84,4,0,2.67-2,4.47-5.55,4.47S483.31,454.71,482.83,451.71Z"/><path d="M64.72,521.79H55.54L53.29,528H50.86L59,506.7H61.3L69.4,528H67Zm-5.61-16.38-3.06-3.09h2.37l2.73,3.09ZM64,519.81l-3.15-8.73c-.3-.84-.48-1.41-.69-2.07H60.1c-.21.66-.36,1.23-.69,2.07l-3.15,8.73Z"/><path d="M87.49,512.64a3.63,3.63,0,0,1,.57,0v2h-.24a4.39,4.39,0,0,0-3.21,1.14c-1.38,1.38-1.65,3.39-1.65,5.28V528H80.89V513h2v3.66C83.53,514.35,85.18,512.64,87.49,512.64Z"/><path d="M102.94,521H92.05c0,3.39,1.89,5.46,4.8,5.46a4.21,4.21,0,0,0,4.23-3.21l1.77.72a6.07,6.07,0,0,1-6.15,4.35c-4.26,0-6.75-2.73-6.75-7.77s2.52-8,6.66-8,6.33,2.4,6.33,7Zm-2.13-2c0-3.09-1.56-4.74-4.23-4.74s-4.47,1.92-4.53,5h8.76Z"/><path d="M109.33,513v2.91a4.47,4.47,0,0,1,4.44-3.27,4.23,4.23,0,0,1,4.32,3.21,4.76,4.76,0,0,1,4.62-3.21c2.94,0,4.62,2,4.62,5.55V528h-2.1v-9.63c0-2.55-1.08-3.93-3.15-3.93-2.28,0-3.69,1.68-3.69,4.44V528h-2.07v-9.75c0-2.43-1.14-3.81-3.12-3.81-2.28,0-3.75,1.86-3.75,4.8V528h-2.07V513Z"/><path d="M132.55,513h2v3.18a5.32,5.32,0,0,1,5.13-3.54c3.69,0,6.09,3.15,6.09,7.86s-2.55,7.86-6.24,7.86a5.06,5.06,0,0,1-4.89-3.18v8.67h-2.07Zm11,7.5c0-3.72-1.62-6-4.38-6s-4.56,2.34-4.56,5.64v.66c0,3.36,1.68,5.7,4.44,5.7S143.53,524.22,143.53,520.5Z"/><path d="M152.26,528h-2.07V506.25h2.07Z"/><path d="M158,507h2.37v3.3H158Zm.15,6h2.07v15h-2.07Z"/><path d="M172.48,512.64a3.63,3.63,0,0,1,.57,0v2h-.24a4.39,4.39,0,0,0-3.21,1.14c-1.38,1.38-1.65,3.39-1.65,5.28V528h-2.07V513h2v3.66C168.52,514.35,170.17,512.64,172.48,512.64Z"/><path d="M183.1,520.5c0-4.62,2.61-7.86,6.42-7.86a4.78,4.78,0,0,1,4.71,3.09v-9.48h2.1V528h-2v-3.18a5.23,5.23,0,0,1-5.07,3.54C185.56,528.36,183.1,525.18,183.1,520.5Zm11.16.33v-.63c0-3.42-1.65-5.7-4.44-5.7s-4.5,2.25-4.5,6,1.68,6,4.47,6S194.26,524.16,194.26,520.83Z"/><path d="M201.4,512.94a2.57,2.57,0,0,0,1.59-2.82v-.06h-1.5V506.7h2.85v3.18c0,2.22-.57,3.3-2.37,4.14Z"/><path d="M209.17,507h2.37v3.3h-2.37Zm.15,6h2.07v15h-2.07Z"/><path d="M215.68,520.5c0-4.89,2.61-7.86,6.81-7.86a5.67,5.67,0,0,1,6.06,5.43l-2.13.24c-.3-2.49-1.74-3.84-4-3.84-2.79,0-4.5,2.25-4.5,6s1.71,6.06,4.59,6.06c2.25,0,3.66-1.35,4-3.84l2,.3c-.54,3.39-2.76,5.37-6.06,5.37C218.32,528.36,215.68,525.33,215.68,520.5Z"/><path d="M232.72,507h2.37v3.3h-2.37Zm.15,6h2.07v15h-2.07Z"/><path d="M247.24,524a3.79,3.79,0,0,1,1.83-3.36,12.9,12.9,0,0,1,4.92-1.35l3.33-.39v-.24c0-3.09-1.08-4.32-3.63-4.32-2.25,0-3.63,1.17-3.75,3.3h-2.25c.18-3.09,2.52-5,6-5,4,0,5.76,1.86,5.76,6.21v3.9a21.14,21.14,0,0,0,.48,5.25h-2.19a20.58,20.58,0,0,1-.27-3,5.14,5.14,0,0,1-5.22,3.36C249.22,528.36,247.24,526.62,247.24,524Zm10.11-2.58v-1l-4.26.6c-2.55.36-3.66,1.23-3.66,2.88s1.26,2.64,3.27,2.64C255.49,526.62,257.35,524.52,257.35,521.46Z"/><path d="M264.28,522.51V513h2.07v9.3c0,2.94,1.38,4.26,3.42,4.26,2.73,0,4.38-2.34,4.38-5.37V513h2.1v15h-2v-3.09a5.14,5.14,0,0,1-4.86,3.45C265.66,528.36,264.28,526.08,264.28,522.51Z"/><path d="M289.9,513h2v3.18a5.32,5.32,0,0,1,5.13-3.54c3.69,0,6.09,3.15,6.09,7.86s-2.55,7.86-6.24,7.86a5.06,5.06,0,0,1-4.89-3.18v8.67H289.9Zm11,7.5c0-3.72-1.62-6-4.38-6s-4.56,2.34-4.56,5.64v.66c0,3.36,1.68,5.7,4.44,5.7S300.88,524.22,300.88,520.5Z"/><path d="M309.61,528h-2.07V506.25h2.07Z"/><path d="M315,522.51V513h2.07v9.3c0,2.94,1.38,4.26,3.42,4.26,2.73,0,4.38-2.34,4.38-5.37V513H327v15h-2v-3.09a5.14,5.14,0,0,1-4.86,3.45C316.39,528.36,315,526.08,315,522.51Z"/><path d="M331.27,523.71l2.13-.36c.36,2.13,1.89,3.27,4.26,3.27,2.19,0,3.42-1,3.42-2.55s-.84-2.1-2.43-2.4l-2.91-.57c-2.49-.48-3.9-1.83-3.9-4.11,0-2.52,2.13-4.35,5.52-4.35s5.49,1.47,5.79,4.14l-2.1.45c-.3-1.83-1.59-2.88-3.78-2.88s-3.39,1-3.39,2.55c0,1.41.93,2.1,2.49,2.4l2.94.57c2.67.54,3.84,1.83,3.84,4,0,2.67-2,4.47-5.55,4.47S331.75,526.71,331.27,523.71Z"/><path d="M353.35,513h2.76v-4l2.1-.9V513h3.87v1.74h-3.87v9c0,1.77.78,2.55,2.34,2.55a6.12,6.12,0,0,0,1.53-.18V528a7.07,7.07,0,0,1-2.07.27c-2.91,0-3.9-1.77-3.9-4.44v-9.09h-2.76Z"/><path d="M364.54,524a3.79,3.79,0,0,1,1.83-3.36,12.9,12.9,0,0,1,4.92-1.35l3.33-.39v-.24c0-3.09-1.08-4.32-3.63-4.32-2.25,0-3.63,1.17-3.75,3.3H365c.18-3.09,2.52-5,6-5,4,0,5.76,1.86,5.76,6.21v3.9a21.14,21.14,0,0,0,.48,5.25H375a20.58,20.58,0,0,1-.27-3,5.14,5.14,0,0,1-5.22,3.36C366.52,528.36,364.54,526.62,364.54,524Zm10.11-2.58v-1l-4.26.6c-2.55.36-3.66,1.23-3.66,2.88s1.26,2.64,3.27,2.64C372.79,526.62,374.65,524.52,374.65,521.46Z"/><path d="M388.63,512.64a3.63,3.63,0,0,1,.57,0v2H389a4.39,4.39,0,0,0-3.21,1.14c-1.38,1.38-1.65,3.39-1.65,5.28V528H382V513h2v3.66C384.67,514.35,386.32,512.64,388.63,512.64Z"/><path d="M391.09,520.5c0-4.62,2.61-7.86,6.42-7.86a4.78,4.78,0,0,1,4.71,3.09v-9.48h2.1V528h-2v-3.18a5.23,5.23,0,0,1-5.07,3.54C393.55,528.36,391.09,525.18,391.09,520.5Zm11.16.33v-.63c0-3.42-1.65-5.7-4.44-5.7s-4.5,2.25-4.5,6,1.68,6,4.47,6S402.25,524.16,402.25,520.83Z"/><path d="M420.31,528h-2.07V506.25h2.07Z"/><path d="M437.74,521H426.85c0,3.39,1.89,5.46,4.8,5.46a4.21,4.21,0,0,0,4.23-3.21l1.77.72a6.07,6.07,0,0,1-6.15,4.35c-4.26,0-6.75-2.73-6.75-7.77s2.52-8,6.66-8,6.33,2.4,6.33,7Zm-2.13-2c0-3.09-1.56-4.74-4.23-4.74s-4.47,1.92-4.53,5h8.76Z"/><path d="M451.6,527.67c0-6.66,2.82-12.84,7.53-18.48H448.21v-2h13.41v1.77A27.44,27.44,0,0,0,454,527.46V528H451.6Z"/><path d="M479.65,514.74h-3.9V528h-2.07V514.74h-2.82V513h2.82v-2.49c0-2.7,1.59-4.44,4.2-4.44a6.37,6.37,0,0,1,1.77.21v1.8a8.76,8.76,0,0,0-1.5-.15c-1.68,0-2.4.9-2.4,2.85V513h3.9Z"/><path d="M494.41,521H483.52c0,3.39,1.89,5.46,4.8,5.46a4.21,4.21,0,0,0,4.23-3.21l1.77.72a6.07,6.07,0,0,1-6.15,4.35c-4.26,0-6.75-2.73-6.75-7.77s2.52-8,6.66-8,6.33,2.4,6.33,7Zm-2.13-2c0-3.09-1.56-4.74-4.23-4.74s-4.47,1.92-4.53,5h8.76ZM489,510.6h-2l3-4.29h2.58Z"/><path d="M496.18,513h2.28l3.72,10.62c.27.84.48,1.53.63,2.22h.09c.15-.69.39-1.38.66-2.22L507.28,513h2.28L504,528h-2.28Z"/><path d="M519.34,512.64a3.63,3.63,0,0,1,.57,0v2h-.24a4.39,4.39,0,0,0-3.21,1.14c-1.38,1.38-1.65,3.39-1.65,5.28V528h-2.07V513h2v3.66C515.38,514.35,517,512.64,519.34,512.64Z"/><path d="M523.27,507h2.37v3.3h-2.37Zm.15,6h2.07v15h-2.07Z"/><path d="M542.77,521H531.88c0,3.39,1.89,5.46,4.8,5.46a4.21,4.21,0,0,0,4.22-3.21l1.78.72a6.08,6.08,0,0,1-6.16,4.35c-4.25,0-6.75-2.73-6.75-7.77s2.53-8,6.67-8,6.33,2.4,6.33,7Zm-2.13-2c0-3.09-1.57-4.74-4.24-4.74s-4.46,1.92-4.52,5h8.76Z"/><path d="M553.8,512.64a3.63,3.63,0,0,1,.57,0v2h-.24a4.39,4.39,0,0,0-3.21,1.14c-1.38,1.38-1.65,3.39-1.65,5.28V528H547.2V513h1.95v3.66C549.85,514.35,551.49,512.64,553.8,512.64Z"/><path d="M564.12,526.17a71,71,0,0,0,7.5-6.36c2.52-2.52,3.48-4.41,3.48-6.87,0-2.73-1.53-4.32-4.17-4.32s-4.32,1.59-4.32,4.08a10.11,10.11,0,0,0,.24,1.92l-2.21-.21a6.48,6.48,0,0,1-.21-1.74c0-3.66,2.48-6,6.62-6s6.36,2.25,6.36,6.21c0,2.85-1.38,5.34-4.38,8.22a44.1,44.1,0,0,1-5.94,4.89h10.65v2H564.12Z"/><path d="M580.5,517.56c0-6.66,2.76-10.86,7.92-10.86s7.89,4.2,7.89,10.89-2.73,10.86-7.89,10.86S580.5,524.25,580.5,517.56Zm13.62,0c0-5.55-1.92-9-5.7-9s-5.7,3.45-5.7,9,1.92,9,5.7,9S594.12,523.14,594.12,517.59Z"/><path d="M599.07,526.17a71,71,0,0,0,7.5-6.36c2.52-2.52,3.48-4.41,3.48-6.87,0-2.73-1.53-4.32-4.17-4.32s-4.32,1.59-4.32,4.08a10.11,10.11,0,0,0,.24,1.92l-2.22-.21a6.9,6.9,0,0,1-.21-1.74c0-3.66,2.49-6,6.63-6s6.36,2.25,6.36,6.21c0,2.85-1.38,5.34-4.38,8.22A44.1,44.1,0,0,1,602,526h10.65v2H599.07Z"/><path d="M620,511a4.59,4.59,0,0,1-3.66,1.65h-1v-2H616a4.34,4.34,0,0,0,4.38-3.54h1.86V528H620Z"/><path d="M107.29,55.26v4.8h-4.77v-4.8h-9.6V52l9-13.26h5.34v13h3.12v3.54Zm-4.53-12.09h-.06a10,10,0,0,1-1.2,2.16l-3,4.56a13.47,13.47,0,0,1-1.38,1.83h5.55V45.54C102.7,44.43,102.7,43.92,102.76,43.17Zm14.82,16.89h-5.13V55.14h5.13Zm28.44.75a6,6,0,0,0,1.68-.24V64.5a13.67,13.67,0,0,1-2.25.18c-3.6,0-5.94-1.53-7-4.11h-.42c-6.39,0-10.5-4.32-10.5-11.16s4.11-11.16,10.5-11.16,10.5,4.29,10.5,11.16c0,5-2.22,8.7-5.91,10.29A4.89,4.89,0,0,0,146,60.81Zm-8-4.2c3.33,0,5.28-2.7,5.28-7.2s-1.95-7.2-5.28-7.2-5.31,2.7-5.31,7.2S134.74,56.61,138.07,56.61Zm18.3-17.85V52.41a4,4,0,1,0,7.92,0V38.76h5.07V52.62c0,4.86-3.36,8-9,8s-9-3.09-9-8V38.76Zm31.86,17.55v3.75H173.44V38.76H188v3.75h-9.51v4.8h9V51h-9v5.28Zm1.38-.69L193.36,53a6.17,6.17,0,0,0,5.79,3.66c2,0,3.66-.75,3.66-2.43s-.93-2.19-3.09-2.64l-2.85-.6c-3.72-.81-5.88-2.82-5.88-6.39,0-3.9,3.18-6.33,8.31-6.33,3.78,0,7,1.38,8.46,4.23l-3.3,2.79A6,6,0,0,0,199,42c-2,0-3.3.84-3.3,2.19s.84,2.07,3.09,2.58l3.09.66c3.78.84,5.82,2.64,5.82,6.3,0,4.05-3.12,6.84-8.7,6.84C194.38,60.57,191.08,58.62,189.61,55.62ZM226,42.78h-6.21V60.06h-5V42.78H208.6v-4H226Zm2.4,17.28V38.76h5.07v21.3Zm8.16-10.65c0-6.87,4.11-11.16,10.5-11.16s10.5,4.29,10.5,11.16-4.11,11.16-10.5,11.16S236.59,56.25,236.59,49.41Zm15.78,0c0-4.5-2-7.2-5.28-7.2s-5.31,2.7-5.31,7.2,2,7.2,5.31,7.2S252.37,53.91,252.37,49.41Zm8.31-10.65h5.61l6.84,12.15a22.16,22.16,0,0,1,1.29,2.76h.06c0-.84,0-1.71,0-2.73V38.76h4.65v21.3h-5.4l-7.08-12.27a18.35,18.35,0,0,1-1.26-2.61h-.06c0,.87,0,1.77,0,2.82V60.06h-4.65Zm22.86,0h5.61L296,50.91a22.16,22.16,0,0,1,1.29,2.76h.06c0-.84,0-1.71,0-2.73V38.76H302v21.3h-5.4l-7.08-12.27a18.35,18.35,0,0,1-1.26-2.61h-.06c0,.87,0,1.77,0,2.82V60.06h-4.65Zm35.61,16.32h-7.86l-1.62,5H304.6l7.74-21.3h5.79l7.74,21.3h-5.1ZM318,51.51l-2-5.94a25.65,25.65,0,0,1-.78-3h-.06a20.83,20.83,0,0,1-.78,3l-2,5.94Zm10.5,8.55V38.76h5.07v21.3Zm17.64-8.16h-3.06v8.16H338V38.76h9.36c5.4,0,7.8,2.64,7.8,6.54A5.89,5.89,0,0,1,351,51.15l4.71,8.91H350.2Zm-3.06-3.48h3.27c2.46,0,3.54-1.2,3.54-3.12s-1.05-3-3.54-3h-3.27Zm30.51,7.89v3.75H358.78V38.76h14.58v3.75h-9.51v4.8h9V51h-9v5.28Zm25.89,0v3.75H384.67V38.76h14.58v3.75h-9.51v4.8h9V51h-9v5.28Zm3.69-17.55h5.61l6.84,12.15a22.16,22.16,0,0,1,1.29,2.76H417c0-.84,0-1.71,0-2.73V38.76h4.65v21.3h-5.4l-7.08-12.27a18.35,18.35,0,0,1-1.26-2.61h-.06c0,.87,0,1.77,0,2.82V60.06h-4.65Zm30.27,0h5.07V56h8.64v4.11H433.42ZM450,60.06V38.76h5.07v21.3Zm8.16-10.62c0-6.69,4-11.19,10.56-11.19,5.58,0,8.61,3,9.27,6.54l-5,.93a4.1,4.1,0,0,0-4.29-3.66c-3.39,0-5.34,2.82-5.34,7.32s1.83,7.29,5.4,7.29a4.49,4.49,0,0,0,4.71-4.38v-.45h-5.25V48.21h9.87V60.06h-3.6l-.21-3.12c-1.08,2.28-3.45,3.63-6.66,3.63C461.77,60.57,458.2,56.19,458.2,49.44Zm23.7-10.68h5.61l6.84,12.15a22.16,22.16,0,0,1,1.29,2.76h.06c0-.84,0-1.71,0-2.73V38.76h4.65v21.3h-5.4l-7.08-12.27a18.35,18.35,0,0,1-1.26-2.61h-.06c0,.87,0,1.77,0,2.82V60.06H481.9Zm37.65,17.55v3.75H504.76V38.76h14.58v3.75h-9.51v4.8h9V51h-9v5.28Z"/></g></g></svg>