<svg xmlns="http://www.w3.org/2000/svg" xmlns:xlink="http://www.w3.org/1999/xlink" width="1190.55" height="841.89" viewBox="0 0 1190.55 841.89">
  <defs>
    <style>
      .cls-1 {
        clip-path: url(#clip-Plan_de_travail_4);
      }

      .cls-18, .cls-2 {
        fill: none;
      }

      .cls-2 {
        stroke: #2f77b0;
        stroke-miterlimit: 10;
        stroke-width: 1.25px;
      }

      .cls-12, .cls-23, .cls-3 {
        font-size: 25px;
      }

      .cls-12, .cls-3 {
        font-family: GTAmerica-Light, GT America;
        font-weight: 300;
      }

      .cls-4 {
        letter-spacing: -0.02em;
      }

      .cls-5 {
        letter-spacing: -0.004em;
      }

      .cls-6 {
        letter-spacing: -0.002em;
      }

      .cls-7 {
        letter-spacing: -0.005em;
      }

      .cls-8 {
        letter-spacing: 0.018em;
      }

      .cls-9 {
        letter-spacing: -0.001em;
      }

      .cls-10 {
        letter-spacing: -0.007em;
      }

      .cls-11 {
        letter-spacing: -0.011em;
      }

      .cls-12 {
        fill: #2f77b0;
      }

      .cls-13 {
        letter-spacing: -0.044em;
      }

      .cls-14 {
        letter-spacing: 0.015em;
      }

      .cls-15 {
        letter-spacing: -0.015em;
      }

      .cls-16 {
        letter-spacing: -0.01em;
      }

      .cls-17 {
        fill: #f59e00;
      }

      .cls-19 {
        fill: #ffce00;
      }

      .cls-20 {
        fill: #a8ba00;
      }

      .cls-21 {
        fill: #008ea5;
      }

      .cls-22, .cls-23 {
        fill: #fff;
      }

      .cls-23 {
        font-family: GTAmerica-Bold, GT America;
        font-weight: 700;
      }

      .cls-24 {
        letter-spacing: -0.09em;
      }

      .cls-25 {
        letter-spacing: 0.006em;
      }
    </style>
    <clipPath id="clip-Plan_de_travail_4">
      <rect width="1190.55" height="841.89"/>
    </clipPath>
  </defs>
  <g id="Plan_de_travail_4" data-name="Plan de travail 4" class="cls-1">
    <rect class="cls-22" width="1190.55" height="841.89"/>
    <path id="Tracé_818" data-name="Tracé 818" d="M11305.406,45.291a5.393,5.393,0,0,1-3.63,1.169h-.841V42.141h.57a4.535,4.535,0,0,0,4.8-3.39h3.931v21.3h-4.83Zm14.58,14.759h-5.13V55.13h5.13Zm9.06-4.44,3.75-2.64a6.171,6.171,0,0,0,5.79,3.66c2.04,0,3.66-.75,3.66-2.43,0-1.59-.93-2.19-3.09-2.64l-2.851-.6c-3.72-.81-5.88-2.82-5.88-6.389,0-3.9,3.181-6.33,8.311-6.33,3.779,0,6.959,1.38,8.459,4.23l-3.3,2.789a5.976,5.976,0,0,0-5.49-3.269c-2.01,0-3.3.84-3.3,2.19,0,1.38.84,2.069,3.09,2.579l3.09.66c3.779.84,5.819,2.64,5.819,6.3,0,4.05-3.119,6.84-8.7,6.84C11333.816,60.56,11330.516,58.61,11329.046,55.61Zm25.26-3.27-7.08-13.589h5.341l3.75,7.859a7.283,7.283,0,0,1,.51,1.56h.06a7.235,7.235,0,0,1,.511-1.56l3.72-7.859h5.37l-7.08,13.589v7.71h-5.1Zm14.311-13.589h5.609l6.841,12.149a22.31,22.31,0,0,1,1.29,2.76h.06c0-.84-.03-1.71-.03-2.73V38.751h4.65v21.3h-5.4l-7.08-12.27a18.392,18.392,0,0,1-1.26-2.609h-.06c0,.87.029,1.769.029,2.819V60.05h-4.649Zm38.278,4.02h-6.209V60.05h-5.039V42.771h-6.181v-4.02h17.429Zm20.73,17.279h-5.07V51.2h-8.188v8.85h-5.07v-21.3h5.07V47.3h8.188V38.751h5.07Zm19.23-3.75v3.75h-14.789v-21.3h14.578V42.5h-9.509v4.8h9v3.72h-9V56.3Zm-9.27-18.839-3.479-3.54h4.17l2.97,3.54Zm10.647,18.149,3.75-2.64a6.17,6.17,0,0,0,5.79,3.66c2.04,0,3.658-.75,3.658-2.43,0-1.59-.929-2.19-3.089-2.64l-2.85-.6c-3.72-.81-5.88-2.82-5.88-6.389,0-3.9,3.18-6.33,8.31-6.33,3.779,0,6.959,1.38,8.459,4.23l-3.3,2.789a5.974,5.974,0,0,0-5.489-3.269c-2.01,0-3.3.84-3.3,2.19,0,1.38.84,2.069,3.09,2.579l3.09.66c3.779.84,5.819,2.64,5.819,6.3,0,4.05-3.12,6.84-8.7,6.84C11453,60.56,11449.7,58.61,11448.233,55.61Zm35.85.69v3.75h-14.79v-21.3h14.58V42.5h-9.51v4.8h9v3.72h-9V56.3Zm11.1-17.549h8.49c6.389,0,10.529,4.26,10.529,10.529,0,6.39-4.141,10.77-10.589,10.77h-8.431Zm8.221,17.579c3.6,0,5.579-3.24,5.579-7.05,0-3.869-1.86-6.809-5.52-6.809h-3.21V56.33Zm28.679-.03v3.75h-14.789v-21.3h14.579V42.5h-9.509v4.8h9v3.72h-9V56.3Zm11.1-17.549h5.069V55.94h8.64v4.11h-13.709Zm29.789,16.319h-7.858l-1.62,4.98h-5.07l7.74-21.3h5.789l7.74,21.3h-5.1Zm-1.17-3.57-1.95-5.939a25.688,25.688,0,0,1-.779-3h-.061a20.812,20.812,0,0,1-.779,3l-1.949,5.939Zm16.561-2.07c0-6.719,3.96-11.189,10.439-11.189,5.431,0,8.851,3,9.42,7.65l-5.13.9c-.3-2.819-1.859-4.469-4.41-4.469-3.239,0-5.13,2.73-5.13,7.079,0,4.23,1.92,7.05,5.28,7.05,2.37,0,3.96-1.62,4.38-4.38l5.13,1.11c-1.02,4.5-4.319,7.38-9.6,7.38C11591.992,60.56,11588.362,56.15,11588.362,49.43Zm21.72-.03c0-6.869,4.11-11.159,10.5-11.159s10.5,4.29,10.5,11.159-4.109,11.16-10.5,11.16S11610.082,56.24,11610.082,49.4Zm15.78,0c0-4.5-1.95-7.2-5.28-7.2s-5.31,2.7-5.31,7.2c0,4.47,1.979,7.2,5.31,7.2S11625.862,53.9,11625.862,49.4Zm8.31-10.649h5.61l6.84,12.149a22.3,22.3,0,0,1,1.289,2.76h.06c0-.84-.029-1.71-.029-2.73V38.751h4.649v21.3h-5.4l-7.079-12.27a18.409,18.409,0,0,1-1.261-2.609h-.06c0,.87.03,1.769.03,2.819V60.05h-4.65Zm21.51,10.679c0-6.719,3.96-11.189,10.439-11.189,5.43,0,8.85,3,9.42,7.65l-5.13.9c-.3-2.819-1.86-4.469-4.41-4.469-3.239,0-5.129,2.73-5.129,7.079,0,4.23,1.92,7.05,5.279,7.05,2.37,0,3.96-1.62,4.38-4.38l5.13,1.11c-1.021,4.5-4.32,7.38-9.6,7.38C11659.312,60.56,11655.682,56.15,11655.682,49.43Zm37.709,6.87v3.75H11678.6v-21.3h14.579V42.5h-9.51v4.8h9v3.72h-9V56.3Zm11.82-4.41h-3.06v8.16h-5.069v-21.3h9.359c5.4,0,7.8,2.64,7.8,6.54a5.89,5.89,0,0,1-4.17,5.849l4.71,8.91h-5.49Zm-3.06-3.48h3.27c2.46,0,3.54-1.2,3.54-3.119,0-1.86-1.05-2.97-3.54-2.97h-3.27Zm30.566-5.639h-6.21V60.05h-5.04V42.771h-6.18v-4.02h17.43Zm12.42,12.3h-7.859l-1.62,4.98h-5.07l7.74-21.3h5.79l7.739,21.3h-5.1Zm-1.17-3.57-1.95-5.939a25.688,25.688,0,0,1-.779-3h-.061a20.812,20.812,0,0,1-.779,3l-1.95,5.939Zm23.189-8.729h-6.209V60.05h-5.04V42.771h-6.181v-4.02h17.43Zm2.4,17.279v-21.3h5.07v21.3Zm8.16-10.65c0-6.869,4.11-11.159,10.5-11.159s10.5,4.29,10.5,11.159-4.109,11.16-10.5,11.16S11777.718,56.24,11777.718,49.4Zm15.779,0c0-4.5-1.95-7.2-5.28-7.2s-5.309,2.7-5.309,7.2c0,4.47,1.979,7.2,5.309,7.2S11793.5,53.9,11793.5,49.4Zm8.311-10.649h5.609l6.84,12.149a22.029,22.029,0,0,1,1.29,2.76h.061c0-.84-.03-1.71-.03-2.73V38.751h4.649v21.3h-5.4l-7.08-12.27a18.27,18.27,0,0,1-1.259-2.609h-.061c0,.87.03,1.769.03,2.819V60.05h-4.65Zm30.27,21.3v-21.3h5.07v21.3Z" transform="translate(-11207.65)"/>
    <line id="Ligne_281" data-name="Ligne 281" class="cls-2" x2="173.797" transform="translate(591.775 806.5)"/>
    <text id="Restitution_détaillée_de_la_séance_de_concertation_I_du_10_octobre_2020" data-name="Restitution détaillée de la séance de concertation I du 10 octobre 2020" class="cls-3" transform="translate(195.817 768)"><tspan class="cls-4" x="0" y="0">R</tspan><tspan y="0">e</tspan><tspan class="cls-5" y="0">s</tspan><tspan y="0">titution d</tspan><tspan class="cls-6" y="0">é</tspan><tspan class="cls-7" y="0">t</tspan><tspan y="0">aillée de la séance de conce</tspan><tspan class="cls-8" y="0">r</tspan><tspan class="cls-7" y="0">t</tspan><tspan class="cls-9" y="0">a</tspan><tspan y="0">tion I du 10 o</tspan><tspan class="cls-9" y="0">c</tspan><tspan class="cls-10" y="0">t</tspan><tspan y="0">ob</tspan><tspan class="cls-10" y="0">r</tspan><tspan y="0">e </tspan><tspan class="cls-11" y="0">2</tspan><tspan y="0">0</tspan><tspan class="cls-11" y="0">2</tspan><tspan y="0">0</tspan></text>
    <text id="disponible_sur_" data-name="disponible sur " class="cls-3" transform="translate(424.968 804)"><tspan x="0" y="0">disponible sur </tspan></text>
    <text id="participer.ge.ch" class="cls-12" transform="translate(591.767 804)"><tspan x="0" y="0">pa</tspan><tspan class="cls-8" y="0">r</tspan><tspan y="0">ticipe</tspan><tspan class="cls-13" y="0">r</tspan><tspan class="cls-14" y="0">.</tspan><tspan class="cls-15" y="0">g</tspan><tspan class="cls-16" y="0">e</tspan><tspan class="cls-10" y="0">.</tspan><tspan y="0">ch</tspan></text>
    <path id="Tracé_819" data-name="Tracé 819" class="cls-17" d="M11449.83,114.142s-15,0-15,15V301.726s0,15,15,15h272.953s15,0,15-15V129.142s0-15-15-15Z" transform="translate(-11207.65)"/>
    <rect id="Rectangle_573" data-name="Rectangle 573" class="cls-18" width="320.953" height="210.584" transform="translate(218.18 107.142)"/>
    <path id="Tracé_820" data-name="Tracé 820" class="cls-17" d="M11954.519,530.613s-15,0-15,15v44.145s0,15,15,15h99.312s15,0,15-15V545.613s0-15-15-15Z" transform="translate(-11207.65)"/>
    <rect id="Rectangle_574" data-name="Rectangle 574" class="cls-18" width="147.31" height="82.144" transform="translate(722.869 523.613)"/>
    <path id="Tracé_821" data-name="Tracé 821" class="cls-19" d="M11878.571,195.023s-15,0-15,15V382.607s0,15,15,15h272.953s15,0,15-15V210.023s0-15-15-15Z" transform="translate(-11207.65)"/>
    <rect id="Rectangle_575" data-name="Rectangle 575" class="cls-18" width="320.953" height="210.584" transform="translate(646.92 188.023)"/>
    <path id="Tracé_822" data-name="Tracé 822" class="cls-19" d="M12019.174,623.621s-15,0-15,15v71.293s0,15,15,15H12153.5s15,0,15-15V638.621s0-15-15-15Z" transform="translate(-11207.65)"/>
    <rect id="Rectangle_576" data-name="Rectangle 576" class="cls-18" width="182.321" height="109.293" transform="translate(787.523 616.62)"/>
    <path id="Tracé_823" data-name="Tracé 823" class="cls-20" d="M11662.429,365.1s-15,0-15,15V552.685s0,15,15,15h272.953s15,0,15-15V380.1s0-15-15-15Z" transform="translate(-11207.65)"/>
    <rect id="Rectangle_577" data-name="Rectangle 577" class="cls-18" width="320.952" height="210.584" transform="translate(430.778 358.101)"/>
    <path id="Tracé_824" data-name="Tracé 824" class="cls-20" d="M11728.917,300.956s-15,0-15,15v28.465s0,15,15,15h55.039s15,0,15-15V315.956s0-15-15-15Z" transform="translate(-11207.65)"/>
    <rect id="Rectangle_578" data-name="Rectangle 578" class="cls-18" width="103.039" height="66.465" transform="translate(497.267 293.956)"/>
    <path id="Tracé_825" data-name="Tracé 825" class="cls-21" d="M11449.83,522.33s-15,0-15,15V709.914s0,15,15,15h272.953s15,0,15-15V537.33s0-15-15-15Z" transform="translate(-11207.65)"/>
    <rect id="Rectangle_579" data-name="Rectangle 579" class="cls-18" width="320.953" height="210.584" transform="translate(218.18 515.329)"/>
    <path id="Tracé_826" data-name="Tracé 826" class="cls-21" d="M11848.22,114.142s-15,0-15,15v44.145s0,15,15,15h76.3s15,0,15-15V129.142s0-15-15-15Z" transform="translate(-11207.65)"/>
    <rect id="Rectangle_580" data-name="Rectangle 580" class="cls-18" width="124.299" height="82.144" transform="translate(616.569 107.142)"/>
    <rect id="Rectangle_581" data-name="Rectangle 581" class="cls-18" width="1190.551" height="841.89"/>
    <path id="Tracé_827" data-name="Tracé 827" class="cls-22" d="M11481.491,204.811a4.489,4.489,0,0,1-3.024.975h-.7v-3.6h.476a3.78,3.78,0,0,0,4-2.824h3.273v17.745h-4.023Zm7.3,3.4c0-5.849,2.774-9.273,7.473-9.273,4.725,0,7.5,3.424,7.5,9.273s-2.773,9.272-7.5,9.272C11491.566,217.483,11488.792,214.059,11488.792,208.211Zm10.822,0c0-4-1.2-6.149-3.35-6.149-2.125,0-3.323,2.15-3.323,6.149s1.2,6.148,3.323,6.148C11498.414,214.359,11499.614,212.21,11499.614,208.211Zm11.9.025c0-5.724,3.425-9.3,8.748-9.3s8.747,3.574,8.747,9.3-3.424,9.3-8.747,9.3S11511.517,213.934,11511.517,208.236Zm13.147,0c0-3.75-1.625-6-4.4-6s-4.424,2.249-4.424,6c0,3.724,1.649,6,4.424,6S11524.664,211.985,11524.664,208.236Zm6.128.025c0-5.6,3.3-9.323,8.7-9.323,4.522,0,7.373,2.5,7.848,6.373l-4.273.75c-.25-2.349-1.551-3.724-3.675-3.724-2.7,0-4.273,2.274-4.273,5.9,0,3.524,1.6,5.873,4.4,5.873,1.976,0,3.3-1.35,3.65-3.649l4.274.925c-.851,3.749-3.6,6.148-8,6.148C11533.816,217.533,11530.792,213.859,11530.792,208.261Zm31.6-5.549h-5.174v14.4h-4.2v-14.4h-5.147v-3.349h14.521Zm-.047,5.524c0-5.724,3.425-9.3,8.748-9.3s8.748,3.574,8.748,9.3-3.424,9.3-8.748,9.3S11562.341,213.934,11562.341,208.236Zm13.147,0c0-3.75-1.624-6-4.4-6s-4.424,2.249-4.424,6c0,3.724,1.65,6,4.424,6S11575.488,211.985,11575.488,208.236Zm21.273,3.874c0,2.8-1.974,5-6.022,5h-8.323V199.363h8c4.049,0,5.9,1.974,5.9,4.574a3.968,3.968,0,0,1-3.2,3.924A4,4,0,0,1,11596.762,212.11Zm-10.122-9.773v4.324h2.649c1.9,0,2.625-.975,2.625-2.175,0-1.249-.8-2.149-2.625-2.149Zm5.725,9.423c0-1.375-.925-2.3-2.7-2.3h-3.024v4.674h2.925C11591.489,214.134,11592.364,213.109,11592.364,211.76Zm13.85-1.45h-2.549v6.8h-4.224V199.363h7.8c4.5,0,6.5,2.2,6.5,5.448a4.906,4.906,0,0,1-3.475,4.874l3.924,7.423h-4.573Zm-2.549-2.9h2.724c2.051,0,2.95-1,2.95-2.6,0-1.549-.875-2.474-2.95-2.474h-2.724Zm25.423,6.573v3.124h-12.322V199.363h12.147v3.124h-7.923v4h7.5v3.1h-7.5v4.4Zm8.128.175a37.526,37.526,0,0,0,6.273-4.574c1.7-1.674,2.375-3,2.375-4.774,0-1.749-.8-2.7-2.25-2.7-1.475,0-2.35,1-2.35,2.649a8.391,8.391,0,0,0,.176,1.425l-4.1-.375a6.819,6.819,0,0,1-.149-1.374c0-3.35,2.549-5.5,6.623-5.5,4,0,6.349,2.024,6.349,5.573a8.432,8.432,0,0,1-3.125,6.374,24.09,24.09,0,0,1-4.323,3.024h7.6v3.2h-13.1Zm14.672-5.948c0-5.849,2.775-9.273,7.475-9.273,4.723,0,7.5,3.424,7.5,9.273s-2.775,9.272-7.5,9.272C11654.663,217.483,11651.888,214.059,11651.888,208.211Zm10.823,0c0-4-1.2-6.149-3.349-6.149-2.125,0-3.325,2.15-3.325,6.149s1.2,6.148,3.325,6.148C11661.511,214.359,11662.711,212.21,11662.711,208.211Zm5.729,5.948a37.6,37.6,0,0,0,6.272-4.574c1.7-1.674,2.375-3,2.375-4.774,0-1.749-.8-2.7-2.25-2.7-1.475,0-2.349,1-2.349,2.649a8.479,8.479,0,0,0,.175,1.425l-4.1-.375a6.754,6.754,0,0,1-.15-1.374c0-3.35,2.549-5.5,6.623-5.5,4,0,6.348,2.024,6.348,5.573a8.427,8.427,0,0,1-3.124,6.374,24.03,24.03,0,0,1-4.324,3.024h7.6v3.2h-13.1Zm14.675-5.948c0-5.849,2.773-9.273,7.473-9.273,4.724,0,7.5,3.424,7.5,9.273s-2.774,9.272-7.5,9.272C11685.888,217.483,11683.114,214.059,11683.114,208.211Zm10.821,0c0-4-1.2-6.149-3.349-6.149-2.125,0-3.324,2.15-3.324,6.149s1.2,6.148,3.324,6.148C11692.736,214.359,11693.936,212.21,11693.936,208.211Z" transform="translate(-11207.65)"/>
    <text id="EN_PRÉSENTIEL" data-name="EN PRÉSENTIEL" class="cls-23" transform="translate(284.566 247.108)"><tspan x="0" y="0">EN PRÉSENTIEL</tspan></text>
    <path id="Tracé_828" data-name="Tracé 828" class="cls-22" d="M11896.516,305.833c0-5.048,2.325-10.047,6.1-14.1h-8.474v-3.349h12.473v3.1a19.771,19.771,0,0,0-5.7,14.022v.624h-4.4Zm14.176,0c0-5.048,2.323-10.047,6.1-14.1h-8.472v-3.349h12.472v3.1a19.767,19.767,0,0,0-5.7,14.022v.624h-4.4Zm32.6-11.872c0,3.525-2.474,5.724-6.473,5.724h-3.55v6.448h-4.224V288.388h7.873C11940.763,288.388,11943.287,290.587,11943.287,293.961Zm-4.423.125c0-1.674-1.075-2.649-2.976-2.649h-2.624v5.3h2.624C11937.764,296.736,11938.864,295.761,11938.864,294.086Zm15.148,7.9h-6.548l-1.35,4.149h-4.225l6.449-17.745h4.823l6.449,17.745h-4.249Zm-.974-2.974-1.625-4.949a21.464,21.464,0,0,1-.65-2.5h-.05a17.232,17.232,0,0,1-.649,2.5l-1.624,4.949Zm15.525.325h-2.55v6.8h-4.224V288.388h7.8c4.5,0,6.5,2.2,6.5,5.448a4.908,4.908,0,0,1-3.474,4.874l3.924,7.423h-4.574Zm-2.55-2.9h2.725c2.049,0,2.949-1,2.949-2.6,0-1.549-.875-2.474-2.949-2.474h-2.725Zm25.473-4.7h-5.173v14.4h-4.2v-14.4h-5.149v-3.349h14.521Zm2,14.4V288.388h4.224v17.745Zm6.8-8.847c0-5.6,3.3-9.323,8.7-9.323,4.522,0,7.373,2.5,7.848,6.373l-4.273.75c-.25-2.349-1.551-3.724-3.675-3.724-2.7,0-4.273,2.274-4.273,5.9,0,3.524,1.6,5.873,4.4,5.873,1.976,0,3.3-1.35,3.65-3.649l4.273.925c-.85,3.749-3.6,6.148-8,6.148C12003.315,306.558,12000.291,302.884,12000.291,297.286Zm19.1,8.847V288.388h4.225v17.745Zm22.172-12.172c0,3.525-2.475,5.724-6.474,5.724h-3.549v6.448h-4.224V288.388h7.873C12039.037,288.388,12041.562,290.587,12041.562,293.961Zm-4.424.125c0-1.674-1.074-2.649-2.974-2.649h-2.625v5.3h2.625C12036.038,296.736,12037.138,295.761,12037.138,294.086Zm15.147,7.9h-6.548l-1.351,4.149h-4.224l6.449-17.745h4.822l6.449,17.745h-4.249Zm-.976-2.974-1.624-4.949a21.273,21.273,0,0,1-.649-2.5h-.05a17.358,17.358,0,0,1-.65,2.5l-1.625,4.949Zm8.754-10.622h4.673l5.7,10.122a18.36,18.36,0,0,1,1.075,2.3h.05c0-.7-.024-1.425-.024-2.275V288.388h3.874v17.745h-4.5l-5.9-10.222a15.21,15.21,0,0,1-1.049-2.175h-.05c0,.725.024,1.475.024,2.35v10.047h-3.873Zm31.9,3.349h-5.173v14.4h-4.2v-14.4h-5.148v-3.349h14.521Zm3.452,14.4h-4.274v-4.1h4.274Zm15.6-3.124v3.124h-12.322V288.388h12.147v3.124h-7.923v4h7.5v3.1h-7.5v4.4Zm6.927,3.124h-4.273v-4.1h4.273Zm1.378-3.7,3.123-2.2a5.143,5.143,0,0,0,4.824,3.049c1.7,0,3.049-.625,3.049-2.024,0-1.325-.774-1.825-2.573-2.2l-2.375-.5c-3.1-.675-4.9-2.349-4.9-5.323,0-3.25,2.649-5.274,6.923-5.274,3.149,0,5.8,1.15,7.048,3.524l-2.749,2.324a4.978,4.978,0,0,0-4.573-2.724c-1.676,0-2.749.7-2.749,1.825,0,1.149.7,1.724,2.573,2.149l2.574.55c3.15.7,4.85,2.2,4.85,5.249,0,3.374-2.6,5.7-7.248,5.7C12123.287,306.558,12120.537,304.934,12119.313,302.434Z" transform="translate(-11207.65)"/>
    <text id="_3_ATELIERS" data-name="3 ATELIERS" class="cls-23" transform="translate(522.541 481.758)"><tspan x="0" y="0">3 </tspan><tspan class="cls-24" y="0">A</tspan><tspan y="0">TE</tspan><tspan class="cls-25" y="0">L</tspan><tspan y="0">IE</tspan><tspan class="cls-15" y="0">R</tspan><tspan y="0">S</tspan></text>
    <text id="_2_" data-name="2 " class="cls-23" transform="translate(257.816 636.758)"><tspan x="0" y="0">2 </tspan></text>
    <text id="QUESTIONNAIRES" class="cls-23" transform="translate(278.666 636.758)"><tspan x="0" y="0">QU</tspan><tspan class="cls-9" y="0">ES</tspan><tspan y="0">TIONNAIR</tspan><tspan class="cls-9" y="0">E</tspan><tspan y="0">S</tspan></text>
    <rect id="Rectangle_582" data-name="Rectangle 582" class="cls-18" width="1190.55" height="841.89"/>
    <rect id="Rectangle_583" data-name="Rectangle 583" class="cls-18" width="1190.55" height="841.89"/>
  </g>
</svg>
