<svg id="Calque_1" data-name="Calque 1" xmlns="http://www.w3.org/2000/svg" xmlns:xlink="http://www.w3.org/1999/xlink" viewBox="0 0 1190.55 841.89"><defs><style>.cls-1,.cls-6{fill:none;}.cls-2{clip-path:url(#clip-path);}.cls-3{fill:#fff;}.cls-4{clip-path:url(#clip-path-3);}.cls-5{clip-path:url(#clip-path-4);}.cls-6{stroke:#000;stroke-linejoin:round;stroke-width:1.17px;}.cls-7{clip-path:url(#clip-path-5);}.cls-8{opacity:0.8;}.cls-9{clip-path:url(#clip-path-6);}.cls-10{fill:#ffce00;}.cls-11{clip-path:url(#clip-path-7);}.cls-12{fill:#f59e00;}.cls-13{clip-path:url(#clip-path-8);}.cls-14{clip-path:url(#clip-path-9);}.cls-15{clip-path:url(#clip-path-10);}.cls-16{fill:#a8ba00;}.cls-17{clip-path:url(#clip-path-11);}.cls-18{clip-path:url(#clip-path-12);}.cls-19{fill:#008ea5;}.cls-20{clip-path:url(#clip-path-13);}.cls-21{fill:#575756;}</style><clipPath id="clip-path"><rect class="cls-1" width="1190.55" height="841.89"/></clipPath><clipPath id="clip-path-3"><rect class="cls-1" x="52.72" y="731.59" width="112.25" height="87.89"/></clipPath><clipPath id="clip-path-4"><rect class="cls-1" x="34.02" y="711.93" width="1122.52" height="129.96"/></clipPath><clipPath id="clip-path-5"><rect class="cls-1" width="1190.55" height="841.89"/></clipPath><clipPath id="clip-path-6"><rect class="cls-1" x="146.4" y="421.31" width="212.35" height="137.96"/></clipPath><clipPath id="clip-path-7"><rect class="cls-1" x="828.42" y="462.72" width="212.35" height="137.96"/></clipPath><clipPath id="clip-path-8"><rect class="cls-1" x="119.84" y="194.77" width="155.28" height="102.27"/></clipPath><clipPath id="clip-path-9"><rect class="cls-1" x="730.59" y="102.84" width="210.35" height="137.96"/></clipPath><clipPath id="clip-path-10"><rect class="cls-1" x="234.78" y="88.19" width="218.63" height="152.91"/></clipPath><clipPath id="clip-path-11"><rect class="cls-1" x="1001.51" y="413.04" width="120.21" height="79.38"/></clipPath><clipPath id="clip-path-12"><rect class="cls-1" x="63.62" y="382.98" width="120.21" height="72.07"/></clipPath><clipPath id="clip-path-13"><rect class="cls-1" x="894.29" y="212.06" width="262.28" height="143.06"/></clipPath></defs><g class="cls-2"><g class="cls-2"><rect class="cls-3" x="34.02" y="711.93" width="1122.52" height="129.96"/><rect class="cls-3" x="34.02" y="711.93" width="1122.52" height="129.96"/><path d="M999.57,815.32h-1.09v-7a5.84,5.84,0,0,1-1,.75,7.2,7.2,0,0,1-1.16.57V808.6a6.58,6.58,0,0,0,1.61-1.05,4.22,4.22,0,0,0,1-1.19h.7Zm3-2.06,1-.1a1.83,1.83,0,0,0,.51,1.08,1.43,1.43,0,0,0,1,.33,1.64,1.64,0,0,0,.89-.23,1.9,1.9,0,0,0,.62-.61,3.76,3.76,0,0,0,.41-1.05,5.46,5.46,0,0,0,.16-1.34v-.22a2.54,2.54,0,0,1-.9.85,2.41,2.41,0,0,1-1.23.33,2.49,2.49,0,0,1-1.88-.81,2.94,2.94,0,0,1-.77-2.12,3,3,0,0,1,.8-2.18,2.71,2.71,0,0,1,2-.83,2.88,2.88,0,0,1,1.59.47,3,3,0,0,1,1.1,1.33,6.63,6.63,0,0,1,.37,2.52,8,8,0,0,1-.37,2.72,3.23,3.23,0,0,1-1.1,1.55,2.9,2.9,0,0,1-1.72.53,2.53,2.53,0,0,1-1.72-.59A2.48,2.48,0,0,1,1002.62,813.26Zm4.49-3.94a2.13,2.13,0,0,0-.51-1.5,1.57,1.57,0,0,0-1.21-.55,1.69,1.69,0,0,0-1.27.59,2.23,2.23,0,0,0-.54,1.55,1.94,1.94,0,0,0,.51,1.39,1.73,1.73,0,0,0,1.27.53,1.66,1.66,0,0,0,1.26-.53A2.15,2.15,0,0,0,1007.11,809.32Zm1.83,6.16,2.59-9.24h.88l-2.58,9.24Zm4.92-.93a5.86,5.86,0,0,1-.89-3.63,8.13,8.13,0,0,1,.33-2.55,3.21,3.21,0,0,1,1-1.49,2.45,2.45,0,0,1,1.61-.52,2.66,2.66,0,0,1,1.26.29,2.38,2.38,0,0,1,.9.83,4.36,4.36,0,0,1,.55,1.33,8.54,8.54,0,0,1,.2,2.11,8.1,8.1,0,0,1-.32,2.54,3.12,3.12,0,0,1-1,1.49,2.49,2.49,0,0,1-1.63.53,2.43,2.43,0,0,1-2-.93Zm.81-6.64a8.44,8.44,0,0,0-.06,5.94,1.53,1.53,0,0,0,1.27.72,1.5,1.5,0,0,0,1.27-.73,8.49,8.49,0,0,0,0-5.85,1.52,1.52,0,0,0-1.28-.72,1.39,1.39,0,0,0-1.2.64Zm9.44,7.41H1023v-7a5.84,5.84,0,0,1-1,.75,7.2,7.2,0,0,1-1.16.57V808.6a6.58,6.58,0,0,0,1.61-1.05,4,4,0,0,0,1-1.19h.71Zm2.36.16,2.59-9.24h.88l-2.58,9.24Zm9.79-1.21v1.05h-5.9a2,2,0,0,1,.13-.76,4.07,4.07,0,0,1,.72-1.19,11.63,11.63,0,0,1,1.44-1.35,11.57,11.57,0,0,0,2-1.89,2.27,2.27,0,0,0,.52-1.32,1.48,1.48,0,0,0-.47-1.1,1.92,1.92,0,0,0-2.48,0,1.78,1.78,0,0,0-.48,1.32l-1.13-.12a2.8,2.8,0,0,1,.87-1.92,3,3,0,0,1,2-.66,2.84,2.84,0,0,1,2,.71,2.36,2.36,0,0,1,.75,1.77,2.57,2.57,0,0,1-.22,1,3.84,3.84,0,0,1-.73,1.09,16,16,0,0,1-1.69,1.57c-.65.56-1.08.93-1.26,1.13a3,3,0,0,0-.46.59Zm2.14.28a5.86,5.86,0,0,1-.89-3.63,8.13,8.13,0,0,1,.33-2.55,3.21,3.21,0,0,1,1-1.49,2.43,2.43,0,0,1,1.61-.52,2.66,2.66,0,0,1,1.26.29,2.38,2.38,0,0,1,.9.83,4.63,4.63,0,0,1,.55,1.33,8.54,8.54,0,0,1,.2,2.11,8.1,8.1,0,0,1-.32,2.54,3.19,3.19,0,0,1-1,1.49,2.49,2.49,0,0,1-1.63.53,2.43,2.43,0,0,1-2-.93Zm.81-6.64a8.44,8.44,0,0,0-.06,5.94,1.53,1.53,0,0,0,1.27.72,1.5,1.5,0,0,0,1.27-.73,8.49,8.49,0,0,0,0-5.85,1.52,1.52,0,0,0-1.28-.72,1.39,1.39,0,0,0-1.2.64Zm11.07,6.36v1.05h-5.9a2,2,0,0,1,.13-.76,4.07,4.07,0,0,1,.72-1.19,11.63,11.63,0,0,1,1.44-1.35,11.57,11.57,0,0,0,2-1.89,2.25,2.25,0,0,0,.51-1.32,1.47,1.47,0,0,0-.46-1.1,1.92,1.92,0,0,0-2.48,0,1.78,1.78,0,0,0-.48,1.32l-1.13-.12a2.8,2.8,0,0,1,.87-1.92,3,3,0,0,1,2-.66,2.85,2.85,0,0,1,2,.71,2.36,2.36,0,0,1,.75,1.77,2.57,2.57,0,0,1-.22,1,3.84,3.84,0,0,1-.73,1.09,17.06,17.06,0,0,1-1.69,1.57c-.65.56-1.08.93-1.26,1.13a3.57,3.57,0,0,0-.47.59Zm5.38,1.05h-1.1v-7a5.73,5.73,0,0,1-1,.75,7.2,7.2,0,0,1-1.16.57V808.6a6.78,6.78,0,0,0,1.61-1.05,4,4,0,0,0,1-1.19h.71Z"/><rect x="1061.97" y="811.54" width="3.37" height="1.1"/><path d="M1073.65,815.32V806.4H1077a7.93,7.93,0,0,1,1.36.08,2.58,2.58,0,0,1,1.1.42,2.12,2.12,0,0,1,.72.86,2.76,2.76,0,0,1,.27,1.22,2.73,2.73,0,0,1-.73,1.93,3.49,3.49,0,0,1-2.62.78h-2.29v3.63Zm1.18-4.68h2.31a2.41,2.41,0,0,0,1.63-.43,1.51,1.51,0,0,0,.48-1.2,1.57,1.57,0,0,0-.28-1,1.29,1.29,0,0,0-.75-.53,5.24,5.24,0,0,0-1.1-.08h-2.29Zm11.5,4.68a2.53,2.53,0,0,1-.22-.79,4.22,4.22,0,0,1-1.17.73,3.42,3.42,0,0,1-1.21.21,2.36,2.36,0,0,1-1.64-.52,1.72,1.72,0,0,1-.57-1.33,1.71,1.71,0,0,1,.22-.87,1.8,1.8,0,0,1,.56-.63,2.7,2.7,0,0,1,.79-.36,7.07,7.07,0,0,1,1-.16,10.07,10.07,0,0,0,2-.38c0-.15,0-.25,0-.29a1.23,1.23,0,0,0-.31-.94,1.83,1.83,0,0,0-1.25-.37,1.91,1.91,0,0,0-1.14.27,1.64,1.64,0,0,0-.55,1l-1.07-.15a2.7,2.7,0,0,1,.48-1.11,2.11,2.11,0,0,1,1-.65,4.36,4.36,0,0,1,1.47-.23,4.1,4.1,0,0,1,1.34.19,1.71,1.71,0,0,1,.76.5,1.65,1.65,0,0,1,.35.74,7.25,7.25,0,0,1,.05,1v1.46a15,15,0,0,0,.07,1.94,2.38,2.38,0,0,0,.28.77Zm-.31-3.24a8,8,0,0,1-1.79.41,4.32,4.32,0,0,0-1,.22.93.93,0,0,0-.59.88,1,1,0,0,0,.33.73,1.46,1.46,0,0,0,1,.29,2.2,2.2,0,0,0,1.13-.28,1.7,1.7,0,0,0,.73-.75,2.84,2.84,0,0,0,.17-1.1Zm2.69,3.78,1.07.16a1,1,0,0,0,.37.72,1.84,1.84,0,0,0,1.12.3,2,2,0,0,0,1.17-.3,1.52,1.52,0,0,0,.56-.86,7,7,0,0,0,.08-1.4,2.27,2.27,0,0,1-1.79.84,2.42,2.42,0,0,1-2.06-1,3.69,3.69,0,0,1-.74-2.31,4.34,4.34,0,0,1,.34-1.7,2.62,2.62,0,0,1,1-1.21,2.59,2.59,0,0,1,1.5-.43,2.3,2.3,0,0,1,1.88.93v-.78h1v5.59a5.4,5.4,0,0,1-.31,2.14,2.23,2.23,0,0,1-1,1,3.29,3.29,0,0,1-1.64.37,3.09,3.09,0,0,1-1.87-.52A1.79,1.79,0,0,1,1088.71,815.86Zm.91-3.89a2.79,2.79,0,0,0,.51,1.86,1.6,1.6,0,0,0,1.26.59,1.62,1.62,0,0,0,1.27-.59,2.69,2.69,0,0,0,.51-1.82,2.66,2.66,0,0,0-.52-1.79,1.65,1.65,0,0,0-1.27-.6,1.61,1.61,0,0,0-1.25.59A2.64,2.64,0,0,0,1089.62,812Zm10.74,1.27,1.14.14a2.73,2.73,0,0,1-1,1.54,3,3,0,0,1-1.85.55,3,3,0,0,1-2.25-.87,3.45,3.45,0,0,1-.83-2.46,3.58,3.58,0,0,1,.84-2.53,2.85,2.85,0,0,1,2.18-.9,2.75,2.75,0,0,1,2.12.88,3.51,3.51,0,0,1,.82,2.49v.29h-4.83a2.55,2.55,0,0,0,.61,1.63,1.78,1.78,0,0,0,1.35.57,1.71,1.71,0,0,0,1-.32A2.09,2.09,0,0,0,1100.36,813.24Zm-3.59-1.77h3.61a2.21,2.21,0,0,0-.42-1.23,1.68,1.68,0,0,0-1.36-.63,1.75,1.75,0,0,0-1.27.51A2,2,0,0,0,1096.77,811.47Z"/><path d="M1109.66,815.32v-2.13h-3.87v-1l4.07-5.78h.9v5.78h1.2v1h-1.2v2.13Zm0-3.14v-4l-2.79,4Z"/><g class="cls-4"><image width="468" height="367" transform="translate(52.72 731.59) scale(0.24 0.24)" xlink:href="Plan%20de%20travail1.png"/></g><g class="cls-5"><line class="cls-6" x1="34.02" y1="722.62" x2="1156.54" y2="722.62"/><path d="M296.64,305.33V278.54h8.09l4.86,18.27,4.81-18.27h8.11v26.79h-5V284.24l-5.31,21.09H307l-5.3-21.09v21.09Zm31.25,0V278.54h19.86v4.53H333.3V289h13.44v4.51H333.3v7.29h15v4.52Zm24.94,0V278.54h11.38a19.55,19.55,0,0,1,6.24.72,6.16,6.16,0,0,1,3.12,2.57,7.8,7.8,0,0,1,1.16,4.22,7.16,7.16,0,0,1-1.77,5,8.5,8.5,0,0,1-5.3,2.47,13,13,0,0,1,2.9,2.25,31,31,0,0,1,3.08,4.35l3.27,5.23h-6.47l-3.91-5.83a37.36,37.36,0,0,0-2.85-3.94,4.1,4.1,0,0,0-1.63-1.11,8.57,8.57,0,0,0-2.72-.31h-1.09v11.19Zm5.41-15.46h4a20.65,20.65,0,0,0,4.86-.33,2.93,2.93,0,0,0,1.51-1.13,3.47,3.47,0,0,0,.55-2,3.25,3.25,0,0,0-.72-2.19,3.35,3.35,0,0,0-2-1c-.44-.06-1.75-.09-3.94-.09h-4.22Zm38.81,5.61,5.24,1.66a11.71,11.71,0,0,1-4,6.51,12.61,12.61,0,0,1-15.88-1.51q-3.43-3.64-3.44-10,0-6.69,3.45-10.39a11.88,11.88,0,0,1,9.08-3.7,11.14,11.14,0,0,1,8,2.91,10.54,10.54,0,0,1,2.74,4.93l-5.35,1.28a5.54,5.54,0,0,0-5.65-4.49,6.1,6.1,0,0,0-4.83,2.13q-1.86,2.15-1.86,6.93,0,5.09,1.83,7.23a5.93,5.93,0,0,0,4.75,2.16,5.44,5.44,0,0,0,3.71-1.37A7.91,7.91,0,0,0,397.05,295.48Zm9.8,9.85V278.54h5.41v26.79Zm20.84,0V278.54h8.68a32.13,32.13,0,0,1,6.43.4,7,7,0,0,1,3.85,2.63,8.26,8.26,0,0,1,1.56,5.21,8.69,8.69,0,0,1-.9,4.15,7.27,7.27,0,0,1-2.27,2.64,7.91,7.91,0,0,1-2.81,1.27,31.47,31.47,0,0,1-5.61.38H433.1v10.11Zm5.41-22.26v7.6h3a14,14,0,0,0,4.27-.42,3.54,3.54,0,0,0,1.69-1.31,3.6,3.6,0,0,0,.62-2.09,3.49,3.49,0,0,0-.86-2.41,3.73,3.73,0,0,0-2.18-1.18,24.5,24.5,0,0,0-3.89-.19Zm18.41,9a17,17,0,0,1,1.23-6.87,12.54,12.54,0,0,1,2.49-3.67,10.56,10.56,0,0,1,3.46-2.42,14.86,14.86,0,0,1,5.78-1.06,12.58,12.58,0,0,1,9.47,3.68q3.56,3.67,3.55,10.21T474,302.12a14.1,14.1,0,0,1-18.93,0Q451.52,298.5,451.51,292.1Zm5.58-.18q0,4.54,2.1,6.89a7.22,7.22,0,0,0,10.64,0q2.07-2.32,2.07-7t-2-6.87a7.49,7.49,0,0,0-10.75,0C457.77,286.53,457.09,288.83,457.09,291.92Zm24.53-13.38H487v14.51a30.63,30.63,0,0,0,.2,4.47,4.31,4.31,0,0,0,1.65,2.64,5.73,5.73,0,0,0,3.58,1,5.44,5.44,0,0,0,3.47-.94,3.73,3.73,0,0,0,1.4-2.31,29.89,29.89,0,0,0,.24-4.55V278.54H503v14.07a36.17,36.17,0,0,1-.44,6.81,7.53,7.53,0,0,1-1.62,3.37,8.1,8.1,0,0,1-3.15,2.18,13.72,13.72,0,0,1-5.15.81,14.86,14.86,0,0,1-5.82-.88,8.21,8.21,0,0,1-3.13-2.31,7.29,7.29,0,0,1-1.52-3,32.8,32.8,0,0,1-.53-6.8Zm27.16,26.79V278.54h11.38a19.55,19.55,0,0,1,6.24.72,6.14,6.14,0,0,1,3.11,2.57,7.72,7.72,0,0,1,1.17,4.22,7.16,7.16,0,0,1-1.77,5,8.5,8.5,0,0,1-5.3,2.47,13,13,0,0,1,2.9,2.25,31,31,0,0,1,3.08,4.35l3.27,5.23h-6.47l-3.91-5.83a37.36,37.36,0,0,0-2.85-3.94,4.1,4.1,0,0,0-1.63-1.11,8.57,8.57,0,0,0-2.72-.31h-1.09v11.19Zm5.41-15.46h4a20.65,20.65,0,0,0,4.86-.33,2.93,2.93,0,0,0,1.51-1.13,3.47,3.47,0,0,0,.55-2,3.25,3.25,0,0,0-.72-2.19,3.35,3.35,0,0,0-2-1c-.44-.06-1.75-.09-3.94-.09h-4.22ZM553,305.33l-9.57-26.79h5.86l6.78,19.82,6.56-19.82h5.74l-9.59,26.79Zm17-13.23a17,17,0,0,1,1.23-6.87,12.54,12.54,0,0,1,2.49-3.67,10.46,10.46,0,0,1,3.46-2.42,14.86,14.86,0,0,1,5.78-1.06,12.58,12.58,0,0,1,9.47,3.68Q596,285.43,596,292t-3.52,10.15a14.1,14.1,0,0,1-18.93,0Q570,298.5,570,292.1Zm5.58-.18q0,4.54,2.1,6.89a7.22,7.22,0,0,0,10.64,0q2.07-2.32,2.07-7t-2-6.87a7.49,7.49,0,0,0-10.75,0C576.28,286.53,575.6,288.83,575.6,291.92Zm30.6,13.41V283.07h-8v-4.53h21.28v4.53H611.6v22.26Zm16.78,0V278.54h11.39a19.44,19.44,0,0,1,6.23.72,6.16,6.16,0,0,1,3.12,2.57,7.72,7.72,0,0,1,1.17,4.22,7.16,7.16,0,0,1-1.77,5,8.5,8.5,0,0,1-5.3,2.47,12.93,12.93,0,0,1,2.89,2.25,30.15,30.15,0,0,1,3.08,4.35l3.27,5.23H640.6l-3.91-5.83a37.36,37.36,0,0,0-2.85-3.94,4.24,4.24,0,0,0-1.63-1.11,8.57,8.57,0,0,0-2.72-.31h-1.1v11.19Zm5.41-15.46h4a20.53,20.53,0,0,0,4.86-.33,3,3,0,0,0,1.52-1.13,3.55,3.55,0,0,0,.55-2,3.2,3.2,0,0,0-.73-2.19,3.35,3.35,0,0,0-2-1c-.44-.06-1.76-.09-3.95-.09h-4.22Zm21.68,15.46V278.54h19.86v4.53H655.47V289h13.45v4.51H655.47v7.29h15v4.52Zm59.41,0H703.6l-2.34-6.09H690.55l-2.21,6.09H682.6L693,278.54h5.72Zm-10-10.6-3.69-9.94-3.62,9.94Zm18.94,10.6V283.07h-8v-4.53h21.28v4.53h-7.93v22.26Zm22.79,0V283.07h-7.94v-4.53h21.28v4.53h-7.93v22.26Zm16.77,0V278.54h19.86v4.53H763.43V289h13.45v4.51H763.43v7.29h15v4.52Zm25,0V278.54h5.26l11,17.89V278.54h5v26.79h-5.43L788,287.86v17.47Zm33.07,0V283.07h-7.94v-4.53h21.28v4.53h-7.93v22.26Zm16.61,0V278.54h5.41v26.79Zm9.41-13.23a17,17,0,0,1,1.22-6.87,12.54,12.54,0,0,1,2.49-3.67,10.5,10.5,0,0,1,3.47-2.42,14.77,14.77,0,0,1,5.77-1.06,12.56,12.56,0,0,1,9.47,3.68q3.56,3.67,3.56,10.21t-3.53,10.15a14.1,14.1,0,0,1-18.93,0Q842.09,298.5,842.09,292.1Zm5.57-.18q0,4.54,2.1,6.89a7.22,7.22,0,0,0,10.64,0q2.07-2.32,2.07-7t-2-6.87a7.5,7.5,0,0,0-10.76,0C848.34,286.53,847.66,288.83,847.66,291.92Zm24.62,13.41V278.54h5.27l11,17.89V278.54h5v26.79h-5.42l-10.8-17.47v17.47Z"/></g><path d="M833.83,775.76a7.1,7.1,0,0,1,.51-2.86,5.12,5.12,0,0,1,1-1.53,4.08,4.08,0,0,1,1.44-1,6,6,0,0,1,2.4-.45,5.24,5.24,0,0,1,3.95,1.53,6.85,6.85,0,0,1,0,8.49,5.88,5.88,0,0,1-7.88,0A5.78,5.78,0,0,1,833.83,775.76Zm2.32-.07a4.19,4.19,0,0,0,.87,2.87,3,3,0,0,0,4.44,0,4.3,4.3,0,0,0,.86-2.91,4.22,4.22,0,0,0-.84-2.87,3.12,3.12,0,0,0-4.48,0A4.18,4.18,0,0,0,836.15,775.69Zm9.26-2.5h1.19v-.61a3.9,3.9,0,0,1,.22-1.52,1.67,1.67,0,0,1,.8-.82,3.08,3.08,0,0,1,1.47-.32,6,6,0,0,1,1.79.28l-.29,1.49a4.3,4.3,0,0,0-1-.12.91.91,0,0,0-.67.21,1.32,1.32,0,0,0-.2.84v.57h1.6v1.68h-1.6v6.4H846.6v-6.4h-1.19Zm5.27,0h1.19v-.61a3.9,3.9,0,0,1,.22-1.52,1.67,1.67,0,0,1,.8-.82,3.08,3.08,0,0,1,1.47-.32,6,6,0,0,1,1.79.28l-.29,1.49a4.3,4.3,0,0,0-1-.12.91.91,0,0,0-.67.21,1.32,1.32,0,0,0-.2.84v.57h1.6v1.68H854v6.4h-2.14v-6.4h-1.19Zm6.21-1.1v-2H859v2Zm0,9.18v-8.08H859v8.08Zm11.34-5.69-2.11.38a1.53,1.53,0,0,0-.49-1,1.45,1.45,0,0,0-1-.32,1.59,1.59,0,0,0-1.28.55,2.81,2.81,0,0,0-.48,1.85,3.28,3.28,0,0,0,.49,2,1.56,1.56,0,0,0,1.3.59,1.44,1.44,0,0,0,1-.34,2.1,2.1,0,0,0,.55-1.19l2.1.35a3.72,3.72,0,0,1-1.25,2.19,3.91,3.91,0,0,1-2.49.74,3.71,3.71,0,0,1-2.83-1.12,5.09,5.09,0,0,1,0-6.22,3.77,3.77,0,0,1,2.86-1.11,3.92,3.92,0,0,1,2.35.63A3.59,3.59,0,0,1,868.23,775.58Zm6.2,3.12,2.13.36a3.43,3.43,0,0,1-1.29,1.78,3.8,3.8,0,0,1-2.22.62,3.6,3.6,0,0,1-3.12-1.38,4.6,4.6,0,0,1-.8-2.79,4.47,4.47,0,0,1,1-3.15,3.47,3.47,0,0,1,2.65-1.13,3.56,3.56,0,0,1,2.85,1.19,5.24,5.24,0,0,1,1,3.65h-5.36a2.14,2.14,0,0,0,.52,1.48,1.63,1.63,0,0,0,1.23.53,1.28,1.28,0,0,0,.85-.28A1.66,1.66,0,0,0,874.43,778.7Zm.12-2.16a2,2,0,0,0-.47-1.41,1.54,1.54,0,0,0-2.27,0,1.94,1.94,0,0,0-.45,1.39ZM890,781.27h-2v-1.18a3.26,3.26,0,0,1-1.17,1,3,3,0,0,1-3.74-.79,5.45,5.45,0,0,1,0-6.25,3.12,3.12,0,0,1,2.44-1.07,3,3,0,0,1,2.35,1.12v-4H890Zm-5.71-4.21a3.69,3.69,0,0,0,.36,1.87,1.62,1.62,0,0,0,2.7.21,3,3,0,0,0,.52-1.88,3.1,3.1,0,0,0-.51-2,1.58,1.58,0,0,0-1.28-.62,1.62,1.62,0,0,0-1.28.61A2.73,2.73,0,0,0,884.32,777.06Zm12.53,1.64,2.13.36a3.43,3.43,0,0,1-1.29,1.78,3.84,3.84,0,0,1-2.22.62,3.6,3.6,0,0,1-3.12-1.38,4.6,4.6,0,0,1-.8-2.79,4.47,4.47,0,0,1,1.05-3.15,3.47,3.47,0,0,1,2.65-1.13,3.57,3.57,0,0,1,2.85,1.19,5.24,5.24,0,0,1,1,3.65h-5.36a2.14,2.14,0,0,0,.52,1.48,1.63,1.63,0,0,0,1.23.53,1.25,1.25,0,0,0,.84-.28A1.61,1.61,0,0,0,896.85,778.7Zm.12-2.16a2,2,0,0,0-.48-1.41,1.44,1.44,0,0,0-1.11-.49,1.47,1.47,0,0,0-1.15.51,1.94,1.94,0,0,0-.45,1.39Zm8.06,4.73V770.11h2.14v11.16Zm4.24-11.13h2.14v1.53a5.65,5.65,0,0,1-.16,1.47,2.16,2.16,0,0,1-.61,1,3,3,0,0,1-1.13.67l-.42-.88a1.77,1.77,0,0,0,.92-.59,1.67,1.67,0,0,0,.29-1h-1Zm9.66,11.13v-1.21a3,3,0,0,1-1.16,1,3.26,3.26,0,0,1-1.52.38,3,3,0,0,1-1.46-.36,2.09,2.09,0,0,1-.94-1,4.48,4.48,0,0,1-.29-1.78v-5.12h2.14v3.71a10.07,10.07,0,0,0,.12,2.09,1.13,1.13,0,0,0,.43.61,1.32,1.32,0,0,0,.79.23,1.67,1.67,0,0,0,1-.3,1.55,1.55,0,0,0,.6-.75,9,9,0,0,0,.16-2.18v-3.41h2.13v8.08Zm6.28,0h-2.14v-8.08h2v1.15a3.33,3.33,0,0,1,.92-1.07,1.62,1.62,0,0,1,.92-.26,2.7,2.7,0,0,1,1.41.4l-.66,1.87a1.84,1.84,0,0,0-1-.35,1.21,1.21,0,0,0-.76.24,1.73,1.73,0,0,0-.49.9,12.59,12.59,0,0,0-.18,2.71Zm3.91,0V770.11h2.14v4a3,3,0,0,1,2.35-1.12,3.12,3.12,0,0,1,2.44,1.07,4.43,4.43,0,0,1,1,3.07,4.67,4.67,0,0,1-1,3.19,3.09,3.09,0,0,1-2.39,1.12,3,3,0,0,1-1.37-.35,3.21,3.21,0,0,1-1.16-1v1.18Zm2.13-4.21a3.47,3.47,0,0,0,.39,1.85,1.71,1.71,0,0,0,1.48.86,1.55,1.55,0,0,0,1.21-.61,3,3,0,0,0,.49-1.91,3.09,3.09,0,0,0-.5-2,1.58,1.58,0,0,0-1.28-.62,1.6,1.6,0,0,0-1.28.6A2.75,2.75,0,0,0,931.25,777.06Zm9.12-1.4-1.94-.35a3,3,0,0,1,1.13-1.74,4.07,4.07,0,0,1,2.37-.56,5,5,0,0,1,2.13.34,2.08,2.08,0,0,1,1,.86,4.38,4.38,0,0,1,.28,1.91l0,2.5a8.59,8.59,0,0,0,.1,1.57,4.43,4.43,0,0,0,.39,1.08h-2.12c0-.14-.12-.35-.2-.63l-.08-.25a3.94,3.94,0,0,1-1.17.8,3.33,3.33,0,0,1-1.33.27,2.76,2.76,0,0,1-2-.68,2.24,2.24,0,0,1-.72-1.71,2.31,2.31,0,0,1,.33-1.23,2.13,2.13,0,0,1,.91-.82,7.68,7.68,0,0,1,1.7-.5,11.2,11.2,0,0,0,2.08-.52v-.21a1.1,1.1,0,0,0-.3-.88,1.81,1.81,0,0,0-1.15-.27,1.52,1.52,0,0,0-.89.23A1.5,1.5,0,0,0,940.37,775.66Zm2.86,1.73c-.27.09-.71.2-1.3.33a4.07,4.07,0,0,0-1.16.37.9.9,0,0,0-.42.76,1,1,0,0,0,.33.77,1.18,1.18,0,0,0,.85.33,1.88,1.88,0,0,0,1.11-.38,1.32,1.32,0,0,0,.51-.71,4.58,4.58,0,0,0,.08-1Zm11.47,3.88h-2.14v-4.12a6.06,6.06,0,0,0-.14-1.7,1.2,1.2,0,0,0-.44-.59,1.22,1.22,0,0,0-.74-.22,1.74,1.74,0,0,0-1,.31,1.51,1.51,0,0,0-.61.8,7,7,0,0,0-.16,1.86v3.66h-2.14v-8.08h2v1.19A3.21,3.21,0,0,1,952,773a3.24,3.24,0,0,1,1.3.25,2.18,2.18,0,0,1,.88.65,2.48,2.48,0,0,1,.42.9,6.64,6.64,0,0,1,.12,1.44Zm2.2-9.18v-2H959v2Zm0,9.18v-8.08H959v8.08Zm3.54-2.3,2.14-.33a1.57,1.57,0,0,0,.56,1,1.91,1.91,0,0,0,1.17.32,2.16,2.16,0,0,0,1.25-.3.69.69,0,0,0,.28-.57.58.58,0,0,0-.15-.41,1.84,1.84,0,0,0-.72-.28,11.74,11.74,0,0,1-3.28-1,2.1,2.1,0,0,1-1-1.82,2.26,2.26,0,0,1,.83-1.77,3.93,3.93,0,0,1,2.58-.71,4.49,4.49,0,0,1,2.46.54,2.73,2.73,0,0,1,1.11,1.6l-2,.37a1.22,1.22,0,0,0-.49-.72,1.82,1.82,0,0,0-1-.26,2.31,2.31,0,0,0-1.21.24.51.51,0,0,0-.24.43.46.46,0,0,0,.21.39,7.87,7.87,0,0,0,2,.6,5.89,5.89,0,0,1,2.39,1,2,2,0,0,1,.67,1.59,2.45,2.45,0,0,1-.93,1.91,4.14,4.14,0,0,1-2.75.8,4.54,4.54,0,0,1-2.61-.67A3,3,0,0,1,960.44,779Zm9.17-5.78h2v1.1A3.17,3.17,0,0,1,974.1,773a2.63,2.63,0,0,1,1.34.32,2.41,2.41,0,0,1,.94,1,3.75,3.75,0,0,1,1.15-1,2.74,2.74,0,0,1,1.32-.32,2.92,2.92,0,0,1,1.5.36,2.2,2.2,0,0,1,.93,1.06,4.79,4.79,0,0,1,.22,1.68v5.16h-2.14v-4.62a3.53,3.53,0,0,0-.22-1.55,1,1,0,0,0-.92-.46,1.39,1.39,0,0,0-.84.28,1.45,1.45,0,0,0-.57.8,5.61,5.61,0,0,0-.18,1.67v3.88h-2.14v-4.43a6.59,6.59,0,0,0-.11-1.52,1,1,0,0,0-.36-.51,1.12,1.12,0,0,0-.65-.17,1.56,1.56,0,0,0-.89.27,1.44,1.44,0,0,0-.56.77,5.44,5.44,0,0,0-.18,1.67v3.92h-2.13Zm18.68,5.51,2.13.36a3.39,3.39,0,0,1-1.3,1.78,3.79,3.79,0,0,1-2.21.62,3.63,3.63,0,0,1-3.13-1.38,4.67,4.67,0,0,1-.79-2.79,4.47,4.47,0,0,1,1-3.15,3.47,3.47,0,0,1,2.65-1.13,3.57,3.57,0,0,1,2.85,1.19,5.29,5.29,0,0,1,1,3.65h-5.36a2.14,2.14,0,0,0,.52,1.48,1.63,1.63,0,0,0,1.23.53,1.25,1.25,0,0,0,.84-.28A1.67,1.67,0,0,0,988.29,778.7Zm.12-2.16a2,2,0,0,0-.48-1.41,1.44,1.44,0,0,0-1.11-.49,1.5,1.5,0,0,0-1.16.51,2,2,0,0,0-.44,1.39Z"/><rect x="995.29" y="776.43" width="15.59" height="1.6"/><path d="M1016.31,781.27V770.11h4.74a8.15,8.15,0,0,1,2.6.3,2.66,2.66,0,0,1,1.3,1.07,3.28,3.28,0,0,1,.49,1.76,3,3,0,0,1-.74,2.08,3.56,3.56,0,0,1-2.21,1,5.18,5.18,0,0,1,1.21.94,13.37,13.37,0,0,1,1.28,1.81l1.36,2.17h-2.69l-1.63-2.42a15.39,15.39,0,0,0-1.19-1.64,1.64,1.64,0,0,0-.68-.47,3.8,3.8,0,0,0-1.13-.12h-.46v4.65Zm2.25-6.44h1.67a8.75,8.75,0,0,0,2-.13,1.23,1.23,0,0,0,.64-.48,1.45,1.45,0,0,0,.22-.83,1.33,1.33,0,0,0-.3-.91,1.37,1.37,0,0,0-.84-.44c-.19,0-.74,0-1.65,0h-1.76Zm11.16-4.72v4.11a3.16,3.16,0,0,1,2.48-1.21,3.19,3.19,0,0,1,1.33.27,2.21,2.21,0,0,1,.89.7,2.52,2.52,0,0,1,.41.95,7.87,7.87,0,0,1,.11,1.6v4.74h-2.14V777a6.43,6.43,0,0,0-.12-1.61,1,1,0,0,0-.43-.54,1.32,1.32,0,0,0-.77-.21,1.78,1.78,0,0,0-1,.26,1.46,1.46,0,0,0-.61.78,4.62,4.62,0,0,0-.2,1.54v4h-2.14V770.11Zm6.92,7a4.41,4.41,0,0,1,.52-2.07,3.64,3.64,0,0,1,1.49-1.52,4.41,4.41,0,0,1,2.15-.52,4,4,0,0,1,3,1.19,4.12,4.12,0,0,1,1.17,3,4.19,4.19,0,0,1-1.18,3,4,4,0,0,1-3,1.21,4.6,4.6,0,0,1-2.12-.51,3.38,3.38,0,0,1-1.54-1.47A4.9,4.9,0,0,1,1036.64,777.12Zm1.59-5,1.6-2.25h2l1.57,2.25h-1.72l-.88-1.13-.82,1.13Zm.6,5.06a2.67,2.67,0,0,0,.57,1.84,1.8,1.8,0,0,0,1.41.64,1.78,1.78,0,0,0,1.4-.64,3.25,3.25,0,0,0,0-3.68,1.78,1.78,0,0,0-1.4-.64,1.8,1.8,0,0,0-1.41.64A2.68,2.68,0,0,0,1038.83,777.23Zm15.2,4h-2.14v-4.12a6.49,6.49,0,0,0-.14-1.7,1.16,1.16,0,0,0-.45-.59,1.2,1.2,0,0,0-.74-.22,1.71,1.71,0,0,0-1,.31,1.51,1.51,0,0,0-.61.8,7,7,0,0,0-.16,1.86v3.66h-2.14v-8.08h2v1.19a3.24,3.24,0,0,1,2.67-1.37,3.19,3.19,0,0,1,1.29.25,2.22,2.22,0,0,1,.89.65,2.48,2.48,0,0,1,.42.9,6.64,6.64,0,0,1,.12,1.44Zm6.87-2.57,2.13.36a3.5,3.5,0,0,1-1.3,1.78,3.8,3.8,0,0,1-2.22.62,3.6,3.6,0,0,1-3.12-1.38,4.67,4.67,0,0,1-.8-2.79,4.47,4.47,0,0,1,1.05-3.15,3.49,3.49,0,0,1,2.66-1.13,3.55,3.55,0,0,1,2.84,1.19,5.24,5.24,0,0,1,1,3.65h-5.36a2.19,2.19,0,0,0,.52,1.48,1.63,1.63,0,0,0,1.23.53,1.28,1.28,0,0,0,.85-.28A1.67,1.67,0,0,0,1060.9,778.7Zm.12-2.16a2.09,2.09,0,0,0-.48-1.41,1.54,1.54,0,0,0-2.27,0,1.94,1.94,0,0,0-.45,1.39Z"/><rect x="1064.56" y="776.16" width="4.2" height="2.14"/><path d="M1069.63,775.76a7.1,7.1,0,0,1,.51-2.86,5.31,5.31,0,0,1,1-1.53,4.26,4.26,0,0,1,1.44-1,6.06,6.06,0,0,1,2.41-.45,5.26,5.26,0,0,1,4,1.53,6.85,6.85,0,0,1,0,8.49,5.19,5.19,0,0,1-3.93,1.52,5.26,5.26,0,0,1-4-1.51A5.78,5.78,0,0,1,1069.63,775.76Zm2.32-.07a4.19,4.19,0,0,0,.88,2.87,3,3,0,0,0,4.43,0,5.31,5.31,0,0,0,0-5.78,3.12,3.12,0,0,0-4.48,0A4.18,4.18,0,0,0,1072,775.69Zm15.53,5.58v-1.21a3,3,0,0,1-1.16,1,3.26,3.26,0,0,1-1.52.38,2.93,2.93,0,0,1-1.46-.36,2,2,0,0,1-.94-1,4.48,4.48,0,0,1-.29-1.78v-5.12h2.14v3.71a10.07,10.07,0,0,0,.12,2.09,1.13,1.13,0,0,0,.43.61,1.32,1.32,0,0,0,.79.23,1.69,1.69,0,0,0,1-.3,1.55,1.55,0,0,0,.6-.75,9,9,0,0,0,.16-2.18v-3.41h2.13v8.08Zm8.91-2.57,2.14.36a3.5,3.5,0,0,1-1.3,1.78,3.8,3.8,0,0,1-2.22.62,3.6,3.6,0,0,1-3.12-1.38,4.67,4.67,0,0,1-.8-2.79,4.47,4.47,0,0,1,1.05-3.15,3.49,3.49,0,0,1,2.66-1.13,3.55,3.55,0,0,1,2.84,1.19,5.24,5.24,0,0,1,1,3.65h-5.36a2.19,2.19,0,0,0,.52,1.48,1.63,1.63,0,0,0,1.23.53,1.28,1.28,0,0,0,.85-.28A1.6,1.6,0,0,0,1096.39,778.7Zm.13-2.16a2.09,2.09,0,0,0-.48-1.41,1.54,1.54,0,0,0-2.27,0,1.94,1.94,0,0,0-.45,1.39Zm3,2.43,2.15-.33a1.57,1.57,0,0,0,.56,1,1.91,1.91,0,0,0,1.17.32,2.16,2.16,0,0,0,1.25-.3.69.69,0,0,0,.28-.57.58.58,0,0,0-.15-.41,1.84,1.84,0,0,0-.72-.28,11.74,11.74,0,0,1-3.28-1,2.1,2.1,0,0,1-1-1.82,2.26,2.26,0,0,1,.83-1.77,3.9,3.9,0,0,1,2.57-.71,4.5,4.5,0,0,1,2.47.54,2.73,2.73,0,0,1,1.11,1.6l-2,.37a1.18,1.18,0,0,0-.49-.72,1.76,1.76,0,0,0-1-.26,2.31,2.31,0,0,0-1.21.24.51.51,0,0,0-.24.43.46.46,0,0,0,.21.39,7.72,7.72,0,0,0,2,.6,6,6,0,0,1,2.39,1,2,2,0,0,1,.67,1.59,2.45,2.45,0,0,1-.93,1.91,4.14,4.14,0,0,1-2.75.8,4.6,4.6,0,0,1-2.62-.67A3.14,3.14,0,0,1,1099.53,779Zm13-5.78v1.7h-1.46v3.26a8,8,0,0,0,0,1.16.47.47,0,0,0,.19.27.61.61,0,0,0,.36.1,2.89,2.89,0,0,0,.86-.2l.19,1.66a4.35,4.35,0,0,1-1.69.32,2.69,2.69,0,0,1-1-.2,1.51,1.51,0,0,1-.68-.5,2.12,2.12,0,0,1-.3-.83,9.71,9.71,0,0,1-.07-1.51v-3.53h-1v-1.7h1v-1.61l2.15-1.25v2.86Z"/><path d="M928,748.41h4.11a7.73,7.73,0,0,1,2.13.22,3.75,3.75,0,0,1,1.68,1,5,5,0,0,1,1.07,1.81,8.33,8.33,0,0,1,.36,2.64,7.24,7.24,0,0,1-.34,2.37,4.94,4.94,0,0,1-1.2,2,4.07,4.07,0,0,1-1.58.89,7.1,7.1,0,0,1-2,.23H928Zm2.25,1.89v7.39h1.68a6.28,6.28,0,0,0,1.36-.1,2.13,2.13,0,0,0,.91-.47,2.37,2.37,0,0,0,.59-1.08,7,7,0,0,0,.23-2,6.44,6.44,0,0,0-.23-2,2.49,2.49,0,0,0-.64-1.08,2.09,2.09,0,0,0-1-.52,10.17,10.17,0,0,0-1.85-.11ZM944,757l2.13.36a3.47,3.47,0,0,1-1.29,1.78,3.84,3.84,0,0,1-2.22.61,3.6,3.6,0,0,1-3.12-1.37,4.6,4.6,0,0,1-.8-2.79,4.47,4.47,0,0,1,1.05-3.15,3.44,3.44,0,0,1,2.65-1.14,3.57,3.57,0,0,1,2.85,1.2,5.24,5.24,0,0,1,1,3.65h-5.36a2.16,2.16,0,0,0,.52,1.48,1.63,1.63,0,0,0,1.23.53,1.31,1.31,0,0,0,.84-.28A1.61,1.61,0,0,0,944,757Zm.12-2.16a2,2,0,0,0-.48-1.42,1.54,1.54,0,0,0-2.26,0,1.93,1.93,0,0,0-.45,1.39Zm-2.73-4.34,1-2.28h2.4l-2.09,2.28Zm6.44,1h2v1.19a2.94,2.94,0,0,1,1.05-1,2.84,2.84,0,0,1,1.47-.39,3.08,3.08,0,0,1,2.39,1.11,4.47,4.47,0,0,1,1,3.07,4.61,4.61,0,0,1-1,3.15,3.08,3.08,0,0,1-2.4,1.12,2.68,2.68,0,0,1-1.21-.26,4.06,4.06,0,0,1-1.15-.92v4.08h-2.14Zm2.12,3.9a3.14,3.14,0,0,0,.54,2,1.67,1.67,0,0,0,1.32.65,1.54,1.54,0,0,0,1.24-.6,3.08,3.08,0,0,0,.49-2,2.92,2.92,0,0,0-.51-1.89,1.58,1.58,0,0,0-1.26-.62,1.65,1.65,0,0,0-1.3.61A2.66,2.66,0,0,0,949.93,755.39ZM959,754l-1.95-.35a3,3,0,0,1,1.13-1.73,4.1,4.1,0,0,1,2.38-.57,5.23,5.23,0,0,1,2.13.34,2.21,2.21,0,0,1,1,.86,4.43,4.43,0,0,1,.29,1.92l0,2.5a8.59,8.59,0,0,0,.1,1.57,5,5,0,0,0,.38,1.08h-2.11a5.67,5.67,0,0,1-.21-.63c0-.13-.06-.21-.07-.25a4,4,0,0,1-1.18.8,3.29,3.29,0,0,1-1.33.26,2.77,2.77,0,0,1-2-.67,2.26,2.26,0,0,1-.72-1.72,2.3,2.3,0,0,1,.33-1.22,2.1,2.1,0,0,1,.92-.82,7,7,0,0,1,1.7-.5,12.35,12.35,0,0,0,2.08-.52v-.22a1.1,1.1,0,0,0-.31-.88,1.84,1.84,0,0,0-1.15-.26,1.54,1.54,0,0,0-.89.23A1.56,1.56,0,0,0,959,754Zm2.86,1.74c-.28.09-.71.2-1.3.33a3.75,3.75,0,0,0-1.17.37.89.89,0,0,0-.42.75,1,1,0,0,0,.34.78,1.16,1.16,0,0,0,.85.33,1.86,1.86,0,0,0,1.1-.38,1.36,1.36,0,0,0,.51-.71,3.91,3.91,0,0,0,.09-1Zm6.16,3.88H965.9v-8.08h2v1.15a3.52,3.52,0,0,1,.91-1.08,1.74,1.74,0,0,1,.93-.26,2.71,2.71,0,0,1,1.41.41l-.66,1.86a2,2,0,0,0-1-.35,1.22,1.22,0,0,0-.76.25,1.69,1.69,0,0,0-.49.9,12.59,12.59,0,0,0-.18,2.71Zm7.69-8.08v1.7h-1.46v3.26a7.75,7.75,0,0,0,0,1.15.47.47,0,0,0,.19.27.55.55,0,0,0,.36.11,2.89,2.89,0,0,0,.86-.2l.19,1.66a4.32,4.32,0,0,1-1.69.31,2.69,2.69,0,0,1-1.05-.19,1.65,1.65,0,0,1-.68-.5,2.17,2.17,0,0,1-.3-.84,11,11,0,0,1-.07-1.5v-3.53h-1v-1.7h1v-1.61l2.15-1.25v2.86ZM982,757l2.13.36a3.54,3.54,0,0,1-1.3,1.78,3.8,3.8,0,0,1-2.22.61,3.61,3.61,0,0,1-3.12-1.37,4.67,4.67,0,0,1-.8-2.79,4.47,4.47,0,0,1,1.05-3.15,3.46,3.46,0,0,1,2.66-1.14,3.56,3.56,0,0,1,2.84,1.2,5.24,5.24,0,0,1,1,3.65h-5.36a2.21,2.21,0,0,0,.52,1.48,1.63,1.63,0,0,0,1.23.53,1.34,1.34,0,0,0,.85-.28A1.67,1.67,0,0,0,982,757Zm.12-2.16a2.14,2.14,0,0,0-.48-1.42,1.55,1.55,0,0,0-2.27,0,2,2,0,0,0-.45,1.39Zm3.61-3.35h2v1.1a3.18,3.18,0,0,1,2.52-1.29,2.75,2.75,0,0,1,1.35.32,2.49,2.49,0,0,1,.93,1,3.94,3.94,0,0,1,1.15-1,2.89,2.89,0,0,1,1.32-.32,2.94,2.94,0,0,1,1.51.37,2.18,2.18,0,0,1,.92,1.06,4.51,4.51,0,0,1,.22,1.67v5.17h-2.14V755a3.38,3.38,0,0,0-.22-1.55,1,1,0,0,0-.91-.46,1.44,1.44,0,0,0-.85.28,1.55,1.55,0,0,0-.57.8,5.69,5.69,0,0,0-.17,1.67v3.88H990.6v-4.43a5.82,5.82,0,0,0-.12-1.52.92.92,0,0,0-.35-.51,1.14,1.14,0,0,0-.65-.17,1.53,1.53,0,0,0-.89.27,1.41,1.41,0,0,0-.57.77,5.83,5.83,0,0,0-.17,1.66v3.93h-2.14Zm18.67,5.51,2.13.36a3.43,3.43,0,0,1-1.3,1.78,3.8,3.8,0,0,1-2.22.61,3.62,3.62,0,0,1-3.12-1.37,4.67,4.67,0,0,1-.8-2.79,4.47,4.47,0,0,1,1-3.15,3.48,3.48,0,0,1,2.66-1.14,3.59,3.59,0,0,1,2.85,1.2,5.29,5.29,0,0,1,1,3.65h-5.36a2.15,2.15,0,0,0,.51,1.48,1.65,1.65,0,0,0,1.24.53,1.33,1.33,0,0,0,.84-.28A1.67,1.67,0,0,0,1004.38,757Zm.12-2.16a2,2,0,0,0-.48-1.42,1.46,1.46,0,0,0-1.11-.48,1.5,1.5,0,0,0-1.16.51,2,2,0,0,0-.45,1.39Zm11.13,4.73h-2.14v-4.12a6.43,6.43,0,0,0-.14-1.7,1.28,1.28,0,0,0-.44-.6,1.32,1.32,0,0,0-.75-.21,1.64,1.64,0,0,0-1,.31,1.51,1.51,0,0,0-.61.8,7,7,0,0,0-.16,1.86v3.66h-2.14v-8.08h2v1.19a3.28,3.28,0,0,1,4-1.12,2.22,2.22,0,0,1,.89.65,2.33,2.33,0,0,1,.42.9,6.52,6.52,0,0,1,.12,1.44Zm5.89-8.08v1.7h-1.46v3.26a7.75,7.75,0,0,0,0,1.15.47.47,0,0,0,.19.27.55.55,0,0,0,.36.11,2.89,2.89,0,0,0,.86-.2l.19,1.66a4.32,4.32,0,0,1-1.69.31,2.69,2.69,0,0,1-1-.19,1.59,1.59,0,0,1-.68-.5,2.17,2.17,0,0,1-.3-.84,11,11,0,0,1-.07-1.5v-3.53h-1v-1.7h1v-1.61l2.15-1.25v2.86Zm13.26,8.08h-2v-1.19a3.2,3.2,0,0,1-1.17,1,3.06,3.06,0,0,1-3.75-.79,4.57,4.57,0,0,1-1-3.13,4.51,4.51,0,0,1,1-3.13,3.15,3.15,0,0,1,2.44-1.07,3,3,0,0,1,2.35,1.13v-4h2.13Zm-5.7-4.22a3.72,3.72,0,0,0,.35,1.88,1.62,1.62,0,0,0,1.45.83,1.58,1.58,0,0,0,1.26-.62,3,3,0,0,0,.51-1.88,3.16,3.16,0,0,0-.5-2,1.65,1.65,0,0,0-2.56,0A2.72,2.72,0,0,0,1029.08,755.35Zm13.15,4.22v-1.21a3.1,3.1,0,0,1-1.16,1,3.22,3.22,0,0,1-1.52.37,3,3,0,0,1-1.46-.35,2.19,2.19,0,0,1-.94-1,4.56,4.56,0,0,1-.28-1.79v-5.11H1039v3.71a10.07,10.07,0,0,0,.12,2.09,1.13,1.13,0,0,0,.43.61,1.32,1.32,0,0,0,.79.23,1.64,1.64,0,0,0,1-.31,1.51,1.51,0,0,0,.59-.74,8.48,8.48,0,0,0,.16-2.18v-3.41h2.14v8.08Zm12.22-8.08v1.7H1053v3.26a7.75,7.75,0,0,0,0,1.15.47.47,0,0,0,.19.27.55.55,0,0,0,.36.11,3,3,0,0,0,.86-.2l.18,1.66a4.28,4.28,0,0,1-1.69.31,2.68,2.68,0,0,1-1-.19,1.53,1.53,0,0,1-.68-.5,1.89,1.89,0,0,1-.3-.84,9.56,9.56,0,0,1-.07-1.5v-3.53h-1v-1.7h1v-1.61l2.15-1.25v2.86Zm6.24,5.51,2.13.36a3.43,3.43,0,0,1-1.3,1.78,3.79,3.79,0,0,1-2.21.61,3.63,3.63,0,0,1-3.13-1.37,4.67,4.67,0,0,1-.79-2.79,4.47,4.47,0,0,1,1-3.15,3.44,3.44,0,0,1,2.65-1.14,3.58,3.58,0,0,1,2.85,1.2,5.24,5.24,0,0,1,1,3.65h-5.36a2.16,2.16,0,0,0,.52,1.48,1.63,1.63,0,0,0,1.23.53,1.31,1.31,0,0,0,.84-.28A1.67,1.67,0,0,0,1060.69,757Zm.12-2.16a2,2,0,0,0-.48-1.42,1.46,1.46,0,0,0-1.11-.48,1.51,1.51,0,0,0-1.16.51,2,2,0,0,0-.44,1.39Zm5.82,4.73h-2.14v-8.08h2v1.15a3.52,3.52,0,0,1,.92-1.08,1.7,1.7,0,0,1,.92-.26,2.71,2.71,0,0,1,1.41.41l-.66,1.86a1.92,1.92,0,0,0-1-.35,1.22,1.22,0,0,0-.76.25,1.69,1.69,0,0,0-.49.9,12.59,12.59,0,0,0-.18,2.71Zm6,0h-2.14v-8.08h2v1.15a3.52,3.52,0,0,1,.92-1.08,1.71,1.71,0,0,1,.93-.26,2.7,2.7,0,0,1,1.4.41l-.66,1.86a1.89,1.89,0,0,0-1-.35,1.2,1.2,0,0,0-.76.25,1.69,1.69,0,0,0-.5.9,13.57,13.57,0,0,0-.17,2.71Zm4-9.18v-2h2.14v2Zm0,9.18v-8.08h2.14v8.08Zm8-8.08v1.7h-1.47v3.26a7.07,7.07,0,0,0,0,1.15.43.43,0,0,0,.19.27.55.55,0,0,0,.36.11,3,3,0,0,0,.86-.2l.18,1.66a4.32,4.32,0,0,1-1.69.31,2.68,2.68,0,0,1-1-.19,1.53,1.53,0,0,1-.68-.5,1.89,1.89,0,0,1-.3-.84,9.56,9.56,0,0,1-.07-1.5v-3.53h-1v-1.7h1v-1.61l2.14-1.25v2.86Zm1.06,3.93a4.43,4.43,0,0,1,.53-2.07,3.64,3.64,0,0,1,1.49-1.52,4.42,4.42,0,0,1,2.15-.53,4,4,0,0,1,3,1.2,4.07,4.07,0,0,1,1.18,3,4.18,4.18,0,0,1-1.19,3,4,4,0,0,1-3,1.2,4.65,4.65,0,0,1-2.12-.5,3.4,3.4,0,0,1-1.53-1.47A4.93,4.93,0,0,1,1085.71,755.42Zm2.2.11a2.67,2.67,0,0,0,.57,1.84,1.86,1.86,0,0,0,2.81,0,2.69,2.69,0,0,0,.57-1.86,2.63,2.63,0,0,0-.57-1.82,1.86,1.86,0,0,0-2.81,0A2.67,2.67,0,0,0,1087.91,755.53Zm7.84-5.14v-2h2.14v2Zm0,9.18v-8.08h2.14v8.08Zm6.34,0H1100v-8.08h2v1.15a3.52,3.52,0,0,1,.92-1.08,1.71,1.71,0,0,1,.93-.26,2.7,2.7,0,0,1,1.4.41l-.66,1.86a1.89,1.89,0,0,0-1-.35,1.25,1.25,0,0,0-.77.25,1.76,1.76,0,0,0-.49.9,12.82,12.82,0,0,0-.17,2.71Zm8.66-2.57,2.13.36a3.47,3.47,0,0,1-1.29,1.78,3.82,3.82,0,0,1-2.22.61,3.6,3.6,0,0,1-3.12-1.37,4.6,4.6,0,0,1-.8-2.79,4.47,4.47,0,0,1,1-3.15,3.44,3.44,0,0,1,2.65-1.14,3.57,3.57,0,0,1,2.85,1.2,5.24,5.24,0,0,1,1,3.65h-5.36a2.16,2.16,0,0,0,.52,1.48,1.63,1.63,0,0,0,1.23.53,1.31,1.31,0,0,0,.84-.28A1.61,1.61,0,0,0,1110.75,757Zm.12-2.16a2,2,0,0,0-.48-1.42,1.54,1.54,0,0,0-2.26,0,1.93,1.93,0,0,0-.45,1.39Z"/><g class="cls-7"><g class="cls-8"><g class="cls-9"><rect class="cls-10" x="155.4" y="428.31" width="194.35" height="129.96" rx="9.62"/></g></g><g class="cls-8"><g class="cls-11"><rect class="cls-12" x="837.42" y="469.72" width="194.35" height="129.96" rx="9.62"/></g></g><g class="cls-8"><g class="cls-13"><path class="cls-12" d="M135.64,201.77a6.9,6.9,0,0,0-6.8,7v80.31a6.89,6.89,0,0,0,6.8,7H259.33a6.89,6.89,0,0,0,6.8-7V208.75a6.9,6.9,0,0,0-6.8-7Z"/></g></g><g class="cls-8"><g class="cls-14"><rect class="cls-10" x="739.59" y="109.84" width="192.35" height="129.96" rx="9.62"/></g></g><g class="cls-8"><g class="cls-15"><rect class="cls-16" x="243.78" y="95.19" width="200.63" height="144.92" rx="9.62"/></g></g><g class="cls-8"><g class="cls-17"><rect class="cls-16" x="1010.51" y="420.04" width="102.21" height="71.38" rx="9.62"/></g></g><g class="cls-8"><g class="cls-18"><rect class="cls-19" x="72.62" y="389.98" width="102.21" height="64.07" rx="9.62"/></g></g><g class="cls-8"><g class="cls-20"><rect class="cls-19" x="903.29" y="219.06" width="244.29" height="135.06" rx="9.62"/></g></g></g><path class="cls-3" d="M242.75,508.83H236v-6.49h6.77Z"/><path class="cls-3" d="M254,508.83h-6.78v-6.49H254Z"/><path class="cls-3" d="M265.32,508.83h-6.77v-6.49h6.77Z"/><path class="cls-3" d="M120.7,427.06a5.52,5.52,0,0,1,2.54-4.55l2-1.55a5.06,5.06,0,0,0,2.37-4.31c0-2-1.3-3.25-3.48-3.25-2.38,0-3.88,1.35-3.88,3.76a6.68,6.68,0,0,0,.24,2l-6.1-.51a10.51,10.51,0,0,1-.28-2.3c0-4.59,3.76-7.68,10.06-7.68s9.94,2.69,9.94,7.33a9.07,9.07,0,0,1-3.73,7.08l-1.82,1.51a3.68,3.68,0,0,0-1.7,3.24V429H120.7Zm-.27,4.32h6.81v6.06h-6.81Z"/><path class="cls-3" d="M336.21,183.16h-6.78v-6.49h6.78Z"/><path class="cls-3" d="M347.49,183.16h-6.77v-6.49h6.77Z"/><path class="cls-3" d="M358.78,183.16H352v-6.49h6.77Z"/><rect class="cls-3" x="191.15" y="248.58" width="12.95" height="5.35"/><path class="cls-3" d="M825.66,161.62h7.21l-1.07,19.53h-5.07Zm7.05,28.71h-6.89v-6.06h6.89Z"/><path class="cls-3" d="M838.73,161.62h7.21l-1.07,19.53H839.8Zm7,28.71h-6.89v-6.06h6.89Z"/><path class="cls-3" d="M1017.56,302.08h-6.77v-6.49h6.77Z"/><path class="cls-3" d="M1028.85,302.08h-6.77v-6.49h6.77Z"/><path class="cls-3" d="M1040.14,302.08h-6.78v-6.49h6.78Z"/><path class="cls-3" d="M926.72,550.18H920v-6.5h6.77Z"/><path class="cls-3" d="M938,550.18h-6.78v-6.5H938Z"/><path class="cls-3" d="M949.29,550.18h-6.77v-6.5h6.77Z"/><path class="cls-3" d="M1063.7,455.14l4,3.64-3.73,2.73-2.25-4.79-2.3,4.79-3.72-2.73,4-3.64-5.35-.75,1.47-4.4,4.59,2.66-1-5.23H1064l-1,5.23,4.64-2.66,1.46,4.4Z"/><rect class="cls-3" x="926.86" y="796.53" width="243.85" height="28.35"/><path d="M322.22,367.16h8.12l4.58,15.23a17.87,17.87,0,0,1,.6,3h.07a18.51,18.51,0,0,1,.63-3.08l4.37-15.16h8.23V392h-5.39V375.07a24,24,0,0,1,.14-2.8h-.11a14.29,14.29,0,0,1-.52,2.42l-5,17.32h-5l-5.21-17.32a11.45,11.45,0,0,1-.53-2.38h-.1c.07.84.14,1.78.14,2.76V392h-5Z"/><path d="M371.25,387.64V392H354V367.16h17v4.38h-11.1v5.6h10.5v4.34h-10.5v6.16Z"/><path d="M385,382.49h-3.57V392h-5.92V367.16h10.93c6.3,0,9.1,3.08,9.1,7.63a6.88,6.88,0,0,1-4.87,6.83l5.5,10.39H389.8Zm-3.57-4.06h3.82c2.87,0,4.13-1.4,4.13-3.64s-1.23-3.46-4.13-3.46h-3.82Z"/><path d="M397.64,379.62c0-7.84,4.62-13.05,12.18-13.05,6.34,0,10.33,3.5,11,8.92l-6,1.05c-.35-3.29-2.17-5.21-5.15-5.21-3.78,0-6,3.18-6,8.26s2.24,8.22,6.17,8.22c2.76,0,4.62-1.89,5.11-5.11l6,1.3c-1.19,5.25-5,8.61-11.2,8.61C401.88,392.61,397.64,387.46,397.64,379.62Z"/><path d="M424.38,392V367.16h5.92V392Z"/><path d="M464.07,375c0,4.93-3.46,8-9.06,8h-5v9h-5.91V367.16h11C460.54,367.16,464.07,370.24,464.07,375Zm-6.19.17c0-2.34-1.51-3.71-4.17-3.71H450v7.42h3.68C456.34,378.85,457.88,377.49,457.88,375.14Z"/><path d="M465.85,379.59c0-8,4.8-13,12.25-13s12.26,5,12.26,13-4.8,13-12.26,13S465.85,387.57,465.85,379.59Zm18.41,0c0-5.25-2.27-8.4-6.16-8.4s-6.19,3.15-6.19,8.4,2.31,8.4,6.19,8.4S484.26,384.84,484.26,379.59Z"/><path d="M499.45,367.16v15.93c0,2.9,1.72,4.72,4.62,4.72s4.63-1.82,4.63-4.72V367.16h5.91v16.17c0,5.67-3.92,9.28-10.54,9.28s-10.53-3.61-10.53-9.28V367.16Z"/><path d="M528.85,382.49h-3.57V392h-5.91V367.16h10.92c6.3,0,9.1,3.08,9.1,7.63a6.87,6.87,0,0,1-4.86,6.83L540,392h-6.4Zm-3.57-4.06h3.82c2.87,0,4.13-1.4,4.13-3.64s-1.22-3.46-4.13-3.46h-3.82Z"/><path d="M547.93,367.16h6.3l4.62,16a20.86,20.86,0,0,1,.77,3.43h.14a21.44,21.44,0,0,1,.8-3.43l4.62-16h6.31L563.12,392h-6.83Z"/><path d="M571.69,379.59c0-8,4.8-13,12.25-13s12.25,5,12.25,13-4.79,13-12.25,13S571.69,387.57,571.69,379.59Zm18.41,0c0-5.25-2.27-8.4-6.16-8.4s-6.19,3.15-6.19,8.4,2.31,8.4,6.19,8.4S590.1,384.84,590.1,379.59Z"/><path d="M616.53,371.85h-7.25V392H603.4V371.85h-7.21v-4.69h20.34Z"/><path d="M628.81,382.49h-3.57V392h-5.91V367.16h10.92c6.3,0,9.1,3.08,9.1,7.63a6.88,6.88,0,0,1-4.87,6.83L640,392h-6.41Zm-3.57-4.06h3.82c2.87,0,4.13-1.4,4.13-3.64s-1.23-3.46-4.13-3.46h-3.82Z"/><path d="M660.84,387.64V392H643.58V367.16h17v4.38H649.5v5.6H660v4.34H649.5v6.16Z"/><path d="M687.19,386.2H678L676.13,392h-5.91l9-24.85H686L695,392h-5.95ZM685.83,382l-2.28-6.93a31.24,31.24,0,0,1-.91-3.5h-.07a24.47,24.47,0,0,1-.91,3.5L679.39,382Z"/><path d="M712.88,371.85h-7.24V392h-5.88V371.85h-7.21v-4.69h20.33Z"/><path d="M735.35,371.85h-7.24V392h-5.88V371.85H715v-4.69h20.33Z"/><path d="M755.41,387.64V392H738.15V367.16h17v4.38H744.07v5.6h10.5v4.34h-10.5v6.16Z"/><path d="M759.71,367.16h6.55l8,14.18a25.08,25.08,0,0,1,1.5,3.22h.07c0-1,0-2,0-3.19V367.16h5.42V392h-6.3l-8.26-14.31a22.27,22.27,0,0,1-1.47-3.05h-.07c0,1,0,2.07,0,3.29V392h-5.43Z"/><path d="M804.37,371.85h-7.24V392h-5.88V371.85H784v-4.69h20.33Z"/><path d="M807.17,392V367.16h5.92V392Z"/><path d="M816.69,379.59c0-8,4.8-13,12.25-13s12.25,5,12.25,13-4.79,13-12.25,13S816.69,387.57,816.69,379.59Zm18.41,0c0-5.25-2.27-8.4-6.16-8.4s-6.19,3.15-6.19,8.4,2.31,8.4,6.19,8.4S835.1,384.84,835.1,379.59Z"/><path d="M844.79,367.16h6.55l8,14.18a26.68,26.68,0,0,1,1.51,3.22h.07c0-1,0-2,0-3.19V367.16h5.43V392H860l-8.27-14.31a22.09,22.09,0,0,1-1.46-3.05h-.08c0,1,0,2.07,0,3.29V392h-5.43Z"/><path d="M449.46,481.89c0,3.18-2.28,5.2-5.85,5.2h-4.25v7.47h-1.92V476.82h6.17C447.18,476.82,449.46,478.79,449.46,481.89Zm-2,0c0-2.1-1.55-3.42-4-3.42h-4.08v7h4.08C445.86,485.44,447.41,484.07,447.41,481.89Zm11.23,5.1h-4.08v7.57h-1.92V476.82H459c4.57,0,5.77,2.55,5.77,5.07a4.71,4.71,0,0,1-4.08,4.85l4.63,7.82h-2.2Zm-4.08-1.65h4.25c2.87,0,3.9-1.52,3.9-3.45s-1-3.42-3.9-3.42h-4.25Zm12.73.35c0-5.77,3.15-9.3,8-9.3s8,3.53,8,9.3-3.15,9.3-8,9.3S467.29,491.34,467.29,485.69Zm14,0c0-4.7-2.23-7.65-6-7.65s-6,2.95-6,7.65,2.25,7.65,6,7.65S481.26,490.39,481.26,485.69Zm4.53-.05c0-5.45,2.77-9.25,8-9.25,4.27,0,6.52,2.58,7,6.25l-2,.2c-.38-2.87-2.13-4.77-5.1-4.77-3.72,0-5.85,3-5.85,7.55,0,4.35,2,7.67,5.9,7.67,2.75,0,4.6-1.77,5.15-4.62l1.87.3c-.65,3.34-2.77,6-7,6C488.24,495,485.79,490.79,485.79,485.64Zm32.34,8.92h-2v-8.24h-9.62v8.24h-1.92V476.82h1.92v7.85h9.62v-7.85h2Zm14.73-5.17h-7.65l-1.87,5.17h-2l6.78-17.74H530l6.75,17.74h-2Zm-.6-1.65-2.62-7.27c-.25-.7-.43-1.18-.58-1.73h0a16.42,16.42,0,0,1-.57,1.73l-2.63,7.27Zm7.7,6.82V476.82h1.93v17.74Zm7.18-17.74h2.35l8.22,13.55a16.62,16.62,0,0,1,1,2h0c0-.6-.08-1.22-.08-2.17V476.82h1.75v17.74h-2.35L549.91,481a13.3,13.3,0,0,1-1-2.05h-.05c.05.6.08,1.23.08,2.18v13.44h-1.75ZM564,489.24l2-.27c.27,2.4,1.77,4.42,5.12,4.42,2.3,0,4.27-1,4.27-3.35s-1.4-3-3.59-3.45l-2.63-.52c-2.55-.5-4.37-1.88-4.37-4.75s2.32-4.93,6-4.93c3.47,0,6.12,1.55,6.42,5.15l-2,.38c-.25-2.68-1.74-4-4.52-4-2.4,0-4,1.23-4,3.2,0,1.78,1,2.8,3.15,3.25l2.62.53c2.72.55,4.82,1.75,4.82,4.92,0,2.9-2.17,5.15-6.34,5.15C566.59,495,564.29,492.54,564,489.24ZM593.81,487h-4.07v7.57h-1.93V476.82h6.35c4.57,0,5.77,2.55,5.77,5.07a4.71,4.71,0,0,1-4.07,4.85l4.62,7.82h-2.2Zm-4.07-1.65H594c2.87,0,3.89-1.52,3.89-3.45s-1-3.42-3.89-3.42h-4.25Zm25.62,7.57v1.65h-11V476.82h10.82v1.65h-8.89v6.17h8.47v1.65h-8.47v6.62Zm4.28-16.09H622l8.22,13.55a16.62,16.62,0,0,1,1,2h0c0-.6-.08-1.22-.08-2.17V476.82H633v17.74h-2.35L622.41,481a13.3,13.3,0,0,1-1-2.05h-.05c.05.6.08,1.23.08,2.18v13.44h-1.75Zm18.6,0h5.62c5.1,0,8.42,3.55,8.42,8.85s-3.35,8.89-8.47,8.89h-5.57Zm5.55,16.09c4,0,6.42-3.17,6.42-7.24,0-4.23-2.33-7.2-6.37-7.2h-3.68v14.44Zm23.34,0v1.65h-11V476.82H667v1.65h-8.9v6.17h8.47v1.65h-8.47v6.62ZM680,478.47H670v-1.65h12v1.8l-10.29,14.29h10.64v1.65H669.69v-1.8Zm9.07,6.37v1.65h-7.22v-1.65Zm.33-8h2L696,490.19a20.4,20.4,0,0,1,.72,2.47h.08a20.4,20.4,0,0,1,.72-2.47L702,476.82h2.05l-6.3,17.74h-2.12ZM705,485.69c0-5.77,3.15-9.3,8-9.3s8,3.53,8,9.3-3.15,9.3-8,9.3S705,491.34,705,485.69Zm14,0c0-4.7-2.23-7.65-6-7.65s-6,2.95-6,7.65,2.25,7.65,6,7.65S719,490.39,719,485.69Zm7.45-8.87v11.5c0,3,1.67,4.94,4.7,4.94s4.72-1.92,4.72-4.94v-11.5h1.95v11.62c0,3.92-2.37,6.55-6.67,6.55s-6.63-2.63-6.63-6.55V476.82Zm14.52,12.42,2-.27c.28,2.4,1.78,4.42,5.13,4.42,2.3,0,4.27-1,4.27-3.35s-1.4-3-3.6-3.45l-2.62-.52c-2.55-.5-4.38-1.88-4.38-4.75s2.33-4.93,6-4.93c3.47,0,6.12,1.55,6.42,5.15l-2,.38c-.25-2.68-1.75-4-4.52-4-2.4,0-4,1.23-4,3.2,0,1.78,1,2.8,3.15,3.25l2.63.53c2.72.55,4.82,1.75,4.82,4.92,0,2.9-2.17,5.15-6.35,5.15C743.48,495,741.18,492.54,740.93,489.24Z"/><path d="M433.79,526.82h4.5l4,12.35a9.4,9.4,0,0,1,.45,1.9h.05a8.53,8.53,0,0,1,.45-1.93l4-12.32h4.53v17.74h-2.95V531.62a15.13,15.13,0,0,1,.1-2h-.08a12,12,0,0,1-.45,1.87l-4.2,13h-2.87l-4.25-13a10.07,10.07,0,0,1-.45-1.87h-.1a14.66,14.66,0,0,1,.1,2v12.94h-2.82Zm32.42,13.07h-6.95l-1.6,4.67h-3.27l6.6-17.74h3.49l6.6,17.74h-3.27Zm-.85-2.45-2.07-6a12.36,12.36,0,0,1-.53-1.9h-.05a12.43,12.43,0,0,1-.52,1.9l-2.08,6Zm14.7,0h-3.12v7.12h-3.23V526.82h7.15c4.57,0,6.15,2.4,6.15,5.32a4.83,4.83,0,0,1-3.73,4.88l4.23,7.54H484Zm-3.12-2.4h3.37c2.42,0,3.32-1.22,3.32-2.9s-.9-2.87-3.32-2.87h-3.37Zm13.72-8.22h6.4c5.2,0,8.6,3.55,8.6,8.8s-3.38,8.94-8.65,8.94h-6.35ZM496.91,542c3.45,0,5.37-2.9,5.37-6.42s-1.85-6.28-5.32-6.28h-3.07V542Zm11.88,2.52V526.82H512v17.74Zm12.57-2.35a44.42,44.42,0,0,0,6.08-4.79c2-2,2.67-3.4,2.67-5.38s-1-3.12-2.72-3.12a2.68,2.68,0,0,0-2.83,3,6.93,6.93,0,0,0,.18,1.53l-3.1-.3a5.29,5.29,0,0,1-.18-1.38c0-3.25,2.33-5.35,6.08-5.35s5.84,2,5.84,5.5c0,2.45-1.12,4.58-3.55,6.88a29.76,29.76,0,0,1-4.29,3.22h8v2.57h-12.2ZM548,538.67c0,3.72-2.47,6.27-6.05,6.27-4.3,0-6.67-3.15-6.67-9,0-6.07,2.52-9.6,6.82-9.6,3.18,0,5.15,1.6,5.68,4.58l-3,.55c-.35-1.8-1.25-2.7-2.73-2.7-2.37,0-3.72,2.15-3.8,6.2a4.7,4.7,0,0,1,4.38-2.38C545.88,532.64,548,535,548,538.67Zm-3,.07c0-2.27-1.25-3.72-3.17-3.72-1.68,0-2.93,1.1-3.53,3,.25,2.77,1.6,4.49,3.6,4.49S545,541.07,545,538.74Zm11.78,6.2a10.5,10.5,0,0,1-2.32-.18V542a9.69,9.69,0,0,0,1.9.13c1.52,0,2.67-.62,2.67-2.92V526.82h3.22v12.82C562.23,543.56,559.84,544.94,556.76,544.94Zm18.87-5.05h-6.94l-1.6,4.67h-3.28l6.6-17.74h3.5l6.6,17.74h-3.28Zm-.85-2.45-2.07-6a12.36,12.36,0,0,1-.53-1.9h0a12.43,12.43,0,0,1-.52,1.9l-2.07,6Zm8.36-10.62h3.7l6.67,11.62a13.8,13.8,0,0,1,1.1,2.28h0c0-.65,0-1.35,0-2.3v-11.6h2.92v17.74h-3.62l-6.77-11.67a18.59,18.59,0,0,1-1.08-2.22h0c0,.67,0,1.37,0,2.35v11.54h-2.92Zm16.7,0h3.42l3.8,12.3a20.61,20.61,0,0,1,.62,2.42h.1a16.72,16.72,0,0,1,.6-2.42l3.8-12.3h3.45l-6.07,17.74h-3.67Zm18.07,17.74V526.82h3.23v17.74ZM637.23,542v2.52H625.54V526.82h11.52v2.52h-8.3v4.88h7.87v2.5h-7.87V542Zm10-4.6h-3.12v7.12h-3.22V526.82H648c4.58,0,6.15,2.4,6.15,5.32a4.83,4.83,0,0,1-3.72,4.88l4.22,7.54h-3.55Zm-3.12-2.4h3.37c2.43,0,3.33-1.22,3.33-2.9s-.9-2.87-3.33-2.87h-3.37Zm29.22,4.85h-7l-1.6,4.67h-3.27l6.6-17.74h3.5l6.59,17.74h-3.27Zm-4.8-14.15-2.72-2.82h2.87l2.33,2.82Zm4,11.7-2.07-6a12.36,12.36,0,0,1-.53-1.9h0a12.43,12.43,0,0,1-.52,1.9l-2.08,6Zm15.88-6.07a4.19,4.19,0,0,1-2.93,1h-.8v-2.75h.53a3.67,3.67,0,0,0,3.75-2.82h2.52v17.74h-3.07Zm19.92,8.42c0,3.1-2.62,5.15-6.62,5.15S695,543,695,540a4.44,4.44,0,0,1,3.47-4.63,4.37,4.37,0,0,1-2.9-4.32c0-2.8,2.4-4.68,6-4.68s6,1.75,6,4.45a4,4,0,0,1-2.88,4C707.21,535.82,708.28,537.37,708.28,539.79Zm-3.12,0c0-1.55-.85-2.55-2.93-3.15l-1.5-.45c-1.87.75-2.6,1.77-2.6,3.42,0,1.83,1.43,3,3.55,3S705.16,541.52,705.16,539.77ZM698.58,531c0,1.43.85,2.3,2.85,2.88l.9.25c1.63-.7,2.25-1.55,2.25-3,0-1.63-1.12-2.6-3.05-2.6S698.58,529.49,698.58,531Zm27.12,13.52h-3.22v-7.74h-8v7.74h-3.23V526.82h3.23v7.42h8v-7.42h3.22Zm2.93-5.29,3.08-.35c.07,2.25,1.37,3.57,3.45,3.57a2.74,2.74,0,0,0,3.07-3c0-1.87-1.12-2.9-3.47-2.9h-1v-2.27h.87c2.08,0,3.05-1.08,3.05-2.8a2.48,2.48,0,0,0-2.8-2.65c-1.95,0-3.07,1.3-3.07,3.62l-3-.5c0-3.42,2.4-5.55,6.2-5.55s5.8,1.78,5.8,4.73a4.12,4.12,0,0,1-3.3,4.1c2.48.4,3.83,1.85,3.83,4.32,0,3.35-2.45,5.4-6.3,5.4S728.71,542.74,728.63,539.27Zm14.85-3.6c0-5.78,2.5-9.28,7-9.28s7.07,3.5,7.07,9.28-2.52,9.27-7.07,9.27S743.48,541.42,743.48,535.67Zm11,0c0-4.3-1.35-6.83-4-6.83s-3.92,2.53-3.92,6.83,1.32,6.82,3.92,6.82S754.48,539.94,754.48,535.67Z"/><path class="cls-21" d="M382.81,556.89c0,3.18-2.28,5.2-5.85,5.2h-4.25v7.47h-1.92V551.82H377C380.53,551.82,382.81,553.79,382.81,556.89Zm-2.05,0c0-2.1-1.55-3.42-4-3.42h-4.08v7h4.08C379.21,560.44,380.76,559.07,380.76,556.89Z"/><path class="cls-21" d="M384.81,560.69c0-5.77,3.15-9.3,8-9.3s8,3.53,8,9.3-3.15,9.3-8,9.3S384.81,566.34,384.81,560.69Zm14,0c0-4.7-2.22-7.65-6-7.65s-6,3-6,7.65,2.25,7.65,6,7.65S398.78,565.39,398.78,560.69Z"/><path class="cls-21" d="M406.24,551.82v11.5c0,3,1.67,4.94,4.69,4.94s4.73-1.92,4.73-4.94v-11.5h1.95v11.62c0,3.92-2.38,6.55-6.68,6.55s-6.62-2.63-6.62-6.55V551.82Z"/><path class="cls-21" d="M428.46,562h-4.07v7.57h-1.93V551.82h6.35c4.57,0,5.77,2.55,5.77,5.07a4.71,4.71,0,0,1-4.07,4.85l4.62,7.82h-2.2Zm-4.07-1.65h4.25c2.87,0,3.89-1.52,3.89-3.45s-1-3.42-3.89-3.42h-4.25Z"/><path class="cls-21" d="M445.64,551.82h5.62c5.1,0,8.42,3.55,8.42,8.85s-3.35,8.89-8.47,8.89h-5.57Zm5.54,16.09c4,0,6.43-3.17,6.43-7.24,0-4.23-2.33-7.2-6.38-7.2h-3.67v14.44Z"/><path class="cls-21" d="M463.54,569.56V551.82h1.92v17.74Z"/><path class="cls-21" d="M469,564.24,471,564c.28,2.39,1.77,4.42,5.12,4.42,2.3,0,4.28-1,4.28-3.35s-1.4-3-3.6-3.45l-2.62-.52c-2.55-.5-4.38-1.88-4.38-4.75s2.33-4.93,6-4.93c3.48,0,6.13,1.55,6.43,5.15l-1.95.38c-.25-2.68-1.75-4-4.53-4-2.39,0-4,1.23-4,3.2,0,1.78,1,2.8,3.15,3.25l2.62.53c2.73.55,4.83,1.75,4.83,4.92,0,2.9-2.18,5.15-6.35,5.15C471.56,570,469.26,567.54,469,564.24Z"/><path class="cls-21" d="M484.79,560.64c0-5.45,2.77-9.25,8-9.25,4.27,0,6.52,2.58,7,6.25l-2,.2c-.38-2.87-2.13-4.77-5.1-4.77-3.73,0-5.85,3-5.85,7.55,0,4.35,2,7.67,5.9,7.67,2.75,0,4.6-1.77,5.15-4.62l1.87.3c-.65,3.35-2.77,6-7.05,6C487.23,570,484.79,565.79,484.79,560.64Z"/><path class="cls-21" d="M505.28,551.82v11.5c0,3,1.68,4.94,4.7,4.94s4.73-1.92,4.73-4.94v-11.5h1.95v11.62c0,3.92-2.38,6.55-6.68,6.55s-6.62-2.63-6.62-6.55V551.82Z"/><path class="cls-21" d="M532.53,553.47h-5.72v16.09h-1.95V553.47h-5.72v-1.65h13.39Z"/><path class="cls-21" d="M546.41,567.91v1.65h-11V551.82h10.82v1.65h-8.9v6.17h8.48v1.65h-8.48v6.62Z"/><path class="cls-21" d="M556.68,562h-4.07v7.57h-1.93V551.82H557c4.58,0,5.78,2.55,5.78,5.07a4.71,4.71,0,0,1-4.08,4.85l4.63,7.82h-2.2Zm-4.07-1.65h4.25c2.87,0,3.9-1.52,3.9-3.45s-1-3.42-3.9-3.42h-4.25Z"/><path class="cls-21" d="M573.86,551.82h5.62c5.1,0,8.43,3.55,8.43,8.85s-3.35,8.89-8.48,8.89h-5.57Zm5.55,16.09c4,0,6.42-3.17,6.42-7.24,0-4.23-2.32-7.2-6.37-7.2h-3.68v14.44Z"/><path class="cls-21" d="M602.76,567.91v1.65h-11V551.82h10.82v1.65h-8.9v6.17h8.48v1.65h-8.48v6.62Z"/><path class="cls-21" d="M605,564.24l1.95-.27c.27,2.39,1.77,4.42,5.12,4.42,2.3,0,4.28-1,4.28-3.35s-1.4-3-3.6-3.45l-2.63-.52c-2.55-.5-4.37-1.88-4.37-4.75s2.32-4.93,6-4.93c3.48,0,6.13,1.55,6.43,5.15l-1.95.38c-.25-2.68-1.75-4-4.53-4-2.4,0-4,1.23-4,3.2,0,1.78,1,2.8,3.15,3.25l2.62.53c2.73.55,4.83,1.75,4.83,4.92,0,2.9-2.18,5.15-6.35,5.15C607.51,570,605.21,567.54,605,564.24Z"/><path class="cls-21" d="M628.73,551.82h5.63c5.1,0,8.42,3.55,8.42,8.85s-3.35,8.89-8.47,8.89h-5.58Zm5.55,16.09c4,0,6.43-3.17,6.43-7.24,0-4.23-2.33-7.2-6.38-7.2h-3.67v14.44Z"/><path class="cls-21" d="M657.63,567.91v1.65h-11V551.82h10.83v1.65h-8.9v6.17H657v1.65h-8.47v6.62Zm-4.7-17.17h-1.7l2.28-2.57h2Z"/><path class="cls-21" d="M673.93,556.89c0,3.18-2.27,5.2-5.85,5.2h-4.25v7.47h-1.92V551.82h6.17C671.66,551.82,673.93,553.79,673.93,556.89Zm-2,0c0-2.1-1.55-3.42-4-3.42h-4.08v7h4.08C670.33,560.44,671.88,559.07,671.88,556.89Z"/><path class="cls-21" d="M677.11,551.82H679v16.09h8.43v1.65H677.11Z"/><path class="cls-21" d="M700.93,564.39h-7.65l-1.87,5.17h-2l6.78-17.74h1.92l6.75,17.74h-2Zm-.6-1.65-2.62-7.27c-.25-.7-.4-1.18-.58-1.73h0c-.17.55-.3,1-.57,1.73l-2.63,7.27Z"/><path class="cls-21" d="M706.18,560.64c0-5.45,2.78-9.25,8-9.25,4.27,0,6.52,2.58,7,6.25l-2,.2c-.37-2.87-2.12-4.77-5.09-4.77-3.73,0-5.85,3-5.85,7.55,0,4.35,2,7.67,5.9,7.67,2.74,0,4.59-1.77,5.14-4.62l1.88.3c-.65,3.35-2.78,6-7,6C708.63,570,706.18,565.79,706.18,560.64Z"/><path class="cls-21" d="M736.13,567.91v1.65h-11V551.82H736v1.65h-8.89v6.17h8.47v1.65h-8.47v6.62Z"/><path class="cls-21" d="M740.41,551.82h2.72L748.3,566a6.38,6.38,0,0,1,.43,1.52h0a6.55,6.55,0,0,1,.45-1.52l5.15-14.2h2.75v17.74h-1.8V555.42a12.39,12.39,0,0,1,.1-1.78h-.1a18,18,0,0,1-.5,1.88l-5.13,14h-1.87l-5.12-14a13.24,13.24,0,0,1-.53-1.88h-.07c0,.55.07,1.13.07,1.78v14.14h-1.77Z"/><path class="cls-21" d="M773.38,567.91v1.65h-11V551.82H773.2v1.65h-8.89v6.17h8.47v1.65h-8.47v6.62Z"/><path class="cls-21" d="M777.66,551.82H780l8.22,13.54a17.44,17.44,0,0,1,1,2h.05c-.05-.67-.08-1.22-.08-2.17V551.82H791v17.74h-2.35L780.43,556a13.3,13.3,0,0,1-1-2h0c0,.6.08,1.23.08,2.18v13.44h-1.75Z"/><path class="cls-21" d="M807.28,553.47h-5.73v16.09h-1.94V553.47h-5.73v-1.65h13.4Z"/><path class="cls-21" d="M807.81,564.24l2-.27c.27,2.39,1.77,4.42,5.12,4.42,2.3,0,4.27-1,4.27-3.35s-1.4-3-3.6-3.45l-2.62-.52c-2.55-.5-4.37-1.88-4.37-4.75s2.32-4.93,6-4.93c3.47,0,6.12,1.55,6.42,5.15l-2,.38c-.25-2.68-1.75-4-4.52-4-2.4,0-4,1.23-4,3.2,0,1.78,1,2.8,3.15,3.25l2.62.53c2.72.55,4.82,1.75,4.82,4.92,0,2.9-2.17,5.15-6.35,5.15C810.36,570,808.06,567.54,807.81,564.24Z"/><path d="M439.64,601.82h4.5l4,12.35a9.4,9.4,0,0,1,.45,1.9h.05a8.53,8.53,0,0,1,.45-1.93l4-12.32h4.53v17.74h-2.95V606.62a15.13,15.13,0,0,1,.1-2h-.08a12,12,0,0,1-.45,1.87l-4.2,13h-2.87l-4.25-13a10.07,10.07,0,0,1-.45-1.87h-.1a14.66,14.66,0,0,1,.1,2v12.94h-2.82Zm32.42,13.07h-6.95l-1.6,4.67h-3.27l6.6-17.74h3.49l6.6,17.74h-3.27Zm-.85-2.45-2.07-6a12.36,12.36,0,0,1-.53-1.9h-.05a12.43,12.43,0,0,1-.52,1.9l-2.08,6Zm14.7,0h-3.12v7.12h-3.23V601.82h7.15c4.57,0,6.15,2.4,6.15,5.32a4.83,4.83,0,0,1-3.73,4.88l4.23,7.54h-3.55Zm-3.12-2.4h3.37c2.42,0,3.32-1.22,3.32-2.9s-.9-2.87-3.32-2.87h-3.37Zm13.72-8.22h6.4c5.2,0,8.6,3.55,8.6,8.8s-3.38,8.94-8.65,8.94h-6.35ZM502.76,617c3.45,0,5.37-2.9,5.37-6.42s-1.85-6.28-5.32-6.28h-3.07V617Zm11.88,2.52V601.82h3.22v17.74Zm12.57-2.35a44.42,44.42,0,0,0,6.08-4.79c2-2,2.67-3.4,2.67-5.38s-1-3.12-2.72-3.12a2.68,2.68,0,0,0-2.83,3,6.93,6.93,0,0,0,.18,1.53l-3.1-.3a5.29,5.29,0,0,1-.18-1.38c0-3.25,2.33-5.35,6.08-5.35s5.84,2,5.84,5.5c0,2.45-1.12,4.58-3.55,6.88a29.22,29.22,0,0,1-4.29,3.22h8v2.57h-12.2Zm25-12.84v4.92h7.87v2.55h-7.87v7.72H549V601.82h11.52v2.55Zm23,12.67v2.52h-11.7V601.82h11.52v2.52h-8.29v4.88h7.87v2.5h-7.87V617ZM577,601.82h3.43l3.8,12.3a20.61,20.61,0,0,1,.62,2.42h.1a16.72,16.72,0,0,1,.6-2.42l3.8-12.3h3.45l-6.07,17.74h-3.68Zm24.43,10.62h-3.13v7.12h-3.22V601.82h7.15c4.57,0,6.15,2.4,6.15,5.32a4.83,4.83,0,0,1-3.73,4.88l4.23,7.54h-3.55Zm-3.13-2.4h3.38c2.42,0,3.32-1.22,3.32-2.9s-.9-2.87-3.32-2.87h-3.38Zm13.73,9.52V601.82h3.22v17.74ZM631.38,617v2.52h-11.7V601.82h11.53v2.52h-8.3v4.88h7.87v2.5h-7.87V617Zm10-4.6h-3.12v7.12H635V601.82h7.15c4.58,0,6.15,2.4,6.15,5.32a4.83,4.83,0,0,1-3.72,4.88l4.22,7.54h-3.55Zm-3.12-2.4h3.37c2.43,0,3.33-1.22,3.33-2.9s-.9-2.87-3.33-2.87h-3.37Zm29.22,4.85h-7l-1.6,4.67h-3.27l6.6-17.74h3.5l6.59,17.74h-3.27Zm-4.8-14.15L660,597.92h2.87l2.33,2.82Zm4,11.7-2.07-6a12.36,12.36,0,0,1-.53-1.9h0a12.43,12.43,0,0,1-.52,1.9l-2.08,6Zm15.88-6.07a4.19,4.19,0,0,1-2.93,1h-.8v-2.75h.53a3.67,3.67,0,0,0,3.75-2.82h2.52v17.74h-3.07Zm19.92,8.42c0,3.1-2.62,5.15-6.62,5.15s-6.65-2-6.65-4.92a4.44,4.44,0,0,1,3.47-4.63,4.37,4.37,0,0,1-2.9-4.32c0-2.8,2.4-4.68,6-4.68s6,1.75,6,4.45a4,4,0,0,1-2.88,4C701.36,610.82,702.43,612.37,702.43,614.79Zm-3.12,0c0-1.55-.85-2.55-2.93-3.15l-1.5-.45c-1.87.75-2.6,1.77-2.6,3.42,0,1.83,1.43,3,3.55,3S699.31,616.52,699.31,614.77ZM692.73,606c0,1.43.85,2.3,2.85,2.88l.9.25c1.63-.7,2.25-1.55,2.25-3,0-1.63-1.12-2.6-3.05-2.6S692.73,604.49,692.73,606Zm27.12,13.52h-3.22v-7.74h-8v7.74h-3.23V601.82h3.23v7.42h8v-7.42h3.22Zm2.93-5.29,3.08-.35c.07,2.25,1.37,3.57,3.45,3.57a2.74,2.74,0,0,0,3.07-3c0-1.87-1.12-2.9-3.47-2.9H728v-2.27h.87c2.08,0,3-1.08,3-2.8a2.48,2.48,0,0,0-2.8-2.65c-2,0-3.07,1.3-3.07,3.62l-3-.5c0-3.42,2.4-5.55,6.2-5.55s5.8,1.78,5.8,4.73a4.12,4.12,0,0,1-3.3,4.1c2.48.4,3.83,1.85,3.83,4.32,0,3.35-2.45,5.4-6.3,5.4S722.86,617.74,722.78,614.27Zm14.85-3.6c0-5.78,2.5-9.28,7-9.28s7.07,3.5,7.07,9.28-2.52,9.27-7.07,9.27S737.63,616.42,737.63,610.67Zm11,0c0-4.3-1.35-6.83-4-6.83s-3.92,2.53-3.92,6.83,1.32,6.82,3.92,6.82S748.63,614.94,748.63,610.67Z"/><path class="cls-21" d="M372.13,631.89c0,3.18-2.27,5.2-5.84,5.2H362v7.47h-1.93V626.82h6.18C369.86,626.82,372.13,628.79,372.13,631.89Zm-2.05,0c0-2.1-1.55-3.42-4-3.42H362v7h4.07C368.53,635.44,370.08,634.07,370.08,631.89Z"/><path class="cls-21" d="M374.14,635.69c0-5.77,3.15-9.3,8-9.3s8,3.53,8,9.3-3.15,9.3-8,9.3S374.14,641.34,374.14,635.69Zm14,0c0-4.7-2.23-7.65-6-7.65s-6,3-6,7.65,2.25,7.65,6,7.65S388.11,640.39,388.11,635.69Z"/><path class="cls-21" d="M395.56,626.82v11.5c0,3,1.68,4.94,4.7,4.94s4.72-1.92,4.72-4.94v-11.5h1.95v11.62c0,3.92-2.37,6.55-6.67,6.55s-6.62-2.63-6.62-6.55V626.82Z"/><path class="cls-21" d="M417.79,637h-4.08v7.57h-1.92V626.82h6.35c4.57,0,5.77,2.55,5.77,5.07a4.71,4.71,0,0,1-4.07,4.85l4.62,7.82h-2.2Zm-4.08-1.65H418c2.87,0,3.9-1.52,3.9-3.45s-1-3.42-3.9-3.42h-4.25Z"/><path class="cls-21" d="M435,626.82h5.62c5.1,0,8.43,3.55,8.43,8.85s-3.35,8.89-8.48,8.89H435Zm5.55,16.09c4,0,6.42-3.17,6.42-7.24,0-4.23-2.32-7.2-6.37-7.2h-3.67v14.44Z"/><path class="cls-21" d="M452.86,644.56V626.82h1.93v17.74Z"/><path class="cls-21" d="M458.34,639.24l2-.27c.27,2.39,1.77,4.42,5.12,4.42,2.3,0,4.27-1,4.27-3.35s-1.4-3-3.6-3.45l-2.62-.52c-2.55-.5-4.37-1.88-4.37-4.75s2.32-4.93,6-4.93c3.47,0,6.12,1.55,6.42,5.15l-1.95.38c-.25-2.68-1.75-4-4.52-4-2.4,0-4,1.23-4,3.2,0,1.78,1,2.8,3.14,3.25l2.63.53c2.72.55,4.82,1.75,4.82,4.92,0,2.9-2.17,5.15-6.35,5.15C460.89,645,458.59,642.54,458.34,639.24Z"/><path class="cls-21" d="M474.11,635.64c0-5.45,2.78-9.25,8-9.25,4.28,0,6.53,2.58,7,6.25l-2,.2c-.37-2.87-2.12-4.77-5.1-4.77-3.72,0-5.84,3-5.84,7.55,0,4.35,2,7.67,5.89,7.67,2.75,0,4.6-1.77,5.15-4.62l1.88.3c-.65,3.35-2.78,6-7.05,6C476.56,645,474.11,640.79,474.11,635.64Z"/><path class="cls-21" d="M494.61,626.82v11.5c0,3,1.67,4.94,4.7,4.94s4.72-1.92,4.72-4.94v-11.5h2v11.62c0,3.92-2.37,6.55-6.67,6.55s-6.63-2.63-6.63-6.55V626.82Z"/><path class="cls-21" d="M521.86,628.47h-5.73v16.09h-2V628.47h-5.72v-1.65h13.4Z"/><path class="cls-21" d="M535.73,642.91v1.65h-11V626.82h10.83v1.65h-8.9v6.17h8.47v1.65h-8.47v6.62Z"/><path class="cls-21" d="M546,637h-4.08v7.57H540V626.82h6.35c4.57,0,5.77,2.55,5.77,5.07a4.71,4.71,0,0,1-4.07,4.85l4.62,7.82h-2.2Zm-4.08-1.65h4.25c2.88,0,3.9-1.52,3.9-3.45s-1-3.42-3.9-3.42h-4.25Z"/><path class="cls-21" d="M563.18,626.82h5.63c5.1,0,8.42,3.55,8.42,8.85s-3.35,8.89-8.47,8.89h-5.58Zm5.55,16.09c4,0,6.43-3.17,6.43-7.24,0-4.23-2.33-7.2-6.38-7.2h-3.67v14.44Z"/><path class="cls-21" d="M592.08,642.91v1.65h-11V626.82h10.83v1.65H583v6.17h8.47v1.65H583v6.62Z"/><path class="cls-21" d="M594.28,639.24l2-.27c.28,2.39,1.78,4.42,5.13,4.42,2.3,0,4.27-1,4.27-3.35s-1.4-3-3.6-3.45l-2.62-.52c-2.55-.5-4.38-1.88-4.38-4.75s2.33-4.93,6-4.93c3.47,0,6.12,1.55,6.42,5.15l-2,.38c-.25-2.68-1.75-4-4.52-4-2.4,0-4,1.23-4,3.2,0,1.78,1,2.8,3.15,3.25l2.63.53c2.72.55,4.82,1.75,4.82,4.92,0,2.9-2.17,5.15-6.35,5.15C596.83,645,594.53,642.54,594.28,639.24Z"/><path class="cls-21" d="M629.06,642.91v1.65h-11V626.82h10.82v1.65H620v6.17h8.48v1.65H620v6.62Z"/><path class="cls-21" d="M631.28,639.24l2-.27c.28,2.39,1.78,4.42,5.13,4.42,2.3,0,4.27-1,4.27-3.35s-1.4-3-3.6-3.45l-2.62-.52c-2.55-.5-4.38-1.88-4.38-4.75s2.33-4.93,6-4.93c3.47,0,6.12,1.55,6.42,5.15l-2,.38c-.25-2.68-1.75-4-4.52-4-2.4,0-4,1.23-4,3.2,0,1.78,1,2.8,3.15,3.25l2.63.53c2.72.55,4.82,1.75,4.82,4.92,0,2.9-2.17,5.15-6.35,5.15C633.83,645,631.53,642.54,631.28,639.24Z"/><path class="cls-21" d="M660.46,631.89c0,3.18-2.28,5.2-5.85,5.2h-4.25v7.47h-1.93V626.82h6.18C658.18,626.82,660.46,628.79,660.46,631.89Zm-2.05,0c0-2.1-1.55-3.42-4-3.42h-4.07v7h4.07C656.86,635.44,658.41,634.07,658.41,631.89Z"/><path class="cls-21" d="M671.46,639.39h-7.65l-1.88,5.17h-2l6.77-17.74h1.93l6.75,17.74h-2Zm-.6-1.65-2.63-7.27c-.25-.7-.4-1.18-.57-1.73h0c-.18.55-.3,1-.58,1.73l-2.62,7.27Z"/><path class="cls-21" d="M676.71,635.64c0-5.45,2.77-9.25,8-9.25,4.28,0,6.52,2.58,7,6.25l-2,.2c-.38-2.87-2.13-4.77-5.1-4.77-3.72,0-5.85,3-5.85,7.55,0,4.35,2,7.67,5.9,7.67,2.75,0,4.6-1.77,5.15-4.62l1.87.3c-.65,3.35-2.77,6-7,6C679.16,645,676.71,640.79,676.71,635.64Z"/><path class="cls-21" d="M706.66,642.91v1.65h-11V626.82h10.82v1.65h-8.9v6.17h8.47v1.65h-8.47v6.62Z"/><path class="cls-21" d="M708.86,639.24l1.95-.27c.27,2.39,1.77,4.42,5.12,4.42,2.3,0,4.28-1,4.28-3.35s-1.41-3-3.6-3.45l-2.63-.52c-2.55-.5-4.37-1.88-4.37-4.75s2.32-4.93,6-4.93c3.47,0,6.12,1.55,6.42,5.15l-1.95.38c-.25-2.68-1.74-4-4.52-4-2.4,0-4,1.23-4,3.2,0,1.78,1,2.8,3.15,3.25l2.62.53c2.72.55,4.82,1.75,4.82,4.92,0,2.9-2.17,5.15-6.34,5.15C711.41,645,709.11,642.54,708.86,639.24Z"/><path class="cls-21" d="M744.65,631.89c0,3.18-2.27,5.2-5.84,5.2h-4.25v7.47h-1.93V626.82h6.18C742.38,626.82,744.65,628.79,744.65,631.89Zm-2,0c0-2.1-1.55-3.42-4-3.42h-4.07v7h4.07C741.05,635.44,742.6,634.07,742.6,631.89Z"/><path class="cls-21" d="M749.38,626.82v11.5c0,3,1.68,4.94,4.7,4.94s4.72-1.92,4.72-4.94v-11.5h2v11.62c0,3.92-2.37,6.55-6.67,6.55s-6.62-2.63-6.62-6.55V626.82Z"/><path class="cls-21" d="M777.9,639.72c0,2.29-1.32,4.84-5.79,4.84h-6.5V626.82h6c4.6,0,5.8,2.55,5.8,4.65a3.83,3.83,0,0,1-3.13,3.92A4,4,0,0,1,777.9,639.72Zm-10.37-11.25v6.2h4.18c3.27,0,3.79-1.73,3.79-3,0-1.53-.72-3.15-3.87-3.15Zm8.45,11.1c0-1.8-1-3.25-3.77-3.25h-4.68v6.59H772C775.08,642.91,776,641.32,776,639.57Z"/><path class="cls-21" d="M782.06,626.82H784v16.09h8.42v1.65H782.06Z"/><path class="cls-21" d="M795.58,644.56V626.82h1.93v17.74Z"/><path class="cls-21" d="M801.38,635.64c0-5.45,2.78-9.25,8-9.25,4.28,0,6.53,2.58,7,6.25l-2,.2c-.37-2.87-2.12-4.77-5.1-4.77-3.72,0-5.84,3-5.84,7.55,0,4.35,2,7.67,5.89,7.67,2.75,0,4.6-1.77,5.15-4.62l1.88.3c-.65,3.35-2.78,6-7.05,6C803.83,645,801.38,640.79,801.38,635.64Z"/><path class="cls-21" d="M818.63,639.24l2-.27c.28,2.39,1.77,4.42,5.12,4.42,2.3,0,4.28-1,4.28-3.35s-1.4-3-3.6-3.45l-2.62-.52c-2.55-.5-4.38-1.88-4.38-4.75s2.33-4.93,6-4.93c3.48,0,6.13,1.55,6.43,5.15l-2,.38c-.25-2.68-1.75-4-4.53-4-2.39,0-4,1.23-4,3.2,0,1.78,1,2.8,3.15,3.25l2.62.53c2.73.55,4.83,1.75,4.83,4.92,0,2.9-2.18,5.15-6.35,5.15C821.18,645,818.88,642.54,818.63,639.24Z"/></g></g></svg>