<svg xmlns="http://www.w3.org/2000/svg" xmlns:xlink="http://www.w3.org/1999/xlink" width="1190.55" height="841.89" viewBox="0 0 1190.55 841.89">
  <defs>
    <style>
      .cls-1 {
        clip-path: url(#clip-Plan_de_travail_3);
      }

      .cls-2 {
        fill: none;
      }

      .cls-3 {
        fill: #fff;
      }
    </style>
    <clipPath id="clip-Plan_de_travail_3">
      <rect width="1190.55" height="841.89"/>
    </clipPath>
  </defs>
  <g id="Plan_de_travail_3" data-name="Plan de travail 3" class="cls-1">
    <rect class="cls-3" width="1190.55" height="841.89"/>
    <path id="Tracé_829" data-name="Tracé 829" d="M10144.84,414.11a5.384,5.384,0,0,1-3.629,1.17h-.84v-4.319h.57a4.536,4.536,0,0,0,4.8-3.39h3.93v21.3h-4.83Zm14.58,14.76h-5.129v-4.92h5.129Zm19.47-8.16h-3.06v8.16h-5.07v-21.3h9.36c5.4,0,7.8,2.64,7.8,6.539a5.891,5.891,0,0,1-4.17,5.85l4.71,8.91h-5.49Zm-3.06-3.48h3.27c2.46,0,3.54-1.2,3.54-3.12,0-1.86-1.05-2.969-3.54-2.969h-3.27Zm30.51,7.89v3.75h-14.79v-21.3h14.58v3.75h-9.51v4.8h9v3.72h-9v5.28Zm1.38-.69,3.75-2.64a6.172,6.172,0,0,0,5.79,3.66c2.04,0,3.66-.75,3.66-2.43,0-1.59-.93-2.19-3.09-2.64l-2.85-.6c-3.721-.81-5.881-2.82-5.881-6.39,0-3.9,3.181-6.329,8.311-6.329,3.78,0,6.96,1.38,8.46,4.23l-3.3,2.789a5.974,5.974,0,0,0-5.49-3.269c-2.01,0-3.3.84-3.3,2.189,0,1.38.84,2.07,3.09,2.58l3.09.66c3.78.84,5.82,2.64,5.82,6.3,0,4.05-3.12,6.84-8.7,6.84C10212.49,429.38,10209.19,427.43,10207.72,424.43Zm36.42-12.839h-6.21V428.87h-5.04V411.591h-6.18v-4.02h17.43Zm2.4,17.279v-21.3h5.07v21.3Zm24.93-17.279h-6.21V428.87h-5.04V411.591h-6.18v-4.02h17.43Zm7.11-4.02V421.22a3.961,3.961,0,1,0,7.92,0V407.571h5.069V421.43c0,4.86-3.359,7.95-9.029,7.95s-9.03-3.09-9.03-7.95V407.571Zm32.576,4.02h-6.209V428.87h-5.04V411.591h-6.181v-4.02h17.43Zm2.4,17.279v-21.3h5.07v21.3Zm8.16-10.65c0-6.869,4.11-11.159,10.5-11.159s10.5,4.29,10.5,11.159-4.109,11.16-10.5,11.16S10321.717,425.06,10321.717,418.22Zm15.779,0c0-4.5-1.95-7.2-5.279-7.2s-5.31,2.7-5.31,7.2c0,4.47,1.979,7.2,5.31,7.2S10337.5,422.72,10337.5,418.22Zm8.311-10.649h5.61l6.839,12.149a22.029,22.029,0,0,1,1.29,2.76h.061c0-.84-.03-1.71-.03-2.73V407.571h4.649v21.3h-5.4l-7.079-12.27a18.293,18.293,0,0,1-1.26-2.61h-.061c0,.87.03,1.77.03,2.82v12.06h-4.65Zm30.27,0h8.49c6.39,0,10.529,4.26,10.529,10.529,0,6.39-4.14,10.77-10.59,10.77h-8.43Zm8.22,17.579c3.6,0,5.58-3.24,5.58-7.05,0-3.87-1.86-6.809-5.52-6.809h-3.21V425.15Zm28.68-.03v3.75h-14.79v-21.3h14.58v3.75h-9.51v4.8h9v3.72h-9v5.28Zm11.1-17.549h5.07V424.76h8.64v4.11h-13.71Zm29.79,16.319h-7.86l-1.62,4.98h-5.069l7.739-21.3h5.79l7.739,21.3h-5.1Zm-1.17-3.57-1.95-5.94a25.719,25.719,0,0,1-.78-3h-.06a20.959,20.959,0,0,1-.78,3l-1.95,5.94Zm16.56-2.07c0-6.719,3.96-11.189,10.439-11.189,5.43,0,8.85,3,9.42,7.649l-5.13.9c-.3-2.82-1.86-4.469-4.409-4.469-3.24,0-5.13,2.729-5.13,7.079,0,4.23,1.92,7.05,5.278,7.05,2.37,0,3.96-1.62,4.381-4.38l5.13,1.11c-1.021,4.5-4.32,7.38-9.6,7.38C10472.886,429.38,10469.256,424.97,10469.256,418.25Zm21.717-.03c0-6.869,4.11-11.159,10.5-11.159s10.5,4.29,10.5,11.159-4.109,11.16-10.5,11.16S10490.973,425.06,10490.973,418.22Zm15.779,0c0-4.5-1.95-7.2-5.28-7.2s-5.309,2.7-5.309,7.2c0,4.47,1.979,7.2,5.309,7.2S10506.752,422.72,10506.752,418.22Zm8.312-10.649h5.608l6.84,12.149a22.029,22.029,0,0,1,1.29,2.76h.061c0-.84-.03-1.71-.03-2.73V407.571h4.65v21.3h-5.4L10521,416.6a18.293,18.293,0,0,1-1.26-2.61h-.061c0,.87.03,1.77.03,2.82v12.06h-4.648Zm21.509,10.679c0-6.719,3.96-11.189,10.439-11.189,5.431,0,8.851,3,9.42,7.649l-5.13.9c-.3-2.82-1.859-4.469-4.41-4.469-3.239,0-5.13,2.729-5.13,7.079,0,4.23,1.92,7.05,5.28,7.05,2.37,0,3.96-1.62,4.38-4.38l5.13,1.11c-1.02,4.5-4.319,7.38-9.6,7.38C10540.2,429.38,10536.572,424.97,10536.572,418.25Zm37.71,6.87v3.75h-14.79v-21.3h14.58v3.75h-9.511v4.8h9v3.72h-9v5.28Zm11.819-4.41h-3.06v8.16h-5.07v-21.3h9.36c5.4,0,7.8,2.64,7.8,6.539a5.891,5.891,0,0,1-4.169,5.85l4.709,8.91h-5.489Zm-3.06-3.48h3.27c2.461,0,3.54-1.2,3.54-3.12,0-1.86-1.05-2.969-3.54-2.969h-3.27Zm30.569-5.639h-6.21V428.87h-5.039V411.591h-6.181v-4.02h17.43Zm12.42,12.3h-7.859l-1.62,4.98h-5.069l7.738-21.3h5.79l7.74,21.3h-5.1Zm-1.17-3.57-1.95-5.94a25.719,25.719,0,0,1-.78-3h-.06a20.959,20.959,0,0,1-.78,3l-1.95,5.94Zm23.189-8.729h-6.21V428.87h-5.04V411.591h-6.179v-4.02h17.429Zm2.4,17.279v-21.3h5.07v21.3Zm8.16-10.65c0-6.869,4.109-11.159,10.5-11.159s10.5,4.29,10.5,11.159-4.11,11.16-10.5,11.16S10658.611,425.06,10658.611,418.22Zm15.779,0c0-4.5-1.949-7.2-5.279-7.2s-5.311,2.7-5.311,7.2c0,4.47,1.98,7.2,5.311,7.2S10674.391,422.72,10674.391,418.22Zm8.311-10.649h5.609l6.841,12.149a22.31,22.31,0,0,1,1.29,2.76h.06c0-.84-.03-1.71-.03-2.73V407.571h4.649v21.3h-5.4l-7.08-12.27a18.4,18.4,0,0,1-1.26-2.61h-.06c0,.87.029,1.77.029,2.82v12.06h-4.649Zm30.27,21.3v-21.3h5.07v21.3Zm16.92-21.3h8.489c6.39,0,10.53,4.26,10.53,10.529,0,6.39-4.141,10.77-10.59,10.77h-8.43Zm8.22,17.579c3.6,0,5.58-3.24,5.58-7.05,0-3.87-1.86-6.809-5.521-6.809h-3.21V425.15Zm18.6-17.579V421.22a3.961,3.961,0,1,0,7.92,0V407.571h5.07V421.43c0,4.86-3.36,7.95-9.03,7.95s-9.029-3.09-9.029-7.95V407.571Zm27.39,6.539a5.384,5.384,0,0,1-3.629,1.17h-.84v-4.319h.57a4.536,4.536,0,0,0,4.8-3.39h3.93v21.3h-4.83Zm8.762,4.08c0-7.019,3.329-11.129,8.969-11.129,5.67,0,9,4.11,9,11.129s-3.33,11.13-9,11.13C10796.19,429.32,10792.861,425.21,10792.861,418.19Zm12.988,0c0-4.8-1.439-7.379-4.02-7.379-2.55,0-3.99,2.579-3.99,7.379s1.44,7.38,3.99,7.38C10804.41,425.57,10805.85,422.99,10805.85,418.19Zm14.281.03c0-6.869,4.109-11.159,10.5-11.159s10.5,4.29,10.5,11.159-4.11,11.16-10.5,11.16S10820.131,425.06,10820.131,418.22Zm15.779,0c0-4.5-1.95-7.2-5.28-7.2s-5.31,2.7-5.31,7.2c0,4.47,1.979,7.2,5.31,7.2S10835.91,422.72,10835.91,418.22Zm7.35.03c0-6.719,3.96-11.189,10.44-11.189,5.43,0,8.85,3,9.42,7.649l-5.13.9c-.3-2.82-1.86-4.469-4.41-4.469-3.24,0-5.13,2.729-5.13,7.079,0,4.23,1.92,7.05,5.28,7.05,2.369,0,3.96-1.62,4.38-4.38l5.13,1.11c-1.021,4.5-4.32,7.38-9.6,7.38C10846.89,429.38,10843.26,424.97,10843.26,418.25Zm37.92-6.659h-6.21V428.87h-5.04V411.591h-6.18v-4.02h17.43Zm-.06,6.629c0-6.869,4.11-11.159,10.5-11.159s10.5,4.29,10.5,11.159-4.11,11.16-10.5,11.16S10881.12,425.06,10881.12,418.22Zm15.779,0c0-4.5-1.949-7.2-5.279-7.2s-5.311,2.7-5.311,7.2c0,4.47,1.98,7.2,5.311,7.2S10896.9,422.72,10896.9,418.22Zm25.529,4.65c0,3.36-2.37,6-7.229,6h-9.989v-21.3h9.6c4.859,0,7.079,2.37,7.079,5.489a4.762,4.762,0,0,1-3.84,4.71A4.8,4.8,0,0,1,10922.429,422.87Zm-12.148-11.729v5.189h3.18c2.28,0,3.149-1.17,3.149-2.61,0-1.5-.96-2.579-3.149-2.579Zm6.869,11.309c0-1.65-1.11-2.76-3.239-2.76h-3.63v5.61h3.51C10916.1,425.3,10917.149,424.07,10917.149,422.45Zm16.62-1.74h-3.06v8.16h-5.07v-21.3H10935c5.4,0,7.8,2.64,7.8,6.539a5.891,5.891,0,0,1-4.17,5.85l4.71,8.91h-5.49Zm-3.06-3.48h3.269c2.461,0,3.54-1.2,3.54-3.12,0-1.86-1.05-2.969-3.54-2.969h-3.269Zm30.509,7.89v3.75h-14.789v-21.3h14.579v3.75h-9.51v4.8h9v3.72h-9v5.28Zm9.75.21a45.065,45.065,0,0,0,7.53-5.49c2.04-2.01,2.85-3.6,2.85-5.73,0-2.1-.96-3.239-2.7-3.239-1.771,0-2.82,1.2-2.82,3.179a10.117,10.117,0,0,0,.21,1.71l-4.92-.45a8.145,8.145,0,0,1-.18-1.65c0-4.019,3.06-6.6,7.949-6.6,4.8,0,7.62,2.43,7.62,6.689,0,2.88-1.229,5.31-3.75,7.65a28.918,28.918,0,0,1-5.189,3.63h9.12v3.84h-15.721Zm17.611-7.14c0-7.019,3.33-11.129,8.969-11.129,5.67,0,9,4.11,9,11.129s-3.33,11.13-9,11.13C10991.91,429.32,10988.58,425.21,10988.58,418.19Zm12.989,0c0-4.8-1.44-7.379-4.021-7.379-2.55,0-3.99,2.579-3.99,7.379s1.44,7.38,3.99,7.38C11000.129,425.57,11001.569,422.99,11001.569,418.19Zm6.871,7.14a45.093,45.093,0,0,0,7.529-5.49c2.04-2.01,2.85-3.6,2.85-5.73,0-2.1-.96-3.239-2.7-3.239-1.771,0-2.82,1.2-2.82,3.179a10.117,10.117,0,0,0,.21,1.71l-4.92-.45a8.145,8.145,0,0,1-.18-1.65c0-4.019,3.06-6.6,7.95-6.6,4.8,0,7.618,2.43,7.618,6.689,0,2.88-1.229,5.31-3.75,7.65a28.908,28.908,0,0,1-5.188,3.63h9.119v3.84h-15.719Zm17.609-7.14c0-7.019,3.33-11.129,8.97-11.129,5.67,0,9,4.11,9,11.129s-3.329,11.13-9,11.13C11029.38,429.32,11026.05,425.21,11026.05,418.19Zm12.99,0c0-4.8-1.44-7.379-4.021-7.379-2.55,0-3.989,2.579-3.989,7.379s1.439,7.38,3.989,7.38C11037.6,425.57,11039.04,422.99,11039.04,418.19Z" transform="translate(-9997.1)"/>
    <rect id="Rectangle_584" data-name="Rectangle 584" class="cls-2" width="1190.55" height="841.89"/>
  </g>
</svg>
