<svg xmlns="http://www.w3.org/2000/svg" xmlns:xlink="http://www.w3.org/1999/xlink" width="1190.55" height="841.89" viewBox="0 0 1190.55 841.89">
  <defs>
    <style>
      .cls-1 {
        clip-path: url(#clip-Plan_de_travail_7);
      }

      .cls-2 {
        fill: none;
      }

      .cls-3 {
        fill: #fff;
      }
    </style>
    <clipPath id="clip-Plan_de_travail_7">
      <rect width="1190.55" height="841.89"/>
    </clipPath>
  </defs>
  <g id="Plan_de_travail_7" data-name="Plan de travail 7" class="cls-1">
    <rect class="cls-3" width="1190.55" height="841.89"/>
    <path id="Tracé_785" data-name="Tracé 785" d="M15116.324,425.33a45.011,45.011,0,0,0,7.529-5.49c2.04-2.01,2.851-3.6,2.851-5.73,0-2.1-.96-3.239-2.7-3.239-1.77,0-2.82,1.2-2.82,3.179a10.218,10.218,0,0,0,.21,1.71l-4.92-.45a8.145,8.145,0,0,1-.18-1.65c0-4.019,3.06-6.6,7.95-6.6,4.8,0,7.62,2.43,7.62,6.689,0,2.88-1.23,5.31-3.75,7.65a28.894,28.894,0,0,1-5.19,3.63h9.12v3.84h-15.72Zm23.97,3.54h-5.129v-4.92h5.129Zm11.34,0v-21.3h5.07v21.3Zm9.51-21.3h8.49c6.391,0,10.53,4.26,10.53,10.529,0,6.39-4.14,10.77-10.59,10.77h-8.431Zm8.221,17.579c3.6,0,5.58-3.24,5.58-7.05,0-3.87-1.86-6.809-5.521-6.809h-3.21V425.15Zm28.68-.03v3.75h-14.79v-21.3h14.58v3.75h-9.51v4.8h9v3.72h-9v5.28Zm3.69-17.549h5.609l6.84,12.149a22.029,22.029,0,0,1,1.29,2.76h.061c0-.84-.03-1.71-.03-2.73V407.571h4.65v21.3h-5.4l-7.08-12.27a18.293,18.293,0,0,1-1.26-2.61h-.061c0,.87.03,1.77.03,2.82v12.06h-4.649Zm38.279,4.02h-6.21V428.87h-5.04V411.591h-6.18v-4.02h17.43Zm2.4,17.279v-21.3h5.07v21.3Zm14.58-17.459v4.919h8.969v3.78h-8.969v8.76h-5.07v-21.3h14.579v3.84Zm12.54,17.459v-21.3h5.069v21.3Zm8.16-10.62c0-6.719,3.96-11.189,10.439-11.189,5.431,0,8.851,3,9.419,7.649l-5.129.9c-.3-2.82-1.859-4.469-4.41-4.469-3.239,0-5.13,2.729-5.13,7.079,0,4.23,1.92,7.05,5.28,7.05,2.37,0,3.96-1.62,4.38-4.38l5.129,1.11c-1.019,4.5-4.319,7.38-9.6,7.38C15281.324,429.38,15277.694,424.97,15277.694,418.25Zm34.917,5.64h-7.86l-1.62,4.98h-5.07l7.74-21.3h5.79l7.739,21.3h-5.1Zm-1.17-3.57-1.95-5.94a25.719,25.719,0,0,1-.78-3h-.06a20.959,20.959,0,0,1-.78,3l-1.95,5.94Zm23.188-8.729h-6.21V428.87h-5.039V411.591h-6.18v-4.02h17.429Zm2.4,17.279v-21.3h5.068v21.3Zm8.16-10.65c0-6.869,4.109-11.159,10.5-11.159s10.5,4.29,10.5,11.159-4.11,11.16-10.5,11.16S15345.191,425.06,15345.191,418.22Zm15.778,0c0-4.5-1.95-7.2-5.279-7.2s-5.31,2.7-5.31,7.2c0,4.47,1.979,7.2,5.31,7.2S15360.97,422.72,15360.97,418.22Zm8.312-10.649h5.608l6.841,12.149a22.154,22.154,0,0,1,1.289,2.76h.061c0-.84-.03-1.71-.03-2.73V407.571h4.65v21.3h-5.4l-7.08-12.27a18.4,18.4,0,0,1-1.26-2.61h-.06c0,.87.029,1.77.029,2.82v12.06h-4.648Zm30.269,0h8.49c6.39,0,10.529,4.26,10.529,10.529,0,6.39-4.14,10.77-10.589,10.77h-8.431Zm8.22,17.579c3.6,0,5.58-3.24,5.58-7.05,0-3.87-1.859-6.809-5.52-6.809h-3.21V425.15Zm28.681-.03v3.75h-14.79v-21.3h14.58v3.75h-9.51v4.8h9v3.72h-9v5.28Zm1.38-.69,3.75-2.64a6.171,6.171,0,0,0,5.79,3.66c2.04,0,3.66-.75,3.66-2.43,0-1.59-.931-2.19-3.09-2.64l-2.851-.6c-3.72-.81-5.88-2.82-5.88-6.39,0-3.9,3.18-6.329,8.31-6.329,3.78,0,6.959,1.38,8.459,4.23l-3.3,2.789a5.973,5.973,0,0,0-5.489-3.269c-2.011,0-3.3.84-3.3,2.189,0,1.38.841,2.07,3.091,2.58l3.09.66c3.778.84,5.818,2.64,5.818,6.3,0,4.05-3.119,6.84-8.7,6.84C15442.6,429.38,15439.3,427.43,15437.83,424.43Zm43.889-12.839h-6.209V428.87h-5.04V411.591h-6.18v-4.02h17.429Zm20.73,17.279h-5.07v-8.85h-8.188v8.85h-5.07v-21.3h5.07v8.549h8.188v-8.549h5.07Zm19.229-3.75v3.75h-14.789v-21.3h14.579v3.75h-9.509v4.8h9v3.72h-9v5.28Zm-9.269-18.839-3.48-3.54h4.17l2.971,3.54Zm12.96,1.29h6.96l3.93,13.049a15,15,0,0,1,.509,2.58h.061a16.508,16.508,0,0,1,.54-2.64l3.75-12.989h7.05v21.3h-4.62V414.35a21.438,21.438,0,0,1,.12-2.4h-.09a12.214,12.214,0,0,1-.45,2.069l-4.29,14.85h-4.259l-4.47-14.85a9.932,9.932,0,0,1-.45-2.04h-.09c.06.72.12,1.53.12,2.37v14.52h-4.32Zm42.029,17.549v3.75h-14.789v-21.3h14.579v3.75h-9.51v4.8h9v3.72h-9v5.28Zm1.378-.69,3.75-2.64a6.17,6.17,0,0,0,5.79,3.66c2.04,0,3.659-.75,3.659-2.43,0-1.59-.93-2.19-3.09-2.64l-2.85-.6c-3.72-.81-5.88-2.82-5.88-6.39,0-3.9,3.18-6.329,8.31-6.329,3.78,0,6.959,1.38,8.459,4.23l-3.3,2.789a5.971,5.971,0,0,0-5.489-3.269c-2.01,0-3.3.84-3.3,2.189,0,1.38.84,2.07,3.09,2.58l3.09.66c3.779.84,5.819,2.64,5.819,6.3,0,4.05-3.12,6.84-8.7,6.84C15573.547,429.38,15570.247,427.43,15568.777,424.43Zm43.259.69v3.75h-14.789v-21.3h14.579v3.75h-9.509v4.8h9v3.72h-9v5.28Zm19.229-13.529h-6.209V428.87h-5.04V411.591h-6.18v-4.02h17.429Zm24.6,13.529v3.75h-14.789v-21.3h14.579v3.75h-9.51v4.8h9v3.72h-9v5.28Zm3.69-17.549h5.609l6.84,12.149a22.029,22.029,0,0,1,1.29,2.76h.061c0-.84-.03-1.71-.03-2.73V407.571h4.649v21.3h-5.4l-7.08-12.27a18.293,18.293,0,0,1-1.26-2.61h-.061c0,.87.03,1.77.03,2.82v12.06h-4.649Zm24.3,21.659a16.007,16.007,0,0,1-3.15-.27v-4.11a15.556,15.556,0,0,0,2.04.15c1.92,0,3.09-.9,3.09-3.42V407.571h5.07v15C15690.906,427.19,15688.146,429.23,15683.856,429.23Zm25.92-4.11v3.75h-14.789v-21.3h14.579v3.75h-9.511v4.8h9v3.72h-9v5.28Zm8.4-17.549V421.22a3.961,3.961,0,1,0,7.92,0V407.571h5.07V421.43c0,4.86-3.36,7.95-9.03,7.95s-9.029-3.09-9.029-7.95V407.571Zm21.87,10.229-6.63-10.229h5.61l3.51,5.969a6.867,6.867,0,0,1,.63,1.35h.06a6.817,6.817,0,0,1,.631-1.35l3.6-5.969h5.49l-6.6,10.529,7.11,10.77h-5.7l-3.87-6.3a8.336,8.336,0,0,1-.84-1.59h-.06a8.282,8.282,0,0,1-.811,1.65l-3.689,6.24H15733Z" transform="translate(-14839.301)"/>
    <rect id="Rectangle_515" data-name="Rectangle 515" class="cls-2" width="1190.55" height="841.89"/>
  </g>
</svg>
