<svg id="Calque_1" data-name="Calque 1" xmlns="http://www.w3.org/2000/svg" xmlns:xlink="http://www.w3.org/1999/xlink" viewBox="0 0 1190.55 841.89"><defs><style>.cls-1{fill:none;}.cls-2{clip-path:url(#clip-path);}.cls-3{fill:#fff;}.cls-4{clip-path:url(#clip-path-2);}.cls-5{clip-path:url(#clip-path-3);}.cls-6{clip-path:url(#clip-path-4);}.cls-7{clip-path:url(#clip-path-5);}</style><clipPath id="clip-path"><rect class="cls-1" width="1190.55" height="841.89"/></clipPath><clipPath id="clip-path-2"><rect class="cls-1" x="27.65" y="10.39" width="148.82" height="148.82"/></clipPath><clipPath id="clip-path-3"><rect class="cls-1" x="183.69" y="259.02" width="1006.87" height="51.95"/></clipPath><clipPath id="clip-path-4"><rect class="cls-1" x="183.69" y="258.45" width="1190.55" height="53.47"/></clipPath><clipPath id="clip-path-5"><rect class="cls-1" x="182.46" y="347.81" width="1008.09" height="451.92"/></clipPath></defs><g class="cls-2"><rect class="cls-3" width="1190.55" height="841.89"/><rect class="cls-3" width="1190.55" height="841.89"/><path d="M188.27,178.19V140.31h12.27q7,0,9.09.57a9.89,9.89,0,0,1,5.45,3.71,11.71,11.71,0,0,1,2.2,7.37,12.31,12.31,0,0,1-1.27,5.87,10.33,10.33,0,0,1-3.21,3.73,11.34,11.34,0,0,1-4,1.8,43.81,43.81,0,0,1-7.93.54h-5v14.29Zm7.64-31.47v10.75h4.19a19.54,19.54,0,0,0,6-.6,5,5,0,0,0,3.26-4.8,5,5,0,0,0-1.21-3.42,5.3,5.3,0,0,0-3.08-1.67,35.6,35.6,0,0,0-5.5-.26Zm27.73,31.47V140.31h16.09q6.08,0,8.83,1A8.7,8.7,0,0,1,253,145a10.94,10.94,0,0,1,1.66,6,10.12,10.12,0,0,1-2.51,7q-2.51,2.78-7.49,3.5a17.47,17.47,0,0,1,4.09,3.18,42.65,42.65,0,0,1,4.36,6.15l4.62,7.39h-9.15L243,169.94a54.49,54.49,0,0,0-4-5.56,5.84,5.84,0,0,0-2.3-1.58,12.75,12.75,0,0,0-3.85-.43h-1.55v15.82Zm7.65-21.86h5.65q5.51,0,6.88-.47a4.12,4.12,0,0,0,2.14-1.6,4.9,4.9,0,0,0,.78-2.84,4.55,4.55,0,0,0-1-3.09,4.71,4.71,0,0,0-2.89-1.48c-.62-.09-2.48-.13-5.58-.13h-6Zm29,3.15a24.1,24.1,0,0,1,1.73-9.71,17.92,17.92,0,0,1,3.53-5.2,14.8,14.8,0,0,1,4.89-3.41,20.78,20.78,0,0,1,8.17-1.5q8.37,0,13.39,5.2t5,14.44q0,9.16-5,14.35t-13.33,5.18q-8.44,0-13.43-5.15T260.32,159.48Zm7.88-.26q0,6.43,3,9.76a10.21,10.21,0,0,0,15.05,0q2.92-3.3,2.93-9.88t-2.85-9.72a10.59,10.59,0,0,0-15.21,0Q268.2,152.68,268.2,159.22Zm59,5,7.41,2.35c-1.13,4.14-3,7.21-5.67,9.21a17.84,17.84,0,0,1-22.46-2.14q-4.86-5.16-4.86-14.1,0-9.45,4.88-14.68a16.76,16.76,0,0,1,12.84-5.24,15.73,15.73,0,0,1,11.29,4.11,14.9,14.9,0,0,1,3.88,7L327,152.56a7.83,7.83,0,0,0-8-6.36,8.64,8.64,0,0,0-6.84,3q-2.62,3-2.62,9.8,0,7.17,2.58,10.23a8.39,8.39,0,0,0,6.72,3.05,7.7,7.7,0,0,0,5.25-1.94A11.31,11.31,0,0,0,327.22,164.26Zm14,13.93V140.31h28.08v6.41H348.89v8.39h19v6.39h-19v10.3h21.16v6.39Zm33.41-12.33,7.44-.72a9.07,9.07,0,0,0,2.73,5.5,8.22,8.22,0,0,0,5.54,1.76,8.5,8.5,0,0,0,5.56-1.56,4.68,4.68,0,0,0,1.88-3.66,3.43,3.43,0,0,0-.79-2.29,6.35,6.35,0,0,0-2.75-1.64q-1.35-.47-6.12-1.65-6.15-1.53-8.63-3.75a9.83,9.83,0,0,1-3.49-7.62,9.68,9.68,0,0,1,1.64-5.41,10.26,10.26,0,0,1,4.73-3.84,18.87,18.87,0,0,1,7.45-1.32q7.13,0,10.74,3.13a11,11,0,0,1,3.78,8.35l-7.65.33a6.5,6.5,0,0,0-2.1-4.2,7.74,7.74,0,0,0-4.85-1.28,8.77,8.77,0,0,0-5.22,1.37,2.76,2.76,0,0,0-1.21,2.35,2.89,2.89,0,0,0,1.14,2.3q1.44,1.22,7,2.54a36.65,36.65,0,0,1,8.26,2.72,10.58,10.58,0,0,1,4.18,3.85,11.89,11.89,0,0,1-.29,12.13,10.87,10.87,0,0,1-5.12,4.23,21.46,21.46,0,0,1-8.24,1.38q-7.18,0-11-3.32T374.65,165.86Zm35.35,0,7.44-.72a9,9,0,0,0,2.72,5.5,8.25,8.25,0,0,0,5.54,1.76,8.53,8.53,0,0,0,5.57-1.56,4.67,4.67,0,0,0,1.87-3.66,3.47,3.47,0,0,0-.78-2.29,6.41,6.41,0,0,0-2.75-1.64q-1.35-.47-6.13-1.65-6.15-1.53-8.63-3.75a9.86,9.86,0,0,1-3.49-7.62,9.69,9.69,0,0,1,1.65-5.41,10.23,10.23,0,0,1,4.72-3.84,19,19,0,0,1,7.46-1.32q7.13,0,10.73,3.13a11,11,0,0,1,3.79,8.35l-7.65.33a6.51,6.51,0,0,0-2.11-4.2,7.71,7.71,0,0,0-4.84-1.28,8.77,8.77,0,0,0-5.22,1.37,2.76,2.76,0,0,0-1.21,2.35,2.88,2.88,0,0,0,1.13,2.3q1.45,1.22,7,2.54a36.83,36.83,0,0,1,8.26,2.72,10.65,10.65,0,0,1,4.18,3.85,11.24,11.24,0,0,1,1.51,6,11.12,11.12,0,0,1-1.81,6.1,10.85,10.85,0,0,1-5.11,4.23,21.49,21.49,0,0,1-8.24,1.38q-7.19,0-11-3.32C412,173.32,410.49,170.1,410,165.86Zm37.23-25.55h7.65v20.51a42.61,42.61,0,0,0,.28,6.33,6.17,6.17,0,0,0,2.34,3.74,8.12,8.12,0,0,0,5.05,1.41,7.69,7.69,0,0,0,4.91-1.34,5.26,5.26,0,0,0,2-3.26,43.52,43.52,0,0,0,.33-6.44V140.31h7.65V160.2a51.45,51.45,0,0,1-.62,9.64,10.51,10.51,0,0,1-2.29,4.75,11.37,11.37,0,0,1-4.45,3.09,19.33,19.33,0,0,1-7.29,1.15,21.09,21.09,0,0,1-8.23-1.25,11.8,11.8,0,0,1-4.43-3.26,10.4,10.4,0,0,1-2.14-4.19,46.1,46.1,0,0,1-.75-9.62Zm36.37,25.55,7.44-.72a9.07,9.07,0,0,0,2.73,5.5,8.22,8.22,0,0,0,5.54,1.76,8.54,8.54,0,0,0,5.57-1.56,4.7,4.7,0,0,0,1.87-3.66,3.43,3.43,0,0,0-.79-2.29,6.35,6.35,0,0,0-2.75-1.64q-1.35-.47-6.12-1.65-6.15-1.53-8.63-3.75a9.83,9.83,0,0,1-3.49-7.62,9.68,9.68,0,0,1,1.64-5.41,10.26,10.26,0,0,1,4.73-3.84,18.91,18.91,0,0,1,7.45-1.32q7.13,0,10.74,3.13a11,11,0,0,1,3.78,8.35l-7.65.33a6.5,6.5,0,0,0-2.1-4.2,7.74,7.74,0,0,0-4.85-1.28,8.77,8.77,0,0,0-5.22,1.37,2.76,2.76,0,0,0-1.21,2.35,2.89,2.89,0,0,0,1.14,2.3q1.44,1.22,7,2.54a36.65,36.65,0,0,1,8.26,2.72,10.58,10.58,0,0,1,4.18,3.85,11.89,11.89,0,0,1-.29,12.13,10.87,10.87,0,0,1-5.12,4.23,21.46,21.46,0,0,1-8.24,1.38q-7.19,0-11-3.32T483.6,165.86Zm51.91-25.55h14a27.42,27.42,0,0,1,7.21.72,12.71,12.71,0,0,1,5.71,3.49,16.67,16.67,0,0,1,3.62,6.14,28.12,28.12,0,0,1,1.24,9,24.75,24.75,0,0,1-1.17,8.06,16.5,16.5,0,0,1-4.05,6.69,13.58,13.58,0,0,1-5.38,3,23.19,23.19,0,0,1-6.76.8h-14.4Zm7.65,6.41V171.8h5.71a21,21,0,0,0,4.63-.36,7,7,0,0,0,3.08-1.57,8,8,0,0,0,2-3.66,25,25,0,0,0,.77-6.94,22.91,22.91,0,0,0-.77-6.74,8.7,8.7,0,0,0-2.17-3.67,7.26,7.26,0,0,0-3.54-1.78,34.86,34.86,0,0,0-6.28-.36Zm30.64,31.47V140.31h28.08v6.41H581.44v8.39h19v6.39h-19v10.3H602.6v6.39ZM648,164.26l7.42,2.35q-1.71,6.21-5.68,9.21a16.13,16.13,0,0,1-10.06,3,16.31,16.31,0,0,1-12.4-5.15q-4.86-5.16-4.86-14.1,0-9.45,4.89-14.68t12.84-5.24a15.76,15.76,0,0,1,11.29,4.11,15,15,0,0,1,3.87,7l-7.57,1.81a7.83,7.83,0,0,0-8-6.36,8.64,8.64,0,0,0-6.84,3q-2.61,3-2.62,9.8,0,7.17,2.59,10.23a8.39,8.39,0,0,0,6.71,3.05,7.68,7.68,0,0,0,5.25-1.94A11.31,11.31,0,0,0,648,164.26Zm12.47-4.78a24.1,24.1,0,0,1,1.73-9.71,17.92,17.92,0,0,1,3.53-5.2,14.73,14.73,0,0,1,4.9-3.41,20.77,20.77,0,0,1,8.16-1.5q8.37,0,13.4,5.2t5,14.44q0,9.16-5,14.35t-13.34,5.18q-8.45,0-13.43-5.15T660.5,159.48Zm7.88-.26q0,6.43,3,9.76a9.7,9.7,0,0,0,7.55,3.32,9.57,9.57,0,0,0,7.5-3.3q2.94-3.3,2.94-9.88t-2.86-9.72a10.58,10.58,0,0,0-15.2,0Q668.39,152.68,668.38,159.22Zm34.86,19V140.31h7.44l15.51,25.29V140.31h7.1v37.88h-7.67l-15.27-24.7v24.7Zm62.42-13.93,7.41,2.35q-1.7,6.21-5.67,9.21a17.84,17.84,0,0,1-22.46-2.14q-4.86-5.16-4.86-14.1,0-9.45,4.88-14.68a16.76,16.76,0,0,1,12.84-5.24,15.73,15.73,0,0,1,11.29,4.11,14.9,14.9,0,0,1,3.88,7l-7.57,1.81a7.83,7.83,0,0,0-8-6.36,8.64,8.64,0,0,0-6.84,3q-2.62,3-2.62,9.8,0,7.17,2.58,10.23a8.41,8.41,0,0,0,6.72,3.05,7.7,7.7,0,0,0,5.25-1.94A11.31,11.31,0,0,0,765.66,164.26Zm14,13.93V140.31h28.08v6.41H787.33v8.39h19v6.39h-19v10.3h21.16v6.39Zm35.37,0V140.31h16.1q6.08,0,8.82,1a8.72,8.72,0,0,1,4.41,3.63,10.93,10.93,0,0,1,1.65,6,10.12,10.12,0,0,1-2.51,7c-1.67,1.85-4.16,3-7.49,3.5a17.74,17.74,0,0,1,4.1,3.18,43.6,43.6,0,0,1,4.35,6.15l4.62,7.39H840l-5.53-8.25a52.91,52.91,0,0,0-4-5.56,5.78,5.78,0,0,0-2.3-1.58,12.71,12.71,0,0,0-3.85-.43H822.7v15.82Zm7.65-21.86h5.66q5.5,0,6.87-.47a4.08,4.08,0,0,0,2.14-1.6,4.9,4.9,0,0,0,.78-2.84,4.55,4.55,0,0,0-1-3.09,4.66,4.66,0,0,0-2.88-1.48c-.62-.09-2.48-.13-5.58-.13h-6Zm39.11,21.86V146.72H850.57v-6.41h30.1v6.41H869.46v31.47Zm57.85,0h-8.32l-3.3-8.61H892.9l-3.13,8.61h-8.11l14.75-37.88h8.09Zm-14.08-15-5.22-14-5.11,14Zm26.71,15V146.72H921.05v-6.41h30.1v6.41H939.94v31.47Zm23.47,0V140.31h7.64v37.88Zm13.33-18.71a23.92,23.92,0,0,1,1.74-9.71,17.89,17.89,0,0,1,3.52-5.2,14.73,14.73,0,0,1,4.9-3.41,20.77,20.77,0,0,1,8.16-1.5q8.37,0,13.4,5.2t5,14.44q0,9.16-5,14.35t-13.33,5.18q-8.46,0-13.44-5.15T969.09,159.48Zm7.88-.26q0,6.43,3,9.76a10.21,10.21,0,0,0,15,0q2.93-3.3,2.93-9.88t-2.86-9.72a10.58,10.58,0,0,0-15.2,0Q977,152.68,977,159.22Zm34.87,19V140.31h7.44l15.5,25.29V140.31h7.1v37.88h-7.67l-15.27-24.7v24.7Z"/><g class="cls-4"><image width="621" height="621" transform="translate(27.65 10.39) scale(0.24)" xlink:href="Plan%20de%20travail1.png"/></g><path d="M186.57,237.71v-28.4h21.07v4.8H192.31v6.3h14.26v4.79H192.31v7.73h15.87v4.78Zm7.29-30,2.67-5.8h6.11l-5.33,5.8Zm28.57,9.45v4.35h-3.72v8.29a18.81,18.81,0,0,0,.11,2.93,1.19,1.19,0,0,0,.48.69,1.54,1.54,0,0,0,.92.27,7,7,0,0,0,2.19-.52l.47,4.22a10.72,10.72,0,0,1-4.31.82,6.8,6.8,0,0,1-2.65-.5,3.84,3.84,0,0,1-1.74-1.27,5.16,5.16,0,0,1-.76-2.13,25.49,25.49,0,0,1-.18-3.83v-9h-2.5v-4.35h2.5v-4.08l5.47-3.18v7.26Zm7.87,6.28-4.94-.89a7.72,7.72,0,0,1,2.87-4.42,10.55,10.55,0,0,1,6.05-1.43,13.09,13.09,0,0,1,5.42.86,5.44,5.44,0,0,1,2.51,2.19,11.16,11.16,0,0,1,.73,4.88l-.06,6.35a22.49,22.49,0,0,0,.26,4,11.8,11.8,0,0,0,1,2.76h-5.39c-.14-.36-.31-.89-.52-1.6-.09-.33-.15-.54-.19-.64a9.85,9.85,0,0,1-3,2,8.59,8.59,0,0,1-3.39.68,7,7,0,0,1-5-1.73,5.73,5.73,0,0,1-1.83-4.36,5.9,5.9,0,0,1,.83-3.11,5.52,5.52,0,0,1,2.34-2.09,18.29,18.29,0,0,1,4.33-1.27,30.15,30.15,0,0,0,5.29-1.33v-.55a2.86,2.86,0,0,0-.77-2.24,4.72,4.72,0,0,0-2.93-.66,3.91,3.91,0,0,0-2.27.57A4,4,0,0,0,230.3,223.41Zm7.29,4.42c-.7.23-1.8.51-3.31.83a10.32,10.32,0,0,0-3,1,2.28,2.28,0,0,0-1.06,1.92,2.68,2.68,0,0,0,.85,2,3,3,0,0,0,2.17.83,4.69,4.69,0,0,0,2.81-1,3.42,3.42,0,0,0,1.3-1.8,10.86,10.86,0,0,0,.21-2.65Zm10.63-10.7h5.08v3a7.47,7.47,0,0,1,2.68-2.52,7.32,7.32,0,0,1,3.74-1,7.85,7.85,0,0,1,6.08,2.81q2.51,2.81,2.5,7.83c0,3.43-.84,6.11-2.52,8a7.83,7.83,0,0,1-6.1,2.86,6.94,6.94,0,0,1-3.09-.68,10.41,10.41,0,0,1-2.92-2.32v10.36h-5.45Zm5.39,10A7.89,7.89,0,0,0,255,232.2a4.18,4.18,0,0,0,3.35,1.66,3.94,3.94,0,0,0,3.16-1.52q1.26-1.53,1.26-5a7.49,7.49,0,0,0-1.3-4.81,4,4,0,0,0-3.22-1.57,4.16,4.16,0,0,0-3.31,1.54A6.86,6.86,0,0,0,253.61,227.08Zm30.88,4.08,5.43.91a8.91,8.91,0,0,1-3.31,4.55,9.67,9.67,0,0,1-5.64,1.56q-5.37,0-8-3.51a11.75,11.75,0,0,1-2-7.09q0-5.12,2.67-8a8.81,8.81,0,0,1,6.76-2.9,9.15,9.15,0,0,1,7.25,3q2.65,3,2.54,9.29H276.57a5.51,5.51,0,0,0,1.31,3.77,4.12,4.12,0,0,0,3.14,1.35,3.29,3.29,0,0,0,2.15-.7A4.17,4.17,0,0,0,284.49,231.16Zm.31-5.5a5.2,5.2,0,0,0-1.22-3.59,3.93,3.93,0,0,0-5.77.06,5,5,0,0,0-1.15,3.53Zm38.09,7v5.05H303.8a13.22,13.22,0,0,1,1.86-5.43,36,36,0,0,1,6.12-6.81,39.22,39.22,0,0,0,4.52-4.65,6,6,0,0,0,1.12-3.34,3.78,3.78,0,0,0-1-2.8,4.14,4.14,0,0,0-5.41,0,5.27,5.27,0,0,0-1.16,3.41l-5.43-.54c.32-3,1.34-5.15,3-6.45a10.21,10.21,0,0,1,6.4-2,9.23,9.23,0,0,1,6.6,2.27,7.41,7.41,0,0,1,2.41,5.64,9.82,9.82,0,0,1-.69,3.65,15,15,0,0,1-2.18,3.63,35.25,35.25,0,0,1-3.57,3.63c-1.71,1.57-2.8,2.62-3.26,3.13a10,10,0,0,0-1.12,1.52Z"/><rect x="335.72" y="225.39" width="22.07" height="4.07"/><path d="M371.74,237.71v-28.4H381a33.85,33.85,0,0,1,6.82.42,7.51,7.51,0,0,1,4.09,2.78,8.83,8.83,0,0,1,1.64,5.54,9.26,9.26,0,0,1-.94,4.39,7.75,7.75,0,0,1-2.42,2.8,8.22,8.22,0,0,1-3,1.35,32.8,32.8,0,0,1-5.95.41h-3.74v10.71Zm5.74-23.6v8.06h3.14a15.09,15.09,0,0,0,4.53-.44,3.71,3.71,0,0,0,2.44-3.61,3.64,3.64,0,0,0-.91-2.55,3.84,3.84,0,0,0-2.3-1.26,27.23,27.23,0,0,0-4.13-.2Zm46.34,23.6h-6.24l-2.48-6.45H403.74l-2.34,6.45h-6.09l11.07-28.4h6.06Zm-10.56-11.24-3.92-10.54-3.83,10.54Zm13.68,11.24v-28.4H439a20.72,20.72,0,0,1,6.62.76,6.49,6.49,0,0,1,3.3,2.72,8.18,8.18,0,0,1,1.24,4.48,7.56,7.56,0,0,1-1.88,5.28,9,9,0,0,1-5.61,2.63,13.21,13.21,0,0,1,3.07,2.38,33.3,33.3,0,0,1,3.26,4.61l3.47,5.54h-6.86l-4.15-6.18a39.23,39.23,0,0,0-3-4.17,4.46,4.46,0,0,0-1.72-1.19,9.58,9.58,0,0,0-2.89-.32h-1.16v11.86Zm5.74-16.39h4.24a22,22,0,0,0,5.15-.35,3,3,0,0,0,1.61-1.2,3.68,3.68,0,0,0,.58-2.13,3.41,3.41,0,0,0-.76-2.32,3.52,3.52,0,0,0-2.16-1.11c-.47-.07-1.86-.1-4.19-.1h-4.47ZM462,237.71v-23.6h-8.43v-4.8h22.57v4.8h-8.41v23.6Zm17.62,0v-28.4h5.74v28.4ZM509,227.27l5.56,1.76a12.47,12.47,0,0,1-4.26,6.91,13.36,13.36,0,0,1-16.84-1.61q-3.65-3.86-3.65-10.57,0-7.09,3.66-11a12.58,12.58,0,0,1,9.64-3.93,11.82,11.82,0,0,1,8.46,3.08,11.21,11.21,0,0,1,2.91,5.23l-5.68,1.36a5.87,5.87,0,0,0-6-4.77,6.47,6.47,0,0,0-5.12,2.27q-2,2.26-2,7.35c0,3.59.65,6.14,1.94,7.67a6.31,6.31,0,0,0,5,2.29,5.75,5.75,0,0,0,3.93-1.46A8.44,8.44,0,0,0,509,227.27Zm10.37,10.44v-28.4h5.73v28.4Zm11.12,0v-28.4h9.21a33.85,33.85,0,0,1,6.82.42,7.51,7.51,0,0,1,4.09,2.78,8.9,8.9,0,0,1,1.64,5.54,9.14,9.14,0,0,1-1,4.39,7.63,7.63,0,0,1-2.41,2.8,8.22,8.22,0,0,1-3,1.35,32.8,32.8,0,0,1-5.95.41H536.2v10.71Zm5.74-23.6v8.06h3.14a15.09,15.09,0,0,0,4.53-.44,3.74,3.74,0,0,0,2.44-3.61,3.64,3.64,0,0,0-.91-2.55,3.84,3.84,0,0,0-2.3-1.26,27.23,27.23,0,0,0-4.13-.2Zm20.72,23.6v-28.4H578v4.8H562.66v6.3h14.26v4.79H562.66v7.73h15.87v4.78Zm26.48,0v-28.4h12.07a20.72,20.72,0,0,1,6.62.76,6.53,6.53,0,0,1,3.3,2.72,8.18,8.18,0,0,1,1.24,4.48,7.56,7.56,0,0,1-1.88,5.28,9,9,0,0,1-5.62,2.63,13,13,0,0,1,3.07,2.38,32.31,32.31,0,0,1,3.27,4.61l3.47,5.54h-6.86l-4.15-6.18a39.23,39.23,0,0,0-3-4.17,4.42,4.42,0,0,0-1.73-1.19,9.5,9.5,0,0,0-2.88-.32h-1.17v11.86Zm5.73-16.39h4.25a22,22,0,0,0,5.15-.35,3.06,3.06,0,0,0,1.61-1.2,3.68,3.68,0,0,0,.58-2.13,3.41,3.41,0,0,0-.76-2.32,3.52,3.52,0,0,0-2.16-1.11c-.47-.07-1.86-.1-4.19-.1h-4.48Zm22.93,16.39v-5.44h5.45v5.44Zm24.21-10.44v-4.79h12.36V233.8a15.5,15.5,0,0,1-5.22,3.07,18.91,18.91,0,0,1-6.93,1.33,15.62,15.62,0,0,1-7.77-1.87,11.89,11.89,0,0,1-5-5.35,17.3,17.3,0,0,1-1.67-7.57,16.32,16.32,0,0,1,1.86-7.88,12.5,12.5,0,0,1,5.45-5.29,14.6,14.6,0,0,1,6.8-1.42c3.53,0,6.28.74,8.27,2.22a10,10,0,0,1,3.82,6.13l-5.69,1.07a6,6,0,0,0-2.26-3.3,6.84,6.84,0,0,0-4.14-1.22,7.77,7.77,0,0,0-6,2.39c-1.48,1.59-2.22,3.94-2.22,7.07q0,5.06,2.25,7.59a7.52,7.52,0,0,0,5.89,2.53,10,10,0,0,0,3.62-.71,12.3,12.3,0,0,0,3.11-1.72v-3.6Zm17.58,10.44v-28.4h21.06v4.8H659.58v6.3h14.27v4.79H659.58v7.73h15.87v4.78Zm26.42,0v-5.44h5.44v5.44Zm29.16-10.44L715,229a12.47,12.47,0,0,1-4.26,6.91,12.09,12.09,0,0,1-7.54,2.26,12.22,12.22,0,0,1-9.31-3.87q-3.63-3.86-3.64-10.57,0-7.09,3.66-11a12.57,12.57,0,0,1,9.63-3.93A11.83,11.83,0,0,1,712,211.9a11.3,11.3,0,0,1,2.91,5.23l-5.68,1.36a5.87,5.87,0,0,0-6-4.77,6.47,6.47,0,0,0-5.12,2.27q-2,2.26-2,7.35c0,3.59.65,6.14,1.94,7.67a6.31,6.31,0,0,0,5,2.29,5.75,5.75,0,0,0,3.93-1.46A8.37,8.37,0,0,0,709.43,227.27ZM720,237.71v-28.4h5.73v11.18H737V209.31h5.74v28.4H737V225.29H725.73v12.42Z"/><g class="cls-5"><g class="cls-6"><image width="1291" height="57" transform="translate(183.69 258.45) scale(0.92 0.94)" xlink:href="Plan%20de%20travail2.png"/></g></g><g class="cls-7"><image width="1905" height="854" transform="translate(182.46 347.81) scale(0.53 0.53)" xlink:href="Plan%20de%20travail3.png"/></g><rect class="cls-3" x="9.92" y="36" width="163.33" height="215.2"/><path d="M93.65,49.82c0-7,3.33-11.13,9-11.13s9,4.11,9,11.13S108.29,61,102.62,61,93.65,56.84,93.65,49.82Zm13,0c0-4.8-1.44-7.38-4-7.38s-4,2.58-4,7.38,1.44,7.38,4,7.38S106.64,54.62,106.64,49.82ZM118.76,60.5h-5.13V55.58h5.13ZM147.2,45.89c0,4.23-3,6.87-7.77,6.87h-4.26V60.5H130.1V39.2h9.45C144.17,39.2,147.2,41.84,147.2,45.89Zm-5.31.15c0-2-1.29-3.18-3.57-3.18h-3.15v6.36h3.15C140.57,49.22,141.89,48.05,141.89,46Zm16.05,6.3h-3.06V60.5h-5.07V39.2h9.36c5.4,0,7.8,2.64,7.8,6.54a5.89,5.89,0,0,1-4.17,5.85l4.71,8.91H162Zm-3.06-3.48h3.27c2.46,0,3.54-1.2,3.54-3.12s-1.05-3-3.54-3h-3.27Zm13.86,1c0-6.87,4.11-11.16,10.5-11.16S189.73,43,189.73,49.85,185.63,61,179.24,61,168.74,56.69,168.74,49.85Zm15.78,0c0-4.5-2-7.2-5.28-7.2s-5.31,2.7-5.31,7.2,2,7.2,5.31,7.2S184.52,54.35,184.52,49.85Zm7.35,0c0-6.72,4-11.19,10.44-11.19,5.43,0,8.84,3,9.41,7.65l-5.12.9c-.3-2.82-1.86-4.47-4.41-4.47-3.24,0-5.13,2.73-5.13,7.08s1.92,7,5.28,7c2.37,0,4-1.62,4.38-4.38l5.12,1.11c-1,4.5-4.31,7.38-9.59,7.38C195.5,61,191.87,56.6,191.87,49.88Zm37.64,6.87V60.5H214.73V39.2H229.3V43h-9.5v4.8h9v3.72h-9v5.28Zm1.39-.69,3.75-2.64a6.17,6.17,0,0,0,5.79,3.66c2,0,3.66-.75,3.66-2.43S243.17,52.46,241,52l-2.85-.6c-3.72-.81-5.88-2.82-5.88-6.39,0-3.9,3.18-6.33,8.31-6.33,3.77,0,6.95,1.38,8.45,4.23l-3.3,2.79a6,6,0,0,0-5.48-3.27c-2,0-3.3.84-3.3,2.19s.84,2.07,3.09,2.58l3.09.66c3.77.84,5.81,2.64,5.81,6.3,0,4-3.12,6.84-8.69,6.84C235.67,61,232.37,59.06,230.9,56.06Zm19.07,0,3.75-2.64a6.17,6.17,0,0,0,5.79,3.66c2,0,3.66-.75,3.66-2.43s-.93-2.19-3.09-2.64l-2.85-.6c-3.72-.81-5.88-2.82-5.88-6.39,0-3.9,3.18-6.33,8.31-6.33,3.78,0,7,1.38,8.46,4.23l-3.3,2.79a6,6,0,0,0-5.49-3.27c-2,0-3.3.84-3.3,2.19s.84,2.07,3.09,2.58l3.09.66c3.78.84,5.82,2.64,5.82,6.3,0,4-3.12,6.84-8.7,6.84C254.74,61,251.44,59.06,250,56.06ZM275.74,39.2V52.85a4,4,0,1,0,7.92,0V39.2h5.07V53.06c0,4.86-3.36,7.95-9,7.95s-9-3.09-9-7.95V39.2Zm14.61,16.86,3.75-2.64a6.17,6.17,0,0,0,5.79,3.66c2,0,3.66-.75,3.66-2.43s-.93-2.19-3.09-2.64l-2.85-.6c-3.72-.81-5.88-2.82-5.88-6.39,0-3.9,3.18-6.33,8.31-6.33,3.78,0,7,1.38,8.46,4.23l-3.3,2.79a6,6,0,0,0-5.49-3.27c-2,0-3.3.84-3.3,2.19s.84,2.07,3.09,2.58l3.09.66c3.78.84,5.82,2.64,5.82,6.3,0,4-3.12,6.84-8.7,6.84C295.12,61,291.82,59.06,290.35,56.06Zm27.12-6.18c0-6.72,4-11.19,10.44-11.19,5.43,0,8.85,3,9.42,7.65l-5.13.9c-.3-2.82-1.86-4.47-4.41-4.47-3.24,0-5.13,2.73-5.13,7.08s1.92,7,5.28,7c2.37,0,4-1.62,4.38-4.38l5.13,1.11c-1,4.5-4.32,7.38-9.6,7.38C321.1,61,317.47,56.6,317.47,49.88Zm34.89,5.64H344.5l-1.62,5h-5.07l7.74-21.3h5.79l7.74,21.3H354ZM351.19,52,349.24,46a18.76,18.76,0,0,1-.78-3h-.06a18.76,18.76,0,0,1-.78,3L345.67,52Zm10.5-12.75h5.61l6.84,12.15a22.16,22.16,0,0,1,1.29,2.76h.06c0-.84,0-1.71,0-2.73V39.2h4.65V60.5h-5.4l-7.08-12.27a20.24,20.24,0,0,1-1.26-2.61h-.06c0,.87,0,1.77,0,2.82V60.5h-4.65Zm38.28,4h-6.21V60.5h-5V43.22h-6.18v-4H400Zm-.06,6.63c0-6.87,4.11-11.16,10.5-11.16s10.5,4.29,10.5,11.16S416.8,61,410.41,61,399.91,56.69,399.91,49.85Zm15.78,0c0-4.5-1.95-7.2-5.28-7.2s-5.31,2.7-5.31,7.2,2,7.2,5.31,7.2S415.69,54.35,415.69,49.85ZM424,39.2h5.61l6.84,12.15a22.16,22.16,0,0,1,1.29,2.76h.06c0-.84,0-1.71,0-2.73V39.2h4.65V60.5H437l-7.08-12.27a20.24,20.24,0,0,1-1.26-2.61h-.06c0,.87,0,1.77,0,2.82V60.5H424Zm35.61,16.32h-7.86l-1.62,5h-5.07l7.74-21.3h5.79l7.74,21.3h-5.1ZM458.44,52,456.49,46a18.76,18.76,0,0,1-.78-3h-.06a18.76,18.76,0,0,1-.78,3L452.92,52Zm10.5-12.75H474V56.39h8.64V60.5H468.94Zm36.54,17.55V60.5H490.69V39.2h14.58V43h-9.51v4.8h9v3.72h-9v5.28Zm19.23-13.53H518.5V60.5h-5V43.22h-6.18v-4h17.43Zm7.65-4h8.49c6.39,0,10.53,4.26,10.53,10.53S547.24,60.5,540.79,60.5h-8.43Zm8.22,17.58c3.6,0,5.58-3.24,5.58-7.05s-1.86-6.81-5.52-6.81h-3.21V56.78Zm28.68,0V60.5H554.47V39.2h14.58V43h-9.51v4.8h9v3.72h-9v5.28Zm-5.67-18.84h-3.66l3-3.54h4.17ZM573,39.2h7l3.93,13a14.92,14.92,0,0,1,.51,2.58h.06a16.5,16.5,0,0,1,.54-2.64l3.75-13h7V60.5h-4.62V46a21.43,21.43,0,0,1,.12-2.4h-.09a12.12,12.12,0,0,1-.45,2.07L586.42,60.5h-4.26l-4.47-14.85a10,10,0,0,1-.45-2h-.09c.06.72.12,1.53.12,2.37V60.5H573Zm40,16.32h-7.86l-1.62,5h-5.07l7.74-21.3h5.79l7.74,21.3h-5.1ZM611.77,52,609.82,46a18.76,18.76,0,0,1-.78-3H609a18.76,18.76,0,0,1-.78,3l-2,5.94Zm18.63.39h-3.06V60.5h-5.07V39.2h9.36c5.4,0,7.8,2.64,7.8,6.54a5.89,5.89,0,0,1-4.17,5.85L640,60.5h-5.49Zm-3.06-3.48h3.27c2.46,0,3.54-1.2,3.54-3.12s-1-3-3.54-3h-3.27Zm13.86,1c0-6.72,4-11.19,10.44-11.19,5.43,0,8.85,3,9.42,7.65l-5.13.9c-.3-2.82-1.86-4.47-4.41-4.47-3.24,0-5.13,2.73-5.13,7.08s1.92,7,5.28,7c2.37,0,4-1.62,4.38-4.38l5.13,1.11c-1,4.5-4.32,7.38-9.6,7.38C644.83,61,641.2,56.6,641.2,49.88ZM682.39,60.5h-5.07V51.65h-8.19V60.5h-5.07V39.2h5.07v8.55h8.19V39.2h5.07Zm19.23-3.75V60.5H686.83V39.2h14.58V43H691.9v4.8h9v3.72h-9v5.28Zm9.75-6.87c0-6.72,4-11.19,10.44-11.19,5.43,0,8.85,3,9.42,7.65l-5.13.9c-.3-2.82-1.86-4.47-4.41-4.47-3.24,0-5.13,2.73-5.13,7.08s1.92,7,5.28,7c2.37,0,4-1.62,4.38-4.38l5.13,1.11c-1,4.5-4.32,7.38-9.6,7.38C715,61,711.37,56.6,711.37,49.88Zm21.63,0c0-6.87,4.11-11.16,10.5-11.16S754,43,754,49.85,749.89,61,743.5,61,733,56.69,733,49.85Zm15.78,0c0-4.5-1.95-7.2-5.28-7.2s-5.31,2.7-5.31,7.2,2,7.2,5.31,7.2S748.78,54.35,748.78,49.85Zm8.31-10.65h7l3.93,13a14.92,14.92,0,0,1,.51,2.58h.06a16.5,16.5,0,0,1,.54-2.64l3.75-13h7V60.5h-4.62V46a21.43,21.43,0,0,1,.12-2.4h-.09a12.12,12.12,0,0,1-.45,2.07L770.56,60.5H766.3l-4.47-14.85a10,10,0,0,1-.45-2h-.09c.06.72.12,1.53.12,2.37V60.5h-4.32Zm27.24,0h7l3.93,13a14.92,14.92,0,0,1,.51,2.58h.06a16.5,16.5,0,0,1,.54-2.64l3.75-13h7V60.5h-4.62V46a21.43,21.43,0,0,1,.12-2.4h-.09a12.12,12.12,0,0,1-.45,2.07L797.8,60.5h-4.26l-4.47-14.85a10,10,0,0,1-.45-2h-.09c.06.72.12,1.53.12,2.37V60.5h-4.32Zm31.95,0V52.85a4,4,0,1,0,7.92,0V39.2h5.07V53.06c0,4.86-3.36,7.95-9,7.95s-9-3.09-9-7.95V39.2Zm17.07,0H839l6.84,12.15a22.16,22.16,0,0,1,1.29,2.76h.06c0-.84,0-1.71,0-2.73V39.2h4.65V60.5h-5.4l-7.08-12.27A20.24,20.24,0,0,1,838,45.62H838c0,.87,0,1.77,0,2.82V60.5h-4.65ZM869,55.52H861.1l-1.62,5h-5.07l7.74-21.3h5.79l7.74,21.3h-5.1ZM867.79,52,865.84,46a18.76,18.76,0,0,1-.78-3H865a18.76,18.76,0,0,1-.78,3l-2,5.94Zm10.5-12.75h5.07V56.39H892V60.5H878.29ZM909.7,56.75V60.5H894.91V39.2h14.58V43H900v4.8h9v3.72h-9v5.28Z"/></g></svg>