<svg xmlns="http://www.w3.org/2000/svg" xmlns:xlink="http://www.w3.org/1999/xlink" width="1190.55" height="841.89" viewBox="0 0 1190.55 841.89">
  <defs>
    <style>
      .cls-1 {
        clip-path: url(#clip-Plan_de_travail_12);
      }

      .cls-2 {
        fill: none;
      }

      .cls-3 {
        fill: #fff;
      }
    </style>
    <clipPath id="clip-Plan_de_travail_12">
      <rect width="1190.55" height="841.89"/>
    </clipPath>
  </defs>
  <g id="Plan_de_travail_12" data-name="Plan de travail 12" class="cls-1">
    <rect class="cls-3" width="1190.55" height="841.89"/>
    <path id="Tracé_359" data-name="Tracé 359" d="M5269.867,1284.25l4.89-.48c.03,2.34,1.32,3.72,3.36,3.72a2.715,2.715,0,0,0,3-3.03c0-1.92-1.14-2.91-3.6-2.91h-1.11v-3.3h1.08c2.1,0,3.18-1.08,3.18-2.91a2.5,2.5,0,0,0-2.76-2.729c-1.95,0-3.06,1.41-3.06,3.779l-4.77-.63c0-4.169,3.12-6.809,8.07-6.809,4.8,0,7.5,2.16,7.5,5.819a5.013,5.013,0,0,1-4.169,4.89c3.089.48,4.739,2.22,4.739,5.13,0,3.96-3.179,6.42-8.129,6.42C5273.077,1291.21,5269.927,1288.51,5269.867,1284.25Zm23.97,6.51h-5.13v-4.92h5.13Zm28.439.75a5.978,5.978,0,0,0,1.68-.24v3.93a13.671,13.671,0,0,1-2.25.18c-3.6,0-5.939-1.53-6.959-4.11h-.42c-6.39,0-10.5-4.32-10.5-11.16,0-6.869,4.11-11.159,10.5-11.159s10.5,4.29,10.5,11.159c0,5.04-2.22,8.7-5.909,10.29A4.884,4.884,0,0,0,5322.276,1291.51Zm-7.949-4.2c3.33,0,5.28-2.7,5.28-7.2s-1.95-7.2-5.28-7.2-5.31,2.7-5.31,7.2C5309.017,1284.58,5311,1287.31,5314.327,1287.31Zm18.3-17.849v13.649a3.96,3.96,0,1,0,7.919,0v-13.649h5.07v13.859c0,4.86-3.36,7.95-9.029,7.95s-9.03-3.09-9.03-7.95v-13.859Zm28.889,16.319h-7.859l-1.62,4.98h-5.07l7.74-21.3h5.789l7.74,21.3h-5.1Zm-1.17-3.57-1.95-5.94a25.925,25.925,0,0,1-.779-3h-.06a20.833,20.833,0,0,1-.78,3l-1.95,5.94Zm23.19-8.729h-6.21v17.279h-5.04v-17.279h-6.179v-4.02h17.429Zm10.53,9.119h-3.06v8.16h-5.069v-21.3h9.359c5.4,0,7.8,2.64,7.8,6.539a5.891,5.891,0,0,1-4.17,5.85l4.71,8.91h-5.49Zm-3.06-3.48h3.27c2.46,0,3.54-1.2,3.54-3.12,0-1.859-1.05-2.969-3.54-2.969h-3.27Zm30.51,7.89v3.75h-14.79v-21.3h14.58v3.75h-9.51v4.8h9v3.72h-9v5.28Zm8.82-.69,3.75-2.64a6.171,6.171,0,0,0,5.79,3.66c2.04,0,3.66-.75,3.66-2.43,0-1.59-.93-2.19-3.09-2.64l-2.85-.6c-3.72-.81-5.88-2.82-5.88-6.39,0-3.9,3.18-6.329,8.31-6.329,3.78,0,6.959,1.38,8.459,4.23l-3.3,2.789a5.976,5.976,0,0,0-5.49-3.269c-2.01,0-3.3.84-3.3,2.189,0,1.38.84,2.07,3.09,2.58l3.09.66c3.779.84,5.819,2.64,5.819,6.3,0,4.05-3.119,6.84-8.7,6.84C5435.106,1291.27,5431.806,1289.32,5430.336,1286.32Zm19.71-6.18c0-6.719,3.96-11.189,10.44-11.189,5.43,0,8.85,3,9.42,7.649l-5.13.9c-.3-2.82-1.86-4.469-4.41-4.469-3.24,0-5.13,2.729-5.13,7.079,0,4.23,1.92,7.05,5.28,7.05,2.37,0,3.96-1.62,4.38-4.38l5.13,1.11c-1.021,4.5-4.32,7.38-9.6,7.38C5453.676,1291.27,5450.046,1286.86,5450.046,1280.14Zm37.709,6.87v3.75h-14.789v-21.3h14.579v3.75h-9.509v4.8h9v3.72h-9v5.28Zm-5.459-18.839h-3.66l2.97-3.54h4.17Zm9.15,1.29h5.61l6.84,12.149a22.3,22.3,0,0,1,1.289,2.76h.06c0-.84-.03-1.71-.03-2.73v-12.179h4.65v21.3h-5.4l-7.079-12.27a18.3,18.3,0,0,1-1.26-2.61h-.06c0,.87.03,1.77.03,2.82v12.06h-4.65Zm35.609,16.319H5519.2l-1.62,4.98h-5.07l7.74-21.3h5.789l7.74,21.3h-5.1Zm-1.17-3.57-1.95-5.94a25.533,25.533,0,0,1-.779-3h-.061a20.834,20.834,0,0,1-.779,3l-1.95,5.94Zm18.63.39h-3.06v8.16h-5.069v-21.3h9.359c5.4,0,7.8,2.64,7.8,6.539a5.891,5.891,0,0,1-4.17,5.85l4.71,8.91h-5.49Zm-3.06-3.48h3.27c2.46,0,3.54-1.2,3.54-3.12,0-1.859-1.05-2.969-3.54-2.969h-3.27Zm15.72,11.64v-21.3h5.07v21.3Zm8.16-10.65c0-6.869,4.11-11.159,10.5-11.159s10.5,4.29,10.5,11.159-4.11,11.16-10.5,11.16S5565.335,1286.95,5565.335,1280.11Zm15.78,0c0-4.5-1.95-7.2-5.28-7.2s-5.31,2.7-5.31,7.2c0,4.47,1.98,7.2,5.31,7.2S5581.115,1284.61,5581.115,1280.11Zm5.787,6.21,3.75-2.64a6.171,6.171,0,0,0,5.79,3.66c2.04,0,3.66-.75,3.66-2.43,0-1.59-.93-2.19-3.09-2.64l-2.85-.6c-3.72-.81-5.88-2.82-5.88-6.39,0-3.9,3.18-6.329,8.31-6.329,3.78,0,6.96,1.38,8.46,4.23l-3.3,2.789a5.975,5.975,0,0,0-5.49-3.269c-2.01,0-3.3.84-3.3,2.189,0,1.38.84,2.07,3.09,2.58l3.09.66c3.78.84,5.82,2.64,5.82,6.3,0,4.05-3.12,6.84-8.7,6.84C5591.672,1291.27,5588.372,1289.32,5586.9,1286.32Z" transform="translate(-4842.2 -861.89)"/>
    <rect id="Rectangle_296" data-name="Rectangle 296" class="cls-2" width="1190.55" height="841.89"/>
  </g>
</svg>
