<svg id="Calque_1" data-name="Calque 1" xmlns="http://www.w3.org/2000/svg" xmlns:xlink="http://www.w3.org/1999/xlink" viewBox="0 0 1190.55 841.89"><defs><style>.cls-1{fill:none;}.cls-2{clip-path:url(#clip-path);}</style><clipPath id="clip-path"><rect class="cls-1" width="1190.55" height="841.89"/></clipPath></defs><g class="cls-2"><path d="M93.5,56.51A45.06,45.06,0,0,0,101,51c2-2,2.85-3.6,2.85-5.73s-1-3.24-2.7-3.24-2.82,1.2-2.82,3.18a10.13,10.13,0,0,0,.21,1.71l-4.92-.45a8.15,8.15,0,0,1-.18-1.65c0-4,3.06-6.6,8-6.6S109,40.67,109,44.93c0,2.88-1.23,5.31-3.75,7.65a28.91,28.91,0,0,1-5.19,3.63h9.12v3.84H93.5Zm24,3.54h-5.13V55.13h5.13Zm11.34,0V38.75h5.07v21.3Zm9.51-21.3h8.49c6.39,0,10.53,4.26,10.53,10.53s-4.14,10.77-10.59,10.77h-8.43Zm8.22,17.58c3.6,0,5.58-3.24,5.58-7s-1.86-6.81-5.52-6.81h-3.21V56.33Zm28.68,0v3.75H160.43V38.75H175V42.5H165.5v4.8h9V51h-9V56.3Zm3.69-17.55h5.61l6.84,12.15a22.16,22.16,0,0,1,1.29,2.76h.06c0-.84,0-1.71,0-2.73V38.75h4.65v21.3h-5.4l-7.08-12.27a20.24,20.24,0,0,1-1.26-2.61h-.06c0,.87,0,1.77,0,2.82V60.05h-4.65Zm38.28,4H211V60.05h-5V42.77h-6.18v-4h17.43Zm2.4,17.28V38.75h5.07v21.3Zm14.58-17.46v4.92h9v3.78h-9v8.76H229.1V38.75h14.58v3.84Zm12.54,17.46V38.75h5.07v21.3Zm8.16-10.62c0-6.72,4-11.19,10.44-11.19,5.43,0,8.85,3,9.42,7.65l-5.13.9c-.3-2.82-1.86-4.47-4.41-4.47-3.24,0-5.13,2.73-5.13,7.08s1.92,7.05,5.28,7.05c2.37,0,4-1.62,4.38-4.38l5.13,1.11c-1,4.5-4.32,7.38-9.6,7.38C258.5,60.56,254.87,56.15,254.87,49.43Zm34.88,5.64h-7.86l-1.62,5H275.2l7.74-21.3h5.79l7.74,21.3h-5.1Zm-1.17-3.57-1.95-5.94a18.76,18.76,0,0,1-.78-3h-.06a18.76,18.76,0,0,1-.78,3l-1.95,5.94Zm23.19-8.73h-6.21V60.05h-5V42.77h-6.18v-4h17.43Zm2.4,17.28V38.75h5.07v21.3Zm8.16-10.65c0-6.87,4.11-11.16,10.5-11.16s10.5,4.29,10.5,11.16-4.11,11.16-10.5,11.16S322.33,56.24,322.33,49.4Zm15.78,0c0-4.5-1.95-7.2-5.28-7.2s-5.31,2.7-5.31,7.2,2,7.2,5.31,7.2S338.11,53.9,338.11,49.4Zm8.31-10.65H352l6.84,12.15a22.16,22.16,0,0,1,1.29,2.76h.06c0-.84,0-1.71,0-2.73V38.75h4.65v21.3h-5.4l-7.08-12.27a20.24,20.24,0,0,1-1.26-2.61H351c0,.87,0,1.77,0,2.82V60.05h-4.65Zm30.27,0h8.49c6.39,0,10.53,4.26,10.53,10.53s-4.14,10.77-10.59,10.77h-8.43Zm8.22,17.58c3.6,0,5.58-3.24,5.58-7s-1.86-6.81-5.52-6.81h-3.21V56.33Zm28.68,0v3.75H398.8V38.75h14.58V42.5h-9.51v4.8h9V51h-9V56.3Zm1.38-.69L418.72,53a6.17,6.17,0,0,0,5.79,3.66c2,0,3.66-.75,3.66-2.43s-.93-2.19-3.09-2.64l-2.85-.6c-3.72-.81-5.88-2.82-5.88-6.39,0-3.9,3.18-6.33,8.31-6.33,3.78,0,7,1.38,8.46,4.23l-3.3,2.79A6,6,0,0,0,424.33,42c-2,0-3.3.84-3.3,2.19s.84,2.07,3.09,2.58l3.09.66c3.78.84,5.82,2.64,5.82,6.3,0,4.05-3.12,6.84-8.7,6.84C419.74,60.56,416.44,58.61,415,55.61Zm41.7-12.84h-6.21V60.05h-5V42.77h-6.18v-4h17.43ZM477.4,60.05h-5.07V51.2h-8.19v8.85h-5.07V38.75h5.07V47.3h8.19V38.75h5.07Zm19.23-3.75v3.75H481.84V38.75h14.58V42.5h-9.51v4.8h9V51h-9V56.3Zm-9.48-18.84-3.48-3.54h4.17l3,3.54Zm13.17,1.29h7l3.93,13a14.92,14.92,0,0,1,.51,2.58h.06a16.5,16.5,0,0,1,.54-2.64l3.75-13h7v21.3H518.5V45.53a21.43,21.43,0,0,1,.12-2.4h-.09a12.12,12.12,0,0,1-.45,2.07l-4.29,14.85h-4.26L505.06,45.2a10,10,0,0,1-.45-2h-.09c.06.72.12,1.53.12,2.37V60.05h-4.32Zm42,17.55v3.75H527.56V38.75h14.58V42.5h-9.51v4.8h9V51h-9V56.3Zm1.38-.69L547.48,53a6.17,6.17,0,0,0,5.79,3.66c2,0,3.66-.75,3.66-2.43S556,52,553.84,51.56L551,51c-3.72-.81-5.88-2.82-5.88-6.39,0-3.9,3.18-6.33,8.31-6.33,3.78,0,7,1.38,8.46,4.23l-3.3,2.79A6,6,0,0,0,553.09,42c-2,0-3.3.84-3.3,2.19s.84,2.07,3.09,2.58l3.09.66c3.78.84,5.82,2.64,5.82,6.3,0,4.05-3.12,6.84-8.7,6.84C548.5,60.56,545.2,58.61,543.73,55.61ZM587,56.3v3.75H572.2V38.75h14.58V42.5h-9.51v4.8h9V51h-9V56.3Zm19.23-13.53H600V60.05h-5V42.77h-6.18v-4h17.43ZM628.66,56.3v3.75H613.87V38.75h14.58V42.5h-9.51v4.8h9V51h-9V56.3Zm3.69-17.55H638L644.8,50.9a22.16,22.16,0,0,1,1.29,2.76h.06c0-.84,0-1.71,0-2.73V38.75h4.65v21.3h-5.4l-7.08-12.27A20.24,20.24,0,0,1,637,45.17H637c0,.87,0,1.77,0,2.82V60.05h-4.65Zm24.3,21.72a16,16,0,0,1-3.15-.27V56.06a15.56,15.56,0,0,0,2,.15c1.92,0,3.09-.9,3.09-3.39V38.75h5.07v15C663.7,58.43,660.94,60.47,656.65,60.47Zm25.92-4.17v3.75H667.78V38.75h14.58V42.5h-9.51v4.8h9V51h-9V56.3ZM691,38.75V52.4a4,4,0,1,0,7.92,0V38.75H704V52.61c0,4.86-3.36,8-9,8s-9-3.09-9-8V38.75ZM712.84,49l-6.63-10.23h5.61l3.51,6a6.11,6.11,0,0,1,.63,1.35H716a5.54,5.54,0,0,1,.63-1.35l3.6-6h5.49l-6.6,10.53,7.11,10.77h-5.7l-3.87-6.3a5.73,5.73,0,0,1-.84-1.56h-.06a5.68,5.68,0,0,1-.78,1.53l-3.72,6.33h-5.49Z"/><path d="M93.77,94.22a71,71,0,0,0,7.5-6.36c2.52-2.61,3.48-4.59,3.48-7.17,0-2.85-1.56-4.53-4.2-4.53a4,4,0,0,0-4.29,4.29,10.11,10.11,0,0,0,.24,1.92l-2.22-.21a6.9,6.9,0,0,1-.21-1.74c0-3.78,2.46-6.18,6.6-6.18,4,0,6.39,2.31,6.39,6.42,0,2.94-1.38,5.52-4.38,8.52a44.1,44.1,0,0,1-5.94,4.89h10.65v2H93.77Zm20.1,1.83h-2.82V92.69h2.82ZM128,90.29v5.76h-2.1V90.29h-10V88.76l9.63-14H128v13.8h3.45v1.74ZM126,77h-.06a11.48,11.48,0,0,1-1.29,2.34l-4.74,7a19.66,19.66,0,0,1-1.68,2.28h7.71V79.73C125.9,78.32,125.9,77.93,126,77Zm30.51,17.1v2h-13.2V74.75h13v2H145.58v7.41h10.17v2H145.58v7.95Zm5.13-19.32h2.82L174.29,91a19.23,19.23,0,0,1,1.26,2.46h.06c-.06-.72-.09-1.47-.09-2.61V74.75h2.1v21.3H174.8l-9.87-16.29a16,16,0,0,1-1.26-2.46h-.06c.06.72.09,1.47.09,2.61V96.05h-2.1Zm19.35,0h2.46l5.46,16a24.45,24.45,0,0,1,.87,3h.09a24.45,24.45,0,0,1,.87-3l5.46-16h2.46l-7.56,21.3h-2.55Zm21,21.3V74.75h2.31v21.3ZM217.76,87h-4.89v9.09h-2.31V74.75h7.62c5.49,0,6.93,3.06,6.93,6.09a5.65,5.65,0,0,1-4.89,5.82l5.55,9.39h-2.64Zm-4.89-2H218c3.45,0,4.68-1.83,4.68-4.14s-1.2-4.11-4.68-4.11h-5.1Zm15.26.42c0-6.93,3.78-11.16,9.6-11.16s9.6,4.23,9.6,11.16-3.78,11.16-9.6,11.16S228.13,92.18,228.13,85.4Zm16.77,0c0-5.64-2.67-9.18-7.17-9.18s-7.17,3.54-7.17,9.18,2.7,9.18,7.17,9.18S244.9,91,244.9,85.4ZM252,74.75h2.82L264.67,91a19.23,19.23,0,0,1,1.26,2.46H266c-.06-.72-.09-1.47-.09-2.61V74.75H268v21.3h-2.82l-9.87-16.29a16,16,0,0,1-1.26-2.46H254c.06.72.09,1.47.09,2.61V96.05H252Zm22.32,0h2.82L287,91a19.23,19.23,0,0,1,1.26,2.46h.06c-.06-.72-.09-1.47-.09-2.61V74.75h2.1v21.3H287.5l-9.87-16.29a16,16,0,0,1-1.26-2.46h-.06c.06.72.09,1.47.09,2.61V96.05h-2.1Zm35.52,19.32v2h-13.2V74.75h13v2H298.93v7.41H309.1v2H298.93v7.95ZM315,74.75h3.27l6.21,17a8.19,8.19,0,0,1,.51,1.83H325a8.48,8.48,0,0,1,.54-1.83l6.18-17H335v21.3h-2.16v-17a15.7,15.7,0,0,1,.12-2.13h-.12a19.8,19.8,0,0,1-.6,2.25l-6.15,16.86h-2.25l-6.15-16.86a15.51,15.51,0,0,1-.63-2.25H317c.06.66.09,1.35.09,2.13v17H315Zm39.57,19.32v2h-13.2V74.75h13v2H343.63v7.41H353.8v2H343.63v7.95Zm5.13-19.32h2.82L372.34,91a19.23,19.23,0,0,1,1.26,2.46h.06c-.06-.72-.09-1.47-.09-2.61V74.75h2.1v21.3h-2.82L363,79.76a16,16,0,0,1-1.26-2.46h-.06c.06.72.09,1.47.09,2.61V96.05h-2.1Zm35.55,2h-6.87V96.05H386V76.73h-6.87v-2H395.2Z"/><path d="M53,164.24V168H38.21v-21.3H52.79v3.75H43.28v4.8h9V159h-9v5.28Z"/><path d="M56.48,153H61.1v2.88a5.16,5.16,0,0,1,5-3.24c3.24,0,4.88,2.07,4.88,6.06V168H66.17v-8.64c0-2.07-.72-3.06-2.25-3.06s-2.61,1.29-2.61,3.6V168H56.48Z"/><path d="M71.72,173.87v-3.45a10.92,10.92,0,0,0,1.29.06c1.41,0,1.92-.54,1.92-2.52V153h4.8v15.3c0,3.6-1.35,5.76-5.76,5.76A15.17,15.17,0,0,1,71.72,173.87Zm3.09-27.42h5v4.38h-5Z"/><path d="M97.57,161.57H87.17a3.23,3.23,0,0,0,3.45,3.33,3.46,3.46,0,0,0,3.26-2.1l3.54,1.62a7.33,7.33,0,0,1-6.87,3.93c-4.94,0-7.94-2.85-7.94-7.71s2.93-8,7.61-8,7.35,2.73,7.35,7.5Zm-4.65-2.82c0-2.13-1-3.27-2.79-3.27s-2.9,1.26-3,3.39h5.75Z"/><path d="M100.37,162.71V153h4.8v8.88c0,1.86.75,2.82,2.16,2.82,1.56,0,2.52-1.23,2.52-3.12V153h4.82v15h-4.59v-2.73a4.81,4.81,0,0,1-4.67,3.09C101.87,168.35,100.37,166.22,100.37,162.71Z"/><path d="M122.39,160.19l-5.1-7.2h5.34l1.83,3a5.45,5.45,0,0,1,.71,1.53h.07A6.16,6.16,0,0,1,126,156l1.76-3h5.08l-5,7.14,5.51,7.86H128l-2.18-3.42A5.2,5.2,0,0,1,125,163h-.06a8.75,8.75,0,0,1-.81,1.56L121.91,168h-5Z"/><path d="M147.22,168H142.4V146.24h4.82Z"/><path d="M151.3,146.45h5v4.38h-5Zm.09,6.54h4.83v15h-4.83Z"/><path d="M174.07,161.57h-10.4a3.23,3.23,0,0,0,3.45,3.33,3.46,3.46,0,0,0,3.26-2.1l3.54,1.62a7.33,7.33,0,0,1-6.87,3.93c-4.94,0-7.94-2.85-7.94-7.71s2.93-8,7.61-8,7.35,2.73,7.35,7.5Zm-4.65-2.82c0-2.13-1-3.27-2.79-3.27s-2.9,1.26-3,3.39h5.75ZM168.5,151h-3.7l3.3-4.68h4.53Z"/><path d="M175.52,164.87l2.76-2a5.55,5.55,0,0,0,4.73,2.25c1.66,0,2.43-.54,2.43-1.35s-.48-1.11-2.13-1.35L181,162q-4.64-.77-4.64-4.59c0-2.85,2.49-4.74,6.59-4.74,3,0,5.55,1,6.78,2.79l-2.49,2.22a6.16,6.16,0,0,0-4.55-1.8c-1.41,0-2.11.42-2.11,1.26s.49,1,1.66,1.23l3,.51c3.09.51,4.38,2,4.38,4.56,0,3-2.4,4.95-6.63,4.95C179.66,168.35,176.92,167.15,175.52,164.87Z"/><path d="M198.52,163.91a3.74,3.74,0,0,1,1.53-3.24,10.57,10.57,0,0,1,4.71-1.47l3.63-.51v-.51c0-1.71-.72-2.46-2.22-2.46a2.16,2.16,0,0,0-2.4,2.22H199c.24-3.33,2.94-5.31,7.2-5.31,4.83,0,7,1.89,7,6.21v5a16.32,16.32,0,0,0,.42,4.17h-4.68a14.39,14.39,0,0,1-.24-2.37c-.75,1.68-2.67,2.73-5,2.73C200.59,168.35,198.52,166.58,198.52,163.91ZM204.46,151l-4.17-4.68h4.53l3.3,4.68Zm4.08,11.28v-1.2l-2.58.42c-1.77.33-2.58,1-2.58,2.07s.84,1.74,2.1,1.74A2.89,2.89,0,0,0,208.54,162.26Z"/><path d="M229.33,168H224.5V146.24h4.83Z"/><path d="M233.44,154.28c1.74-.57,2.16-1.26,2.16-2.61v-.06h-2.4v-4.92h5.13v4.65c0,2.46-1.08,4-3.9,4.89Z"/><path d="M254.17,161.57H243.76a3.23,3.23,0,0,0,3.45,3.33,3.48,3.48,0,0,0,3.27-2.1l3.54,1.62a7.33,7.33,0,0,1-6.87,3.93c-5,0-8-2.85-8-7.71s2.94-8,7.62-8,7.35,2.73,7.35,7.5Zm-4.65-2.82c0-2.13-1-3.27-2.79-3.27s-2.91,1.26-3,3.39h5.76Z"/><path d="M257.2,153h4.62v2.88a5.16,5.16,0,0,1,5-3.24c3.24,0,4.89,2.07,4.89,6.06V168h-4.8v-8.64c0-2.07-.72-3.06-2.25-3.06s-2.61,1.29-2.61,3.6V168H257.2Z"/><path d="M273,153h4.95l2.43,8.85a18,18,0,0,1,.45,2.13h.06a13.48,13.48,0,0,1,.45-2.13l2.43-8.85h4.95l-5.25,15h-5.25Z"/><path d="M290.71,146.45h5v4.38h-5Zm.09,6.54h4.83v15H290.8Z"/><path d="M309.19,152.63h.3v4.59a8.44,8.44,0,0,0-.9,0,4.32,4.32,0,0,0-2.91.9,4.93,4.93,0,0,0-1.2,3.78V168h-4.83V153h4.53v3.87C305,154.16,306.61,152.63,309.19,152.63Z"/><path d="M310.66,160.46c0-5.16,3.36-7.83,7.77-7.83s7.8,2.67,7.8,7.83-3.36,7.89-7.8,7.89S310.66,165.62,310.66,160.46Zm10.77,0c0-3.09-1.11-4.5-3-4.5s-3,1.41-3,4.5,1.11,4.56,3,4.56S321.43,163.52,321.43,160.46Z"/><path d="M329.11,153h4.62v2.88a5.16,5.16,0,0,1,5-3.24c3.24,0,4.89,2.07,4.89,6.06V168h-4.8v-8.64c0-2.07-.72-3.06-2.25-3.06-1.68,0-2.61,1.29-2.61,3.6V168h-4.83Z"/><path d="M347.38,153H352v2.88a5.16,5.16,0,0,1,5-3.24c3.24,0,4.89,2.07,4.89,6.06V168h-4.8v-8.64c0-2.07-.72-3.06-2.25-3.06s-2.61,1.29-2.61,3.6V168h-4.83Z"/><path d="M379.48,161.57H369.07a3.23,3.23,0,0,0,3.45,3.33,3.48,3.48,0,0,0,3.27-2.1l3.54,1.62a7.33,7.33,0,0,1-6.87,3.93c-4.95,0-7.95-2.85-7.95-7.71s2.94-8,7.62-8,7.35,2.73,7.35,7.5Zm-4.65-2.82c0-2.13-1-3.27-2.79-3.27s-2.91,1.26-3,3.39h5.76Z"/><path d="M387.13,153v2.7a4.68,4.68,0,0,1,4.62-3.06,4.12,4.12,0,0,1,4.26,3.09,5.06,5.06,0,0,1,4.8-3.09c2.91,0,4.62,2,4.62,5.55V168h-4.8V159.2c0-2-.63-2.91-2-2.91s-2.25,1.08-2.25,3.09V168h-4.8v-8.82c0-1.95-.66-2.88-2-2.88s-2.25,1.11-2.25,3.12V168h-4.83V153Z"/><path d="M423,161.57H412.63a3.23,3.23,0,0,0,3.45,3.33,3.48,3.48,0,0,0,3.27-2.1l3.54,1.62a7.33,7.33,0,0,1-6.87,3.93c-4.95,0-7.95-2.85-7.95-7.71s2.94-8,7.62-8,7.35,2.73,7.35,7.5Zm-4.65-2.82c0-2.13-1-3.27-2.79-3.27s-2.91,1.26-3,3.39h5.76Z"/><path d="M426.07,153h4.62v2.88a5.16,5.16,0,0,1,5-3.24c3.24,0,4.89,2.07,4.89,6.06V168h-4.8v-8.64c0-2.07-.72-3.06-2.25-3.06s-2.61,1.29-2.61,3.6V168h-4.83Z"/><path d="M442.18,153h2.61v-3.6l4.8-1.86V153h3.57v3.21h-3.57V162a2,2,0,0,0,2.19,2.28,6.27,6.27,0,0,0,1.38-.15V168a13.74,13.74,0,0,1-2.73.3c-4,0-5.64-1.8-5.64-5.1v-7h-2.61Z"/><path d="M468.07,165.71l-.3,2.28h-4.29V146.24h4.83V155a4.85,4.85,0,0,1,4.44-2.4c3.69,0,6,3.12,6,7.86s-2.4,7.86-6.18,7.86A4.82,4.82,0,0,1,468.07,165.71Zm5.76-5.22c0-2.85-1-4.53-2.88-4.5s-2.76,1.47-2.76,3.87v1.26c0,2.43,1,3.9,2.79,3.9S473.83,163.4,473.83,160.49Z"/><path d="M480.58,163.91a3.74,3.74,0,0,1,1.53-3.24,10.57,10.57,0,0,1,4.71-1.47l3.63-.51v-.51c0-1.71-.72-2.46-2.22-2.46a2.16,2.16,0,0,0-2.4,2.22h-4.77c.24-3.33,2.94-5.31,7.2-5.31,4.83,0,7,1.89,7,6.21v5a16.32,16.32,0,0,0,.42,4.17H491a14.39,14.39,0,0,1-.24-2.37c-.75,1.68-2.67,2.73-5,2.73C482.65,168.35,480.58,166.58,480.58,163.91Zm9.9-12.93-2.1-3.15L486.31,151H482.8L486,146.3h4.8L494,151Zm.12,11.28v-1.2l-2.58.42c-1.77.33-2.58,1-2.58,2.07s.84,1.74,2.1,1.74A2.89,2.89,0,0,0,490.6,162.26Z"/><path d="M496.63,153h2.61v-3.6l4.8-1.86V153h3.57v3.21H504V162a2,2,0,0,0,2.19,2.28,6.27,6.27,0,0,0,1.38-.15V168a13.74,13.74,0,0,1-2.73.3c-4,0-5.64-1.8-5.64-5.1v-7h-2.61Z"/><path d="M510.28,146.45h5v4.38h-5Zm.09,6.54h4.83v15h-4.83Z"/><path d="M38.15,229.64a2.37,2.37,0,1,1,4.74,0,2.37,2.37,0,0,1-4.74,0Z"/><path d="M68.54,233.78H59.36L57.11,240H54.68l8.13-21.3h2.31l8.1,21.3H70.79Zm-.72-2-3.15-8.73c-.3-.84-.48-1.41-.69-2.07h-.06c-.21.66-.36,1.23-.69,2.07l-3.15,8.73Z"/><path d="M75.35,235.7l2.13-.36c.36,2.13,1.89,3.27,4.26,3.27,2.19,0,3.42-1.05,3.42-2.55s-.84-2.1-2.43-2.4l-2.91-.57c-2.49-.48-3.9-1.83-3.9-4.11,0-2.52,2.13-4.35,5.52-4.35s5.49,1.47,5.79,4.14l-2.1.45c-.3-1.83-1.59-2.88-3.78-2.88s-3.39,1-3.39,2.55c0,1.41.93,2.1,2.49,2.4l2.94.57c2.67.54,3.84,1.83,3.84,4,0,2.67-2,4.47-5.55,4.47S75.83,238.7,75.35,235.7Z"/><path d="M90.08,235.7l2.13-.36c.36,2.13,1.89,3.27,4.26,3.27,2.19,0,3.42-1.05,3.42-2.55s-.85-2.1-2.43-2.4l-2.91-.57c-2.49-.48-3.9-1.83-3.9-4.11,0-2.52,2.13-4.35,5.52-4.35s5.49,1.47,5.79,4.14l-2.1.45c-.3-1.83-1.59-2.88-3.78-2.88s-3.39,1-3.39,2.55c0,1.41.93,2.1,2.49,2.4l2.94.57c2.67.54,3.84,1.83,3.84,4,0,2.67-2,4.47-5.55,4.47S90.56,238.7,90.08,235.7Z"/><path d="M106,234.5V225H108v9.3c0,2.94,1.38,4.26,3.42,4.26,2.73,0,4.38-2.34,4.38-5.37V225h2.1v15h-2V236.9a5.14,5.14,0,0,1-4.86,3.45C107.36,240.35,106,238.07,106,234.5Z"/><path d="M130.24,224.63a3.63,3.63,0,0,1,.57,0v2h-.24a4.39,4.39,0,0,0-3.21,1.14c-1.38,1.38-1.65,3.39-1.65,5.28V240h-2.07V225h2v3.66C126.29,226.34,127.93,224.63,130.24,224.63Z"/><path d="M145.42,233H134.53c0,3.39,1.89,5.46,4.8,5.46a4.21,4.21,0,0,0,4.23-3.21l1.77.72a6.07,6.07,0,0,1-6.15,4.35c-4.26,0-6.75-2.73-6.75-7.77s2.52-8,6.66-8,6.33,2.4,6.33,7Zm-2.13-2c0-3.09-1.56-4.74-4.23-4.74s-4.47,1.92-4.53,5h8.76Z"/><path d="M156.46,224.63a3.63,3.63,0,0,1,.57,0v2h-.24a4.39,4.39,0,0,0-3.21,1.14c-1.38,1.38-1.65,3.39-1.65,5.28V240h-2.07V225h1.95v3.66C152.5,226.34,154.15,224.63,156.46,224.63Z"/><path d="M165.88,232.49c0-4.62,2.61-7.86,6.42-7.86a4.78,4.78,0,0,1,4.71,3.09v-9.48h2.1V240h-2v-3.18a5.23,5.23,0,0,1-5.07,3.54C168.34,240.35,165.88,237.17,165.88,232.49Zm11.16.33v-.63c0-3.42-1.65-5.7-4.44-5.7s-4.5,2.25-4.5,6,1.68,6,4.47,6S177,236.15,177,232.82Z"/><path d="M196.51,233H185.62c0,3.39,1.89,5.46,4.8,5.46a4.21,4.21,0,0,0,4.23-3.21l1.77.72a6.07,6.07,0,0,1-6.15,4.35c-4.26,0-6.75-2.73-6.75-7.77s2.52-8,6.66-8,6.33,2.4,6.33,7Zm-2.13-2c0-3.09-1.56-4.74-4.23-4.74s-4.47,1.92-4.53,5h8.76Z"/><path d="M199.54,235.7l2.13-.36c.36,2.13,1.89,3.27,4.26,3.27,2.19,0,3.42-1.05,3.42-2.55s-.84-2.1-2.43-2.4l-2.91-.57c-2.49-.48-3.9-1.83-3.9-4.11,0-2.52,2.13-4.35,5.52-4.35s5.49,1.47,5.79,4.14l-2.1.45c-.3-1.83-1.59-2.88-3.78-2.88s-3.39,1-3.39,2.55c0,1.41.93,2.1,2.49,2.4l2.94.57c2.67.54,3.84,1.83,3.84,4,0,2.67-2,4.47-5.55,4.47S200,238.7,199.54,235.7Z"/><path d="M222.43,232.49c0-4.89,2.61-7.86,6.81-7.86a5.67,5.67,0,0,1,6.06,5.43l-2.13.24c-.3-2.49-1.74-3.84-4-3.84-2.79,0-4.5,2.25-4.5,6s1.71,6.06,4.59,6.06c2.25,0,3.66-1.35,4-3.84l2,.3c-.54,3.39-2.76,5.37-6.06,5.37C225.07,240.35,222.43,237.32,222.43,232.49Z"/><path d="M238.21,232.49c0-4.89,2.73-7.86,6.9-7.86s6.87,3,6.87,7.86-2.73,7.86-6.87,7.86S238.21,237.38,238.21,232.49Zm11.55,0c0-3.9-1.77-6-4.65-6s-4.68,2.13-4.68,6,1.77,6,4.68,6S249.76,236.39,249.76,232.49Z"/><path d="M256.27,225h2v3.3a5.11,5.11,0,0,1,5.13-3.66c3.36,0,5.1,2.07,5.1,6.09V240h-2.1v-9.15c0-2.91-1.26-4.41-3.63-4.41-2.7,0-4.41,2.16-4.41,5.67V240h-2.07Z"/><path d="M272.29,235.7l2.13-.36c.36,2.13,1.89,3.27,4.26,3.27,2.19,0,3.42-1.05,3.42-2.55s-.84-2.1-2.43-2.4l-2.91-.57c-2.49-.48-3.9-1.83-3.9-4.11,0-2.52,2.13-4.35,5.52-4.35s5.49,1.47,5.79,4.14l-2.1.45c-.3-1.83-1.59-2.88-3.78-2.88s-3.39,1-3.39,2.55c0,1.41.93,2.1,2.49,2.4l2.94.57c2.67.54,3.84,1.83,3.84,4,0,2.67-2,4.47-5.55,4.47S272.77,238.7,272.29,235.7Z"/><path d="M286.18,225h2.76v-4l2.1-.9V225h3.87v1.74H291v9c0,1.77.78,2.55,2.34,2.55a6.12,6.12,0,0,0,1.53-.18V240a7.07,7.07,0,0,1-2.07.27c-2.91,0-3.9-1.77-3.9-4.44v-9.09h-2.76Z"/><path d="M298.42,234.5V225h2.07v9.3c0,2.94,1.38,4.26,3.42,4.26,2.73,0,4.38-2.34,4.38-5.37V225h2.1v15h-2V236.9a5.14,5.14,0,0,1-4.86,3.45C299.8,240.35,298.42,238.07,298.42,234.5Z"/><path d="M314.68,232.49c0-4.89,2.61-7.86,6.81-7.86a5.67,5.67,0,0,1,6.06,5.43l-2.13.24c-.3-2.49-1.74-3.84-4-3.84-2.79,0-4.5,2.25-4.5,6s1.71,6.06,4.59,6.06c2.25,0,3.66-1.35,4.05-3.84l2,.3c-.54,3.39-2.76,5.37-6.06,5.37C317.32,240.35,314.68,237.32,314.68,232.49Z"/><path d="M329.26,225H332v-4l2.1-.9V225H338v1.74h-3.87v9c0,1.77.78,2.55,2.34,2.55a6.12,6.12,0,0,0,1.53-.18V240a7.07,7.07,0,0,1-2.07.27c-2.91,0-3.9-1.77-3.9-4.44v-9.09h-2.76Z"/><path d="M341.8,219h2.37v3.3H341.8Zm.15,6H344v15H342Z"/><path d="M348.31,232.49c0-4.89,2.73-7.86,6.9-7.86s6.87,3,6.87,7.86-2.73,7.86-6.87,7.86S348.31,237.38,348.31,232.49Zm11.55,0c0-3.9-1.77-6-4.65-6s-4.68,2.13-4.68,6,1.77,6,4.68,6S359.86,236.39,359.86,232.49Z"/><path d="M366.37,225h2v3.3a5.11,5.11,0,0,1,5.13-3.66c3.36,0,5.1,2.07,5.1,6.09V240h-2.1v-9.15c0-2.91-1.26-4.41-3.63-4.41-2.7,0-4.41,2.16-4.41,5.67V240h-2.07Z"/><path d="M382.39,235.7l2.13-.36c.36,2.13,1.89,3.27,4.26,3.27,2.19,0,3.42-1.05,3.42-2.55s-.84-2.1-2.43-2.4l-2.91-.57c-2.49-.48-3.9-1.83-3.9-4.11,0-2.52,2.13-4.35,5.52-4.35s5.49,1.47,5.79,4.14l-2.1.45c-.3-1.83-1.59-2.88-3.78-2.88s-3.39,1-3.39,2.55c0,1.41.93,2.1,2.49,2.4l2.94.57c2.67.54,3.84,1.83,3.84,4,0,2.67-2,4.47-5.55,4.47S382.87,238.7,382.39,235.7Z"/><path d="M418.27,233H407.38c0,3.39,1.89,5.46,4.8,5.46a4.21,4.21,0,0,0,4.23-3.21l1.77.72a6.07,6.07,0,0,1-6.15,4.35c-4.26,0-6.75-2.73-6.75-7.77s2.52-8,6.66-8,6.33,2.4,6.33,7Zm-2.13-2c0-3.09-1.56-4.74-4.23-4.74s-4.47,1.92-4.53,5h8.76Z"/><path d="M420.07,225h2.76v-4l2.1-.9V225h3.87v1.74h-3.87v9c0,1.77.78,2.55,2.34,2.55a6.12,6.12,0,0,0,1.53-.18V240a7.07,7.07,0,0,1-2.07.27c-2.91,0-3.9-1.77-3.9-4.44v-9.09h-2.76Z"/><path d="M440.26,234.5V225h2.07v9.3c0,2.94,1.38,4.26,3.42,4.26,2.73,0,4.38-2.34,4.38-5.37V225h2.1v15h-2V236.9a5.14,5.14,0,0,1-4.86,3.45C441.64,240.35,440.26,238.07,440.26,234.5Z"/><path d="M457.93,225h2v3.3a5.11,5.11,0,0,1,5.13-3.66c3.36,0,5.1,2.07,5.1,6.09V240H468v-9.15c0-2.91-1.26-4.41-3.63-4.41-2.7,0-4.41,2.16-4.41,5.67V240h-2.07Z"/><path d="M481.9,232.49c0-4.89,2.61-7.86,6.81-7.86a5.67,5.67,0,0,1,6.06,5.43l-2.13.24c-.3-2.49-1.74-3.84-4-3.84-2.79,0-4.5,2.25-4.5,6s1.71,6.06,4.59,6.06c2.25,0,3.66-1.35,4.05-3.84l2,.3c-.54,3.39-2.76,5.37-6.06,5.37C484.54,240.35,481.9,237.32,481.9,232.49Z"/><path d="M499.24,218.24h2.07v9.93a5.14,5.14,0,0,1,5.13-3.54c3.27,0,5,2.07,5,6.06V240h-2.1v-9.18c0-2.88-1.23-4.38-3.6-4.38-2.73,0-4.44,2.16-4.44,5.67V240h-2.07Z"/><path d="M515.32,236a3.79,3.79,0,0,1,1.83-3.36,12.9,12.9,0,0,1,4.92-1.35l3.33-.39v-.24c0-3.09-1.08-4.32-3.63-4.32-2.25,0-3.63,1.17-3.75,3.3h-2.25c.18-3.09,2.52-5,6-5,4,0,5.76,1.86,5.76,6.21v3.9A21.14,21.14,0,0,0,528,240h-2.19a20.58,20.58,0,0,1-.27-3,5.14,5.14,0,0,1-5.22,3.36C517.3,240.35,515.32,238.61,515.32,236Zm10.11-2.58v-1l-4.26.6c-2.55.36-3.66,1.23-3.66,2.88s1.26,2.64,3.27,2.64C523.57,238.61,525.43,236.51,525.43,233.45Z"/><path d="M532.81,225h2v3.3a5.11,5.11,0,0,1,5.13-3.66c3.36,0,5.1,2.07,5.1,6.09V240h-2.1v-9.15c0-2.91-1.26-4.41-3.63-4.41-2.7,0-4.41,2.16-4.41,5.67V240h-2.07Z"/><path d="M547.72,225h2.76v-4l2.1-.9V225h3.87v1.74h-3.87v9c0,1.77.78,2.55,2.34,2.55a6.12,6.12,0,0,0,1.53-.18V240a7.07,7.07,0,0,1-2.07.27c-2.91,0-3.9-1.77-3.9-4.44v-9.09h-2.76Z"/><path d="M560.26,219h2.37v3.3h-2.37Zm.15,6h2.07v15h-2.07Z"/><path d="M579.76,233H568.87c0,3.39,1.89,5.46,4.8,5.46a4.21,4.21,0,0,0,4.23-3.21l1.77.72a6.07,6.07,0,0,1-6.15,4.35c-4.26,0-6.75-2.73-6.75-7.77s2.52-8,6.66-8,6.33,2.4,6.33,7Zm-2.13-2c0-3.09-1.56-4.74-4.23-4.74s-4.47,1.92-4.53,5h8.76Z"/><path d="M590.8,224.63a3.63,3.63,0,0,1,.57,0v2h-.24a4.39,4.39,0,0,0-3.21,1.14c-1.38,1.38-1.65,3.39-1.65,5.28V240H584.2V225h1.95v3.66C586.84,226.34,588.49,224.63,590.8,224.63Z"/><path d="M600.25,232.49c0-4.62,2.61-7.86,6.42-7.86a4.78,4.78,0,0,1,4.71,3.09v-9.48h2.1V240h-2v-3.18a5.23,5.23,0,0,1-5.07,3.54C602.71,240.35,600.25,237.17,600.25,232.49Zm11.16.33v-.63c0-3.42-1.65-5.7-4.44-5.7s-4.5,2.25-4.5,6,1.68,6,4.47,6S611.41,236.15,611.41,232.82Z"/><path d="M618.85,234.5V225h2.07v9.3c0,2.94,1.38,4.26,3.42,4.26,2.73,0,4.38-2.34,4.38-5.37V225h2.1v15h-2V236.9a5.14,5.14,0,0,1-4.86,3.45C620.23,240.35,618.85,238.07,618.85,234.5Z"/><path d="M643.12,224.63a3.63,3.63,0,0,1,.57,0v2h-.24a4.39,4.39,0,0,0-3.21,1.14c-1.38,1.38-1.65,3.39-1.65,5.28V240h-2.07V225h2v3.66C639.16,226.34,640.81,224.63,643.12,224.63Z"/><path d="M645.46,236a3.79,3.79,0,0,1,1.83-3.36,12.9,12.9,0,0,1,4.92-1.35l3.33-.39v-.24c0-3.09-1.08-4.32-3.63-4.32-2.25,0-3.63,1.17-3.75,3.3h-2.25c.18-3.09,2.52-5,6-5,4,0,5.76,1.86,5.76,6.21v3.9a21.14,21.14,0,0,0,.48,5.25h-2.19a20.58,20.58,0,0,1-.27-3,5.14,5.14,0,0,1-5.22,3.36C647.44,240.35,645.46,238.61,645.46,236Zm10.11-2.58v-1l-4.26.6c-2.55.36-3.66,1.23-3.66,2.88s1.26,2.64,3.27,2.64C653.71,238.61,655.57,236.51,655.57,233.45Z"/><path d="M665.08,237l-.39,3H663.1V218.24h2.07v9.81a5.2,5.2,0,0,1,5-3.42c3.69,0,6.09,3.21,6.09,7.86s-2.46,7.86-6.24,7.86A5.2,5.2,0,0,1,665.08,237Zm9-4.5c0-3.63-1.62-6-4.5-6s-4.44,2.25-4.44,5.7v.72c0,3.33,1.68,5.58,4.38,5.58C672.37,238.49,674.08,236.15,674.08,232.49Z"/><path d="M682.81,240h-2.07V218.24h2.07Z"/><path d="M700.24,233H689.35c0,3.39,1.89,5.46,4.8,5.46a4.21,4.21,0,0,0,4.23-3.21l1.77.72a6.07,6.07,0,0,1-6.15,4.35c-4.26,0-6.75-2.73-6.75-7.77s2.52-8,6.66-8,6.33,2.4,6.33,7Zm-2.13-2c0-3.09-1.56-4.74-4.23-4.74s-4.47,1.92-4.53,5h8.76Z"/><path d="M38.15,301.64a2.37,2.37,0,1,1,4.74,0,2.37,2.37,0,0,1-4.74,0Z"/><path d="M64.34,302.9H59.45V312H57.14v-21.3h7.62c5.49,0,6.93,3.06,6.93,6.09a5.65,5.65,0,0,1-4.89,5.82L72.35,312H69.71Zm-4.89-2h5.1c3.45,0,4.68-1.83,4.68-4.14s-1.2-4.11-4.68-4.11h-5.1Z"/><path d="M87.68,305H76.79c0,3.39,1.89,5.46,4.8,5.46a4.21,4.21,0,0,0,4.23-3.21l1.77.72a6.07,6.07,0,0,1-6.15,4.35c-4.26,0-6.75-2.73-6.75-7.77s2.52-7.95,6.66-7.95,6.33,2.4,6.33,7Zm-2.13-2c0-3.09-1.56-4.74-4.23-4.74s-4.47,1.92-4.53,5h8.76Zm-3.33-8.46h-2l3-4.29h2.58Z"/><path d="M91.67,306.5V297h2.07v9.3c0,2.94,1.38,4.26,3.42,4.26,2.72,0,4.38-2.34,4.38-5.37V297h2.09v15h-2V308.9a5.16,5.16,0,0,1-4.87,3.45C93.05,312.35,91.67,310.07,91.67,306.5Z"/><path d="M107.12,297h2.76v-4l2.1-.9V297h3.86v1.74H112v9c0,1.77.77,2.55,2.34,2.55a6,6,0,0,0,1.52-.18V312a7,7,0,0,1-2.06.27c-2.91,0-3.9-1.77-3.9-4.44v-9.09h-2.76Z"/><path d="M119.66,291H122v3.3h-2.36Zm.14,6h2.08v15H119.8Z"/><path d="M129.79,312h-2.06V290.24h2.06Z"/><path d="M135.5,291h2.36v3.3H135.5Zm.14,6h2.07v15h-2.07Z"/><path d="M142,307.7l2.13-.36c.36,2.13,1.89,3.27,4.26,3.27,2.19,0,3.42-1.05,3.42-2.55s-.84-2.1-2.43-2.4l-2.91-.57c-2.49-.48-3.9-1.83-3.9-4.11,0-2.52,2.13-4.35,5.52-4.35s5.49,1.47,5.79,4.14l-2.1.45c-.3-1.83-1.59-2.88-3.78-2.88s-3.39,1-3.39,2.55c0,1.41.93,2.1,2.49,2.4l2.94.57c2.67.54,3.84,1.83,3.84,4,0,2.67-2,4.47-5.55,4.47S142.48,310.7,142,307.7Z"/><path d="M169.93,305H159c0,3.39,1.89,5.46,4.8,5.46a4.21,4.21,0,0,0,4.23-3.21l1.77.72a6.07,6.07,0,0,1-6.15,4.35c-4.26,0-6.75-2.73-6.75-7.77s2.52-7.95,6.66-7.95,6.33,2.4,6.33,7Zm-2.13-2c0-3.09-1.56-4.74-4.23-4.74s-4.47,1.92-4.53,5h8.76Z"/><path d="M181,296.63a3.63,3.63,0,0,1,.57,0v2h-.24a4.39,4.39,0,0,0-3.21,1.14c-1.38,1.38-1.65,3.39-1.65,5.28V312h-2.07V297h1.95v3.66C177,298.34,178.66,296.63,181,296.63Z"/><path d="M190.39,307.7l2.13-.36c.36,2.13,1.89,3.27,4.26,3.27,2.19,0,3.42-1.05,3.42-2.55s-.84-2.1-2.43-2.4l-2.91-.57c-2.49-.48-3.9-1.83-3.9-4.11,0-2.52,2.13-4.35,5.52-4.35s5.49,1.47,5.79,4.14l-2.1.45c-.3-1.83-1.59-2.88-3.78-2.88s-3.39,1-3.39,2.55c0,1.41.93,2.1,2.49,2.4l2.94.57c2.67.54,3.84,1.83,3.84,4,0,2.67-2,4.47-5.55,4.47S190.87,310.7,190.39,307.7Z"/><path d="M206.29,306.5V297h2.07v9.3c0,2.94,1.38,4.26,3.42,4.26,2.73,0,4.38-2.34,4.38-5.37V297h2.1v15h-2V308.9a5.14,5.14,0,0,1-4.86,3.45C207.67,312.35,206.29,310.07,206.29,306.5Z"/><path d="M230.56,296.63a3.63,3.63,0,0,1,.57,0v2h-.24a4.39,4.39,0,0,0-3.21,1.14c-1.38,1.38-1.65,3.39-1.65,5.28V312H224V297h1.95v3.66C226.6,298.34,228.25,296.63,230.56,296.63Z"/><path d="M241.42,297h2v3.18a5.32,5.32,0,0,1,5.13-3.54c3.69,0,6.09,3.15,6.09,7.86s-2.55,7.86-6.24,7.86a5.06,5.06,0,0,1-4.89-3.18v8.67h-2.07Zm11,7.5c0-3.72-1.62-6-4.38-6s-4.56,2.34-4.56,5.64v.66c0,3.36,1.68,5.7,4.44,5.7S252.4,308.21,252.4,304.49Z"/><path d="M261.13,312h-2.07V290.24h2.07Z"/><path d="M265.63,308a3.79,3.79,0,0,1,1.83-3.36,12.9,12.9,0,0,1,4.92-1.35l3.33-.39v-.24c0-3.09-1.08-4.32-3.63-4.32-2.25,0-3.63,1.17-3.75,3.3h-2.25c.18-3.09,2.52-5,6-5,4,0,5.76,1.86,5.76,6.21v3.9a21.14,21.14,0,0,0,.48,5.25H276.1a20.58,20.58,0,0,1-.27-3,5.14,5.14,0,0,1-5.22,3.36C267.61,312.35,265.63,310.61,265.63,308Zm10.11-2.58v-1l-4.26.6c-2.55.36-3.66,1.23-3.66,2.88s1.26,2.64,3.27,2.64C273.88,310.61,275.74,308.51,275.74,305.45Z"/><path d="M281.62,304.49c0-4.89,2.61-7.86,6.81-7.86a5.67,5.67,0,0,1,6.06,5.43l-2.13.24c-.3-2.49-1.74-3.84-4-3.84-2.79,0-4.5,2.25-4.5,6s1.71,6.06,4.59,6.06c2.25,0,3.66-1.35,4.05-3.84l2,.3c-.54,3.39-2.76,5.37-6.06,5.37C284.26,312.35,281.62,309.32,281.62,304.49Z"/><path d="M310.39,305H299.5c0,3.39,1.89,5.46,4.8,5.46a4.21,4.21,0,0,0,4.23-3.21l1.77.72a6.07,6.07,0,0,1-6.15,4.35c-4.26,0-6.75-2.73-6.75-7.77s2.52-7.95,6.66-7.95,6.33,2.4,6.33,7Zm-2.13-2c0-3.09-1.56-4.74-4.23-4.74s-4.47,1.92-4.53,5h8.76Z"/><path d="M325,312h-2.07V290.24H325Z"/><path d="M342.43,305H331.54c0,3.39,1.89,5.46,4.8,5.46a4.21,4.21,0,0,0,4.23-3.21l1.77.72a6.07,6.07,0,0,1-6.15,4.35c-4.26,0-6.75-2.73-6.75-7.77s2.52-7.95,6.66-7.95,6.33,2.4,6.33,7Zm-2.13-2c0-3.09-1.56-4.74-4.23-4.74s-4.47,1.92-4.53,5h8.76Z"/><path d="M345.46,307.7l2.13-.36c.36,2.13,1.89,3.27,4.26,3.27,2.19,0,3.42-1.05,3.42-2.55s-.84-2.1-2.43-2.4l-2.91-.57c-2.49-.48-3.9-1.83-3.9-4.11,0-2.52,2.13-4.35,5.52-4.35s5.49,1.47,5.79,4.14l-2.1.45c-.3-1.83-1.59-2.88-3.78-2.88s-3.39,1-3.39,2.55c0,1.41.93,2.1,2.49,2.4l2.94.57c2.67.54,3.84,1.83,3.84,4,0,2.67-2,4.47-5.55,4.47S345.94,310.7,345.46,307.7Z"/><path d="M367.24,297H370v-4l2.1-.9V297H376v1.74H372.1v9c0,1.77.78,2.55,2.34,2.55a6.12,6.12,0,0,0,1.53-.18V312a7.07,7.07,0,0,1-2.07.27c-2.91,0-3.9-1.77-3.9-4.44v-9.09h-2.76Z"/><path d="M391,305H380.11c0,3.39,1.89,5.46,4.8,5.46a4.21,4.21,0,0,0,4.23-3.21l1.77.72a6.07,6.07,0,0,1-6.15,4.35c-4.26,0-6.75-2.73-6.75-7.77s2.52-7.95,6.66-7.95,6.33,2.4,6.33,7Zm-2.13-2c0-3.09-1.56-4.74-4.23-4.74s-4.47,1.92-4.53,5h8.76Z"/><path d="M402,296.63a3.63,3.63,0,0,1,.57,0v2h-.24a4.39,4.39,0,0,0-3.21,1.14c-1.38,1.38-1.65,3.39-1.65,5.28V312h-2.07V297h1.95v3.66C398.08,298.34,399.73,296.63,402,296.63Z"/><path d="M412.72,296.63a3.63,3.63,0,0,1,.57,0v2h-.24a4.39,4.39,0,0,0-3.21,1.14c-1.38,1.38-1.65,3.39-1.65,5.28V312h-2.07V297h1.95v3.66C408.76,298.34,410.41,296.63,412.72,296.63Z"/><path d="M427.87,305H417c0,3.39,1.89,5.46,4.8,5.46a4.21,4.21,0,0,0,4.23-3.21l1.77.72a6.07,6.07,0,0,1-6.15,4.35c-4.26,0-6.75-2.73-6.75-7.77s2.52-7.95,6.66-7.95,6.33,2.4,6.33,7Zm-2.13-2c0-3.09-1.56-4.74-4.23-4.74s-4.47,1.92-4.53,5h8.76Z"/><path d="M430.9,307.7l2.13-.36c.36,2.13,1.89,3.27,4.26,3.27,2.19,0,3.42-1.05,3.42-2.55s-.84-2.1-2.43-2.4l-2.91-.57c-2.49-.48-3.9-1.83-3.9-4.11,0-2.52,2.13-4.35,5.52-4.35s5.49,1.47,5.79,4.14l-2.1.45c-.3-1.83-1.59-2.88-3.78-2.88s-3.39,1-3.39,2.55c0,1.41.93,2.1,2.49,2.4l2.94.57c2.67.54,3.84,1.83,3.84,4,0,2.67-2,4.47-5.55,4.47S431.38,310.7,430.9,307.7Z"/><path d="M453.79,304.49c0-4.62,2.61-7.86,6.42-7.86a4.78,4.78,0,0,1,4.71,3.09v-9.48H467V312h-2v-3.18a5.23,5.23,0,0,1-5.07,3.54C456.25,312.35,453.79,309.17,453.79,304.49Zm11.16.33v-.63c0-3.42-1.65-5.7-4.44-5.7s-4.5,2.25-4.5,6,1.68,6,4.47,6S465,308.15,465,304.82Z"/><path d="M472.09,296.93a2.57,2.57,0,0,0,1.59-2.82v-.06h-1.5v-3.36H475v3.18c0,2.22-.57,3.3-2.37,4.14Z"/><path d="M490.27,305H479.38c0,3.39,1.89,5.46,4.8,5.46a4.21,4.21,0,0,0,4.23-3.21l1.77.72a6.07,6.07,0,0,1-6.15,4.35c-4.26,0-6.75-2.73-6.75-7.77s2.52-7.95,6.66-7.95,6.33,2.4,6.33,7Zm-2.13-2c0-3.09-1.56-4.74-4.23-4.74s-4.47,1.92-4.53,5h8.76Z"/><path d="M497.41,304.22,492.28,297h2.49l2.91,4.32c.51.78.81,1.29,1,1.68h0a15.43,15.43,0,0,1,1-1.68l2.76-4.32h2.58l-5,7.38,5.43,7.62H503l-3.33-4.83a13.89,13.89,0,0,1-.93-1.62h0c-.18.33-.48.87-1,1.65l-3.3,4.8h-2.49Z"/><path d="M506.92,304.49c0-4.89,2.61-7.86,6.81-7.86a5.67,5.67,0,0,1,6.06,5.43l-2.13.24c-.3-2.49-1.74-3.84-4-3.84-2.79,0-4.5,2.25-4.5,6s1.71,6.06,4.59,6.06c2.25,0,3.66-1.35,4-3.84l2,.3c-.54,3.39-2.76,5.37-6.06,5.37C509.56,312.35,506.92,309.32,506.92,304.49Z"/><path d="M522.67,308a3.79,3.79,0,0,1,1.83-3.36,12.9,12.9,0,0,1,4.92-1.35l3.33-.39v-.24c0-3.09-1.08-4.32-3.63-4.32-2.25,0-3.63,1.17-3.75,3.3h-2.25c.18-3.09,2.52-5,6-5,4,0,5.76,1.86,5.76,6.21v3.9a21.14,21.14,0,0,0,.48,5.25h-2.19a20.58,20.58,0,0,1-.27-3,5.14,5.14,0,0,1-5.22,3.36C524.65,312.35,522.67,310.61,522.67,308Zm10.11-2.58v-1l-4.26.6c-2.55.36-3.66,1.23-3.66,2.88s1.26,2.64,3.27,2.64C530.92,310.61,532.78,308.51,532.78,305.45Z"/><path d="M537.13,297h2.28l3.72,10.62c.27.84.48,1.53.63,2.22h.09c.15-.69.39-1.38.66-2.22L548.23,297h2.28L545,312h-2.28Z"/><path d="M552,308a3.79,3.79,0,0,1,1.83-3.36,12.9,12.9,0,0,1,4.92-1.35l3.33-.39v-.24c0-3.09-1.08-4.32-3.63-4.32-2.25,0-3.63,1.17-3.75,3.3h-2.25c.18-3.09,2.52-5,6-5,4,0,5.76,1.86,5.76,6.21v3.9a21.14,21.14,0,0,0,.48,5.25h-2.19a20.58,20.58,0,0,1-.27-3,5.14,5.14,0,0,1-5.22,3.36C554,312.35,552,310.61,552,308Zm10.11-2.58v-1l-4.26.6c-2.55.36-3.66,1.23-3.66,2.88s1.26,2.64,3.27,2.64C560.23,310.61,562.09,308.51,562.09,305.45Z"/><path d="M566.74,297h2.76v-4l2.1-.9V297h3.87v1.74H571.6v9c0,1.77.78,2.55,2.34,2.55a6.12,6.12,0,0,0,1.53-.18V312a7.07,7.07,0,0,1-2.07.27c-2.91,0-3.9-1.77-3.9-4.44v-9.09h-2.76Z"/><path d="M579.28,291h2.37v3.3h-2.37Zm.15,6h2.07v15h-2.07Z"/><path d="M585.79,304.49c0-4.89,2.73-7.86,6.9-7.86s6.87,3,6.87,7.86-2.73,7.86-6.87,7.86S585.79,309.38,585.79,304.49Zm11.55,0c0-3.9-1.77-6-4.65-6s-4.68,2.13-4.68,6,1.77,6,4.68,6S597.34,308.39,597.34,304.49Z"/><path d="M603.85,297h2v3.3a5.11,5.11,0,0,1,5.13-3.66c3.36,0,5.1,2.07,5.1,6.09V312H614v-9.15c0-2.91-1.26-4.41-3.63-4.41-2.7,0-4.41,2.16-4.41,5.67V312h-2.07Z"/><path d="M38.15,373.64a2.37,2.37,0,1,1,4.74,0,2.37,2.37,0,0,1-4.74,0Z"/><path d="M59,362.69v13.8c0,3.63,2,5.94,5.64,5.94s5.67-2.31,5.67-5.94v-13.8h2.34v13.95c0,4.71-2.85,7.86-8,7.86s-8-3.15-8-7.86V362.69Z"/><path d="M76,369h2.76v-4l2.1-.9V369h3.87v1.74H80.81v9c0,1.77.78,2.55,2.34,2.55a6.12,6.12,0,0,0,1.53-.18V384a7.07,7.07,0,0,1-2.07.27c-2.91,0-3.9-1.77-3.9-4.44v-9.09H76Z"/><path d="M88.49,363h2.37v3.3H88.49Zm.15,6h2.07v15H88.64Z"/><path d="M98.63,384H96.56V362.24h2.07Z"/><path d="M104.33,363h2.37v3.3h-2.37Zm.15,6h2.07v15h-2.07Z"/><path d="M110.84,379.7l2.13-.36c.36,2.13,1.89,3.27,4.26,3.27,2.19,0,3.42-1.05,3.42-2.55s-.85-2.1-2.44-2.4l-2.9-.57c-2.49-.48-3.9-1.83-3.9-4.11,0-2.52,2.13-4.35,5.51-4.35s5.5,1.47,5.79,4.14l-2.09.45c-.3-1.83-1.59-2.88-3.79-2.88s-3.38,1-3.38,2.55c0,1.41.93,2.1,2.49,2.4l2.94.57c2.66.54,3.83,1.83,3.83,4,0,2.67-2,4.47-5.54,4.47S111.32,382.7,110.84,379.7Z"/><path d="M138.76,377H127.88c0,3.39,1.88,5.46,4.79,5.46a4.21,4.21,0,0,0,4.23-3.21l1.77.72a6.07,6.07,0,0,1-6.15,4.35c-4.26,0-6.74-2.73-6.74-7.77s2.51-7.95,6.65-7.95,6.33,2.4,6.33,7Zm-2.13-2c0-3.09-1.56-4.74-4.23-4.74s-4.47,1.92-4.52,5h8.75Z"/><path d="M149.8,368.63a3.63,3.63,0,0,1,.57,0v2h-.24a4.39,4.39,0,0,0-3.21,1.14c-1.38,1.38-1.65,3.39-1.65,5.28V384H143.2V369h2v3.66C145.84,370.34,147.49,368.63,149.8,368.63Z"/><path d="M159.25,376.49c0-4.62,2.61-7.86,6.42-7.86a4.78,4.78,0,0,1,4.71,3.09v-9.48h2.1V384h-2v-3.18a5.23,5.23,0,0,1-5.07,3.54C161.71,384.35,159.25,381.17,159.25,376.49Zm11.16.33v-.63c0-3.42-1.65-5.7-4.44-5.7s-4.5,2.25-4.5,6,1.68,6,4.47,6S170.41,380.15,170.41,376.82Z"/><path d="M189.88,377H179c0,3.39,1.89,5.46,4.8,5.46a4.21,4.21,0,0,0,4.23-3.21l1.77.72a6.07,6.07,0,0,1-6.15,4.35c-4.26,0-6.75-2.73-6.75-7.77s2.52-7.95,6.66-7.95,6.33,2.4,6.33,7Zm-2.13-2c0-3.09-1.56-4.74-4.23-4.74s-4.47,1.92-4.53,5h8.76Z"/><path d="M192.91,379.7l2.13-.36c.36,2.13,1.89,3.27,4.26,3.27,2.19,0,3.42-1.05,3.42-2.55s-.84-2.1-2.43-2.4l-2.91-.57c-2.49-.48-3.9-1.83-3.9-4.11,0-2.52,2.13-4.35,5.52-4.35s5.49,1.47,5.79,4.14l-2.1.45c-.3-1.83-1.59-2.88-3.78-2.88s-3.39,1-3.39,2.55c0,1.41.93,2.1,2.49,2.4l2.94.57c2.67.54,3.84,1.83,3.84,4,0,2.67-2,4.47-5.55,4.47S193.39,382.7,192.91,379.7Z"/><path d="M219.16,369v2.91a4.47,4.47,0,0,1,4.44-3.27,4.23,4.23,0,0,1,4.32,3.21,4.76,4.76,0,0,1,4.62-3.21c2.94,0,4.62,2,4.62,5.55V384h-2.1v-9.63c0-2.55-1.08-3.93-3.15-3.93-2.28,0-3.69,1.68-3.69,4.44V384h-2.07v-9.75c0-2.43-1.14-3.81-3.12-3.81-2.28,0-3.75,1.86-3.75,4.8V384h-2.07V369Z"/><path d="M241.06,380a3.79,3.79,0,0,1,1.83-3.36,12.9,12.9,0,0,1,4.92-1.35l3.33-.39v-.24c0-3.09-1.08-4.32-3.63-4.32-2.25,0-3.63,1.17-3.75,3.3h-2.25c.18-3.09,2.52-5,6-5,4,0,5.76,1.86,5.76,6.21v3.9a21.14,21.14,0,0,0,.48,5.25h-2.19a20.58,20.58,0,0,1-.27-3,5.14,5.14,0,0,1-5.22,3.36C243,384.35,241.06,382.61,241.06,380Zm10.11-2.58v-1l-4.26.6c-2.55.36-3.66,1.23-3.66,2.88s1.26,2.64,3.27,2.64C249.31,382.61,251.17,380.51,251.17,377.45Z"/><path d="M255.82,369h2.76v-4l2.1-.9V369h3.87v1.74h-3.87v9c0,1.77.78,2.55,2.34,2.55a6.12,6.12,0,0,0,1.53-.18V384a7.07,7.07,0,0,1-2.07.27c-2.91,0-3.9-1.77-3.9-4.44v-9.09h-2.76Z"/><path d="M279.55,377H268.66c0,3.39,1.89,5.46,4.8,5.46a4.21,4.21,0,0,0,4.23-3.21l1.77.72a6.07,6.07,0,0,1-6.15,4.35c-4.26,0-6.75-2.73-6.75-7.77s2.52-7.95,6.66-7.95,6.33,2.4,6.33,7Zm-2.13-2c0-3.09-1.56-4.74-4.23-4.74s-4.47,1.92-4.53,5h8.76Zm-3.33-8.46h-2l3-4.29h2.58Z"/><path d="M290.59,368.63a3.63,3.63,0,0,1,.57,0v2h-.24a4.39,4.39,0,0,0-3.21,1.14c-1.38,1.38-1.65,3.39-1.65,5.28V384H284V369h1.95v3.66C286.63,370.34,288.28,368.63,290.59,368.63Z"/><path d="M294.52,363h2.37v3.3h-2.37Zm.15,6h2.07v15h-2.07Z"/><path d="M301.09,380a3.79,3.79,0,0,1,1.83-3.36,12.9,12.9,0,0,1,4.92-1.35l3.33-.39v-.24c0-3.09-1.08-4.32-3.63-4.32-2.25,0-3.63,1.17-3.75,3.3h-2.25c.18-3.09,2.52-5,6-5,4,0,5.76,1.86,5.76,6.21v3.9a21.14,21.14,0,0,0,.48,5.25h-2.19a20.58,20.58,0,0,1-.27-3,5.14,5.14,0,0,1-5.22,3.36C303.07,384.35,301.09,382.61,301.09,380Zm10.11-2.58v-1l-4.26.6c-2.55.36-3.66,1.23-3.66,2.88s1.26,2.64,3.27,2.64C309.34,382.61,311.2,380.51,311.2,377.45Z"/><path d="M318.13,378.5V369h2.07v9.3c0,2.94,1.38,4.26,3.42,4.26,2.73,0,4.38-2.34,4.38-5.37V369h2.1v15h-2V380.9a5.14,5.14,0,0,1-4.86,3.45C319.51,384.35,318.13,382.07,318.13,378.5Z"/><path d="M339,376.22,333.88,369h2.49l2.91,4.32c.51.78.81,1.29,1,1.68h0a15.43,15.43,0,0,1,1-1.68l2.76-4.32h2.58l-5,7.38,5.43,7.62h-2.49l-3.33-4.83a13.89,13.89,0,0,1-.93-1.62h0c-.18.33-.48.87-1,1.65L336,384h-2.49Z"/><path d="M356.41,376.49c0-4.62,2.61-7.86,6.42-7.86a4.78,4.78,0,0,1,4.71,3.09v-9.48h2.1V384h-2v-3.18a5.23,5.23,0,0,1-5.07,3.54C358.87,384.35,356.41,381.17,356.41,376.49Zm11.16.33v-.63c0-3.42-1.65-5.7-4.44-5.7s-4.5,2.25-4.5,6,1.68,6,4.47,6S367.57,380.15,367.57,376.82Z"/><path d="M375,378.5V369h2.07v9.3c0,2.94,1.38,4.26,3.42,4.26,2.73,0,4.38-2.34,4.38-5.37V369H387v15h-2V380.9a5.14,5.14,0,0,1-4.86,3.45C376.39,384.35,375,382.07,375,378.5Z"/><path d="M399.28,368.63a3.63,3.63,0,0,1,.57,0v2h-.24a4.39,4.39,0,0,0-3.21,1.14c-1.38,1.38-1.65,3.39-1.65,5.28V384h-2.07V369h1.95v3.66C395.32,370.34,397,368.63,399.28,368.63Z"/><path d="M401.62,380a3.79,3.79,0,0,1,1.83-3.36,12.9,12.9,0,0,1,4.92-1.35l3.33-.39v-.24c0-3.09-1.08-4.32-3.63-4.32-2.25,0-3.63,1.17-3.75,3.3h-2.25c.18-3.09,2.52-5,6-5,4,0,5.76,1.86,5.76,6.21v3.9a21.14,21.14,0,0,0,.48,5.25h-2.19a20.58,20.58,0,0,1-.27-3,5.14,5.14,0,0,1-5.22,3.36C403.6,384.35,401.62,382.61,401.62,380Zm10.11-2.58v-1l-4.26.6c-2.55.36-3.66,1.23-3.66,2.88s1.26,2.64,3.27,2.64C409.87,382.61,411.73,380.51,411.73,377.45Z"/><path d="M421.24,381l-.39,3h-1.59V362.24h2.07v9.81a5.2,5.2,0,0,1,5-3.42c3.69,0,6.09,3.21,6.09,7.86s-2.46,7.86-6.24,7.86A5.2,5.2,0,0,1,421.24,381Zm9-4.5c0-3.63-1.62-6-4.5-6s-4.44,2.25-4.44,5.7v.72c0,3.33,1.68,5.58,4.38,5.58S430.24,380.15,430.24,376.49Z"/><path d="M439,384H436.9V362.24H439Z"/><path d="M456.4,377H445.51c0,3.39,1.89,5.46,4.8,5.46a4.21,4.21,0,0,0,4.23-3.21l1.77.72a6.07,6.07,0,0,1-6.15,4.35c-4.26,0-6.75-2.73-6.75-7.77s2.52-7.95,6.66-7.95,6.33,2.4,6.33,7Zm-2.13-2c0-3.09-1.56-4.74-4.23-4.74s-4.47,1.92-4.53,5h8.76Z"/><path d="M459.43,379.7l2.13-.36c.36,2.13,1.89,3.27,4.26,3.27,2.19,0,3.42-1.05,3.42-2.55s-.84-2.1-2.43-2.4l-2.91-.57c-2.49-.48-3.9-1.83-3.9-4.11,0-2.52,2.13-4.35,5.52-4.35s5.49,1.47,5.79,4.14l-2.1.45c-.3-1.83-1.59-2.88-3.78-2.88s-3.39,1-3.39,2.55c0,1.41.93,2.1,2.49,2.4l2.94.57c2.67.54,3.84,1.83,3.84,4,0,2.67-2,4.47-5.55,4.47S459.91,382.7,459.43,379.7Z"/><path d="M38.15,445.64a2.37,2.37,0,1,1,4.74,0,2.37,2.37,0,0,1-4.74,0Z"/><path d="M57.14,456v-21.3h2.31V456Z"/><path d="M65.45,441h2v3.3a5.11,5.11,0,0,1,5.13-3.66c3.36,0,5.1,2.07,5.1,6.09V456H75.55v-9.15c0-2.91-1.26-4.41-3.62-4.41-2.7,0-4.41,2.16-4.41,5.67V456H65.45Z"/><path d="M80.39,441h2.76v-4l2.1-.9V441h3.87v1.74H85.25v9c0,1.77.78,2.55,2.34,2.55a6.12,6.12,0,0,0,1.53-.18V456a7.07,7.07,0,0,1-2.07.27c-2.91,0-3.9-1.77-3.9-4.44v-9.09H80.39Z"/><path d="M104.12,449H93.23c0,3.39,1.89,5.46,4.8,5.46a4.19,4.19,0,0,0,4.22-3.21L104,452a6.08,6.08,0,0,1-6.15,4.35c-4.26,0-6.75-2.73-6.75-7.77s2.52-7.95,6.66-7.95,6.33,2.4,6.33,7Zm-2.13-2c0-3.09-1.57-4.74-4.24-4.74s-4.46,1.92-4.52,5H102Zm-3.33-8.46h-2l3-4.29h2.57Z"/><path d="M117.35,442a4.86,4.86,0,0,1,1.5,3.63c0,2.91-2.07,5.07-5.46,5.07a6.18,6.18,0,0,1-2.88-.66,1.81,1.81,0,0,0-1.29,1.65c0,1,.75,1.71,2.55,1.71h3.93c3.24,0,4.89,1.47,4.89,4.08,0,2.82-2.22,4.68-7.23,4.68s-6.72-1.89-6.72-4.17a3.31,3.31,0,0,1,2.52-3.18,2.65,2.65,0,0,1-1.8-2.58,3,3,0,0,1,2.13-2.88,5,5,0,0,1-1.56-3.72c0-2.91,2.1-5,5.46-5a6.35,6.35,0,0,1,2.94.66,3.45,3.45,0,0,1,3.54-2.7,4.51,4.51,0,0,1,.87.09v1.86a4.18,4.18,0,0,0-1-.12A2.4,2.4,0,0,0,117.35,442Zm-5.64,13.23c-.42,0-.81,0-1.17-.06a2.63,2.63,0,0,0-1.83,2.46c0,2,2,2.79,4.89,2.79,3.72,0,4.89-1.17,4.89-2.82s-1.11-2.37-3.27-2.37Zm5.16-9.57a3.48,3.48,0,1,0-3.48,3.42A3.3,3.3,0,0,0,116.87,445.7Z"/><path d="M130.3,440.63a3.76,3.76,0,0,1,.58,0v2h-.25a4.41,4.41,0,0,0-3.21,1.14c-1.38,1.38-1.64,3.39-1.64,5.28V456h-2.07V441h2v3.66C126.35,442.34,128,440.63,130.3,440.63Z"/><path d="M145.49,449H134.6c0,3.39,1.89,5.46,4.8,5.46a4.21,4.21,0,0,0,4.23-3.21l1.77.72a6.08,6.08,0,0,1-6.15,4.35c-4.26,0-6.75-2.73-6.75-7.77s2.52-7.95,6.66-7.95,6.33,2.4,6.33,7Zm-2.13-2c0-3.09-1.57-4.74-4.23-4.74s-4.47,1.92-4.53,5h8.76Z"/><path d="M156.52,440.63a3.63,3.63,0,0,1,.57,0v2h-.24a4.41,4.41,0,0,0-3.21,1.14c-1.38,1.38-1.64,3.39-1.64,5.28V456h-2.08V441h2v3.66C152.57,442.34,154.21,440.63,156.52,440.63Z"/><path d="M169.6,456h-2.06V434.24h2.06Z"/><path d="M187,449H176.14c0,3.39,1.89,5.46,4.8,5.46a4.21,4.21,0,0,0,4.23-3.21l1.77.72a6.07,6.07,0,0,1-6.15,4.35c-4.26,0-6.75-2.73-6.75-7.77s2.52-7.95,6.66-7.95,6.33,2.4,6.33,7Zm-2.13-2c0-3.09-1.56-4.74-4.23-4.74s-4.47,1.92-4.53,5h8.76Z"/><path d="M206,440.63a3.63,3.63,0,0,1,.57,0v2h-.24a4.39,4.39,0,0,0-3.21,1.14c-1.38,1.38-1.65,3.39-1.65,5.28V456h-2.07V441h2v3.66C202.06,442.34,203.71,440.63,206,440.63Z"/><path d="M221.17,449H210.28c0,3.39,1.89,5.46,4.8,5.46a4.21,4.21,0,0,0,4.23-3.21l1.77.72a6.07,6.07,0,0,1-6.15,4.35c-4.26,0-6.75-2.73-6.75-7.77s2.52-7.95,6.66-7.95,6.33,2.4,6.33,7Zm-2.13-2c0-3.09-1.56-4.74-4.23-4.74s-4.47,1.92-4.53,5H219Z"/><path d="M224.2,448.49c0-4.89,2.61-7.86,6.81-7.86a5.67,5.67,0,0,1,6.06,5.43l-2.13.24c-.3-2.49-1.74-3.84-4-3.84-2.79,0-4.5,2.25-4.5,6s1.71,6.06,4.59,6.06c2.25,0,3.66-1.35,4.05-3.84l2,.3c-.54,3.39-2.76,5.37-6.06,5.37C226.84,456.35,224.2,453.32,224.2,448.49Z"/><path d="M239.47,461.87V460a6.48,6.48,0,0,0,1.05.09c1.95,0,2.88-1.08,3.6-3.12l.39-1.11-6-14.88h2.34l4,10.71a19.5,19.5,0,0,1,.66,2h.06q.22-.86.63-2.07L249.88,441h2.25l-5.85,16c-1.35,3.69-3,5-5.49,5A6.55,6.55,0,0,1,239.47,461.87Z"/><path d="M253.54,448.49c0-4.89,2.61-7.86,6.81-7.86a5.67,5.67,0,0,1,6.06,5.43l-2.13.24c-.3-2.49-1.74-3.84-4-3.84-2.79,0-4.5,2.25-4.5,6s1.71,6.06,4.59,6.06c2.25,0,3.66-1.35,4-3.84l2,.3c-.54,3.39-2.76,5.37-6.06,5.37C256.18,456.35,253.54,453.32,253.54,448.49Z"/><path d="M273,456h-2.07V434.24H273Z"/><path d="M277.45,452a3.79,3.79,0,0,1,1.83-3.36,12.9,12.9,0,0,1,4.92-1.35l3.33-.39v-.24c0-3.09-1.08-4.32-3.63-4.32-2.25,0-3.63,1.17-3.75,3.3H277.9c.18-3.09,2.52-5,6-5,4,0,5.76,1.86,5.76,6.21v3.9a21.14,21.14,0,0,0,.48,5.25h-2.19a20.58,20.58,0,0,1-.27-3,5.14,5.14,0,0,1-5.22,3.36C279.43,456.35,277.45,454.61,277.45,452Zm10.11-2.58v-1l-4.26.6c-2.55.36-3.66,1.23-3.66,2.88s1.26,2.64,3.27,2.64C285.7,454.61,287.56,452.51,287.56,449.45Z"/><path d="M303.7,442a4.86,4.86,0,0,1,1.5,3.63c0,2.91-2.07,5.07-5.46,5.07a6.18,6.18,0,0,1-2.88-.66,1.81,1.81,0,0,0-1.29,1.65c0,1,.75,1.71,2.55,1.71h3.93c3.24,0,4.89,1.47,4.89,4.08,0,2.82-2.22,4.68-7.23,4.68S293,460.31,293,458a3.31,3.31,0,0,1,2.52-3.18,2.65,2.65,0,0,1-1.8-2.58,3,3,0,0,1,2.13-2.88,5,5,0,0,1-1.56-3.72c0-2.91,2.1-5,5.46-5a6.35,6.35,0,0,1,2.94.66,3.45,3.45,0,0,1,3.54-2.7,4.51,4.51,0,0,1,.87.09v1.86a4.18,4.18,0,0,0-1-.12A2.4,2.4,0,0,0,303.7,442Zm-5.64,13.23c-.42,0-.81,0-1.17-.06a2.63,2.63,0,0,0-1.83,2.46c0,2,1.95,2.79,4.89,2.79,3.72,0,4.89-1.17,4.89-2.82s-1.11-2.37-3.27-2.37Zm5.16-9.57a3.48,3.48,0,1,0-3.48,3.42A3.3,3.3,0,0,0,303.22,445.7Z"/><path d="M321.82,449H310.93c0,3.39,1.89,5.46,4.8,5.46a4.21,4.21,0,0,0,4.23-3.21l1.77.72a6.07,6.07,0,0,1-6.15,4.35c-4.26,0-6.75-2.73-6.75-7.77s2.52-7.95,6.66-7.95,6.33,2.4,6.33,7Zm-2.13-2c0-3.09-1.56-4.74-4.23-4.74s-4.47,1.92-4.53,5h8.76Z"/><path d="M345.79,449H334.9c0,3.39,1.89,5.46,4.8,5.46a4.21,4.21,0,0,0,4.23-3.21l1.77.72a6.07,6.07,0,0,1-6.15,4.35c-4.26,0-6.75-2.73-6.75-7.77s2.52-7.95,6.66-7.95,6.33,2.4,6.33,7Zm-2.13-2c0-3.09-1.56-4.74-4.23-4.74s-4.47,1.92-4.53,5h8.76Z"/><path d="M347.62,441h2.76v-4l2.1-.9V441h3.87v1.74h-3.87v9c0,1.77.78,2.55,2.34,2.55a6.12,6.12,0,0,0,1.53-.18V456a7.07,7.07,0,0,1-2.07.27c-2.91,0-3.9-1.77-3.9-4.44v-9.09h-2.76Z"/><path d="M370.48,456h-2.07V434.24h2.07Z"/><path d="M375,452a3.79,3.79,0,0,1,1.83-3.36,12.9,12.9,0,0,1,4.92-1.35l3.33-.39v-.24c0-3.09-1.08-4.32-3.63-4.32-2.25,0-3.63,1.17-3.75,3.3h-2.25c.18-3.09,2.52-5,6-5,4,0,5.76,1.86,5.76,6.21v3.9a21.14,21.14,0,0,0,.48,5.25h-2.19a20.58,20.58,0,0,1-.27-3,5.14,5.14,0,0,1-5.22,3.36C377,456.35,375,454.61,375,452Zm10.11-2.58v-1l-4.26.6c-2.55.36-3.66,1.23-3.66,2.88s1.26,2.64,3.27,2.64C383.23,454.61,385.09,452.51,385.09,449.45Z"/><path d="M409.42,442a4.86,4.86,0,0,1,1.5,3.63c0,2.91-2.07,5.07-5.46,5.07a6.18,6.18,0,0,1-2.88-.66,1.81,1.81,0,0,0-1.29,1.65c0,1,.75,1.71,2.55,1.71h3.93c3.24,0,4.89,1.47,4.89,4.08,0,2.82-2.22,4.68-7.23,4.68s-6.72-1.89-6.72-4.17a3.31,3.31,0,0,1,2.52-3.18,2.65,2.65,0,0,1-1.8-2.58,3,3,0,0,1,2.13-2.88,5,5,0,0,1-1.56-3.72c0-2.91,2.1-5,5.46-5a6.35,6.35,0,0,1,2.94.66,3.45,3.45,0,0,1,3.54-2.7,4.51,4.51,0,0,1,.87.09v1.86a4.18,4.18,0,0,0-1-.12A2.4,2.4,0,0,0,409.42,442Zm-5.64,13.23c-.42,0-.81,0-1.17-.06a2.63,2.63,0,0,0-1.83,2.46c0,2,2,2.79,4.89,2.79,3.72,0,4.89-1.17,4.89-2.82s-1.11-2.37-3.27-2.37Zm5.16-9.57a3.48,3.48,0,1,0-3.48,3.42A3.3,3.3,0,0,0,408.94,445.7Z"/><path d="M427.54,449H416.65c0,3.39,1.89,5.46,4.8,5.46a4.21,4.21,0,0,0,4.23-3.21l1.77.72a6.07,6.07,0,0,1-6.15,4.35c-4.26,0-6.75-2.73-6.75-7.77s2.52-7.95,6.66-7.95,6.33,2.4,6.33,7Zm-2.13-2c0-3.09-1.56-4.74-4.23-4.74s-4.47,1.92-4.53,5h8.76Z"/><path d="M430.57,451.7l2.13-.36c.36,2.13,1.89,3.27,4.26,3.27,2.19,0,3.42-1.05,3.42-2.55s-.84-2.1-2.43-2.4l-2.91-.57c-2.49-.48-3.9-1.83-3.9-4.11,0-2.52,2.13-4.35,5.52-4.35s5.49,1.47,5.79,4.14l-2.1.45c-.3-1.83-1.59-2.88-3.78-2.88s-3.39,1-3.39,2.55c0,1.41.93,2.1,2.49,2.4l2.94.57c2.67.54,3.84,1.83,3.84,4,0,2.67-2,4.47-5.55,4.47S431.05,454.7,430.57,451.7Z"/><path d="M444.46,441h2.76v-4l2.1-.9V441h3.87v1.74h-3.87v9c0,1.77.78,2.55,2.34,2.55a6.12,6.12,0,0,0,1.53-.18V456a7.07,7.07,0,0,1-2.07.27c-2.91,0-3.9-1.77-3.9-4.44v-9.09h-2.76Z"/><path d="M457,435h2.37v3.3H457Zm.15,6h2.07v15h-2.07Z"/><path d="M463.51,448.49c0-4.89,2.73-7.86,6.9-7.86s6.87,3,6.87,7.86-2.73,7.86-6.87,7.86S463.51,453.38,463.51,448.49Zm11.55,0c0-3.9-1.77-6-4.65-6s-4.68,2.13-4.68,6,1.77,6,4.68,6S475.06,452.39,475.06,448.49Z"/><path d="M481.57,441h2v3.3a5.11,5.11,0,0,1,5.13-3.66c3.36,0,5.1,2.07,5.1,6.09V456h-2.1v-9.15c0-2.91-1.26-4.41-3.63-4.41-2.7,0-4.41,2.16-4.41,5.67V456h-2.07Z"/><path d="M505.54,448.49c0-4.62,2.61-7.86,6.42-7.86a4.78,4.78,0,0,1,4.71,3.09v-9.48h2.1V456h-2v-3.18a5.23,5.23,0,0,1-5.07,3.54C508,456.35,505.54,453.17,505.54,448.49Zm11.16.33v-.63c0-3.42-1.65-5.7-4.44-5.7s-4.5,2.25-4.5,6,1.68,6,4.47,6S516.7,452.15,516.7,448.82Z"/><path d="M536.17,449H525.28c0,3.39,1.89,5.46,4.8,5.46a4.21,4.21,0,0,0,4.23-3.21l1.77.72a6.07,6.07,0,0,1-6.15,4.35c-4.26,0-6.75-2.73-6.75-7.77s2.52-7.95,6.66-7.95,6.33,2.4,6.33,7Zm-2.13-2c0-3.09-1.56-4.74-4.23-4.74s-4.47,1.92-4.53,5H534Z"/><path d="M539.2,451.7l2.13-.36c.36,2.13,1.89,3.27,4.26,3.27,2.19,0,3.42-1.05,3.42-2.55s-.84-2.1-2.43-2.4l-2.91-.57c-2.49-.48-3.9-1.83-3.9-4.11,0-2.52,2.13-4.35,5.52-4.35s5.49,1.47,5.79,4.14l-2.1.45c-.3-1.83-1.59-2.88-3.78-2.88s-3.39,1-3.39,2.55c0,1.41.93,2.1,2.49,2.4l2.94.57c2.67.54,3.84,1.83,3.84,4,0,2.67-2,4.47-5.55,4.47S539.68,454.7,539.2,451.7Z"/><path d="M562.09,448.49c0-4.62,2.61-7.86,6.42-7.86a4.78,4.78,0,0,1,4.71,3.09v-9.48h2.1V456h-2v-3.18a5.23,5.23,0,0,1-5.07,3.54C564.55,456.35,562.09,453.17,562.09,448.49Zm11.16.33v-.63c0-3.42-1.65-5.7-4.44-5.7s-4.5,2.25-4.5,6,1.68,6,4.47,6S573.25,452.15,573.25,448.82Z"/><path d="M592.72,449H581.83c0,3.39,1.89,5.46,4.8,5.46a4.21,4.21,0,0,0,4.23-3.21l1.77.72a6.07,6.07,0,0,1-6.15,4.35c-4.26,0-6.75-2.73-6.75-7.77s2.52-7.95,6.66-7.95,6.33,2.4,6.33,7Zm-2.13-2c0-3.09-1.56-4.74-4.23-4.74s-4.47,1.92-4.53,5h8.76Zm-3.33-8.46h-2l3-4.29h2.58Z"/><path d="M595.75,448.49c0-4.89,2.61-7.86,6.81-7.86a5.67,5.67,0,0,1,6.06,5.43l-2.13.24c-.3-2.49-1.74-3.84-4-3.84-2.79,0-4.5,2.25-4.5,6s1.71,6.06,4.59,6.06c2.25,0,3.66-1.35,4.05-3.84l2,.3c-.54,3.39-2.76,5.37-6.06,5.37C598.39,456.35,595.75,453.32,595.75,448.49Z"/><path d="M613.09,434.24h2.07v9.93a5.14,5.14,0,0,1,5.13-3.54c3.27,0,5,2.07,5,6.06V456h-2.1v-9.18c0-2.88-1.23-4.38-3.6-4.38-2.73,0-4.44,2.16-4.44,5.67V456h-2.07Z"/><path d="M642.1,449H631.21c0,3.39,1.89,5.46,4.8,5.46a4.21,4.21,0,0,0,4.23-3.21L642,452a6.07,6.07,0,0,1-6.15,4.35c-4.26,0-6.75-2.73-6.75-7.77s2.52-7.95,6.66-7.95,6.33,2.4,6.33,7Zm-2.13-2c0-3.09-1.56-4.74-4.23-4.74s-4.47,1.92-4.53,5H640Z"/><path d="M643.93,441h2.76v-4l2.1-.9V441h3.87v1.74h-3.87v9c0,1.77.78,2.55,2.34,2.55a6.12,6.12,0,0,0,1.53-.18V456a7.07,7.07,0,0,1-2.07.27c-2.91,0-3.9-1.77-3.9-4.44v-9.09h-2.76Z"/><path d="M655.12,451.7l2.13-.36c.36,2.13,1.89,3.27,4.26,3.27,2.19,0,3.42-1.05,3.42-2.55s-.84-2.1-2.43-2.4l-2.91-.57c-2.49-.48-3.9-1.83-3.9-4.11,0-2.52,2.13-4.35,5.52-4.35s5.49,1.47,5.79,4.14l-2.1.45c-.3-1.83-1.59-2.88-3.78-2.88s-3.39,1-3.39,2.55c0,1.41.93,2.1,2.49,2.4l2.94.57c2.67.54,3.84,1.83,3.84,4,0,2.67-2,4.47-5.55,4.47S655.6,454.7,655.12,451.7Z"/><path d="M678,451.7l2.13-.36c.36,2.13,1.89,3.27,4.26,3.27,2.19,0,3.42-1.05,3.42-2.55s-.84-2.1-2.43-2.4l-2.91-.57c-2.49-.48-3.9-1.83-3.9-4.11,0-2.52,2.13-4.35,5.52-4.35s5.49,1.47,5.79,4.14l-2.1.45c-.3-1.83-1.59-2.88-3.78-2.88s-3.39,1-3.39,2.55c0,1.41.93,2.1,2.49,2.4l2.94.57c2.67.54,3.84,1.83,3.84,4,0,2.67-2,4.47-5.55,4.47S678.49,454.7,678,451.7Z"/><path d="M693.91,450.5V441H696v9.3c0,2.94,1.38,4.26,3.42,4.26,2.73,0,4.38-2.34,4.38-5.37V441h2.1v15h-2V452.9a5.14,5.14,0,0,1-4.86,3.45C695.29,456.35,693.91,454.07,693.91,450.5Z"/><path d="M718.18,440.63a3.63,3.63,0,0,1,.57,0v2h-.24a4.39,4.39,0,0,0-3.21,1.14c-1.38,1.38-1.65,3.39-1.65,5.28V456h-2.07V441h1.95v3.66C714.22,442.34,715.87,440.63,718.18,440.63Z"/><path d="M731.26,456h-2.07V434.24h2.07Z"/><path d="M748.69,449H737.8c0,3.39,1.89,5.46,4.8,5.46a4.21,4.21,0,0,0,4.23-3.21l1.77.72a6.07,6.07,0,0,1-6.15,4.35c-4.26,0-6.75-2.73-6.75-7.77s2.52-7.95,6.66-7.95,6.33,2.4,6.33,7Zm-2.13-2c0-3.09-1.56-4.74-4.23-4.74s-4.47,1.92-4.53,5h8.76Z"/><path d="M759.67,451.7l2.13-.36c.36,2.13,1.89,3.27,4.26,3.27,2.19,0,3.42-1.05,3.42-2.55s-.84-2.1-2.43-2.4l-2.91-.57c-2.49-.48-3.9-1.83-3.9-4.11,0-2.52,2.13-4.35,5.52-4.35s5.49,1.47,5.79,4.14l-2.1.45c-.3-1.83-1.59-2.88-3.78-2.88s-3.39,1-3.39,2.55c0,1.41.93,2.1,2.49,2.4l2.94.57c2.67.54,3.84,1.83,3.84,4,0,2.67-2,4.47-5.55,4.47S760.15,454.7,759.67,451.7Z"/><path d="M775.87,435h2.37v3.3h-2.37Zm.15,6h2.07v15H776Z"/><path d="M781.57,441h2.76v-4l2.1-.9V441h3.87v1.74h-3.87v9c0,1.77.78,2.55,2.34,2.55a6.12,6.12,0,0,0,1.53-.18V456a7.07,7.07,0,0,1-2.07.27c-2.91,0-3.9-1.77-3.9-4.44v-9.09h-2.76Z"/><path d="M805.33,449H794.44c0,3.39,1.89,5.46,4.8,5.46a4.21,4.21,0,0,0,4.23-3.21l1.77.72a6.07,6.07,0,0,1-6.15,4.35c-4.26,0-6.75-2.73-6.75-7.77s2.52-7.95,6.66-7.95,6.33,2.4,6.33,7Zm-2.13-2c0-3.09-1.56-4.74-4.23-4.74s-4.47,1.92-4.53,5h8.76Z"/><path d="M38.15,517.64a2.37,2.37,0,1,1,4.74,0,2.37,2.37,0,0,1-4.74,0Z"/><path d="M55.49,517.34c0-6.51,3.42-11.16,9.6-11.16,5.88,0,7.74,4.11,8.1,6.48l-2.31.3a5.49,5.49,0,0,0-5.88-4.8c-4.56,0-7.14,3.78-7.14,9.21,0,5.07,2.31,9.12,7.17,9.12,5.52,0,6.45-4.71,6.45-6.81v-.75h-6.6v-2h8.7v11H71.87l-.33-3.87c-.93,2.61-3.48,4.38-6.87,4.38C58.88,528.5,55.49,523.73,55.49,517.34Z"/><path d="M90.47,521H79.58c0,3.39,1.89,5.46,4.8,5.46a4.21,4.21,0,0,0,4.23-3.21l1.77.72a6.07,6.07,0,0,1-6.15,4.35c-4.26,0-6.75-2.73-6.75-7.77s2.52-8,6.66-8,6.33,2.4,6.33,7Zm-2.13-2c0-3.09-1.56-4.74-4.23-4.74s-4.47,1.92-4.53,5h8.76Z"/><path d="M93.5,523.7l2.13-.36c.36,2.13,1.89,3.27,4.26,3.27,2.19,0,3.42-1.05,3.42-2.55s-.85-2.1-2.43-2.4L98,521.09c-2.49-.48-3.9-1.83-3.9-4.11,0-2.52,2.13-4.35,5.51-4.35s5.5,1.47,5.8,4.14l-2.1.45c-.3-1.83-1.59-2.88-3.78-2.88s-3.39,1-3.39,2.55c0,1.41.93,2.1,2.49,2.4l2.94.57c2.67.54,3.84,1.83,3.84,4,0,2.67-2,4.47-5.55,4.47S94,526.7,93.5,523.7Z"/><path d="M107.39,513h2.76v-4l2.1-.9V513h3.87v1.74h-3.87v9c0,1.77.78,2.55,2.34,2.55a6.12,6.12,0,0,0,1.53-.18V528a7.07,7.07,0,0,1-2.07.27c-2.91,0-3.9-1.77-3.9-4.44v-9.09h-2.76Z"/><path d="M119.93,507h2.36v3.3h-2.36Zm.15,6h2.07v15h-2.07Z"/><path d="M126.44,520.49c0-4.89,2.73-7.86,6.89-7.86s6.87,3,6.87,7.86-2.73,7.86-6.87,7.86S126.44,525.38,126.44,520.49Zm11.54,0c0-3.9-1.77-6-4.65-6s-4.67,2.13-4.67,6,1.76,6,4.67,6S138,524.39,138,520.49Z"/><path d="M144.49,513h2v3.3a5.11,5.11,0,0,1,5.13-3.66c3.36,0,5.1,2.07,5.1,6.09V528h-2.1v-9.15c0-2.91-1.26-4.41-3.63-4.41-2.7,0-4.41,2.16-4.41,5.67V528h-2.07Z"/><path d="M168.46,520.49c0-4.62,2.61-7.86,6.42-7.86a4.78,4.78,0,0,1,4.71,3.09v-9.48h2.1V528h-2v-3.18a5.23,5.23,0,0,1-5.07,3.54C170.92,528.35,168.46,525.17,168.46,520.49Zm11.16.33v-.63c0-3.42-1.65-5.7-4.44-5.7s-4.5,2.25-4.5,6,1.68,6,4.47,6S179.62,524.15,179.62,520.82Z"/><path d="M199.09,521H188.21c0,3.39,1.88,5.46,4.79,5.46a4.21,4.21,0,0,0,4.23-3.21L199,524a6.07,6.07,0,0,1-6.15,4.35c-4.26,0-6.74-2.73-6.74-7.77s2.52-8,6.65-8,6.33,2.4,6.33,7Zm-2.13-2c0-3.09-1.56-4.74-4.23-4.74s-4.47,1.92-4.52,5H197Z"/><path d="M202.13,523.7l2.12-.36c.36,2.13,1.89,3.27,4.26,3.27,2.19,0,3.42-1.05,3.42-2.55s-.84-2.1-2.43-2.4l-2.91-.57c-2.49-.48-3.9-1.83-3.9-4.11,0-2.52,2.13-4.35,5.52-4.35s5.49,1.47,5.79,4.14l-2.1.45c-.3-1.83-1.59-2.88-3.78-2.88s-3.39,1-3.39,2.55c0,1.41.93,2.1,2.49,2.4l2.94.57c2.67.54,3.84,1.83,3.84,4,0,2.67-2,4.47-5.55,4.47S202.6,526.7,202.13,523.7Z"/><path d="M225,523.7l2.13-.36c.36,2.13,1.89,3.27,4.26,3.27,2.19,0,3.42-1.05,3.42-2.55s-.84-2.1-2.43-2.4l-2.91-.57c-2.49-.48-3.9-1.83-3.9-4.11,0-2.52,2.13-4.35,5.52-4.35s5.49,1.47,5.79,4.14l-2.1.45c-.3-1.83-1.59-2.88-3.78-2.88s-3.39,1-3.39,2.55c0,1.41.93,2.1,2.49,2.4l2.94.57c2.67.54,3.84,1.83,3.84,4,0,2.67-2,4.47-5.55,4.47S225.49,526.7,225,523.7Z"/><path d="M239.29,533.87V532a6.48,6.48,0,0,0,1.05.09c1.95,0,2.88-1.08,3.6-3.12l.39-1.11-6-14.88h2.34l4,10.71a19.5,19.5,0,0,1,.66,2h.06q.22-.86.63-2.07L249.7,513H252l-5.85,16c-1.35,3.69-3,5-5.49,5A6.55,6.55,0,0,1,239.29,533.87Z"/><path d="M253.15,523.7l2.13-.36c.36,2.13,1.89,3.27,4.26,3.27,2.19,0,3.42-1.05,3.42-2.55s-.84-2.1-2.43-2.4l-2.91-.57c-2.49-.48-3.9-1.83-3.9-4.11,0-2.52,2.13-4.35,5.52-4.35s5.49,1.47,5.79,4.14l-2.1.45c-.3-1.83-1.59-2.88-3.78-2.88s-3.39,1-3.39,2.55c0,1.41.93,2.1,2.49,2.4l2.94.57c2.67.54,3.84,1.83,3.84,4,0,2.67-2,4.47-5.55,4.47S253.63,526.7,253.15,523.7Z"/><path d="M267,513h2.76v-4l2.1-.9V513h3.87v1.74H271.9v9c0,1.77.78,2.55,2.34,2.55a6.12,6.12,0,0,0,1.53-.18V528a7.07,7.07,0,0,1-2.07.27c-2.91,0-3.9-1.77-3.9-4.44v-9.09H267Z"/><path d="M290.8,521H279.91c0,3.39,1.89,5.46,4.8,5.46a4.21,4.21,0,0,0,4.23-3.21l1.77.72a6.07,6.07,0,0,1-6.15,4.35c-4.26,0-6.75-2.73-6.75-7.77s2.52-8,6.66-8,6.33,2.4,6.33,7Zm-7.53-10.44-3.57-4.29h2.58l3,4.29Zm5.4,8.46c0-3.09-1.56-4.74-4.23-4.74s-4.47,1.92-4.53,5h8.76Z"/><path d="M297.19,513v2.91a4.47,4.47,0,0,1,4.44-3.27,4.23,4.23,0,0,1,4.32,3.21,4.76,4.76,0,0,1,4.62-3.21c2.94,0,4.62,2,4.62,5.55V528h-2.1v-9.63c0-2.55-1.08-3.93-3.15-3.93-2.28,0-3.69,1.68-3.69,4.44V528h-2.07v-9.75c0-2.43-1.14-3.81-3.12-3.81-2.28,0-3.75,1.86-3.75,4.8V528h-2.07V513Z"/><path d="M332,521H321.13c0,3.39,1.89,5.46,4.8,5.46a4.21,4.21,0,0,0,4.23-3.21l1.77.72a6.07,6.07,0,0,1-6.15,4.35c-4.26,0-6.75-2.73-6.75-7.77s2.52-8,6.66-8,6.33,2.4,6.33,7Zm-2.13-2c0-3.09-1.56-4.74-4.23-4.74s-4.47,1.92-4.53,5h8.76Z"/><path d="M335.05,523.7l2.13-.36c.36,2.13,1.89,3.27,4.26,3.27,2.19,0,3.42-1.05,3.42-2.55s-.84-2.1-2.43-2.4l-2.91-.57c-2.49-.48-3.9-1.83-3.9-4.11,0-2.52,2.13-4.35,5.52-4.35s5.49,1.47,5.79,4.14l-2.1.45c-.3-1.83-1.59-2.88-3.78-2.88s-3.39,1-3.39,2.55c0,1.41.93,2.1,2.49,2.4l2.94.57c2.67.54,3.84,1.83,3.84,4,0,2.67-2,4.47-5.55,4.47S335.53,526.7,335.05,523.7Z"/><path d="M370.93,521H360c0,3.39,1.89,5.46,4.8,5.46a4.21,4.21,0,0,0,4.23-3.21l1.77.72a6.07,6.07,0,0,1-6.15,4.35c-4.26,0-6.75-2.73-6.75-7.77s2.52-8,6.66-8,6.33,2.4,6.33,7Zm-2.13-2c0-3.09-1.56-4.74-4.23-4.74s-4.47,1.92-4.53,5h8.76Zm-3.33-8.46h-2l3-4.29H369Z"/><path d="M375.37,513h2v3.3a5.11,5.11,0,0,1,5.13-3.66c3.36,0,5.1,2.07,5.1,6.09V528h-2.1v-9.15c0-2.91-1.26-4.41-3.63-4.41-2.7,0-4.41,2.16-4.41,5.67V528h-2.07Z"/><path d="M404.38,521H393.49c0,3.39,1.89,5.46,4.8,5.46a4.21,4.21,0,0,0,4.23-3.21l1.77.72a6.07,6.07,0,0,1-6.15,4.35c-4.26,0-6.75-2.73-6.75-7.77s2.52-8,6.66-8,6.33,2.4,6.33,7Zm-2.13-2c0-3.09-1.56-4.74-4.23-4.74s-4.47,1.92-4.53,5h8.76Z"/><path d="M415.42,512.63a3.63,3.63,0,0,1,.57,0v2h-.24a4.39,4.39,0,0,0-3.21,1.14c-1.38,1.38-1.65,3.39-1.65,5.28V528h-2.07V513h1.95v3.66C411.46,514.34,413.11,512.63,415.42,512.63Z"/><path d="M428,514a4.86,4.86,0,0,1,1.5,3.63c0,2.91-2.07,5.07-5.46,5.07a6.18,6.18,0,0,1-2.88-.66,1.81,1.81,0,0,0-1.29,1.65c0,1,.75,1.71,2.55,1.71h3.93c3.24,0,4.89,1.47,4.89,4.08,0,2.82-2.22,4.68-7.23,4.68s-6.72-1.89-6.72-4.17a3.31,3.31,0,0,1,2.52-3.18,2.65,2.65,0,0,1-1.8-2.58,3,3,0,0,1,2.13-2.88,5,5,0,0,1-1.56-3.72c0-2.91,2.1-5,5.46-5a6.35,6.35,0,0,1,2.94.66,3.45,3.45,0,0,1,3.54-2.7,4.51,4.51,0,0,1,.87.09v1.86a4.18,4.18,0,0,0-1-.12A2.4,2.4,0,0,0,428,514Zm-5.64,13.23c-.42,0-.81,0-1.17-.06a2.63,2.63,0,0,0-1.83,2.46c0,2,1.95,2.79,4.89,2.79,3.72,0,4.89-1.17,4.89-2.82s-1.11-2.37-3.27-2.37Zm5.16-9.57a3.48,3.48,0,1,0-3.48,3.42A3.3,3.3,0,0,0,427.51,517.7Z"/><path d="M446.11,521H435.22c0,3.39,1.89,5.46,4.8,5.46a4.21,4.21,0,0,0,4.23-3.21L446,524a6.07,6.07,0,0,1-6.15,4.35c-4.26,0-6.75-2.73-6.75-7.77s2.52-8,6.66-8,6.33,2.4,6.33,7Zm-2.13-2c0-3.09-1.56-4.74-4.23-4.74s-4.47,1.92-4.53,5H444Zm-3.33-8.46h-2l3-4.29h2.58Z"/><path d="M447.91,513h2.76v-4l2.1-.9V513h3.87v1.74h-3.87v9c0,1.77.78,2.55,2.34,2.55a6.12,6.12,0,0,0,1.53-.18V528a7.07,7.07,0,0,1-2.07.27c-2.91,0-3.9-1.77-3.9-4.44v-9.09h-2.76Z"/><path d="M460.45,507h2.37v3.3h-2.37Zm.15,6h2.07v15H460.6Z"/><path d="M478.09,525a5.1,5.1,0,0,1-4.95,3.36c-3.69,0-6.18-3.09-6.18-7.86s2.67-7.86,6.39-7.86a4.81,4.81,0,0,1,4.83,3.18l.45-2.82h1.56v20.85h-2.1Zm0-4.11v-.75c0-3.36-1.65-5.64-4.47-5.64s-4.47,2.25-4.47,6,1.65,6,4.44,6S478.12,524.21,478.12,520.88Z"/><path d="M485.41,522.5V513h2.07v9.3c0,2.94,1.38,4.26,3.42,4.26,2.73,0,4.38-2.34,4.38-5.37V513h2.1v15h-2V524.9a5.14,5.14,0,0,1-4.86,3.45C486.79,528.35,485.41,526.07,485.41,522.5Z"/><path d="M514.66,521H503.77c0,3.39,1.89,5.46,4.8,5.46a4.21,4.21,0,0,0,4.23-3.21l1.77.72a6.07,6.07,0,0,1-6.15,4.35c-4.26,0-6.75-2.73-6.75-7.77s2.52-8,6.66-8,6.33,2.4,6.33,7Zm-2.13-2c0-3.09-1.56-4.74-4.23-4.74s-4.47,1.92-4.53,5h8.76Z"/><path d="M517.69,523.7l2.13-.36c.36,2.13,1.89,3.27,4.26,3.27,2.19,0,3.42-1.05,3.42-2.55s-.84-2.1-2.43-2.4l-2.91-.57c-2.49-.48-3.9-1.83-3.9-4.11,0-2.52,2.13-4.35,5.52-4.35s5.49,1.47,5.79,4.14l-2.1.45c-.3-1.83-1.59-2.88-3.78-2.88s-3.39,1-3.39,2.55c0,1.41.93,2.1,2.49,2.4l2.94.57c2.67.54,3.84,1.83,3.84,4,0,2.67-2,4.47-5.55,4.47S518.17,526.7,517.69,523.7Z"/></g></svg>