<svg xmlns="http://www.w3.org/2000/svg" xmlns:xlink="http://www.w3.org/1999/xlink" width="1190.55" height="841.89" viewBox="0 0 1190.55 841.89">
  <defs>
    <style>
      .cls-1 {
        clip-path: url(#clip-Plan_de_travail_24);
      }

      .cls-2 {
        fill: none;
      }

      .cls-3 {
        fill: #fff;
      }
    </style>
    <clipPath id="clip-Plan_de_travail_24">
      <rect width="1190.55" height="841.89"/>
    </clipPath>
  </defs>
  <g id="Plan_de_travail_24" data-name="Plan de travail 24" class="cls-1">
    <rect class="cls-3" width="1190.55" height="841.89"/>
    <path id="Tracé_9" data-name="Tracé 9" d="M3816.08,2147.85v4.8h-4.77v-4.8h-9.6v-3.24l9.029-13.259h5.34v12.959h3.12v3.54Zm-4.53-12.089h-.06a9.971,9.971,0,0,1-1.2,2.159l-2.969,4.56a13.464,13.464,0,0,1-1.38,1.83h5.549v-6.18C3811.49,2137.02,3811.49,2136.51,3811.55,2135.761Zm14.82,16.889h-5.129v-4.92h5.129Zm28.56-6c0,3.36-2.37,6-7.23,6h-9.989v-21.3h9.6c4.86,0,7.08,2.37,7.08,5.489a4.991,4.991,0,0,0,.54,9.81Zm-12.15-11.729v5.189h3.18c2.28,0,3.15-1.17,3.15-2.61,0-1.5-.96-2.579-3.15-2.579Zm6.87,11.309c0-1.65-1.11-2.76-3.24-2.76h-3.63v5.61h3.51C3848.6,2149.08,3849.65,2147.85,3849.65,2146.23Zm8.491,6.42v-21.3h5.069v21.3Zm9.51-21.3h5.069v17.189h8.64v4.11h-13.709Zm29.786,16.319h-7.859l-1.62,4.98h-5.07l7.74-21.3h5.789l7.74,21.3h-5.1Zm-1.17-3.57-1.95-5.94a25.661,25.661,0,0,1-.78-3h-.06a20.792,20.792,0,0,1-.78,3l-1.949,5.94Zm10.5-12.749h5.609l6.84,12.149a22.16,22.16,0,0,1,1.29,2.76h.06c0-.84-.03-1.71-.03-2.73v-12.179h4.65v21.3h-5.4l-7.08-12.27a18.346,18.346,0,0,1-1.26-2.61h-.06c0,.87.03,1.77.03,2.82v12.06h-4.649Zm30.269,0h8.49c6.39,0,10.529,4.26,10.529,10.529,0,6.39-4.139,10.77-10.589,10.77h-8.43Zm8.22,17.579c3.6,0,5.58-3.24,5.58-7.05,0-3.87-1.86-6.809-5.52-6.809h-3.21v13.859Zm28.68-.03v3.75h-14.79v-21.3h14.58v3.75h-9.51v4.8h9v3.72h-9v5.28Zm1.38-.69,3.75-2.64a6.171,6.171,0,0,0,5.79,3.66c2.04,0,3.66-.75,3.66-2.43,0-1.59-.93-2.19-3.09-2.64l-2.85-.6c-3.72-.81-5.88-2.82-5.88-6.39,0-3.9,3.18-6.329,8.31-6.329,3.78,0,6.96,1.38,8.459,4.23l-3.3,2.789a5.975,5.975,0,0,0-5.49-3.269c-2.01,0-3.3.84-3.3,2.189,0,1.38.84,2.07,3.09,2.58l3.09.66c3.78.84,5.819,2.64,5.819,6.3,0,4.05-3.119,6.84-8.7,6.84C3980.087,2153.16,3976.787,2151.21,3975.317,2148.21Zm28.47-16.859h8.49c6.39,0,10.529,4.26,10.529,10.529,0,6.39-4.139,10.77-10.589,10.77h-8.43Zm8.22,17.579c3.6,0,5.58-3.24,5.58-7.05,0-3.87-1.86-6.809-5.52-6.809h-3.21v13.859Zm13.89,3.72v-21.3h5.07v21.3Zm7.23-4.44,3.75-2.64a6.171,6.171,0,0,0,5.79,3.66c2.04,0,3.66-.75,3.66-2.43,0-1.59-.93-2.19-3.09-2.64l-2.85-.6c-3.72-.81-5.88-2.82-5.88-6.39,0-3.9,3.18-6.329,8.31-6.329,3.78,0,6.96,1.38,8.46,4.23l-3.3,2.789a5.975,5.975,0,0,0-5.49-3.269c-2.01,0-3.3.84-3.3,2.189,0,1.38.84,2.07,3.09,2.58l3.09.66c3.78.84,5.82,2.64,5.82,6.3,0,4.05-3.12,6.84-8.7,6.84C4037.9,2153.16,4034.6,2151.21,4033.127,2148.21Zm19.71-6.18c0-6.719,3.96-11.189,10.44-11.189,5.43,0,8.85,3,9.42,7.649l-5.13.9c-.3-2.82-1.86-4.469-4.41-4.469-3.24,0-5.13,2.729-5.13,7.079,0,4.23,1.92,7.05,5.28,7.05,2.37,0,3.96-1.62,4.38-4.38l5.13,1.11c-1.02,4.5-4.32,7.38-9.6,7.38C4056.467,2153.16,4052.837,2148.75,4052.837,2142.03Zm27.63-10.679V2145a3.961,3.961,0,1,0,7.92,0v-13.649h5.069v13.859c0,4.86-3.359,7.95-9.029,7.95s-9.03-3.09-9.03-7.95v-13.859Zm14.61,16.859,3.75-2.64a6.17,6.17,0,0,0,5.79,3.66c2.04,0,3.66-.75,3.66-2.43,0-1.59-.93-2.19-3.09-2.64l-2.85-.6c-3.72-.81-5.88-2.82-5.88-6.39,0-3.9,3.18-6.329,8.31-6.329,3.78,0,6.96,1.38,8.459,4.23l-3.3,2.789a5.974,5.974,0,0,0-5.49-3.269c-2.01,0-3.3.84-3.3,2.189,0,1.38.84,2.07,3.09,2.58l3.09.66c3.78.84,5.819,2.64,5.819,6.3,0,4.05-3.119,6.84-8.7,6.84C4099.847,2153.16,4096.547,2151.21,4095.077,2148.21Zm19.08,0,3.75-2.64a6.17,6.17,0,0,0,5.79,3.66c2.04,0,3.66-.75,3.66-2.43,0-1.59-.93-2.19-3.09-2.64l-2.85-.6c-3.72-.81-5.88-2.82-5.88-6.39,0-3.9,3.18-6.329,8.31-6.329,3.78,0,6.96,1.38,8.46,4.23l-3.3,2.789a5.975,5.975,0,0,0-5.49-3.269c-2.01,0-3.3.84-3.3,2.189,0,1.38.84,2.07,3.09,2.58l3.09.66c3.78.84,5.82,2.64,5.82,6.3,0,4.05-3.12,6.84-8.7,6.84C4118.927,2153.16,4115.627,2151.21,4114.157,2148.21Zm21.061,4.44v-21.3h5.069v21.3Zm8.16-10.65c0-6.869,4.109-11.159,10.5-11.159s10.5,4.29,10.5,11.159-4.11,11.16-10.5,11.16S4143.378,2148.84,4143.378,2142Zm15.779,0c0-4.5-1.95-7.2-5.28-7.2s-5.31,2.7-5.31,7.2c0,4.47,1.98,7.2,5.31,7.2S4159.157,2146.5,4159.157,2142Zm8.31-10.649h5.61l6.84,12.149a22.16,22.16,0,0,1,1.29,2.76h.06c0-.84-.03-1.71-.03-2.73v-12.179h4.65v21.3h-5.4l-7.08-12.27a18.3,18.3,0,0,1-1.26-2.61h-.06c0,.87.03,1.77.03,2.82v12.06h-4.65Zm20.58,16.859,3.75-2.64a6.171,6.171,0,0,0,5.79,3.66c2.04,0,3.66-.75,3.66-2.43,0-1.59-.93-2.19-3.09-2.64l-2.85-.6c-3.72-.81-5.88-2.82-5.88-6.39,0-3.9,3.18-6.329,8.31-6.329,3.78,0,6.96,1.38,8.46,4.23l-3.3,2.789a5.975,5.975,0,0,0-5.49-3.269c-2.01,0-3.3.84-3.3,2.189,0,1.38.84,2.07,3.09,2.58l3.09.66c3.78.84,5.82,2.64,5.82,6.3,0,4.05-3.12,6.84-8.7,6.84C4192.817,2153.16,4189.517,2151.21,4188.047,2148.21Zm43.26.69v3.75h-14.79v-21.3h14.58v3.75h-9.51v4.8h9v3.72h-9v5.28Zm19.227-13.529h-6.21v17.279h-5.04v-17.279h-6.18v-4.02h17.43Zm26.909,18.029a5.974,5.974,0,0,0,1.68-.24v3.93a13.685,13.685,0,0,1-2.25.18c-3.6,0-5.94-1.53-6.96-4.11h-.419c-6.39,0-10.5-4.32-10.5-11.16,0-6.869,4.11-11.159,10.5-11.159s10.5,4.29,10.5,11.159c0,5.04-2.22,8.7-5.91,10.29A4.887,4.887,0,0,0,4277.443,2153.4Zm-7.949-4.2c3.329,0,5.279-2.7,5.279-7.2s-1.95-7.2-5.279-7.2-5.31,2.7-5.31,7.2C4264.184,2146.47,4266.164,2149.2,4269.494,2149.2Zm18.3-17.849V2145a3.96,3.96,0,1,0,7.919,0v-13.649h5.07v13.859c0,4.86-3.36,7.95-9.03,7.95s-9.029-3.09-9.029-7.95v-13.859Zm31.859,17.549v3.75h-14.789v-21.3h14.579v3.75h-9.51v4.8h9v3.72h-9v5.28Zm1.381-.69,3.75-2.64a6.168,6.168,0,0,0,5.789,3.66c2.04,0,3.66-.75,3.66-2.43,0-1.59-.93-2.19-3.09-2.64l-2.85-.6c-3.719-.81-5.879-2.82-5.879-6.39,0-3.9,3.18-6.329,8.309-6.329,3.78,0,6.96,1.38,8.46,4.23l-3.3,2.789a5.974,5.974,0,0,0-5.49-3.269c-2.01,0-3.3.84-3.3,2.189,0,1.38.84,2.07,3.09,2.58l3.09.66c3.78.84,5.82,2.64,5.82,6.3,0,4.05-3.12,6.84-8.7,6.84C4325.8,2153.16,4322.5,2151.21,4321.034,2148.21Zm36.419-12.839h-6.21v17.279H4346.2v-17.279h-6.18v-4.02h17.429Zm2.4,17.279v-21.3h5.069v21.3Zm8.16-10.65c0-6.869,4.11-11.159,10.5-11.159s10.5,4.29,10.5,11.159-4.11,11.16-10.5,11.16S4368.014,2148.84,4368.014,2142Zm15.779,0c0-4.5-1.95-7.2-5.28-7.2s-5.31,2.7-5.31,7.2c0,4.47,1.98,7.2,5.31,7.2S4383.793,2146.5,4383.793,2142Zm8.311-10.649h5.609l6.84,12.149a22.083,22.083,0,0,1,1.29,2.76h.06c0-.84-.03-1.71-.03-2.73v-12.179h4.65v21.3h-5.4l-7.08-12.27a18.342,18.342,0,0,1-1.26-2.61h-.06c0,.87.03,1.77.03,2.82v12.06H4392.1Zm22.859,0h5.61l6.84,12.149a22.16,22.16,0,0,1,1.29,2.76h.06c0-.84-.03-1.71-.03-2.73v-12.179h4.65v21.3h-5.4l-7.08-12.27a18.342,18.342,0,0,1-1.26-2.61h-.06c0,.87.03,1.77.03,2.82v12.06h-4.65Zm35.61,16.319h-7.86l-1.62,4.98h-5.07l7.74-21.3h5.79l7.739,21.3h-5.1Zm-1.17-3.57-1.95-5.94a25.562,25.562,0,0,1-.78-3h-.06a20.792,20.792,0,0,1-.78,3l-1.95,5.94Zm10.5,8.55v-21.3h5.07v21.3Zm17.64-8.16h-3.06v8.16h-5.07v-21.3h9.36c5.4,0,7.8,2.64,7.8,6.539a5.89,5.89,0,0,1-4.17,5.85l4.71,8.91h-5.49Zm-3.06-3.48h3.27c2.459,0,3.539-1.2,3.539-3.12,0-1.859-1.05-2.969-3.539-2.969h-3.27Zm30.509,7.89v3.75H4490.2v-21.3h14.579v3.75h-9.51v4.8h9v3.72h-9v5.28Zm25.89,0v3.75h-14.79v-21.3h14.58v3.75h-9.51v4.8h9v3.72h-9v5.28Zm3.69-17.549h5.61l6.84,12.149a22.16,22.16,0,0,1,1.29,2.76h.06c0-.84-.03-1.71-.03-2.73v-12.179h4.65v21.3h-5.4l-7.08-12.27a18.3,18.3,0,0,1-1.26-2.61h-.06c0,.87.03,1.77.03,2.82v12.06h-4.65Zm30.27,0h5.07v17.189h8.639v4.11h-13.709Zm16.62,21.3v-21.3h5.07v21.3Zm8.16-10.62c0-6.689,4.02-11.189,10.56-11.189,5.58,0,8.609,3,9.269,6.539l-5.009.93a4.1,4.1,0,0,0-4.29-3.659c-3.39,0-5.34,2.819-5.34,7.319,0,4.47,1.83,7.29,5.4,7.29a4.488,4.488,0,0,0,4.71-4.38v-.45h-5.25v-3.63h9.869v11.85h-3.6l-.21-3.12c-1.08,2.28-3.45,3.63-6.66,3.63C4593.192,2153.16,4589.622,2148.78,4589.622,2142.03Zm23.7-10.679h5.61l6.839,12.149a22.021,22.021,0,0,1,1.29,2.76h.06c0-.84-.03-1.71-.03-2.73v-12.179h4.65v21.3h-5.4l-7.079-12.27a18.3,18.3,0,0,1-1.26-2.61h-.06c0,.87.03,1.77.03,2.82v12.06h-4.65Zm37.649,17.549v3.75h-14.789v-21.3h14.579v3.75h-9.509v4.8h9v3.72h-9v5.28Z" transform="translate(-3631.65 -1723.78)"/>
    <rect id="Rectangle_33" data-name="Rectangle 33" class="cls-2" width="1190.55" height="841.89"/>
  </g>
</svg>
