<svg id="Calque_1" data-name="Calque 1" xmlns="http://www.w3.org/2000/svg" xmlns:xlink="http://www.w3.org/1999/xlink" viewBox="0 0 1190.55 841.89"><defs><style>.cls-1,.cls-14,.cls-15,.cls-16,.cls-17,.cls-18,.cls-19{fill:none;}.cls-2{clip-path:url(#clip-path);}.cls-3{clip-path:url(#clip-path-3);}.cls-4{clip-path:url(#clip-path-4);}.cls-5{clip-path:url(#clip-path-5);}.cls-6{clip-path:url(#clip-path-6);}.cls-7{clip-path:url(#clip-path-7);}.cls-8{clip-path:url(#clip-path-8);}.cls-9{clip-path:url(#clip-path-9);}.cls-10{clip-path:url(#clip-path-10);}.cls-11{fill:#242424;}.cls-12{fill:#e94e19;}.cls-13{clip-path:url(#clip-path-11);}.cls-14,.cls-16,.cls-19{stroke:#e94e19;}.cls-14{stroke-width:1.5px;}.cls-15,.cls-17{stroke:#faa61a;}.cls-15,.cls-16{stroke-width:2.25px;}.cls-17,.cls-18,.cls-19{stroke-width:3px;}.cls-18{stroke:#ffce00;}.cls-20{clip-path:url(#clip-path-13);}.cls-21{clip-path:url(#clip-path-14);}</style><clipPath id="clip-path"><rect class="cls-1" width="1190.55" height="841.89"/></clipPath><clipPath id="clip-path-3"><rect class="cls-1" x="502.97" y="598.58" width="294.1" height="86.21"/></clipPath><clipPath id="clip-path-4"><rect class="cls-1" x="501.64" y="597.25" width="296.89" height="88.74"/></clipPath><clipPath id="clip-path-5"><rect class="cls-1" x="177.41" y="598.58" width="224.29" height="86.21"/></clipPath><clipPath id="clip-path-6"><rect class="cls-1" x="175.83" y="597.18" width="227.21" height="89.02"/></clipPath><clipPath id="clip-path-7"><rect class="cls-1" x="801.83" y="720.3" width="211.31" height="76.02"/></clipPath><clipPath id="clip-path-8"><rect class="cls-1" x="801.83" y="718.88" width="211.31" height="77.44"/></clipPath><clipPath id="clip-path-9"><rect class="cls-1" x="801.83" y="598.58" width="211.31" height="128.27"/></clipPath><clipPath id="clip-path-10"><rect class="cls-1" x="801.83" y="598.58" width="211.31" height="129.28"/></clipPath><clipPath id="clip-path-11"><rect class="cls-1" width="1190.55" height="841.89"/></clipPath><clipPath id="clip-path-13"><rect class="cls-1" x="177.14" y="183.31" width="226.8" height="118.68"/></clipPath><clipPath id="clip-path-14"><rect class="cls-1" x="177.14" y="183.31" width="226.8" height="119.99"/></clipPath></defs><g class="cls-2"><g class="cls-2"><path d="M94.85,60.5V39.2h5.07V60.5Z"/><path d="M104.36,39.2H110l6.83,12.15a22.16,22.16,0,0,1,1.29,2.76h.07c0-.84,0-1.71,0-2.73V39.2h4.65V60.5h-5.4L110.3,48.23A18.52,18.52,0,0,1,109,45.62h0c0,.87,0,1.77,0,2.82V60.5h-4.65Z"/><path d="M124.94,56.06l3.74-2.64a6.18,6.18,0,0,0,5.79,3.66c2,0,3.66-.75,3.66-2.43S137.2,52.46,135,52l-2.85-.6c-3.72-.81-5.87-2.82-5.87-6.39,0-3.9,3.17-6.33,8.3-6.33,3.78,0,7,1.38,8.46,4.23l-3.3,2.79a6,6,0,0,0-5.49-3.27c-2,0-3.3.84-3.3,2.19s.84,2.07,3.09,2.58l3.09.66c3.78.84,5.82,2.64,5.82,6.3,0,4-3.12,6.84-8.7,6.84C129.7,61,126.41,59.06,124.94,56.06Z"/><path d="M161.35,43.22h-6.21V60.5h-5V43.22h-6.18v-4h17.43Z"/><path d="M171.88,52.34h-3.06V60.5h-5.07V39.2h9.36c5.4,0,7.8,2.64,7.8,6.54a5.89,5.89,0,0,1-4.17,5.85l4.71,8.91H176Zm-3.06-3.48h3.27c2.46,0,3.54-1.2,3.54-3.12s-1-3-3.54-3h-3.27Z"/><path d="M188.68,39.2V52.85a4,4,0,1,0,7.92,0V39.2h5.07V53.06c0,4.86-3.36,7.95-9,7.95s-9-3.09-9-7.95V39.2Z"/><path d="M204.46,49.88c0-6.72,4-11.19,10.44-11.19,5.43,0,8.85,3,9.42,7.65l-5.13.9c-.3-2.82-1.86-4.47-4.41-4.47-3.24,0-5.13,2.73-5.13,7.08s1.92,7,5.28,7c2.37,0,4-1.62,4.38-4.38l5.13,1.11c-1,4.5-4.32,7.38-9.6,7.38C208.09,61,204.46,56.6,204.46,49.88Z"/><path d="M242.38,43.22h-6.21V60.5h-5V43.22H225v-4h17.43Z"/><path d="M244.78,60.5V39.2h5.07V60.5Z"/><path d="M252.94,49.85c0-6.87,4.11-11.16,10.5-11.16s10.5,4.29,10.5,11.16S269.83,61,263.44,61,252.94,56.69,252.94,49.85Zm15.78,0c0-4.5-2-7.2-5.28-7.2s-5.31,2.7-5.31,7.2,2,7.2,5.31,7.2S268.72,54.35,268.72,49.85Z"/><path d="M277,39.2h5.61l6.84,12.15a22.16,22.16,0,0,1,1.29,2.76h.06c0-.84,0-1.71,0-2.73V39.2h4.65V60.5h-5.4L283,48.23a18.35,18.35,0,0,1-1.26-2.61h-.06c0,.87,0,1.77,0,2.82V60.5H277Z"/><path d="M297.61,56.06l3.75-2.64a6.17,6.17,0,0,0,5.79,3.66c2,0,3.66-.75,3.66-2.43s-.93-2.19-3.09-2.64l-2.85-.6C301.15,50.6,299,48.59,299,45c0-3.9,3.18-6.33,8.31-6.33,3.78,0,7,1.38,8.46,4.23l-3.3,2.79A6,6,0,0,0,307,42.44c-2,0-3.3.84-3.3,2.19s.84,2.07,3.09,2.58l3.09.66c3.78.84,5.82,2.64,5.82,6.3,0,4-3.12,6.84-8.7,6.84C302.38,61,299.08,59.06,297.61,56.06Z"/><path d="M343.18,45.89c0,4.23-3,6.87-7.77,6.87h-4.26V60.5h-5.07V39.2h9.45C340.15,39.2,343.18,41.84,343.18,45.89Zm-5.31.15c0-2-1.29-3.18-3.57-3.18h-3.15v6.36h3.15C336.55,49.22,337.87,48.05,337.87,46Z"/><path d="M344.71,49.85c0-6.87,4.11-11.16,10.5-11.16s10.5,4.29,10.5,11.16S361.6,61,355.21,61,344.71,56.69,344.71,49.85Zm15.78,0c0-4.5-1.95-7.2-5.28-7.2s-5.31,2.7-5.31,7.2,2,7.2,5.31,7.2S360.49,54.35,360.49,49.85Z"/><path d="M373.51,39.2V52.85a4,4,0,1,0,7.92,0V39.2h5.07V53.06c0,4.86-3.36,7.95-9,7.95s-9-3.09-9-7.95V39.2Z"/><path d="M398.71,52.34h-3.06V60.5h-5.07V39.2h9.36c5.4,0,7.8,2.64,7.8,6.54a5.89,5.89,0,0,1-4.17,5.85l4.71,8.91h-5.49Zm-3.06-3.48h3.27c2.46,0,3.54-1.2,3.54-3.12s-1-3-3.54-3h-3.27Z"/><path d="M427.87,43.13H418V39.2h15.63v3.66L423.46,56.6h10.65v3.9h-16.5V56.84Z"/><path d="M434.74,49.85c0-6.87,4.11-11.16,10.5-11.16s10.5,4.29,10.5,11.16S451.63,61,445.24,61,434.74,56.69,434.74,49.85Zm15.78,0c0-4.5-1.95-7.2-5.28-7.2s-5.31,2.7-5.31,7.2,2,7.2,5.31,7.2S450.52,54.35,450.52,49.85Z"/><path d="M457.84,49.85c0-6.87,4.11-11.16,10.5-11.16s10.5,4.29,10.5,11.16S474.73,61,468.34,61,457.84,56.69,457.84,49.85Zm15.78,0c0-4.5-1.95-7.2-5.28-7.2s-5.31,2.7-5.31,7.2,2,7.2,5.31,7.2S473.62,54.35,473.62,49.85Z"/><path d="M481.93,39.2h7l3.93,13a14.92,14.92,0,0,1,.51,2.58h.06a16.5,16.5,0,0,1,.54-2.64l3.75-13h7.05V60.5h-4.62V46a21.43,21.43,0,0,1,.12-2.4h-.09a12.12,12.12,0,0,1-.45,2.07L495.4,60.5h-4.26l-4.47-14.85a10,10,0,0,1-.45-2h-.09c.06.72.12,1.53.12,2.37V60.5h-4.32Z"/><path d="M39.14,134.69h3.27l6.21,17a8.19,8.19,0,0,1,.51,1.83h.06a8.48,8.48,0,0,1,.54-1.83l6.18-17H59.2V156H57.05V139a15.78,15.78,0,0,1,.11-2.13h-.11a22.15,22.15,0,0,1-.6,2.25L50.3,156H48.05L41.9,139.13a15.51,15.51,0,0,1-.63-2.25h-.09c.06.66.09,1.35.09,2.13v17H39.14Z"/><path d="M76.79,149H65.9c0,3.39,1.89,5.46,4.8,5.46a4.21,4.21,0,0,0,4.23-3.21l1.77.72a6.07,6.07,0,0,1-6.15,4.35c-4.26,0-6.75-2.73-6.75-7.77s2.52-8,6.66-8,6.33,2.4,6.33,7Zm-2.13-2c0-3.09-1.56-4.74-4.23-4.74s-4.47,1.92-4.53,5h8.76Z"/><path d="M87.82,140.63a3.76,3.76,0,0,1,.58,0v2h-.24A4.39,4.39,0,0,0,85,143.84c-1.38,1.38-1.65,3.39-1.65,5.28V156H81.23V141h2v3.66C83.87,142.34,85.52,140.63,87.82,140.63Z"/><path d="M90,148.49c0-4.89,2.61-7.86,6.81-7.86a5.67,5.67,0,0,1,6.06,5.43l-2.13.24c-.3-2.49-1.74-3.84-4-3.84-2.79,0-4.5,2.25-4.5,6s1.71,6.06,4.59,6.06c2.25,0,3.66-1.35,4-3.84l2,.3c-.54,3.39-2.76,5.37-6.06,5.37C92.66,156.35,90,153.32,90,148.49Z"/><path d="M107.06,135h2.36v3.3h-2.36Zm.14,6h2.08v15H107.2Z"/><path d="M121.51,148.49c0-4.62,2.61-7.86,6.42-7.86a4.78,4.78,0,0,1,4.71,3.09v-9.48h2.1V156h-2v-3.18a5.23,5.23,0,0,1-5.06,3.54C124,156.35,121.51,153.17,121.51,148.49Zm11.16.33v-.63c0-3.42-1.65-5.7-4.43-5.7s-4.5,2.25-4.5,6,1.67,6,4.46,6S132.67,152.15,132.67,148.82Z"/><path d="M152.14,149H141.25c0,3.39,1.89,5.46,4.8,5.46a4.21,4.21,0,0,0,4.23-3.21l1.77.72a6.07,6.07,0,0,1-6.15,4.35c-4.26,0-6.74-2.73-6.74-7.77s2.51-8,6.65-8,6.33,2.4,6.33,7Zm-2.13-2c0-3.09-1.56-4.74-4.23-4.74s-4.47,1.92-4.53,5H150Z"/><path d="M163.12,148.49c0-4.89,2.61-7.86,6.81-7.86a5.67,5.67,0,0,1,6.06,5.43l-2.13.24c-.3-2.49-1.74-3.84-4-3.84-2.79,0-4.5,2.25-4.5,6s1.71,6.06,4.59,6.06c2.25,0,3.66-1.35,4-3.84l2,.3c-.54,3.39-2.76,5.37-6.06,5.37C165.76,156.35,163.12,153.32,163.12,148.49Z"/><path d="M178.9,148.49c0-4.89,2.73-7.86,6.9-7.86s6.87,3,6.87,7.86-2.73,7.86-6.87,7.86S178.9,153.38,178.9,148.49Zm11.55,0c0-3.9-1.77-6-4.65-6s-4.68,2.13-4.68,6,1.77,6,4.68,6S190.45,152.39,190.45,148.49Z"/><path d="M197,141h2v3.3a5.11,5.11,0,0,1,5.13-3.66c3.36,0,5.1,2.07,5.1,6.09V156h-2.1v-9.15c0-2.91-1.26-4.41-3.63-4.41-2.7,0-4.41,2.16-4.41,5.67V156H197Z"/><path d="M221,142.73h-3.9V156h-2.07V142.73h-2.82V141h2.82V138.5c0-2.7,1.59-4.44,4.2-4.44a6.37,6.37,0,0,1,1.77.21v1.8a8.76,8.76,0,0,0-1.5-.15c-1.68,0-2.4.9-2.4,2.85V141H221Zm3.45-7.74h2.37v3.3h-2.37Zm.15,6h2.07v15h-2.07Z"/><path d="M241.39,142a4.86,4.86,0,0,1,1.5,3.63c0,2.91-2.07,5.07-5.46,5.07a6.18,6.18,0,0,1-2.88-.66,1.81,1.81,0,0,0-1.29,1.65c0,1,.75,1.71,2.55,1.71h3.93c3.24,0,4.89,1.47,4.89,4.08,0,2.82-2.22,4.68-7.23,4.68s-6.72-1.89-6.72-4.17a3.31,3.31,0,0,1,2.52-3.18,2.65,2.65,0,0,1-1.8-2.58,3,3,0,0,1,2.13-2.88,5,5,0,0,1-1.56-3.72c0-2.91,2.1-5,5.46-5a6.35,6.35,0,0,1,2.94.66,3.45,3.45,0,0,1,3.54-2.7,4.51,4.51,0,0,1,.87.09v1.86a4.18,4.18,0,0,0-1-.12A2.4,2.4,0,0,0,241.39,142Zm-5.64,13.23c-.42,0-.81,0-1.17-.06a2.63,2.63,0,0,0-1.83,2.46c0,2,1.95,2.79,4.89,2.79,3.72,0,4.89-1.17,4.89-2.82s-1.11-2.37-3.27-2.37Zm5.16-9.57a3.48,3.48,0,1,0-3.48,3.42A3.3,3.3,0,0,0,240.91,145.7Z"/><path d="M247.36,150.5V141h2.07v9.3c0,2.94,1.38,4.26,3.42,4.26,2.73,0,4.38-2.34,4.38-5.37V141h2.1v15h-2V152.9a5.14,5.14,0,0,1-4.86,3.45C248.74,156.35,247.36,154.07,247.36,150.5Z"/><path d="M271.63,140.63a3.63,3.63,0,0,1,.57,0v2H272a4.39,4.39,0,0,0-3.21,1.14c-1.38,1.38-1.65,3.39-1.65,5.28V156H265V141h2v3.66C267.67,142.34,269.32,140.63,271.63,140.63Z"/><path d="M286.81,149H275.92c0,3.39,1.89,5.46,4.8,5.46a4.21,4.21,0,0,0,4.23-3.21l1.77.72a6.07,6.07,0,0,1-6.15,4.35c-4.26,0-6.75-2.73-6.75-7.77s2.52-8,6.66-8,6.33,2.4,6.33,7Zm-2.13-2c0-3.09-1.56-4.74-4.23-4.74s-4.47,1.92-4.53,5h8.76Z"/><path d="M297.85,140.63a3.63,3.63,0,0,1,.57,0v2h-.24a4.39,4.39,0,0,0-3.21,1.14c-1.38,1.38-1.65,3.39-1.65,5.28V156h-2.07V141h1.95v3.66C293.89,142.34,295.54,140.63,297.85,140.63Z"/><path d="M305.44,141h2.28l3.72,10.62c.27.84.48,1.53.63,2.22h.09c.15-.69.39-1.38.66-2.22L316.54,141h2.28l-5.55,15H311Z"/><path d="M320.23,148.49c0-4.89,2.73-7.86,6.9-7.86s6.87,3,6.87,7.86-2.73,7.86-6.87,7.86S320.23,153.38,320.23,148.49Zm11.55,0c0-3.9-1.77-6-4.65-6s-4.68,2.13-4.68,6,1.77,6,4.68,6S331.78,152.39,331.78,148.49Z"/><path d="M336.88,151.7l2.13-.36c.36,2.13,1.89,3.27,4.26,3.27,2.19,0,3.42-1.05,3.42-2.55s-.84-2.1-2.43-2.4l-2.91-.57c-2.49-.48-3.9-1.83-3.9-4.11,0-2.52,2.13-4.35,5.52-4.35s5.49,1.47,5.79,4.14l-2.1.45c-.3-1.83-1.59-2.88-3.78-2.88s-3.39,1-3.39,2.55c0,1.41.93,2.1,2.49,2.4l2.94.57c2.67.54,3.84,1.83,3.84,4,0,2.67-2,4.47-5.55,4.47S337.36,154.7,336.88,151.7Z"/><path d="M359.77,148.49c0-4.89,2.73-7.86,6.9-7.86s6.87,3,6.87,7.86-2.73,7.86-6.87,7.86S359.77,153.38,359.77,148.49Zm11.55,0c0-3.9-1.77-6-4.65-6s-4.68,2.13-4.68,6,1.77,6,4.68,6S371.32,152.39,371.32,148.49Z"/><path d="M377.83,141h2v3.18a5.32,5.32,0,0,1,5.13-3.54c3.69,0,6.09,3.15,6.09,7.86s-2.55,7.86-6.24,7.86a5.06,5.06,0,0,1-4.89-3.18v8.67h-2.07Zm11,7.5c0-3.72-1.62-6-4.38-6s-4.56,2.34-4.56,5.64v.66c0,3.36,1.68,5.7,4.44,5.7S388.81,152.21,388.81,148.49Z"/><path d="M392.71,141h2.76v-4l2.1-.9V141h3.87v1.74h-3.87v9c0,1.77.78,2.55,2.34,2.55a6.12,6.12,0,0,0,1.53-.18V156a7.07,7.07,0,0,1-2.07.27c-2.91,0-3.9-1.77-3.9-4.44v-9.09h-2.76Z"/><path d="M405.25,135h2.37v3.3h-2.37Zm.15,6h2.07v15H405.4Z"/><path d="M411.76,148.49c0-4.89,2.73-7.86,6.9-7.86s6.87,3,6.87,7.86-2.73,7.86-6.87,7.86S411.76,153.38,411.76,148.49Zm11.55,0c0-3.9-1.77-6-4.65-6s-4.68,2.13-4.68,6,1.77,6,4.68,6S423.31,152.39,423.31,148.49Z"/><path d="M429.82,141h2v3.3a5.11,5.11,0,0,1,5.13-3.66c3.36,0,5.1,2.07,5.1,6.09V156h-2.1v-9.15c0-2.91-1.26-4.41-3.63-4.41-2.7,0-4.41,2.16-4.41,5.67V156h-2.07Z"/><path d="M445.84,151.7l2.13-.36c.36,2.13,1.89,3.27,4.26,3.27,2.19,0,3.42-1.05,3.42-2.55s-.84-2.1-2.43-2.4l-2.91-.57c-2.49-.48-3.9-1.83-3.9-4.11,0-2.52,2.13-4.35,5.52-4.35s5.49,1.47,5.79,4.14l-2.1.45c-.3-1.83-1.59-2.88-3.78-2.88s-3.39,1-3.39,2.55c0,1.41.93,2.1,2.49,2.4l2.94.57c2.67.54,3.84,1.83,3.84,4,0,2.67-2,4.47-5.55,4.47S446.32,154.7,445.84,151.7Z"/><path d="M470.14,141h2v3.18a5.32,5.32,0,0,1,5.13-3.54c3.69,0,6.09,3.15,6.09,7.86s-2.55,7.86-6.24,7.86a5.06,5.06,0,0,1-4.89-3.18v8.67h-2.07Zm11,7.5c0-3.72-1.62-6-4.38-6s-4.56,2.34-4.56,5.64v.66c0,3.36,1.68,5.7,4.44,5.7S481.12,152.21,481.12,148.49Z"/><path d="M486.22,148.49c0-4.89,2.73-7.86,6.9-7.86s6.87,3,6.87,7.86-2.73,7.86-6.87,7.86S486.22,153.38,486.22,148.49Zm11.55,0c0-3.9-1.77-6-4.65-6s-4.68,2.13-4.68,6,1.77,6,4.68,6S497.77,152.39,497.77,148.49Z"/><path d="M503.83,150.5V141h2.07v9.3c0,2.94,1.38,4.26,3.42,4.26,2.73,0,4.38-2.34,4.38-5.37V141h2.1v15h-2V152.9a5.14,5.14,0,0,1-4.86,3.45C505.21,156.35,503.83,154.07,503.83,150.5Z"/><path d="M528.1,140.63a3.63,3.63,0,0,1,.57,0v2h-.24a4.39,4.39,0,0,0-3.21,1.14c-1.38,1.38-1.65,3.39-1.65,5.28V156H521.5V141h2v3.66C524.14,142.34,525.79,140.63,528.1,140.63Z"/><path d="M537.58,152a3.79,3.79,0,0,1,1.83-3.36,12.9,12.9,0,0,1,4.92-1.35l3.33-.39v-.24c0-3.09-1.08-4.32-3.63-4.32-2.25,0-3.63,1.17-3.75,3.3H538c.18-3.09,2.52-5,6-5,4,0,5.76,1.86,5.76,6.21v3.9a21.14,21.14,0,0,0,.48,5.25h-2.19a20.58,20.58,0,0,1-.27-3,5.14,5.14,0,0,1-5.22,3.36C539.56,156.35,537.58,154.61,537.58,152Zm10.11-2.58v-1l-4.26.6c-2.55.36-3.66,1.23-3.66,2.88s1.26,2.64,3.27,2.64C545.83,154.61,547.69,152.51,547.69,149.45Z"/><path d="M561.49,142.73h-3.9V156h-2.07V142.73H552.7V141h2.82V138.5c0-2.7,1.59-4.44,4.2-4.44a6.37,6.37,0,0,1,1.77.21v1.8a8.76,8.76,0,0,0-1.5-.15c-1.68,0-2.4.9-2.4,2.85V141h3.9Z"/><path d="M572.35,142.73h-3.9V156h-2.07V142.73h-2.82V141h2.82V138.5c0-2.7,1.59-4.44,4.2-4.44a6.37,6.37,0,0,1,1.77.21v1.8a8.76,8.76,0,0,0-1.5-.15c-1.68,0-2.4.9-2.4,2.85V141h3.9ZM575.8,135h2.37v3.3H575.8Zm.15,6H578v15H576Z"/><path d="M582.31,148.49c0-4.89,2.61-7.86,6.81-7.86a5.67,5.67,0,0,1,6.06,5.43l-2.13.24c-.3-2.49-1.74-3.84-4-3.84-2.79,0-4.5,2.25-4.5,6s1.71,6.06,4.59,6.06c2.25,0,3.66-1.35,4-3.84l2,.3c-.54,3.39-2.76,5.37-6.06,5.37C585,156.35,582.31,153.32,582.31,148.49Z"/><path d="M599.65,134.24h2.07v9.93a5.14,5.14,0,0,1,5.13-3.54c3.27,0,5,2.07,5,6.06V156h-2.1v-9.18c0-2.88-1.23-4.38-3.6-4.38-2.73,0-4.44,2.16-4.44,5.67V156h-2.07Z"/><path d="M628.66,149H617.77c0,3.39,1.89,5.46,4.8,5.46a4.21,4.21,0,0,0,4.23-3.21l1.77.72a6.07,6.07,0,0,1-6.15,4.35c-4.26,0-6.75-2.73-6.75-7.77s2.52-8,6.66-8,6.33,2.4,6.33,7Zm-2.13-2c0-3.09-1.56-4.74-4.23-4.74s-4.47,1.92-4.53,5h8.76Z"/><path d="M639.7,140.63a3.63,3.63,0,0,1,.57,0v2H640a4.39,4.39,0,0,0-3.21,1.14c-1.38,1.38-1.65,3.39-1.65,5.28V156H633.1V141h1.95v3.66C635.74,142.34,637.39,140.63,639.7,140.63Z"/><path d="M652.78,156h-2.07V134.24h2.07Z"/><path d="M657.88,140.93a2.57,2.57,0,0,0,1.59-2.82v-.06H658v-3.36h2.85v3.18c0,2.22-.57,3.3-2.37,4.14Z"/><path d="M665.65,135H668v3.3h-2.37Zm.15,6h2.07v15H665.8Z"/><path d="M673.57,141h2v3.3a5.11,5.11,0,0,1,5.13-3.66c3.35,0,5.1,2.07,5.1,6.09V156h-2.11v-9.15c0-2.91-1.26-4.41-3.62-4.41-2.7,0-4.41,2.16-4.41,5.67V156h-2.07Z"/><path d="M688.51,141h2.76v-4l2.1-.9V141h3.87v1.74h-3.87v9c0,1.77.78,2.55,2.34,2.55a6.12,6.12,0,0,0,1.53-.18V156a7.07,7.07,0,0,1-2.07.27c-2.91,0-3.9-1.77-3.9-4.44v-9.09h-2.76Z"/><path d="M712.27,149H701.38c0,3.39,1.89,5.46,4.8,5.46a4.21,4.21,0,0,0,4.23-3.21l1.77.72a6.08,6.08,0,0,1-6.15,4.35c-4.26,0-6.75-2.73-6.75-7.77s2.52-8,6.66-8,6.33,2.4,6.33,7Zm-2.13-2c0-3.09-1.57-4.74-4.23-4.74s-4.47,1.92-4.53,5h8.76Z"/><path d="M723.31,140.63a3.63,3.63,0,0,1,.57,0v2h-.24a4.39,4.39,0,0,0-3.21,1.14c-1.38,1.38-1.65,3.39-1.65,5.28V156h-2.07V141h1.95v3.66C719.35,142.34,721,140.63,723.31,140.63Z"/><path d="M725.77,141h2.28l3.72,10.62c.26.84.47,1.53.63,2.22h.09a21.78,21.78,0,0,1,.66-2.22L736.86,141h2.28l-5.55,15h-2.27Z"/><path d="M753.54,149H742.66c0,3.39,1.88,5.46,4.79,5.46a4.21,4.21,0,0,0,4.23-3.21l1.77.72a6.07,6.07,0,0,1-6.15,4.35c-4.26,0-6.74-2.73-6.74-7.77s2.51-8,6.65-8,6.33,2.4,6.33,7Zm-2.13-2c0-3.09-1.56-4.74-4.23-4.74s-4.47,1.92-4.52,5h8.75Z"/><path d="M758,141h2v3.3a5.11,5.11,0,0,1,5.13-3.66c3.36,0,5.1,2.07,5.1,6.09V156h-2.1v-9.15c0-2.91-1.26-4.41-3.63-4.41-2.7,0-4.41,2.16-4.41,5.67V156H758Z"/><path d="M774.07,152a3.79,3.79,0,0,1,1.83-3.36,12.9,12.9,0,0,1,4.92-1.35l3.32-.39v-.24c0-3.09-1.07-4.32-3.63-4.32-2.24,0-3.62,1.17-3.74,3.3h-2.25c.18-3.09,2.51-5,6-5,4,0,5.75,1.86,5.75,6.21v3.9a21.14,21.14,0,0,0,.48,5.25h-2.19a20.58,20.58,0,0,1-.27-3,5.14,5.14,0,0,1-5.22,3.36C776,156.35,774.07,154.61,774.07,152Zm10.1-2.58v-1l-4.26.6c-2.55.36-3.66,1.23-3.66,2.88s1.27,2.64,3.28,2.64C782.32,154.61,784.17,152.51,784.17,149.45Z"/><path d="M791.55,141h2v3.3a5.11,5.11,0,0,1,5.13-3.66c3.36,0,5.1,2.07,5.1,6.09V156h-2.1v-9.15c0-2.91-1.26-4.41-3.63-4.41-2.7,0-4.41,2.16-4.41,5.67V156h-2.07Z"/><path d="M806.46,141h2.76v-4l2.1-.9V141h3.87v1.74h-3.87v9c0,1.77.78,2.55,2.34,2.55a6.12,6.12,0,0,0,1.53-.18V156a7.07,7.07,0,0,1-2.07.27c-2.91,0-3.9-1.77-3.9-4.44v-9.09h-2.76Z"/><path d="M838.68,149H827.79c0,3.39,1.89,5.46,4.8,5.46a4.21,4.21,0,0,0,4.23-3.21l1.77.72a6.07,6.07,0,0,1-6.15,4.35c-4.26,0-6.75-2.73-6.75-7.77s2.52-8,6.66-8,6.33,2.4,6.33,7Zm-2.13-2c0-3.09-1.56-4.74-4.23-4.74s-4.47,1.92-4.53,5h8.76Z"/><path d="M843.12,141h2v3.3a5.11,5.11,0,0,1,5.13-3.66c3.36,0,5.1,2.07,5.1,6.09V156h-2.1v-9.15c0-2.91-1.26-4.41-3.63-4.41-2.7,0-4.41,2.16-4.41,5.67V156h-2.07Z"/><path d="M868.65,134.24h2.07v9.93a5.14,5.14,0,0,1,5.13-3.54c3.27,0,5,2.07,5,6.06V156h-2.1v-9.18c0-2.88-1.23-4.38-3.6-4.38-2.73,0-4.44,2.16-4.44,5.67V156h-2.07Z"/><path d="M884.73,152a3.79,3.79,0,0,1,1.83-3.36,12.9,12.9,0,0,1,4.92-1.35l3.33-.39v-.24c0-3.09-1.08-4.32-3.63-4.32-2.25,0-3.63,1.17-3.75,3.3h-2.25c.18-3.09,2.52-5,6-5,4,0,5.76,1.86,5.76,6.21v3.9a21.14,21.14,0,0,0,.48,5.25H895.2a20.58,20.58,0,0,1-.27-3,5.14,5.14,0,0,1-5.22,3.36C886.71,156.35,884.73,154.61,884.73,152Zm10.11-2.58v-1l-4.26.6c-2.55.36-3.66,1.23-3.66,2.88s1.26,2.64,3.27,2.64C893,154.61,894.84,152.51,894.84,149.45Z"/><path d="M901.77,150.5V141h2.07v9.3c0,2.94,1.38,4.26,3.42,4.26,2.73,0,4.38-2.34,4.38-5.37V141h2.1v15h-2V152.9a5.14,5.14,0,0,1-4.86,3.45C903.15,156.35,901.77,154.07,901.77,150.5Z"/><path d="M917.22,141H920v-4l2.1-.9V141H926v1.74h-3.87v9c0,1.77.78,2.55,2.34,2.55a6.12,6.12,0,0,0,1.53-.18V156a7.07,7.07,0,0,1-2.07.27c-2.91,0-3.9-1.77-3.9-4.44v-9.09h-2.76Z"/><path d="M936.51,152a3.79,3.79,0,0,1,1.83-3.36,12.9,12.9,0,0,1,4.92-1.35l3.33-.39v-.24c0-3.09-1.08-4.32-3.63-4.32-2.25,0-3.63,1.17-3.75,3.3H937c.18-3.09,2.52-5,6-5,4,0,5.76,1.86,5.76,6.21v3.9a21.14,21.14,0,0,0,.48,5.25H947a20.58,20.58,0,0,1-.27-3,5.14,5.14,0,0,1-5.22,3.36C938.49,156.35,936.51,154.61,936.51,152ZM942,138.59l-3.57-4.29H941l3,4.29Zm4.65,10.86v-1l-4.26.6c-2.55.36-3.66,1.23-3.66,2.88s1.26,2.64,3.27,2.64C944.76,154.61,946.62,152.51,946.62,149.45Z"/><path d="M960.54,148.49c0-4.62,2.61-7.86,6.42-7.86a4.78,4.78,0,0,1,4.71,3.09v-9.48h2.1V156h-2v-3.18a5.23,5.23,0,0,1-5.07,3.54C963,156.35,960.54,153.17,960.54,148.49Zm11.16.33v-.63c0-3.42-1.65-5.7-4.44-5.7s-4.5,2.25-4.5,6,1.68,6,4.47,6S971.7,152.15,971.7,148.82Z"/><path d="M986.19,140.63a3.63,3.63,0,0,1,.57,0v2h-.24a4.39,4.39,0,0,0-3.21,1.14c-1.38,1.38-1.65,3.39-1.65,5.28V156h-2.07V141h1.95v3.66C982.23,142.34,983.88,140.63,986.19,140.63Z"/><path d="M988.35,148.49c0-4.89,2.73-7.86,6.9-7.86s6.87,3,6.87,7.86-2.73,7.86-6.87,7.86S988.35,153.38,988.35,148.49Zm11.55,0c0-3.9-1.77-6-4.65-6s-4.68,2.13-4.68,6,1.77,6,4.68,6S999.9,152.39,999.9,148.49Z"/><path d="M1006.26,135h2.37v3.3h-2.37Zm.15,6h2.07v15h-2.07Z"/><path d="M1012,141h2.76v-4l2.1-.9V141h3.87v1.74h-3.87v9c0,1.77.78,2.55,2.34,2.55a6.12,6.12,0,0,0,1.53-.18V156a7.07,7.07,0,0,1-2.07.27c-2.91,0-3.9-1.77-3.9-4.44v-9.09H1012Z"/><path d="M1035.69,149H1024.8c0,3.39,1.89,5.46,4.8,5.46a4.21,4.21,0,0,0,4.23-3.21l1.77.72a6.07,6.07,0,0,1-6.15,4.35c-4.26,0-6.75-2.73-6.75-7.77s2.52-8,6.66-8,6.33,2.4,6.33,7Zm-2.13-2c0-3.09-1.56-4.74-4.23-4.74s-4.47,1.92-4.53,5h8.76Z"/><path d="M1050.21,144.35h-2.82V141h2.82Zm0,11.64h-2.82v-3.36h2.82Z"/><path d="M52.34,370v2H39.14v-21.3h13v2H41.45v7.41H51.61v2H41.45V370Z"/><path d="M57.17,357h2v3.3a5.11,5.11,0,0,1,5.13-3.66c3.36,0,5.1,2.07,5.1,6.09V372h-2.1v-9.15c0-2.91-1.26-4.41-3.63-4.41-2.7,0-4.41,2.16-4.41,5.67V372H57.17Z"/><path d="M80.06,357h2.76v-4l2.1-.9V357h3.86v1.74H84.92v9c0,1.77.78,2.55,2.34,2.55a6,6,0,0,0,1.52-.18V372a7,7,0,0,1-2.06.27c-2.91,0-3.9-1.77-3.9-4.44v-9.09H80.06Z"/><path d="M91.13,368A3.79,3.79,0,0,1,93,364.67a12.9,12.9,0,0,1,4.92-1.35l3.32-.39v-.24c0-3.09-1.07-4.32-3.63-4.32-2.24,0-3.62,1.17-3.74,3.3H91.58c.18-3.09,2.52-5,6-5,4,0,5.76,1.86,5.76,6.21v3.9a21.23,21.23,0,0,0,.47,5.25H101.6a21.94,21.94,0,0,1-.28-3,5.12,5.12,0,0,1-5.21,3.36C93.11,372.35,91.13,370.61,91.13,368Zm10.11-2.58v-1l-4.26.6c-2.55.36-3.66,1.23-3.66,2.88s1.26,2.64,3.27,2.64C99.38,370.61,101.24,368.51,101.24,365.45Z"/><path d="M108.61,357h2v3.3a5.1,5.1,0,0,1,5.13-3.66c3.35,0,5.09,2.07,5.09,6.09V372h-2.09v-9.15c0-2.91-1.27-4.41-3.63-4.41-2.7,0-4.41,2.16-4.41,5.67V372h-2.08Z"/><path d="M123.53,357h2.75v-4l2.11-.9V357h3.86v1.74h-3.86v9c0,1.77.77,2.55,2.34,2.55a6.09,6.09,0,0,0,1.52-.18V372a7,7,0,0,1-2.06.27c-2.91,0-3.91-1.77-3.91-4.44v-9.09h-2.75Z"/><path d="M153.88,369a5.1,5.1,0,0,1-4.94,3.36c-3.7,0-6.19-3.09-6.19-7.86s2.67-7.86,6.4-7.86a4.8,4.8,0,0,1,4.82,3.18l.45-2.82H156v20.85h-2.1Zm0-4.11v-.75c0-3.36-1.65-5.64-4.46-5.64s-4.47,2.25-4.47,6,1.64,6,4.43,6S153.91,368.21,153.91,364.88Z"/><path d="M161.21,366.5V357h2.07v9.3c0,2.94,1.38,4.26,3.42,4.26,2.72,0,4.37-2.34,4.37-5.37V357h2.1v15h-2V368.9a5.17,5.17,0,0,1-4.87,3.45C162.59,372.35,161.21,370.07,161.21,366.5Z"/><path d="M190.45,365H179.57c0,3.39,1.88,5.46,4.79,5.46a4.21,4.21,0,0,0,4.23-3.21l1.77.72a6.07,6.07,0,0,1-6.15,4.35c-4.26,0-6.74-2.73-6.74-7.77s2.52-7.95,6.65-7.95,6.33,2.4,6.33,7Zm-2.13-2c0-3.09-1.56-4.74-4.23-4.74s-4.47,1.92-4.52,5h8.75Z"/><path d="M202.84,357h2v3.18a5.32,5.32,0,0,1,5.13-3.54c3.69,0,6.09,3.15,6.09,7.86s-2.55,7.86-6.24,7.86a5.06,5.06,0,0,1-4.89-3.18v8.67h-2.07Zm11,7.5c0-3.72-1.62-6-4.38-6s-4.56,2.34-4.56,5.64v.66c0,3.36,1.68,5.7,4.44,5.7S213.82,368.21,213.82,364.49Z"/><path d="M218.86,368a3.79,3.79,0,0,1,1.83-3.36,12.9,12.9,0,0,1,4.92-1.35l3.33-.39v-.24c0-3.09-1.08-4.32-3.63-4.32-2.25,0-3.63,1.17-3.75,3.3h-2.25c.18-3.09,2.52-5,6-5,4,0,5.76,1.86,5.76,6.21v3.9a21.14,21.14,0,0,0,.48,5.25h-2.19a20.58,20.58,0,0,1-.27-3,5.14,5.14,0,0,1-5.22,3.36C220.84,372.35,218.86,370.61,218.86,368ZM229,365.45v-1l-4.26.6c-2.55.36-3.66,1.23-3.66,2.88s1.26,2.64,3.27,2.64C227.11,370.61,229,368.51,229,365.45Z"/><path d="M243,356.63a3.63,3.63,0,0,1,.57,0v2h-.24a4.39,4.39,0,0,0-3.21,1.14c-1.38,1.38-1.65,3.39-1.65,5.28V372h-2.07V357h2v3.66C239,358.34,240.64,356.63,243,356.63Z"/><path d="M245.65,357h2.76v-4l2.1-.9V357h3.87v1.74h-3.87v9c0,1.77.78,2.55,2.34,2.55a6.12,6.12,0,0,0,1.53-.18V372a7.07,7.07,0,0,1-2.07.27c-2.91,0-3.9-1.77-3.9-4.44v-9.09h-2.76Z"/><path d="M258.19,351h2.37v3.3h-2.37Zm.15,6h2.07v15h-2.07Z"/><path d="M264.7,364.49c0-4.89,2.61-7.86,6.81-7.86a5.67,5.67,0,0,1,6.06,5.43l-2.13.24c-.3-2.49-1.74-3.84-4-3.84-2.79,0-4.5,2.25-4.5,6s1.71,6.06,4.59,6.06c2.25,0,3.66-1.35,4.05-3.84l2,.3c-.54,3.39-2.76,5.37-6.06,5.37C267.34,372.35,264.7,369.32,264.7,364.49Z"/><path d="M281.74,351h2.37v3.3h-2.37Zm.15,6H284v15h-2.07Z"/><path d="M289.66,357h2v3.18a5.32,5.32,0,0,1,5.13-3.54c3.69,0,6.09,3.15,6.09,7.86s-2.55,7.86-6.24,7.86a5.06,5.06,0,0,1-4.89-3.18v8.67h-2.07Zm11,7.5c0-3.72-1.62-6-4.38-6s-4.56,2.34-4.56,5.64v.66c0,3.36,1.68,5.7,4.44,5.7S300.64,368.21,300.64,364.49Z"/><path d="M305.71,368a3.79,3.79,0,0,1,1.83-3.36,12.9,12.9,0,0,1,4.92-1.35l3.33-.39v-.24c0-3.09-1.08-4.32-3.63-4.32-2.25,0-3.63,1.17-3.75,3.3h-2.25c.18-3.09,2.52-5,6-5,4,0,5.76,1.86,5.76,6.21v3.9a21.14,21.14,0,0,0,.48,5.25h-2.19a20.58,20.58,0,0,1-.27-3,5.14,5.14,0,0,1-5.22,3.36C307.69,372.35,305.71,370.61,305.71,368Zm10.11-2.58v-1l-4.26.6c-2.55.36-3.66,1.23-3.66,2.88s1.26,2.64,3.27,2.64C314,370.61,315.82,368.51,315.82,365.45Z"/><path d="M323.2,357h2v3.3a5.11,5.11,0,0,1,5.13-3.66c3.36,0,5.1,2.07,5.1,6.09V372h-2.1v-9.15c0-2.91-1.26-4.41-3.63-4.41-2.7,0-4.41,2.16-4.41,5.67V372H323.2Z"/><path d="M338.11,357h2.76v-4l2.1-.9V357h3.87v1.74H343v9c0,1.77.78,2.55,2.34,2.55a6.12,6.12,0,0,0,1.53-.18V372a7.07,7.07,0,0,1-2.07.27c-2.91,0-3.9-1.77-3.9-4.44v-9.09h-2.76Z"/><path d="M349.3,367.7l2.13-.36c.36,2.13,1.89,3.27,4.26,3.27,2.19,0,3.42-1.05,3.42-2.55s-.84-2.1-2.43-2.4l-2.91-.57c-2.49-.48-3.9-1.83-3.9-4.11,0-2.52,2.13-4.35,5.52-4.35s5.49,1.47,5.79,4.14l-2.1.45c-.3-1.83-1.59-2.88-3.78-2.88s-3.39,1-3.39,2.55c0,1.41.93,2.1,2.49,2.4l2.94.57c2.67.54,3.84,1.83,3.84,4,0,2.67-2,4.47-5.55,4.47S349.78,370.7,349.3,367.7Z"/><path d="M370.36,357h2.28l3.72,10.62c.27.84.48,1.53.63,2.22h.09c.15-.69.39-1.38.66-2.22L381.46,357h2.28l-5.55,15h-2.28Z"/><path d="M385.15,364.49c0-4.89,2.73-7.86,6.9-7.86s6.87,3,6.87,7.86-2.73,7.86-6.87,7.86S385.15,369.38,385.15,364.49Zm11.55,0c0-3.9-1.77-6-4.65-6s-4.68,2.13-4.68,6,1.77,6,4.68,6S396.7,368.39,396.7,364.49Z"/><path d="M401.8,367.7l2.13-.36c.36,2.13,1.89,3.27,4.26,3.27,2.19,0,3.42-1.05,3.42-2.55s-.84-2.1-2.43-2.4l-2.91-.57c-2.49-.48-3.9-1.83-3.9-4.11,0-2.52,2.13-4.35,5.52-4.35s5.49,1.47,5.79,4.14l-2.1.45c-.3-1.83-1.59-2.88-3.78-2.88s-3.39,1-3.39,2.55c0,1.41.93,2.1,2.49,2.4l2.94.57c2.67.54,3.84,1.83,3.84,4,0,2.67-2,4.47-5.55,4.47S402.28,370.7,401.8,367.7Z"/><path d="M426,351h2.37v3.3H426Zm.15,6h2.07v15H426.1Z"/><path d="M433.87,357h2v3.3a5.11,5.11,0,0,1,5.13-3.66c3.36,0,5.1,2.07,5.1,6.09V372H444v-9.15c0-2.91-1.26-4.41-3.63-4.41-2.7,0-4.41,2.16-4.41,5.67V372h-2.07Z"/><path d="M448.78,357h2.76v-4l2.1-.9V357h3.87v1.74h-3.87v9c0,1.77.78,2.55,2.34,2.55a6.12,6.12,0,0,0,1.53-.18V372a7.07,7.07,0,0,1-2.07.27c-2.91,0-3.9-1.77-3.9-4.44v-9.09h-2.76Z"/><path d="M472.54,365H461.65c0,3.39,1.89,5.46,4.8,5.46a4.21,4.21,0,0,0,4.23-3.21l1.77.72a6.07,6.07,0,0,1-6.15,4.35c-4.26,0-6.75-2.73-6.75-7.77s2.52-7.95,6.66-7.95,6.33,2.4,6.33,7Zm-2.13-2c0-3.09-1.56-4.74-4.23-4.74s-4.47,1.92-4.53,5h8.76Z"/><path d="M483.58,356.63a3.63,3.63,0,0,1,.57,0v2h-.24a4.39,4.39,0,0,0-3.21,1.14c-1.38,1.38-1.65,3.39-1.65,5.28V372H477V357h1.95v3.66C479.62,358.34,481.27,356.63,483.58,356.63Z"/><path d="M486,357h2.28L492,367.61c.27.84.48,1.53.63,2.22h.09c.15-.69.39-1.38.66-2.22L497.11,357h2.28l-5.55,15h-2.28Z"/><path d="M513.79,365H502.9c0,3.39,1.89,5.46,4.8,5.46a4.21,4.21,0,0,0,4.23-3.21l1.77.72a6.07,6.07,0,0,1-6.15,4.35c-4.26,0-6.75-2.73-6.75-7.77s2.52-7.95,6.66-7.95,6.33,2.4,6.33,7Zm-2.13-2c0-3.09-1.56-4.74-4.23-4.74s-4.47,1.92-4.53,5h8.76Z"/><path d="M518.23,357h2v3.3a5.11,5.11,0,0,1,5.13-3.66c3.36,0,5.1,2.07,5.1,6.09V372h-2.1v-9.15c0-2.91-1.26-4.41-3.63-4.41-2.7,0-4.41,2.16-4.41,5.67V372h-2.07Z"/><path d="M533.17,357h2.76v-4l2.1-.9V357h3.87v1.74H538v9c0,1.77.78,2.55,2.34,2.55a6.12,6.12,0,0,0,1.53-.18V372a7.07,7.07,0,0,1-2.07.27c-2.91,0-3.9-1.77-3.9-4.44v-9.09h-2.76Z"/><path d="M545.71,351h2.37v3.3h-2.37Zm.15,6h2.07v15h-2.07Z"/><path d="M552.22,364.49c0-4.89,2.73-7.86,6.9-7.86s6.87,3,6.87,7.86-2.73,7.86-6.87,7.86S552.22,369.38,552.22,364.49Zm11.55,0c0-3.9-1.77-6-4.65-6s-4.68,2.13-4.68,6,1.77,6,4.68,6S563.77,368.39,563.77,364.49Z"/><path d="M570.28,357h2v3.3a5.11,5.11,0,0,1,5.13-3.66c3.36,0,5.1,2.07,5.1,6.09V372h-2.1v-9.15c0-2.91-1.26-4.41-3.63-4.41-2.7,0-4.41,2.16-4.41,5.67V372h-2.07Z"/><path d="M586.3,367.7l2.13-.36c.36,2.13,1.89,3.27,4.26,3.27,2.19,0,3.42-1.05,3.42-2.55s-.84-2.1-2.43-2.4l-2.91-.57c-2.49-.48-3.9-1.83-3.9-4.11,0-2.52,2.13-4.35,5.52-4.35s5.49,1.47,5.79,4.14l-2.1.45c-.3-1.83-1.59-2.88-3.78-2.88s-3.39,1-3.39,2.55c0,1.41.93,2.1,2.49,2.4l2.94.57c2.67.54,3.84,1.83,3.84,4,0,2.67-2,4.47-5.55,4.47S586.78,370.7,586.3,367.7Z"/><path d="M609.19,367.7l2.13-.36c.36,2.13,1.89,3.27,4.26,3.27,2.19,0,3.42-1.05,3.42-2.55s-.84-2.1-2.43-2.4l-2.91-.57c-2.49-.48-3.9-1.83-3.9-4.11,0-2.52,2.13-4.35,5.52-4.35s5.49,1.47,5.79,4.14l-2.1.45c-.3-1.83-1.59-2.88-3.78-2.88s-3.39,1-3.39,2.55c0,1.41.93,2.1,2.49,2.4l2.94.57c2.67.54,3.84,1.83,3.84,4,0,2.67-2,4.47-5.55,4.47S609.67,370.7,609.19,367.7Z"/><path d="M624.13,364.49c0-4.89,2.73-7.86,6.9-7.86s6.87,3,6.87,7.86-2.73,7.86-6.87,7.86S624.13,369.38,624.13,364.49Zm11.55,0c0-3.9-1.77-6-4.65-6s-4.68,2.13-4.68,6,1.77,6,4.68,6S635.68,368.39,635.68,364.49Z"/><path d="M642.19,357h2v3.3a5.11,5.11,0,0,1,5.13-3.66c3.36,0,5.1,2.07,5.1,6.09V372h-2.1v-9.15c0-2.91-1.26-4.41-3.63-4.41-2.7,0-4.41,2.16-4.41,5.67V372h-2.07Z"/><path d="M657.13,357h2.76v-4l2.1-.9V357h3.87v1.74H662v9c0,1.77.78,2.55,2.34,2.55a6.12,6.12,0,0,0,1.53-.18V372a7.07,7.07,0,0,1-2.07.27c-2.91,0-3.9-1.77-3.9-4.44v-9.09h-2.76Z"/><path d="M680,372h-2.07V350.24H680Z"/><path d="M697.42,365H686.53c0,3.39,1.89,5.46,4.8,5.46a4.21,4.21,0,0,0,4.23-3.21l1.77.72a6.07,6.07,0,0,1-6.15,4.35c-4.26,0-6.75-2.73-6.75-7.77s2.52-7.95,6.66-7.95,6.33,2.4,6.33,7Zm-2.13-2c0-3.09-1.56-4.74-4.23-4.74s-4.47,1.92-4.53,5h8.76Z"/><path d="M700.45,367.7l2.13-.36c.36,2.13,1.89,3.27,4.26,3.27,2.19,0,3.42-1.05,3.42-2.55s-.84-2.1-2.43-2.4l-2.91-.57c-2.49-.48-3.9-1.83-3.9-4.11,0-2.52,2.13-4.35,5.52-4.35s5.49,1.47,5.79,4.14l-2.1.45c-.3-1.83-1.59-2.88-3.78-2.88s-3.39,1-3.39,2.55c0,1.41.93,2.1,2.49,2.4l2.94.57c2.67.54,3.84,1.83,3.84,4,0,2.67-2,4.47-5.55,4.47S700.93,370.7,700.45,367.7Z"/><path d="M726.88,369l-.39,3H724.9V350.24H727v9.81a5.2,5.2,0,0,1,5-3.42c3.69,0,6.09,3.21,6.09,7.86s-2.46,7.86-6.24,7.86A5.2,5.2,0,0,1,726.88,369Zm9-4.5c0-3.63-1.62-6-4.5-6s-4.44,2.25-4.44,5.7v.72c0,3.33,1.68,5.58,4.38,5.58S735.88,368.15,735.88,364.49Z"/><path d="M742.24,351h2.37v3.3h-2.37Zm.15,6h2.07v15h-2.07Z"/><path d="M761.74,365H750.85c0,3.39,1.89,5.46,4.8,5.46a4.21,4.21,0,0,0,4.22-3.21l1.78.72a6.08,6.08,0,0,1-6.16,4.35c-4.25,0-6.75-2.73-6.75-7.77s2.53-7.95,6.67-7.95,6.33,2.4,6.33,7Zm-2.13-2c0-3.09-1.57-4.74-4.24-4.74s-4.46,1.92-4.52,5h8.76Z"/><path d="M766.17,357h2v3.3a5.09,5.09,0,0,1,5.12-3.66c3.36,0,5.1,2.07,5.1,6.09V372h-2.1v-9.15c0-2.91-1.26-4.41-3.62-4.41-2.71,0-4.42,2.16-4.42,5.67V372h-2.07Z"/><path d="M780.52,357h2.28l3.72,10.62c.26.84.47,1.53.63,2.22h.09a21.78,21.78,0,0,1,.66-2.22L791.61,357h2.28l-5.55,15h-2.27Z"/><path d="M808.29,365H797.41c0,3.39,1.88,5.46,4.79,5.46a4.21,4.21,0,0,0,4.23-3.21l1.77.72a6.07,6.07,0,0,1-6.15,4.35c-4.26,0-6.74-2.73-6.74-7.77s2.51-7.95,6.65-7.95,6.33,2.4,6.33,7Zm-2.13-2c0-3.09-1.56-4.74-4.23-4.74s-4.47,1.92-4.52,5h8.75Z"/><path d="M812.73,357h2v3.3a5.11,5.11,0,0,1,5.13-3.66c3.36,0,5.1,2.07,5.1,6.09V372h-2.1v-9.15c0-2.91-1.26-4.41-3.63-4.41-2.7,0-4.41,2.16-4.41,5.67V372h-2.07Z"/><path d="M829.71,366.5V357h2.07v9.3c0,2.94,1.38,4.26,3.42,4.26,2.73,0,4.38-2.34,4.38-5.37V357h2.1v15h-2V368.9a5.14,5.14,0,0,1-4.86,3.45C831.09,372.35,829.71,370.07,829.71,366.5Z"/><path d="M859,365H848.07c0,3.39,1.89,5.46,4.8,5.46a4.21,4.21,0,0,0,4.23-3.21l1.77.72a6.07,6.07,0,0,1-6.15,4.35c-4.26,0-6.75-2.73-6.75-7.77s2.52-7.95,6.66-7.95,6.33,2.4,6.33,7Zm-2.13-2c0-3.09-1.56-4.74-4.23-4.74s-4.47,1.92-4.53,5h8.76Z"/><path d="M862,367.7l2.13-.36c.36,2.13,1.89,3.27,4.26,3.27,2.19,0,3.42-1.05,3.42-2.55s-.84-2.1-2.43-2.4l-2.91-.57c-2.49-.48-3.9-1.83-3.9-4.11,0-2.52,2.13-4.35,5.52-4.35s5.49,1.47,5.79,4.14l-2.1.45c-.3-1.83-1.59-2.88-3.78-2.88s-3.39,1-3.39,2.55c0,1.41.93,2.1,2.49,2.4l2.94.57c2.67.54,3.84,1.83,3.84,4,0,2.67-2,4.47-5.55,4.47S862.47,370.7,862,367.7Z"/><path d="M880.17,372h-2.82v-3.36h2.82Z"/><path d="M53.57,428.78c0,3.81-2.73,6.24-7,6.24h-5.1v9H39.14v-21.3h7.41C50.84,422.69,53.57,425.06,53.57,428.78Zm-2.46,0c0-2.52-1.86-4.11-4.77-4.11H41.45V433h4.89C49.25,433,51.11,431.39,51.11,428.78Z"/><path d="M55,436.49c0-4.89,2.73-7.86,6.9-7.86s6.86,3,6.86,7.86-2.72,7.86-6.86,7.86S55,441.38,55,436.49Zm11.55,0c0-3.9-1.77-6-4.65-6s-4.68,2.13-4.68,6,1.77,6,4.68,6S66.53,440.39,66.53,436.49Z"/><path d="M72.58,438.5V429h2.08v9.3c0,2.94,1.37,4.26,3.41,4.26,2.73,0,4.38-2.34,4.38-5.37V429h2.1v15h-2V440.9a5.14,5.14,0,0,1-4.86,3.45C74,444.35,72.58,442.07,72.58,438.5Z"/><path d="M96.85,428.63a3.63,3.63,0,0,1,.57,0v2h-.24A4.39,4.39,0,0,0,94,431.84c-1.38,1.38-1.65,3.39-1.65,5.28V444H90.25V429h2v3.66C92.9,430.34,94.54,428.63,96.85,428.63Z"/><path d="M106.31,436.49c0-4.89,2.6-7.86,6.8-7.86a5.67,5.67,0,0,1,6.06,5.43l-2.13.24c-.3-2.49-1.74-3.84-4-3.84-2.78,0-4.49,2.25-4.49,6s1.71,6.06,4.58,6.06c2.25,0,3.66-1.35,4-3.84l2,.3c-.54,3.39-2.76,5.37-6.06,5.37C109,444.35,106.31,441.32,106.31,436.49Z"/><path d="M135.07,437H124.18c0,3.39,1.89,5.46,4.8,5.46a4.21,4.21,0,0,0,4.23-3.21L135,440a6.07,6.07,0,0,1-6.15,4.35c-4.26,0-6.75-2.73-6.75-7.77s2.52-7.95,6.66-7.95,6.33,2.4,6.33,7Zm-2.13-2c0-3.09-1.56-4.74-4.23-4.74s-4.47,1.92-4.53,5h8.76Z"/><path d="M141.73,444h-2.07V422.24h2.07Z"/><path d="M146.23,440a3.79,3.79,0,0,1,1.83-3.36,12.9,12.9,0,0,1,4.92-1.35l3.33-.39v-.24c0-3.09-1.08-4.32-3.63-4.32-2.25,0-3.63,1.17-3.75,3.3h-2.25c.18-3.09,2.52-5,6-5,4,0,5.76,1.86,5.76,6.21v3.9a21.14,21.14,0,0,0,.48,5.25H156.7a20.58,20.58,0,0,1-.27-3,5.14,5.14,0,0,1-5.22,3.36C148.21,444.35,146.23,442.61,146.23,440Zm10.11-2.58v-1l-4.26.6c-2.55.36-3.66,1.23-3.66,2.88s1.26,2.64,3.27,2.64C154.48,442.61,156.34,440.51,156.34,437.45Z"/><path d="M168.4,429h2.28l3.72,10.62c.27.84.48,1.53.63,2.22h.09c.15-.69.39-1.38.66-2.22L179.5,429h2.28l-5.55,15H174Z"/><path d="M183.19,436.49c0-4.89,2.73-7.86,6.9-7.86s6.87,3,6.87,7.86-2.73,7.86-6.87,7.86S183.19,441.38,183.19,436.49Zm11.55,0c0-3.9-1.77-6-4.65-6s-4.68,2.13-4.68,6,1.77,6,4.68,6S194.74,440.39,194.74,436.49Z"/><path d="M200.8,438.5V429h2.07v9.3c0,2.94,1.38,4.26,3.42,4.26,2.73,0,4.38-2.34,4.38-5.37V429h2.1v15h-2V440.9a5.14,5.14,0,0,1-4.86,3.45C202.18,444.35,200.8,442.07,200.8,438.5Z"/><path d="M217.06,439.7l2.13-.36c.36,2.13,1.89,3.27,4.26,3.27,2.19,0,3.42-1.05,3.42-2.55s-.84-2.1-2.43-2.4l-2.91-.57c-2.49-.48-3.9-1.83-3.9-4.11,0-2.52,2.13-4.35,5.52-4.35s5.49,1.47,5.79,4.14l-2.1.45c-.3-1.83-1.59-2.88-3.78-2.88s-3.39,1-3.39,2.55c0,1.41.93,2.1,2.49,2.4l2.94.57c2.67.54,3.84,1.83,3.84,4,0,2.67-2,4.47-5.55,4.47S217.54,442.7,217.06,439.7Z"/><path d="M240,436.49c0-4.62,2.61-7.86,6.42-7.86a4.78,4.78,0,0,1,4.71,3.09v-9.48h2.1V444h-2v-3.18a5.23,5.23,0,0,1-5.07,3.54C242.41,444.35,240,441.17,240,436.49Zm11.16.33v-.63c0-3.42-1.65-5.7-4.44-5.7s-4.5,2.25-4.5,6,1.68,6,4.47,6S251.11,440.15,251.11,436.82Z"/><path d="M258.85,423h2.37v3.3h-2.37Zm.15,6h2.07v15H259Z"/><path d="M265.36,439.7l2.13-.36c.36,2.13,1.89,3.27,4.26,3.27,2.19,0,3.42-1.05,3.42-2.55s-.84-2.1-2.43-2.4l-2.91-.57c-2.49-.48-3.9-1.83-3.9-4.11,0-2.52,2.13-4.35,5.52-4.35s5.49,1.47,5.79,4.14l-2.1.45c-.3-1.83-1.59-2.88-3.78-2.88s-3.39,1-3.39,2.55c0,1.41.93,2.1,2.49,2.4l2.94.57c2.67.54,3.84,1.83,3.84,4,0,2.67-2,4.47-5.55,4.47S265.84,442.7,265.36,439.7Z"/><path d="M281.71,429h2v3.18a5.32,5.32,0,0,1,5.13-3.54c3.69,0,6.09,3.15,6.09,7.86s-2.55,7.86-6.24,7.86a5.06,5.06,0,0,1-4.89-3.18v8.67h-2.07Zm11,7.5c0-3.72-1.62-6-4.38-6s-4.56,2.34-4.56,5.64v.66c0,3.36,1.68,5.7,4.44,5.7S292.69,440.21,292.69,436.49Z"/><path d="M297.79,436.49c0-4.89,2.73-7.86,6.9-7.86s6.87,3,6.87,7.86-2.73,7.86-6.87,7.86S297.79,441.38,297.79,436.49Zm11.55,0c0-3.9-1.77-6-4.65-6s-4.68,2.13-4.68,6,1.77,6,4.68,6S309.34,440.39,309.34,436.49Z"/><path d="M314.44,439.7l2.13-.36c.36,2.13,1.89,3.27,4.26,3.27,2.19,0,3.42-1.05,3.42-2.55s-.84-2.1-2.43-2.4l-2.91-.57c-2.49-.48-3.9-1.83-3.9-4.11,0-2.52,2.13-4.35,5.52-4.35s5.49,1.47,5.79,4.14l-2.1.45c-.3-1.83-1.59-2.88-3.78-2.88s-3.39,1-3.39,2.55c0,1.41.93,2.1,2.49,2.4l2.94.57c2.67.54,3.84,1.83,3.84,4,0,2.67-2,4.47-5.55,4.47S314.92,442.7,314.44,439.7Z"/><path d="M342.37,437H331.48c0,3.39,1.89,5.46,4.8,5.46a4.21,4.21,0,0,0,4.23-3.21l1.77.72a6.07,6.07,0,0,1-6.15,4.35c-4.26,0-6.75-2.73-6.75-7.77s2.52-7.95,6.66-7.95,6.33,2.4,6.33,7Zm-2.13-2c0-3.09-1.56-4.74-4.23-4.74s-4.47,1.92-4.53,5h8.76Z"/><path d="M353.08,430.76h-8.22V429H355.6v1.56l-8.49,11.64H356V444H344.5v-1.62Z"/><path d="M366.4,436.49c0-4.62,2.61-7.86,6.42-7.86a4.78,4.78,0,0,1,4.71,3.09v-9.48h2.1V444h-2v-3.18a5.23,5.23,0,0,1-5.07,3.54C368.86,444.35,366.4,441.17,366.4,436.49Zm11.16.33v-.63c0-3.42-1.65-5.7-4.44-5.7s-4.5,2.25-4.5,6,1.68,6,4.47,6S377.56,440.15,377.56,436.82Z"/><path d="M397,437H386.14c0,3.39,1.89,5.46,4.8,5.46a4.21,4.21,0,0,0,4.23-3.21l1.77.72a6.07,6.07,0,0,1-6.15,4.35c-4.26,0-6.75-2.73-6.75-7.77s2.52-7.95,6.66-7.95,6.33,2.4,6.33,7Zm-2.13-2c0-3.09-1.56-4.74-4.23-4.74s-4.47,1.92-4.53,5h8.76Z"/><path d="M408,436.49c0-4.62,2.61-7.86,6.42-7.86a4.78,4.78,0,0,1,4.71,3.09v-9.48h2.1V444h-2v-3.18a5.23,5.23,0,0,1-5.07,3.54C410.47,444.35,408,441.17,408,436.49Zm11.16.33v-.63c0-3.42-1.65-5.7-4.44-5.7s-4.5,2.25-4.5,6,1.68,6,4.47,6S419.17,440.15,419.17,436.82Z"/><path d="M438.64,437H427.75c0,3.39,1.89,5.46,4.8,5.46a4.21,4.21,0,0,0,4.23-3.21l1.77.72a6.07,6.07,0,0,1-6.15,4.35c-4.26,0-6.75-2.73-6.75-7.77s2.52-7.95,6.66-7.95,6.33,2.4,6.33,7Zm-2.13-2c0-3.09-1.56-4.74-4.23-4.74s-4.47,1.92-4.53,5h8.76Z"/><path d="M442.63,438.5V429h2.07v9.3c0,2.94,1.38,4.26,3.42,4.26,2.73,0,4.38-2.34,4.38-5.37V429h2.1v15h-2V440.9a5.14,5.14,0,0,1-4.86,3.45C444,444.35,442.63,442.07,442.63,438.5Z"/><path d="M463.51,436.22,458.38,429h2.49l2.91,4.32c.51.78.81,1.29,1,1.68h0a15.43,15.43,0,0,1,1-1.68l2.76-4.32h2.58l-5,7.38,5.43,7.62h-2.49l-3.33-4.83a13.89,13.89,0,0,1-.93-1.62h0c-.18.33-.48.87-1,1.65l-3.3,4.8H458Z"/><path d="M484.27,429v2.91a4.47,4.47,0,0,1,4.44-3.27,4.23,4.23,0,0,1,4.32,3.21,4.76,4.76,0,0,1,4.62-3.21c2.94,0,4.62,2,4.62,5.55V444h-2.1v-9.63c0-2.55-1.08-3.93-3.15-3.93-2.28,0-3.69,1.68-3.69,4.44V444h-2.07v-9.75c0-2.43-1.14-3.81-3.12-3.81-2.28,0-3.75,1.86-3.75,4.8V444h-2.07V429Z"/><path d="M506.11,436.49c0-4.89,2.73-7.86,6.9-7.86s6.87,3,6.87,7.86-2.73,7.86-6.87,7.86S506.11,441.38,506.11,436.49Zm11.55,0c0-3.9-1.77-6-4.65-6s-4.68,2.13-4.68,6,1.77,6,4.68,6S517.66,440.39,517.66,436.49Z"/><path d="M522.22,449.87V448a6.48,6.48,0,0,0,1,.09c2,0,2.88-1.08,3.6-3.12l.39-1.11-6-14.88h2.34l4,10.71a19.5,19.5,0,0,1,.66,2h.06q.23-.86.63-2.07L532.63,429h2.25L529,445c-1.35,3.69-3,5-5.49,5A6.55,6.55,0,0,1,522.22,449.87Z"/><path d="M549.28,437H538.39c0,3.39,1.89,5.46,4.8,5.46a4.21,4.21,0,0,0,4.23-3.21l1.77.72a6.07,6.07,0,0,1-6.15,4.35c-4.26,0-6.75-2.73-6.75-7.77s2.52-7.95,6.66-7.95,6.33,2.4,6.33,7Zm-2.13-2c0-3.09-1.56-4.74-4.23-4.74s-4.47,1.92-4.53,5h8.76Z"/><path d="M553.72,429h2v3.3a5.11,5.11,0,0,1,5.13-3.66c3.36,0,5.1,2.07,5.1,6.09V444h-2.1v-9.15c0-2.91-1.26-4.41-3.63-4.41-2.7,0-4.41,2.16-4.41,5.67V444h-2.07Z"/><path d="M569.74,439.7l2.13-.36c.36,2.13,1.89,3.27,4.26,3.27,2.19,0,3.42-1.05,3.42-2.55s-.84-2.1-2.43-2.4l-2.91-.57c-2.49-.48-3.9-1.83-3.9-4.11,0-2.52,2.13-4.35,5.52-4.35s5.49,1.47,5.79,4.14l-2.1.45c-.3-1.83-1.59-2.88-3.78-2.88s-3.39,1-3.39,2.55c0,1.41.93,2.1,2.49,2.4l2.94.57c2.67.54,3.84,1.83,3.84,4,0,2.67-2,4.47-5.55,4.47S570.22,442.7,569.74,439.7Z"/><path d="M585,446.87a2.55,2.55,0,0,0,1.59-2.79V444h-1.5v-3.36H588v3.18c0,2.22-.57,3.3-2.37,4.14Z"/><path d="M612.49,437H601.6c0,3.39,1.89,5.46,4.8,5.46a4.21,4.21,0,0,0,4.23-3.21l1.77.72a6.07,6.07,0,0,1-6.15,4.35c-4.26,0-6.75-2.73-6.75-7.77s2.52-7.95,6.66-7.95,6.33,2.4,6.33,7Zm-2.13-2c0-3.09-1.56-4.74-4.23-4.74s-4.47,1.92-4.53,5h8.76Z"/><path d="M616.93,429h2v3.3a5.11,5.11,0,0,1,5.13-3.66c3.36,0,5.1,2.07,5.1,6.09V444H627v-9.15c0-2.91-1.26-4.41-3.63-4.41-2.7,0-4.41,2.16-4.41,5.67V444h-2.07Z"/><path d="M644.44,441l-.39,3h-1.59V422.24h2.07v9.81a5.2,5.2,0,0,1,5-3.42c3.69,0,6.09,3.21,6.09,7.86s-2.46,7.86-6.24,7.86A5.2,5.2,0,0,1,644.44,441Zm9-4.5c0-3.63-1.62-6-4.5-6s-4.44,2.25-4.44,5.7v.72c0,3.33,1.68,5.58,4.38,5.58S653.44,440.15,653.44,436.49Z"/><path d="M658.48,440a3.79,3.79,0,0,1,1.83-3.36,12.9,12.9,0,0,1,4.92-1.35l3.33-.39v-.24c0-3.09-1.08-4.32-3.63-4.32-2.25,0-3.63,1.17-3.75,3.3h-2.25c.18-3.09,2.52-5,6-5,4,0,5.76,1.86,5.76,6.21v3.9a21.14,21.14,0,0,0,.48,5.25H669a20.58,20.58,0,0,1-.27-3,5.14,5.14,0,0,1-5.22,3.36C660.46,444.35,658.48,442.61,658.48,440Zm10.11-2.58v-1l-4.26.6c-2.55.36-3.66,1.23-3.66,2.88s1.26,2.64,3.27,2.64C666.73,442.61,668.59,440.51,668.59,437.45Z"/><path d="M674.56,439.7l2.13-.36c.36,2.13,1.89,3.27,4.26,3.27,2.19,0,3.42-1.05,3.42-2.55s-.84-2.1-2.43-2.4l-2.91-.57c-2.49-.48-3.9-1.83-3.9-4.11,0-2.52,2.13-4.35,5.52-4.35s5.49,1.47,5.79,4.14l-2.1.45c-.3-1.83-1.59-2.88-3.78-2.88s-3.39,1-3.39,2.55c0,1.41.93,2.1,2.49,2.4l2.94.57c2.67.54,3.84,1.83,3.84,4,0,2.67-2,4.47-5.55,4.47S675,442.7,674.56,439.7Z"/><path d="M697.45,436.49c0-4.62,2.61-7.86,6.42-7.86a4.78,4.78,0,0,1,4.71,3.09v-9.48h2.1V444h-2v-3.18a5.23,5.23,0,0,1-5.07,3.54C699.91,444.35,697.45,441.17,697.45,436.49Zm11.16.33v-.63c0-3.42-1.65-5.7-4.44-5.7s-4.5,2.25-4.5,6,1.68,6,4.47,6S708.61,440.15,708.61,436.82Z"/><path d="M728.08,437H717.19c0,3.39,1.89,5.46,4.8,5.46a4.21,4.21,0,0,0,4.23-3.21L728,440a6.07,6.07,0,0,1-6.15,4.35c-4.26,0-6.75-2.73-6.75-7.77s2.52-7.95,6.66-7.95,6.33,2.4,6.33,7Zm-2.13-2c0-3.09-1.56-4.74-4.23-4.74s-4.47,1.92-4.53,5H726Z"/><path d="M742.69,444h-2.07V422.24h2.07Z"/><path d="M747.19,440a3.79,3.79,0,0,1,1.83-3.36,12.9,12.9,0,0,1,4.92-1.35l3.33-.39v-.24c0-3.09-1.08-4.32-3.63-4.32-2.25,0-3.63,1.17-3.75,3.3h-2.25c.18-3.09,2.52-5,6-5,4,0,5.76,1.86,5.76,6.21v3.9a21.14,21.14,0,0,0,.48,5.25h-2.19a20.58,20.58,0,0,1-.27-3,5.14,5.14,0,0,1-5.22,3.36C749.17,444.35,747.19,442.61,747.19,440Zm10.11-2.58v-1l-4.26.6c-2.55.36-3.66,1.23-3.66,2.88s1.26,2.64,3.27,2.64C755.44,442.61,757.3,440.51,757.3,437.45Z"/><path d="M779.14,430.73h-3.9V444h-2.07V430.73h-2.82V429h2.82V426.5c0-2.7,1.59-4.44,4.2-4.44a6.37,6.37,0,0,1,1.77.21v1.8a8.76,8.76,0,0,0-1.5-.15c-1.68,0-2.4.9-2.4,2.85V429h3.9Z"/><path d="M793.69,437H782.8c0,3.39,1.89,5.46,4.8,5.46a4.21,4.21,0,0,0,4.23-3.21l1.77.72a6.07,6.07,0,0,1-6.15,4.35c-4.26,0-6.75-2.73-6.75-7.77s2.52-7.95,6.66-7.95,6.33,2.4,6.33,7Zm-2.13-2c0-3.09-1.56-4.74-4.23-4.74s-4.47,1.92-4.53,5h8.76Z"/><path d="M798.13,429h2v3.3a5.11,5.11,0,0,1,5.13-3.66c3.36,0,5.1,2.07,5.1,6.09V444h-2.1v-9.15c0-2.91-1.26-4.41-3.63-4.41-2.7,0-4.41,2.16-4.41,5.67V444h-2.07Z"/><path d="M827.14,437H816.25c0,3.39,1.89,5.46,4.8,5.46a4.21,4.21,0,0,0,4.23-3.21l1.77.72a6.08,6.08,0,0,1-6.15,4.35c-4.26,0-6.75-2.73-6.75-7.77s2.52-7.95,6.66-7.95,6.33,2.4,6.33,7Zm-8.94-10.44h-2l3.33-4.29h2.16l3.36,4.29h-2l-2.46-3.21Zm6.81,8.46c0-3.09-1.56-4.74-4.23-4.74s-4.47,1.92-4.53,5H825Z"/><path d="M828.94,429h2.76v-4l2.1-.9V429h3.86v1.74H833.8v9c0,1.77.77,2.55,2.34,2.55a6,6,0,0,0,1.52-.18V444a7,7,0,0,1-2.06.27c-2.91,0-3.9-1.77-3.9-4.44v-9.09h-2.76Z"/><path d="M848.23,428.63a3.63,3.63,0,0,1,.57,0v2h-.24a4.39,4.39,0,0,0-3.21,1.14c-1.38,1.38-1.65,3.39-1.65,5.28V444h-2.07V429h2v3.66C844.27,430.34,845.92,428.63,848.23,428.63Z"/><path d="M863.41,437H852.52c0,3.39,1.89,5.46,4.8,5.46a4.21,4.21,0,0,0,4.22-3.21l1.78.72a6.08,6.08,0,0,1-6.16,4.35c-4.25,0-6.75-2.73-6.75-7.77s2.53-7.95,6.66-7.95,6.34,2.4,6.34,7Zm-2.13-2c0-3.09-1.57-4.74-4.24-4.74s-4.47,1.92-4.52,5h8.76Z"/><path d="M870,432.35h-2.81V429H870ZM870,444h-2.81v-3.36H870Z"/><path d="M118.22,506.66v2h-8.67v-2Z"/><path d="M130.91,494.69h2.31V514h10.1v2H130.91Z"/><path d="M145.49,512a3.76,3.76,0,0,1,1.83-3.36,12.85,12.85,0,0,1,4.92-1.35l3.32-.39v-.24c0-3.09-1.07-4.32-3.63-4.32-2.24,0-3.62,1.17-3.74,3.3h-2.25c.17-3.09,2.51-5,6-5,4,0,5.75,1.86,5.75,6.21v3.9a21.14,21.14,0,0,0,.48,5.25H156a20.58,20.58,0,0,1-.27-3,5.14,5.14,0,0,1-5.22,3.36C147.46,516.35,145.49,514.61,145.49,512Zm10.1-2.58v-1l-4.26.6c-2.55.36-3.66,1.23-3.66,2.88s1.27,2.64,3.28,2.64C153.74,514.61,155.59,512.51,155.59,509.45Z"/><path d="M172.87,501v2.91a4.47,4.47,0,0,1,4.44-3.27,4.23,4.23,0,0,1,4.32,3.21,4.76,4.76,0,0,1,4.62-3.21c2.94,0,4.62,2,4.62,5.55V516h-2.1v-9.63c0-2.55-1.08-3.93-3.15-3.93-2.28,0-3.69,1.68-3.69,4.44V516h-2.07v-9.75c0-2.43-1.14-3.81-3.12-3.81-2.28,0-3.75,1.86-3.75,4.8V516h-2.07V501Z"/><path d="M207.7,509H196.82c0,3.39,1.88,5.46,4.79,5.46a4.21,4.21,0,0,0,4.23-3.21l1.77.72a6.07,6.07,0,0,1-6.15,4.35c-4.26,0-6.74-2.73-6.74-7.77s2.52-7.95,6.65-7.95,6.33,2.4,6.33,7Zm-2.13-2c0-3.09-1.56-4.74-4.23-4.74s-4.47,1.92-4.52,5h8.75Z"/><path d="M210.74,511.7l2.12-.36c.36,2.13,1.89,3.27,4.26,3.27,2.19,0,3.42-1.05,3.42-2.55s-.84-2.1-2.43-2.4l-2.91-.57c-2.49-.48-3.9-1.83-3.9-4.11,0-2.52,2.13-4.35,5.52-4.35s5.49,1.47,5.79,4.14l-2.1.45c-.3-1.83-1.59-2.88-3.78-2.88s-3.39,1-3.39,2.55c0,1.41.93,2.1,2.49,2.4l2.94.57c2.67.54,3.84,1.83,3.84,4,0,2.67-2,4.47-5.55,4.47S211.21,514.7,210.74,511.7Z"/><path d="M225.47,511.7l2.13-.36c.35,2.13,1.89,3.27,4.26,3.27,2.18,0,3.42-1.05,3.42-2.55s-.85-2.1-2.44-2.4l-2.9-.57c-2.49-.48-3.91-1.83-3.91-4.11,0-2.52,2.13-4.35,5.52-4.35s5.49,1.47,5.79,4.14l-2.1.45c-.29-1.83-1.58-2.88-3.78-2.88s-3.39,1-3.39,2.55c0,1.41.93,2.1,2.5,2.4l2.93.57c2.67.54,3.84,1.83,3.84,4,0,2.67-2,4.47-5.55,4.47S226,514.7,225.47,511.7Z"/><path d="M240.46,512a3.79,3.79,0,0,1,1.83-3.36,12.9,12.9,0,0,1,4.92-1.35l3.33-.39v-.24c0-3.09-1.08-4.32-3.63-4.32-2.25,0-3.63,1.17-3.75,3.3h-2.25c.18-3.09,2.52-5,6-5,4,0,5.76,1.86,5.76,6.21v3.9a21.14,21.14,0,0,0,.48,5.25h-2.19a20.58,20.58,0,0,1-.27-3,5.14,5.14,0,0,1-5.22,3.36C242.44,516.35,240.46,514.61,240.46,512Zm10.11-2.58v-1l-4.26.6c-2.55.36-3.66,1.23-3.66,2.88s1.26,2.64,3.27,2.64C248.71,514.61,250.57,512.51,250.57,509.45Z"/><path d="M266.74,502a4.86,4.86,0,0,1,1.5,3.63c0,2.91-2.07,5.07-5.46,5.07a6.18,6.18,0,0,1-2.88-.66,1.81,1.81,0,0,0-1.29,1.65c0,1,.75,1.71,2.55,1.71h3.93c3.24,0,4.89,1.47,4.89,4.08,0,2.82-2.22,4.68-7.23,4.68S256,520.31,256,518a3.31,3.31,0,0,1,2.52-3.18,2.65,2.65,0,0,1-1.8-2.58,3,3,0,0,1,2.13-2.88,5,5,0,0,1-1.56-3.72c0-2.91,2.1-5,5.46-5a6.35,6.35,0,0,1,2.94.66,3.45,3.45,0,0,1,3.54-2.7,4.51,4.51,0,0,1,.87.09v1.86a4.18,4.18,0,0,0-1-.12A2.4,2.4,0,0,0,266.74,502Zm-5.64,13.23c-.42,0-.81,0-1.17-.06a2.63,2.63,0,0,0-1.83,2.46c0,2,1.95,2.79,4.89,2.79,3.72,0,4.89-1.17,4.89-2.82s-1.11-2.37-3.27-2.37Zm5.16-9.57a3.48,3.48,0,1,0-3.48,3.42A3.3,3.3,0,0,0,266.26,505.7Z"/><path d="M284.83,509H273.94c0,3.39,1.89,5.46,4.8,5.46a4.21,4.21,0,0,0,4.23-3.21l1.77.72a6.07,6.07,0,0,1-6.15,4.35c-4.26,0-6.75-2.73-6.75-7.77s2.52-7.95,6.66-7.95,6.33,2.4,6.33,7Zm-2.13-2c0-3.09-1.56-4.74-4.23-4.74s-4.47,1.92-4.53,5h8.76Z"/><path d="M295.87,500.63a3.63,3.63,0,0,1,.57,0v2h-.24a4.39,4.39,0,0,0-3.21,1.14c-1.38,1.38-1.65,3.39-1.65,5.28V516h-2.07V501h2v3.66C291.91,502.34,293.56,500.63,295.87,500.63Z"/><path d="M299.8,495h2.37v3.3H299.8Zm.15,6H302v15H300Z"/><path d="M319.3,509H308.41c0,3.39,1.89,5.46,4.8,5.46a4.21,4.21,0,0,0,4.23-3.21l1.77.72a6.07,6.07,0,0,1-6.15,4.35c-4.26,0-6.75-2.73-6.75-7.77s2.52-7.95,6.66-7.95,6.33,2.4,6.33,7Zm-2.13-2c0-3.09-1.56-4.74-4.23-4.74s-4.47,1.92-4.53,5h8.76Z"/><path d="M331.69,501h2v3.18a5.32,5.32,0,0,1,5.13-3.54c3.69,0,6.09,3.15,6.09,7.86s-2.55,7.86-6.24,7.86a5.06,5.06,0,0,1-4.89-3.18v8.67h-2.07Zm11,7.5c0-3.72-1.62-6-4.38-6s-4.56,2.34-4.56,5.64v.66c0,3.36,1.68,5.7,4.44,5.7S342.67,512.21,342.67,508.49Z"/><path d="M347.77,508.49c0-4.89,2.73-7.86,6.9-7.86s6.87,3,6.87,7.86-2.73,7.86-6.87,7.86S347.77,513.38,347.77,508.49Zm11.55,0c0-3.9-1.77-6-4.65-6s-4.68,2.13-4.68,6,1.77,6,4.68,6S359.32,512.39,359.32,508.49Z"/><path d="M365.38,510.5V501h2.07v9.3c0,2.94,1.38,4.26,3.42,4.26,2.73,0,4.38-2.34,4.38-5.37V501h2.1v15h-2V512.9a5.14,5.14,0,0,1-4.86,3.45C366.76,516.35,365.38,514.07,365.38,510.5Z"/><path d="M389.65,500.63a3.63,3.63,0,0,1,.57,0v2H390a4.39,4.39,0,0,0-3.21,1.14c-1.38,1.38-1.65,3.39-1.65,5.28V516h-2.07V501H385v3.66C385.69,502.34,387.34,500.63,389.65,500.63Z"/><path d="M412.09,509H401.2c0,3.39,1.89,5.46,4.8,5.46a4.21,4.21,0,0,0,4.23-3.21L412,512a6.07,6.07,0,0,1-6.15,4.35c-4.26,0-6.75-2.73-6.75-7.77s2.52-7.95,6.66-7.95,6.33,2.4,6.33,7Zm-2.13-2c0-3.09-1.56-4.74-4.23-4.74s-4.47,1.92-4.53,5H410Zm-3.33-8.46h-2l3-4.29h2.58Z"/><path d="M415.12,508.49c0-4.89,2.61-7.86,6.81-7.86a5.67,5.67,0,0,1,6.06,5.43l-2.13.24c-.3-2.49-1.74-3.84-4-3.84-2.79,0-4.5,2.25-4.5,6s1.71,6.06,4.59,6.06c2.25,0,3.66-1.35,4.05-3.84l2,.3c-.54,3.39-2.76,5.37-6.06,5.37C417.76,516.35,415.12,513.32,415.12,508.49Z"/><path d="M438.91,500.63a3.63,3.63,0,0,1,.57,0v2h-.24a4.39,4.39,0,0,0-3.21,1.14c-1.38,1.38-1.65,3.39-1.65,5.28V516h-2.07V501h1.95v3.66C435,502.34,436.6,500.63,438.91,500.63Z"/><path d="M442.84,495h2.37v3.3h-2.37Zm.15,6h2.07v15H443Z"/><path d="M457.36,500.63a3.63,3.63,0,0,1,.57,0v2h-.24a4.39,4.39,0,0,0-3.21,1.14c-1.38,1.38-1.65,3.39-1.65,5.28V516h-2.07V501h1.95v3.66C453.4,502.34,455.05,500.63,457.36,500.63Z"/><path d="M472.51,509H461.62c0,3.39,1.89,5.46,4.8,5.46a4.21,4.21,0,0,0,4.23-3.21l1.77.72a6.07,6.07,0,0,1-6.15,4.35c-4.26,0-6.75-2.73-6.75-7.77s2.52-7.95,6.66-7.95,6.33,2.4,6.33,7Zm-2.13-2c0-3.09-1.56-4.74-4.23-4.74s-4.47,1.92-4.53,5h8.76Z"/><path d="M481.66,501h2.28l3.72,10.62c.27.84.48,1.53.63,2.22h.09c.15-.69.39-1.38.66-2.22L492.76,501H495l-5.55,15h-2.28Z"/><path d="M496.45,508.49c0-4.89,2.73-7.86,6.9-7.86s6.87,3,6.87,7.86-2.73,7.86-6.87,7.86S496.45,513.38,496.45,508.49Zm11.55,0c0-3.9-1.77-6-4.65-6s-4.68,2.13-4.68,6,1.77,6,4.68,6S508,512.39,508,508.49Z"/><path d="M513.1,511.7l2.13-.36c.36,2.13,1.89,3.27,4.26,3.27,2.19,0,3.42-1.05,3.42-2.55s-.84-2.1-2.43-2.4l-2.91-.57c-2.49-.48-3.9-1.83-3.9-4.11,0-2.52,2.13-4.35,5.52-4.35s5.49,1.47,5.79,4.14l-2.1.45c-.3-1.83-1.59-2.88-3.78-2.88s-3.39,1-3.39,2.55c0,1.41.93,2.1,2.49,2.4l2.94.57c2.67.54,3.84,1.83,3.84,4,0,2.67-2,4.47-5.55,4.47S513.58,514.7,513.1,511.7Z"/><path d="M544,500.63a3.63,3.63,0,0,1,.57,0v2h-.24a4.39,4.39,0,0,0-3.21,1.14c-1.38,1.38-1.65,3.39-1.65,5.28V516H537.4V501h2v3.66C540,502.34,541.69,500.63,544,500.63Z"/><path d="M559.18,509H548.29c0,3.39,1.89,5.46,4.8,5.46a4.21,4.21,0,0,0,4.23-3.21l1.77.72a6.07,6.07,0,0,1-6.15,4.35c-4.26,0-6.75-2.73-6.75-7.77s2.52-7.95,6.66-7.95,6.33,2.4,6.33,7Zm-2.13-2c0-3.09-1.56-4.74-4.23-4.74s-4.47,1.92-4.53,5h8.76Z"/><path d="M565.57,501v2.91a4.47,4.47,0,0,1,4.44-3.27,4.23,4.23,0,0,1,4.32,3.21,4.76,4.76,0,0,1,4.62-3.21c2.94,0,4.62,2,4.62,5.55V516h-2.1v-9.63c0-2.55-1.08-3.93-3.15-3.93-2.28,0-3.69,1.68-3.69,4.44V516h-2.07v-9.75c0-2.43-1.14-3.81-3.12-3.81-2.28,0-3.75,1.86-3.75,4.8V516h-2.07V501Z"/><path d="M587.47,512a3.79,3.79,0,0,1,1.83-3.36,12.9,12.9,0,0,1,4.92-1.35l3.33-.39v-.24c0-3.09-1.08-4.32-3.63-4.32-2.25,0-3.63,1.17-3.75,3.3h-2.25c.18-3.09,2.52-5,6-5,4,0,5.76,1.86,5.76,6.21v3.9a21.14,21.14,0,0,0,.48,5.25h-2.19a20.58,20.58,0,0,1-.27-3,5.14,5.14,0,0,1-5.22,3.36C589.45,516.35,587.47,514.61,587.47,512Zm10.11-2.58v-1l-4.26.6c-2.55.36-3.66,1.23-3.66,2.88s1.26,2.64,3.27,2.64C595.72,514.61,597.58,512.51,597.58,509.45Z"/><path d="M611.56,500.63a3.63,3.63,0,0,1,.57,0v2h-.24a4.39,4.39,0,0,0-3.21,1.14c-1.38,1.38-1.65,3.39-1.65,5.28V516H605V501h1.95v3.66C607.6,502.34,609.25,500.63,611.56,500.63Z"/><path d="M624.88,513a5.1,5.1,0,0,1-5,3.36c-3.69,0-6.18-3.09-6.18-7.86s2.67-7.86,6.39-7.86a4.81,4.81,0,0,1,4.83,3.18l.45-2.82H627v20.85h-2.1Zm0-4.11v-.75c0-3.36-1.65-5.64-4.47-5.64s-4.47,2.25-4.47,6,1.65,6,4.44,6S624.91,512.21,624.91,508.88Z"/><path d="M632.2,510.5V501h2.07v9.3c0,2.94,1.38,4.26,3.42,4.26,2.73,0,4.38-2.34,4.38-5.37V501h2.1v15h-2V512.9a5.14,5.14,0,0,1-4.86,3.45C633.58,516.35,632.2,514.07,632.2,510.5Z"/><path d="M661.45,509H650.56c0,3.39,1.89,5.46,4.8,5.46a4.21,4.21,0,0,0,4.23-3.21l1.77.72a6.07,6.07,0,0,1-6.15,4.35c-4.26,0-6.75-2.73-6.75-7.77s2.52-7.95,6.66-7.95,6.33,2.4,6.33,7Zm-2.13-2c0-3.09-1.56-4.74-4.23-4.74s-4.47,1.92-4.53,5h8.76Z"/><path d="M664.48,511.7l2.13-.36c.36,2.13,1.89,3.27,4.26,3.27,2.19,0,3.42-1.05,3.42-2.55s-.84-2.1-2.43-2.4l-2.91-.57c-2.49-.48-3.9-1.83-3.9-4.11,0-2.52,2.13-4.35,5.52-4.35s5.49,1.47,5.79,4.14l-2.1.45c-.3-1.83-1.59-2.88-3.78-2.88s-3.39,1-3.39,2.55c0,1.41.93,2.1,2.49,2.4l2.94.57c2.67.54,3.84,1.83,3.84,4,0,2.67-2,4.47-5.55,4.47S665,514.7,664.48,511.7Z"/><path d="M700.36,509H689.47c0,3.39,1.89,5.46,4.8,5.46a4.21,4.21,0,0,0,4.23-3.21l1.77.72a6.07,6.07,0,0,1-6.15,4.35c-4.26,0-6.75-2.73-6.75-7.77s2.52-7.95,6.66-7.95,6.33,2.4,6.33,7Zm-2.13-2c0-3.09-1.56-4.74-4.23-4.74s-4.47,1.92-4.53,5h8.76Z"/><path d="M702.19,501H705v-4l2.1-.9V501h3.87v1.74h-3.87v9c0,1.77.78,2.55,2.34,2.55a6.12,6.12,0,0,0,1.53-.18V516a7.07,7.07,0,0,1-2.07.27c-2.91,0-3.9-1.77-3.9-4.44v-9.09h-2.76Z"/><path d="M732.55,513a5.1,5.1,0,0,1-4.95,3.36c-3.69,0-6.18-3.09-6.18-7.86s2.67-7.86,6.39-7.86a4.81,4.81,0,0,1,4.83,3.18l.45-2.82h1.56v20.85h-2.1Zm0-4.11v-.75c0-3.36-1.65-5.64-4.47-5.64s-4.47,2.25-4.47,6,1.65,6,4.44,6S732.58,512.21,732.58,508.88Z"/><path d="M739.87,510.5V501h2.07v9.3c0,2.94,1.38,4.26,3.42,4.26,2.73,0,4.38-2.34,4.38-5.37V501h2.1v15h-2V512.9a5.14,5.14,0,0,1-4.86,3.45C741.25,516.35,739.87,514.07,739.87,510.5Z"/><path d="M769.12,509H758.23c0,3.39,1.89,5.46,4.8,5.46a4.21,4.21,0,0,0,4.23-3.21L769,512a6.07,6.07,0,0,1-6.15,4.35c-4.26,0-6.75-2.73-6.75-7.77s2.52-7.95,6.66-7.95,6.33,2.4,6.33,7Zm-2.13-2c0-3.09-1.56-4.74-4.23-4.74s-4.47,1.92-4.53,5H767Z"/><path d="M772.15,511.7l2.13-.36c.36,2.13,1.89,3.27,4.26,3.27,2.19,0,3.42-1.05,3.42-2.55s-.85-2.1-2.43-2.4l-2.91-.57c-2.49-.48-3.9-1.83-3.9-4.11,0-2.52,2.13-4.35,5.52-4.35s5.49,1.47,5.79,4.14l-2.1.45c-.3-1.83-1.59-2.88-3.78-2.88s-3.39,1-3.39,2.55c0,1.41.93,2.1,2.49,2.4l2.94.57c2.67.54,3.84,1.83,3.84,4,0,2.67-2,4.47-5.55,4.47S772.63,514.7,772.15,511.7Z"/><path d="M786,501h2.76v-4l2.1-.9V501h3.87v1.74H790.9v9c0,1.77.78,2.55,2.34,2.55a6.12,6.12,0,0,0,1.53-.18V516a7.07,7.07,0,0,1-2.07.27c-2.91,0-3.9-1.77-3.9-4.44v-9.09H786Z"/><path d="M798.58,495H801v3.3h-2.37Zm.15,6h2.07v15h-2.07Z"/><path d="M805.08,508.49c0-4.89,2.74-7.86,6.91-7.86s6.86,3,6.86,7.86-2.73,7.86-6.86,7.86S805.08,513.38,805.08,508.49Zm11.55,0c0-3.9-1.77-6-4.64-6s-4.68,2.13-4.68,6,1.76,6,4.68,6S816.63,512.39,816.63,508.49Z"/><path d="M823.14,501h2v3.3a5.11,5.11,0,0,1,5.13-3.66c3.36,0,5.1,2.07,5.1,6.09V516h-2.1v-9.15c0-2.91-1.26-4.41-3.63-4.41-2.7,0-4.41,2.16-4.41,5.67V516h-2.07Z"/><path d="M839.16,511.7l2.14-.36c.36,2.13,1.89,3.27,4.26,3.27,2.18,0,3.42-1.05,3.42-2.55s-.85-2.1-2.44-2.4l-2.9-.57c-2.49-.48-3.9-1.83-3.9-4.11,0-2.52,2.12-4.35,5.51-4.35s5.49,1.47,5.79,4.14l-2.09.45c-.3-1.83-1.59-2.88-3.79-2.88s-3.38,1-3.38,2.55c0,1.41.92,2.1,2.49,2.4l2.93.57c2.67.54,3.84,1.83,3.84,4,0,2.67-2,4.47-5.55,4.47S839.65,514.7,839.16,511.7Z"/><path d="M118.22,578.66v2h-8.67v-2Z"/><path d="M130.91,566.69h2.31V586h10.1v2H130.91Z"/><path d="M144.32,572.93a2.57,2.57,0,0,0,1.59-2.82v-.06h-1.5v-3.36h2.85v3.18c0,2.22-.57,3.3-2.37,4.14Z"/><path d="M149.5,580.49c0-4.89,2.74-7.86,6.91-7.86s6.86,3,6.86,7.86-2.73,7.86-6.86,7.86S149.5,585.38,149.5,580.49Zm11.55,0c0-3.9-1.77-6-4.64-6s-4.68,2.13-4.68,6,1.76,6,4.68,6S161.05,584.39,161.05,580.49Z"/><path d="M167.12,582.5V573h2.07v9.3c0,2.94,1.38,4.26,3.42,4.26,2.72,0,4.38-2.34,4.38-5.37V573h2.09v15h-2V584.9a5.16,5.16,0,0,1-4.87,3.45C168.5,588.35,167.12,586.07,167.12,582.5Z"/><path d="M182.57,573h2.75v-4l2.11-.9V573h3.86v1.74h-3.86v9c0,1.77.77,2.55,2.34,2.55a6.09,6.09,0,0,0,1.52-.18V588a7,7,0,0,1-2.06.27c-2.91,0-3.91-1.77-3.91-4.44v-9.09h-2.75Z"/><path d="M195.11,567h2.36v3.3h-2.36Zm.14,6h2.07v15h-2.07Z"/><path d="M205.24,588h-2.07V566.24h2.07Z"/><path d="M221.26,588h-2.07V566.24h2.07Z"/><path d="M238.69,581H227.8c0,3.39,1.89,5.46,4.8,5.46a4.21,4.21,0,0,0,4.23-3.21l1.77.72a6.07,6.07,0,0,1-6.15,4.35c-4.26,0-6.75-2.73-6.75-7.77s2.52-8,6.66-8,6.33,2.4,6.33,7Zm-2.13-2c0-3.09-1.56-4.74-4.23-4.74s-4.47,1.92-4.53,5h8.76Z"/><path d="M240.22,573h2.28l3.72,10.62c.27.84.48,1.53.63,2.22h.09c.15-.69.39-1.38.66-2.22L251.32,573h2.28l-5.55,15h-2.28Z"/><path d="M268,581H257.11c0,3.39,1.89,5.46,4.8,5.46a4.21,4.21,0,0,0,4.23-3.21l1.77.72a6.07,6.07,0,0,1-6.15,4.35c-4.26,0-6.75-2.73-6.75-7.77s2.52-8,6.66-8,6.33,2.4,6.33,7Zm-2.13-2c0-3.09-1.56-4.74-4.23-4.74s-4.47,1.92-4.53,5h8.76Z"/><path d="M279,572.63a3.63,3.63,0,0,1,.57,0v2h-.24a4.39,4.39,0,0,0-3.21,1.14c-1.38,1.38-1.65,3.39-1.65,5.28V588h-2.07V573h1.95v3.66C275.08,574.34,276.73,572.63,279,572.63Z"/><path d="M292.12,588h-2.07V566.24h2.07Z"/><path d="M296.62,584a3.79,3.79,0,0,1,1.83-3.36,12.9,12.9,0,0,1,4.92-1.35l3.33-.39v-.24c0-3.09-1.08-4.32-3.63-4.32-2.25,0-3.63,1.17-3.75,3.3h-2.25c.18-3.09,2.52-5,6-5,4,0,5.76,1.86,5.76,6.21v3.9a21.14,21.14,0,0,0,.48,5.25h-2.19a20.58,20.58,0,0,1-.27-3,5.14,5.14,0,0,1-5.22,3.36C298.6,588.35,296.62,586.61,296.62,584Zm10.11-2.58v-1l-4.26.6c-2.55.36-3.66,1.23-3.66,2.88s1.26,2.64,3.27,2.64C304.87,586.61,306.73,584.51,306.73,581.45Z"/><path d="M324,573v2.91a4.47,4.47,0,0,1,4.44-3.27,4.23,4.23,0,0,1,4.32,3.21,4.76,4.76,0,0,1,4.62-3.21c2.94,0,4.62,2,4.62,5.55V588h-2.1v-9.63c0-2.55-1.08-3.93-3.15-3.93-2.28,0-3.69,1.68-3.69,4.44V588H331v-9.75c0-2.43-1.14-3.81-3.12-3.81-2.28,0-3.75,1.86-3.75,4.8V588h-2.07V573Z"/><path d="M345.91,584a3.79,3.79,0,0,1,1.83-3.36,12.9,12.9,0,0,1,4.92-1.35l3.33-.39v-.24c0-3.09-1.08-4.32-3.63-4.32-2.25,0-3.63,1.17-3.75,3.3h-2.25c.18-3.09,2.52-5,6-5,4,0,5.76,1.86,5.76,6.21v3.9a21.14,21.14,0,0,0,.48,5.25h-2.19a20.58,20.58,0,0,1-.27-3,5.14,5.14,0,0,1-5.22,3.36C347.89,588.35,345.91,586.61,345.91,584ZM356,581.45v-1l-4.26.6c-2.55.36-3.66,1.23-3.66,2.88s1.26,2.64,3.27,2.64C354.16,586.61,356,584.51,356,581.45Z"/><path d="M363.25,567h2.37v3.3h-2.37Zm.15,6h2.07v15H363.4Z"/><path d="M371.17,573h2v3.3a5.11,5.11,0,0,1,5.13-3.66c3.36,0,5.1,2.07,5.1,6.09V588h-2.1v-9.15c0-2.91-1.26-4.41-3.63-4.41-2.7,0-4.41,2.16-4.41,5.67V588h-2.07Z"/><path d="M396.55,573h2v3.18a5.32,5.32,0,0,1,5.13-3.54c3.69,0,6.09,3.15,6.09,7.86s-2.55,7.86-6.24,7.86a5.06,5.06,0,0,1-4.89-3.18v8.67h-2.07Zm11,7.5c0-3.72-1.62-6-4.38-6s-4.56,2.34-4.56,5.64v.66c0,3.36,1.68,5.7,4.44,5.7S407.53,584.21,407.53,580.49Z"/><path d="M412.63,580.49c0-4.89,2.73-7.86,6.9-7.86s6.87,3,6.87,7.86-2.73,7.86-6.87,7.86S412.63,585.38,412.63,580.49Zm11.55,0c0-3.9-1.77-6-4.65-6s-4.68,2.13-4.68,6,1.77,6,4.68,6S424.18,584.39,424.18,580.49Z"/><path d="M430.24,582.5V573h2.07v9.3c0,2.94,1.38,4.26,3.42,4.26,2.73,0,4.38-2.34,4.38-5.37V573h2.1v15h-2V584.9a5.14,5.14,0,0,1-4.86,3.45C431.62,588.35,430.24,586.07,430.24,582.5Z"/><path d="M454.51,572.63a3.63,3.63,0,0,1,.57,0v2h-.24a4.39,4.39,0,0,0-3.21,1.14c-1.38,1.38-1.65,3.39-1.65,5.28V588h-2.07V573h1.95v3.66C450.55,574.34,452.2,572.63,454.51,572.63Z"/><path d="M463.93,580.49c0-4.62,2.61-7.86,6.42-7.86a4.78,4.78,0,0,1,4.71,3.09v-9.48h2.1V588h-2v-3.18a5.23,5.23,0,0,1-5.07,3.54C466.39,588.35,463.93,585.17,463.93,580.49Zm11.16.33v-.63c0-3.42-1.65-5.7-4.44-5.7s-4.5,2.25-4.5,6,1.68,6,4.47,6S475.09,584.15,475.09,580.82Z"/><path d="M494.56,581H483.67c0,3.39,1.89,5.46,4.8,5.46a4.21,4.21,0,0,0,4.23-3.21l1.77.72a6.07,6.07,0,0,1-6.15,4.35c-4.26,0-6.75-2.73-6.75-7.77s2.52-8,6.66-8,6.33,2.4,6.33,7Zm-2.13-2c0-3.09-1.56-4.74-4.23-4.74s-4.47,1.92-4.53,5h8.76Z"/><path d="M501,573v2.91a4.47,4.47,0,0,1,4.44-3.27,4.23,4.23,0,0,1,4.32,3.21,4.76,4.76,0,0,1,4.62-3.21c2.94,0,4.62,2,4.62,5.55V588h-2.1v-9.63c0-2.55-1.08-3.93-3.15-3.93-2.28,0-3.69,1.68-3.69,4.44V588h-2.07v-9.75c0-2.43-1.14-3.81-3.12-3.81-2.28,0-3.75,1.86-3.75,4.8V588H499V573Z"/><path d="M522.85,584a3.79,3.79,0,0,1,1.83-3.36,12.9,12.9,0,0,1,4.92-1.35l3.33-.39v-.24c0-3.09-1.08-4.32-3.63-4.32-2.25,0-3.63,1.17-3.75,3.3H523.3c.18-3.09,2.52-5,6-5,4,0,5.76,1.86,5.76,6.21v3.9a21.14,21.14,0,0,0,.48,5.25h-2.19a20.58,20.58,0,0,1-.27-3,5.14,5.14,0,0,1-5.22,3.36C524.83,588.35,522.85,586.61,522.85,584ZM533,581.45v-1l-4.26.6c-2.55.36-3.66,1.23-3.66,2.88s1.26,2.64,3.27,2.64C531.1,586.61,533,584.51,533,581.45Z"/><path d="M540.34,573h2v3.3a5.11,5.11,0,0,1,5.13-3.66c3.36,0,5.1,2.07,5.1,6.09V588h-2.1v-9.15c0-2.91-1.26-4.41-3.63-4.41-2.7,0-4.41,2.16-4.41,5.67V588h-2.07Z"/><path d="M556.36,580.49c0-4.62,2.61-7.86,6.42-7.86a4.78,4.78,0,0,1,4.71,3.09v-9.48h2.1V588h-2v-3.18a5.23,5.23,0,0,1-5.07,3.54C558.82,588.35,556.36,585.17,556.36,580.49Zm11.16.33v-.63c0-3.42-1.65-5.7-4.44-5.7s-4.5,2.25-4.5,6,1.68,6,4.47,6S567.52,584.15,567.52,580.82Z"/><path d="M587,581H576.1c0,3.39,1.89,5.46,4.8,5.46a4.21,4.21,0,0,0,4.23-3.21l1.77.72a6.07,6.07,0,0,1-6.15,4.35c-4.26,0-6.75-2.73-6.75-7.77s2.52-8,6.66-8,6.33,2.4,6.33,7Zm-2.13-2c0-3.09-1.56-4.74-4.23-4.74s-4.47,1.92-4.53,5h8.76Z"/><path d="M598,572.63a3.63,3.63,0,0,1,.57,0v2h-.24a4.39,4.39,0,0,0-3.21,1.14c-1.38,1.38-1.65,3.39-1.65,5.28V588h-2.07V573h2v3.66C594.07,574.34,595.72,572.63,598,572.63Z"/><path d="M611.08,588H609V566.24h2.07Z"/><path d="M615.58,584a3.79,3.79,0,0,1,1.83-3.36,12.9,12.9,0,0,1,4.92-1.35l3.33-.39v-.24c0-3.09-1.08-4.32-3.63-4.32-2.25,0-3.63,1.17-3.75,3.3H616c.18-3.09,2.52-5,6-5,4,0,5.76,1.86,5.76,6.21v3.9a21.14,21.14,0,0,0,.48,5.25h-2.19a20.58,20.58,0,0,1-.27-3,5.14,5.14,0,0,1-5.22,3.36C617.56,588.35,615.58,586.61,615.58,584Zm10.11-2.58v-1l-4.26.6c-2.55.36-3.66,1.23-3.66,2.88s1.26,2.64,3.27,2.64C623.83,586.61,625.69,584.51,625.69,581.45Z"/><path d="M641,573h2v3.18a5.32,5.32,0,0,1,5.13-3.54c3.69,0,6.09,3.15,6.09,7.86s-2.55,7.86-6.24,7.86a5.06,5.06,0,0,1-4.89-3.18v8.67H641Zm11,7.5c0-3.72-1.62-6-4.38-6s-4.56,2.34-4.56,5.64v.66c0,3.36,1.68,5.7,4.44,5.7S652,584.21,652,580.49Z"/><path d="M657,584a3.79,3.79,0,0,1,1.83-3.36,12.9,12.9,0,0,1,4.92-1.35l3.33-.39v-.24c0-3.09-1.08-4.32-3.63-4.32-2.25,0-3.63,1.17-3.75,3.3h-2.25c.18-3.09,2.52-5,6-5,4,0,5.76,1.86,5.76,6.21v3.9a21.14,21.14,0,0,0,.48,5.25h-2.19a20.58,20.58,0,0,1-.27-3,5.14,5.14,0,0,1-5.22,3.36C659,588.35,657,586.61,657,584Zm10.11-2.58v-1l-4.26.6c-2.55.36-3.66,1.23-3.66,2.88s1.26,2.64,3.27,2.64C665.29,586.61,667.15,584.51,667.15,581.45Z"/><path d="M681.13,572.63a3.63,3.63,0,0,1,.57,0v2h-.24a4.39,4.39,0,0,0-3.21,1.14c-1.38,1.38-1.65,3.39-1.65,5.28V588h-2.07V573h2v3.66C677.17,574.34,678.82,572.63,681.13,572.63Z"/><path d="M683.32,580.49c0-4.89,2.73-7.86,6.9-7.86s6.87,3,6.87,7.86-2.73,7.86-6.87,7.86S683.32,585.38,683.32,580.49Zm11.55,0c0-3.9-1.77-6-4.65-6s-4.68,2.13-4.68,6,1.77,6,4.68,6S694.87,584.39,694.87,580.49Z"/><path d="M703.6,588h-2.07V566.24h2.07Z"/><path d="M721,581H710.14c0,3.39,1.89,5.46,4.8,5.46a4.21,4.21,0,0,0,4.23-3.21l1.77.72a6.07,6.07,0,0,1-6.15,4.35c-4.26,0-6.75-2.73-6.75-7.77s2.52-8,6.66-8,6.33,2.4,6.33,7Zm-2.13-2c0-3.09-1.56-4.74-4.23-4.74s-4.47,1.92-4.53,5h8.76Z"/><path d="M745,581H734.11c0,3.39,1.89,5.46,4.8,5.46a4.21,4.21,0,0,0,4.23-3.21l1.77.72a6.07,6.07,0,0,1-6.15,4.35c-4.26,0-6.75-2.73-6.75-7.77s2.52-8,6.66-8,6.33,2.4,6.33,7Zm-2.13-2c0-3.09-1.56-4.74-4.23-4.74s-4.47,1.92-4.53,5h8.76Z"/><path d="M746.8,573h2.76v-4l2.1-.9V573h3.87v1.74h-3.87v9c0,1.77.78,2.55,2.34,2.55a6.12,6.12,0,0,0,1.53-.18V588a7.07,7.07,0,0,1-2.07.27c-2.91,0-3.9-1.77-3.9-4.44v-9.09H746.8Z"/><path d="M766.09,584a3.79,3.79,0,0,1,1.83-3.36,12.9,12.9,0,0,1,4.92-1.35l3.33-.39v-.24c0-3.09-1.08-4.32-3.63-4.32-2.25,0-3.63,1.17-3.75,3.3h-2.25c.18-3.09,2.52-5,6-5,4,0,5.76,1.86,5.76,6.21v3.9a21.14,21.14,0,0,0,.48,5.25h-2.19a20.58,20.58,0,0,1-.27-3,5.14,5.14,0,0,1-5.22,3.36C768.07,588.35,766.09,586.61,766.09,584Zm10.11-2.58v-1l-4.26.6c-2.55.36-3.66,1.23-3.66,2.88s1.26,2.64,3.27,2.64C774.34,586.61,776.2,584.51,776.2,581.45Z"/><path d="M783.58,573h2v3.18a5.32,5.32,0,0,1,5.13-3.54c3.69,0,6.09,3.15,6.09,7.86s-2.55,7.86-6.24,7.86a5.06,5.06,0,0,1-4.89-3.18v8.67h-2.07Zm11,7.5c0-3.72-1.62-6-4.38-6s-4.56,2.34-4.56,5.64v.66c0,3.36,1.68,5.7,4.44,5.7S794.56,584.21,794.56,580.49Z"/><path d="M801.07,573h2v3.18a5.32,5.32,0,0,1,5.13-3.54c3.69,0,6.09,3.15,6.09,7.86s-2.55,7.86-6.24,7.86a5.06,5.06,0,0,1-4.89-3.18v8.67h-2.07Zm11,7.5c0-3.72-1.62-6-4.38-6s-4.56,2.34-4.56,5.64v.66c0,3.36,1.68,5.7,4.44,5.7S812.05,584.21,812.05,580.49Z"/><path d="M817.12,584a3.79,3.79,0,0,1,1.83-3.36,12.9,12.9,0,0,1,4.92-1.35l3.33-.39v-.24c0-3.09-1.08-4.32-3.63-4.32-2.25,0-3.63,1.17-3.75,3.3h-2.25c.18-3.09,2.52-5,6-5,4,0,5.76,1.86,5.76,6.21v3.9a21.14,21.14,0,0,0,.48,5.25h-2.19a20.58,20.58,0,0,1-.27-3,5.14,5.14,0,0,1-5.22,3.36C819.1,588.35,817.12,586.61,817.12,584Zm10.11-2.58v-1l-4.26.6c-2.55.36-3.66,1.23-3.66,2.88s1.26,2.64,3.27,2.64C825.37,586.61,827.23,584.51,827.23,581.45Z"/><path d="M841.21,572.63a3.63,3.63,0,0,1,.57,0v2h-.24a4.39,4.39,0,0,0-3.21,1.14c-1.38,1.38-1.65,3.39-1.65,5.28V588h-2.07V573h1.95v3.66C837.25,574.34,838.9,572.63,841.21,572.63Z"/><path d="M843.55,584a3.79,3.79,0,0,1,1.83-3.36,12.9,12.9,0,0,1,4.92-1.35l3.33-.39v-.24c0-3.09-1.08-4.32-3.63-4.32-2.25,0-3.63,1.17-3.75,3.3H844c.18-3.09,2.52-5,6-5,4,0,5.76,1.86,5.76,6.21v3.9a21.14,21.14,0,0,0,.48,5.25H854a20.58,20.58,0,0,1-.27-3,5.14,5.14,0,0,1-5.22,3.36C845.53,588.35,843.55,586.61,843.55,584Zm10.11-2.58v-1l-4.26.6c-2.55.36-3.66,1.23-3.66,2.88s1.26,2.64,3.27,2.64C851.8,586.61,853.66,584.51,853.66,581.45Z"/><path d="M863.71,570.59l-1.62-3.21-1.62,3.21h-1.83L861,566.3h2.16l2.4,4.29ZM861,573h2.07v15H861Z"/><path d="M866.59,573h2.76v-4l2.1-.9V573h3.87v1.74h-3.87v9c0,1.77.78,2.55,2.34,2.55a6.12,6.12,0,0,0,1.53-.18V588a7.07,7.07,0,0,1-2.07.27c-2.91,0-3.9-1.77-3.9-4.44v-9.09h-2.76Z"/><path d="M885.88,572.63a3.63,3.63,0,0,1,.57,0v2h-.24a4.39,4.39,0,0,0-3.21,1.14c-1.38,1.38-1.65,3.39-1.65,5.28V588h-2.07V573h2v3.66C881.92,574.34,883.57,572.63,885.88,572.63Z"/><path d="M901,581H890.14c0,3.39,1.89,5.46,4.8,5.46a4.21,4.21,0,0,0,4.23-3.21l1.77.72a6.07,6.07,0,0,1-6.15,4.35c-4.26,0-6.75-2.73-6.75-7.77s2.52-8,6.66-8,6.33,2.4,6.33,7Zm-2.13-2c0-3.09-1.56-4.74-4.23-4.74s-4.47,1.92-4.53,5h8.76Z"/><path d="M912.07,584a3.79,3.79,0,0,1,1.83-3.36,12.9,12.9,0,0,1,4.92-1.35l3.33-.39v-.24c0-3.09-1.08-4.32-3.63-4.32-2.25,0-3.63,1.17-3.75,3.3h-2.25c.18-3.09,2.52-5,6-5,4,0,5.76,1.86,5.76,6.21v3.9a21.14,21.14,0,0,0,.48,5.25h-2.19a20.58,20.58,0,0,1-.27-3,5.14,5.14,0,0,1-5.22,3.36C914.05,588.35,912.07,586.61,912.07,584Zm5.46-13.44L914,566.3h2.58l3,4.29Zm4.65,10.86v-1l-4.26.6c-2.55.36-3.66,1.23-3.66,2.88s1.26,2.64,3.27,2.64C920.32,586.61,922.18,584.51,922.18,581.45Z"/><path d="M939.73,588h-2.07V566.24h2.07Z"/><path d="M944.82,572.93c1.36-.69,1.59-1.41,1.59-2.82v-.06h-1.5v-3.36h2.86v3.18c0,2.22-.57,3.3-2.37,4.14Z"/><path d="M963,581H952.12c0,3.39,1.89,5.46,4.8,5.46a4.21,4.21,0,0,0,4.23-3.21l1.77.72a6.07,6.07,0,0,1-6.15,4.35c-4.26,0-6.75-2.73-6.75-7.77s2.52-8,6.66-8,6.33,2.4,6.33,7Zm-2.13-2c0-3.09-1.56-4.74-4.23-4.74s-4.47,1.92-4.53,5h8.76Zm-3.33-8.46h-2l3-4.29h2.57Z"/><path d="M966,580.49c0-4.89,2.61-7.86,6.81-7.86a5.68,5.68,0,0,1,6.06,5.43l-2.13.24c-.3-2.49-1.75-3.84-4-3.84-2.78,0-4.49,2.25-4.49,6s1.71,6.06,4.59,6.06c2.25,0,3.65-1.35,4-3.84l2,.3c-.55,3.39-2.76,5.37-6.06,5.37C968.68,588.35,966,585.32,966,580.49Z"/><path d="M989.82,572.63a3.63,3.63,0,0,1,.57,0v2h-.24a4.39,4.39,0,0,0-3.21,1.14c-1.38,1.38-1.65,3.39-1.65,5.28V588h-2.07V573h1.95v3.66C985.86,574.34,987.51,572.63,989.82,572.63Z"/><path d="M992.16,584a3.79,3.79,0,0,1,1.83-3.36,12.9,12.9,0,0,1,4.92-1.35l3.33-.39v-.24c0-3.09-1.08-4.32-3.63-4.32-2.25,0-3.62,1.17-3.75,3.3h-2.25c.18-3.09,2.52-5,6-5,4,0,5.76,1.86,5.76,6.21v3.9a21.14,21.14,0,0,0,.48,5.25h-2.19a20.58,20.58,0,0,1-.27-3,5.14,5.14,0,0,1-5.22,3.36C994.14,588.35,992.16,586.61,992.16,584Zm10.11-2.58v-1l-4.26.6c-2.55.36-3.66,1.23-3.66,2.88s1.26,2.64,3.27,2.64C1000.41,586.61,1002.27,584.51,1002.27,581.45Z"/><path d="M1009.65,573h2v3.3a5.11,5.11,0,0,1,5.13-3.66c3.36,0,5.1,2.07,5.1,6.09V588h-2.1v-9.15c0-2.91-1.26-4.41-3.63-4.41-2.7,0-4.41,2.16-4.41,5.67V588h-2.07Z"/><g class="cls-3"><g class="cls-4"><image width="455" height="136" transform="translate(501.64 597.25) scale(0.65)" xlink:href="Plan%20de%20travail1.png"/></g></g><g class="cls-5"><g class="cls-6"><image width="365" height="143" transform="translate(175.83 597.18) scale(0.62)" xlink:href="Plan%20de%20travail2.png"/></g></g><g class="cls-7"><g class="cls-8"><image width="322" height="118" transform="translate(801.83 718.88) scale(0.66)" xlink:href="Plan%20de%20travail3.png"/></g></g><g class="cls-9"><g class="cls-10"><image width="322" height="197" transform="translate(801.83 598.58) scale(0.66)" xlink:href="Plan%20de%20travail4.png"/></g></g><rect class="cls-11" x="843.48" y="658.46" width="95.92" height="59.96"/><path d="M239.44,752h2.45l4.66,12.78a6.75,6.75,0,0,1,.39,1.38h0a6.86,6.86,0,0,1,.4-1.38L252,752h2.48v16h-1.62V755.26a11.51,11.51,0,0,1,.09-1.6h-.09a15.57,15.57,0,0,1-.45,1.69L247.81,768h-1.69l-4.61-12.65a12.39,12.39,0,0,1-.47-1.69H241a16,16,0,0,1,.07,1.6V768h-1.6Z"/><path d="M267.68,762.78h-8.17c0,2.54,1.42,4.1,3.6,4.1a3.15,3.15,0,0,0,3.17-2.41l1.33.54a4.56,4.56,0,0,1-4.61,3.26c-3.2,0-5.07-2-5.07-5.83s1.89-6,5-6,4.75,1.8,4.75,5.22Zm-1.6-1.49c0-2.32-1.17-3.55-3.17-3.55s-3.35,1.44-3.4,3.76h6.57Zm-2.5-6.34H262.1l2.23-3.22h1.93Z"/><path d="M269.05,756.75h2.07v-3l1.58-.68v3.65h2.9v1.3h-2.9v6.75c0,1.33.58,1.92,1.75,1.92a4.59,4.59,0,0,0,1.15-.14V768a5.12,5.12,0,0,1-1.55.2c-2.19,0-2.93-1.32-2.93-3.33v-6.82h-2.07Z"/><path d="M278.68,751.68h1.55v7.45a3.87,3.87,0,0,1,3.85-2.65c2.45,0,3.76,1.55,3.76,4.54v7h-1.58v-6.89c0-2.16-.92-3.28-2.7-3.28-2,0-3.33,1.62-3.33,4.25V768h-1.55Z"/><path d="M290.69,762.37c0-3.66,2.05-5.89,5.18-5.89s5.16,2.23,5.16,5.89-2,5.9-5.16,5.9S290.69,766,290.69,762.37Zm8.67,0c0-2.92-1.33-4.52-3.49-4.52s-3.51,1.6-3.51,4.52,1.33,4.53,3.51,4.53S299.36,765.3,299.36,762.37Z"/><path d="M303.18,762.37c0-3.46,2-5.89,4.82-5.89a3.57,3.57,0,0,1,3.53,2.32v-7.12h1.58V768h-1.49v-2.39a3.92,3.92,0,0,1-3.8,2.66C305,768.27,303.18,765.89,303.18,762.37Zm8.37.25v-.47c0-2.57-1.23-4.28-3.33-4.28s-3.37,1.69-3.37,4.5,1.26,4.51,3.35,4.51S311.55,765.12,311.55,762.62Z"/><path d="M326.16,762.78H318c0,2.54,1.42,4.1,3.6,4.1a3.16,3.16,0,0,0,3.17-2.41l1.33.54a4.56,4.56,0,0,1-4.61,3.26c-3.2,0-5.07-2-5.07-5.83s1.89-6,5-6,4.75,1.8,4.75,5.22Zm-1.6-1.49c0-2.32-1.17-3.55-3.17-3.55s-3.36,1.44-3.4,3.76h6.57Z"/><path d="M337.68,755.26a3.46,3.46,0,0,1-2.75,1.24h-.72V755h.43a3.24,3.24,0,0,0,3.28-2.65h1.4V768h-1.64Z"/><path d="M598.18,752h2.45l4.66,12.78a6.75,6.75,0,0,1,.39,1.38h0a6.86,6.86,0,0,1,.4-1.38L610.76,752h2.48v16h-1.62V755.26a11.51,11.51,0,0,1,.09-1.6h-.09a15.57,15.57,0,0,1-.45,1.69L606.55,768h-1.69l-4.61-12.65a12.39,12.39,0,0,1-.47-1.69h-.07a16,16,0,0,1,.07,1.6V768h-1.6Z"/><path d="M626.42,762.78h-8.17c0,2.54,1.42,4.1,3.6,4.1a3.17,3.17,0,0,0,3.18-2.41l1.32.54a4.55,4.55,0,0,1-4.61,3.26c-3.2,0-5.07-2-5.07-5.83s1.9-6,5-6,4.75,1.8,4.75,5.22Zm-1.6-1.49c0-2.32-1.17-3.55-3.17-3.55s-3.35,1.44-3.4,3.76h6.57Zm-2.5-6.34h-1.48l2.23-3.22H625Z"/><path d="M627.77,756.75h2.07v-3l1.57-.68v3.65h2.91v1.3h-2.91v6.75c0,1.33.59,1.92,1.76,1.92a4.65,4.65,0,0,0,1.15-.14V768a5.23,5.23,0,0,1-1.56.2c-2.18,0-2.92-1.32-2.92-3.33v-6.82h-2.07Z"/><path d="M637.4,751.68H639v7.45a3.85,3.85,0,0,1,3.85-2.65c2.45,0,3.76,1.55,3.76,4.54v7H645v-6.89c0-2.16-.92-3.28-2.7-3.28-2,0-3.33,1.62-3.33,4.25V768H637.4Z"/><path d="M649.41,762.37c0-3.66,2.05-5.89,5.18-5.89s5.15,2.23,5.15,5.89-2,5.9-5.15,5.9S649.41,766,649.41,762.37Zm8.67,0c0-2.92-1.33-4.52-3.49-4.52s-3.51,1.6-3.51,4.52,1.33,4.53,3.51,4.53S658.08,765.3,658.08,762.37Z"/><path d="M661.9,762.37c0-3.46,2-5.89,4.82-5.89a3.58,3.58,0,0,1,3.53,2.32v-7.12h1.57V768h-1.48v-2.39a3.92,3.92,0,0,1-3.8,2.66C663.74,768.27,661.9,765.89,661.9,762.37Zm8.37.25v-.47c0-2.57-1.24-4.28-3.33-4.28s-3.37,1.69-3.37,4.5,1.25,4.51,3.35,4.51S670.27,765.12,670.27,762.62Z"/><path d="M684.88,762.78h-8.17c0,2.54,1.41,4.1,3.6,4.1a3.16,3.16,0,0,0,3.17-2.41l1.33.54a4.56,4.56,0,0,1-4.62,3.26c-3.19,0-5.06-2-5.06-5.83s1.89-6,5-6,4.75,1.8,4.75,5.22Zm-1.6-1.49c0-2.32-1.17-3.55-3.18-3.55s-3.35,1.44-3.39,3.76h6.57Z"/><path d="M692.88,766.63a53.63,53.63,0,0,0,5.63-4.77c1.89-1.89,2.61-3.31,2.61-5.16a3.19,3.19,0,0,0-6.37-.18,7.72,7.72,0,0,0,.18,1.44l-1.66-.15a4.9,4.9,0,0,1-.16-1.31c0-2.75,1.87-4.48,5-4.48s4.77,1.69,4.77,4.66c0,2.14-1,4-3.28,6.17a34.21,34.21,0,0,1-4.46,3.67h8V768H692.88Z"/><path class="cls-12" d="M535,707.27a3.46,3.46,0,0,1-2.75,1.24h-.72V707H532a3.26,3.26,0,0,0,3.29-2.65h1.39V720H535Z"/><g class="cls-13"><rect class="cls-14" x="520.27" y="695.24" width="31.17" height="30.25" rx="9"/></g><path class="cls-12" d="M967.44,826.63a54.67,54.67,0,0,0,5.62-4.77c1.89-1.89,2.61-3.31,2.61-5.16a3.19,3.19,0,0,0-6.37-.18,7.72,7.72,0,0,0,.18,1.44l-1.66-.15a4.9,4.9,0,0,1-.16-1.31c0-2.75,1.87-4.48,5-4.48s4.78,1.69,4.78,4.66c0,2.14-1,4-3.29,6.17a33.55,33.55,0,0,1-4.46,3.67h8V828H967.44Z"/><g class="cls-13"><rect class="cls-14" x="959.43" y="804.66" width="27.06" height="24.58" rx="9"/><rect class="cls-15" x="219.52" y="637.48" width="48.13" height="41.96" rx="9"/><rect class="cls-15" x="569.08" y="637.48" width="48.13" height="41.96" rx="9"/><rect class="cls-16" x="273.36" y="637.48" width="50.26" height="41.96" rx="9"/><rect class="cls-16" x="510.4" y="637.48" width="52.31" height="41.96" rx="9"/><rect class="cls-16" x="942.4" y="759.43" width="61.1" height="41.96" rx="9"/><rect class="cls-17" x="168.24" y="487.36" width="153.91" height="38.5" rx="12"/><rect class="cls-18" x="645.91" y="130.37" width="173.69" height="35.38" rx="12"/><rect class="cls-19" x="211.71" y="559.36" width="178.47" height="36.24" rx="12"/></g><g class="cls-20"><g class="cls-21"><image width="252" height="144" transform="translate(177.14 183.31) scale(0.9 0.83)" xlink:href="Plan%20de%20travail5.png"/></g></g><rect class="cls-11" x="184.25" y="227.62" width="18.99" height="32.32"/><g class="cls-13"><rect class="cls-18" x="191.14" y="216.65" width="202.79" height="25.35" rx="12"/></g></g></g></svg>