<svg xmlns="http://www.w3.org/2000/svg" xmlns:xlink="http://www.w3.org/1999/xlink" width="1190.55" height="841.89" viewBox="0 0 1190.55 841.89">
  <defs>
    <style>
      .cls-1 {
        clip-path: url(#clip-Plan_de_travail_26);
      }

      .cls-2 {
        opacity: 0.6;
      }

      .cls-3 {
        fill: #eadfde;
      }

      .cls-4, .cls-5 {
        fill: none;
      }

      .cls-5 {
        stroke: #283583;
        stroke-miterlimit: 10;
        stroke-width: 1.5px;
      }

      .cls-11, .cls-6 {
        font-size: 30px;
        font-family: GTAmerica-Light, GT America;
        font-weight: 300;
      }

      .cls-7 {
        letter-spacing: -0.004em;
      }

      .cls-8 {
        letter-spacing: -0.002em;
      }

      .cls-9 {
        letter-spacing: -0.007em;
      }

      .cls-10 {
        letter-spacing: -0.005em;
      }

      .cls-11 {
        fill: #283583;
      }

      .cls-12 {
        letter-spacing: 0.017em;
      }

      .cls-13 {
        letter-spacing: -0.044em;
      }

      .cls-14 {
        letter-spacing: 0.015em;
      }

      .cls-15 {
        letter-spacing: -0.014em;
      }

      .cls-16 {
        letter-spacing: -0.01em;
      }

      .cls-17 {
        letter-spacing: -0.016em;
      }

      .cls-18 {
        letter-spacing: -0.001em;
      }

      .cls-19 {
        letter-spacing: -0.009em;
      }

      .cls-20 {
        letter-spacing: -0.006em;
      }

      .cls-21 {
        letter-spacing: -0.008em;
      }

      .cls-22 {
        letter-spacing: -0.011em;
      }

      .cls-23 {
        letter-spacing: 0.021em;
      }

      .cls-24 {
        fill: #fff;
      }
    </style>
    <clipPath id="clip-Plan_de_travail_26">
      <rect width="1190.55" height="841.89"/>
    </clipPath>
  </defs>
  <g id="Plan_de_travail_26" data-name="Plan de travail 26" class="cls-1">
    <rect class="cls-24" width="1190.55" height="841.89"/>
    <g id="Groupe_9" data-name="Groupe 9" class="cls-2" transform="translate(-6052.75 -1723.78)">
      <rect id="Rectangle_15" data-name="Rectangle 15" class="cls-3" width="1118.551" height="280.63" transform="translate(6088.75 1889.606)"/>
      <rect id="Rectangle_16" data-name="Rectangle 16" class="cls-4" width="1136.55" height="288.629" transform="translate(6079.75 1882.607)"/>
    </g>
    <rect id="Rectangle_17" data-name="Rectangle 17" class="cls-4" width="1190.551" height="841.89"/>
    <line id="Ligne_1" data-name="Ligne 1" class="cls-5" x2="208.556" transform="translate(590.813 207)"/>
    <text id="Un_questionnaire_en_ligne_disponible_sur_" data-name="Un questionnaire en ligne disponible sur " class="cls-6" transform="translate(36 204.001)"><tspan x="0" y="0">Un que</tspan><tspan class="cls-7" y="0">s</tspan><tspan y="0">tio</tspan><tspan class="cls-8" y="0">n</tspan><tspan y="0">nai</tspan><tspan class="cls-9" y="0">r</tspan><tspan y="0">e en li</tspan><tspan class="cls-10" y="0">g</tspan><tspan y="0">ne disponible sur </tspan></text>
    <text id="participer.ge.ch" class="cls-11" transform="translate(590.815 204.001)"><tspan x="0" y="0">pa</tspan><tspan class="cls-12" y="0">r</tspan><tspan y="0">ticipe</tspan><tspan class="cls-13" y="0">r</tspan><tspan class="cls-14" y="0">.</tspan><tspan class="cls-15" y="0">g</tspan><tspan class="cls-16" y="0">e</tspan><tspan class="cls-9" y="0">.</tspan><tspan y="0">ch</tspan></text>
    <text id="Permettra_de_compléter_les_discussions_d_aujourd_hui_:_" data-name="Permettra de compléter les discussions d’aujourd’hui : " class="cls-6" transform="translate(36 276.001)"><tspan class="cls-17" x="0" y="0">P</tspan><tspan y="0">erm</tspan><tspan class="cls-18" y="0">e</tspan><tspan class="cls-14" y="0">t</tspan><tspan y="0">t</tspan><tspan class="cls-19" y="0">r</tspan><tspan y="0">a de co</tspan><tspan class="cls-8" y="0">m</tspan><tspan y="0">pl</tspan><tspan class="cls-18" y="0">é</tspan><tspan class="cls-20" y="0">t</tspan><tspan y="0">er les discu</tspan><tspan class="cls-21" y="0">s</tspan><tspan y="0">sions d</tspan><tspan class="cls-22" y="0">’</tspan><tspan y="0">aujou</tspan><tspan class="cls-9" y="0">r</tspan><tspan y="0">d’hui : </tspan></text>
    <text id="_" data-name="•" class="cls-6" transform="translate(36 312.001)"><tspan x="0" y="0">•</tspan></text>
    <text id="_2" data-name=" " class="cls-6" transform="translate(45.061 312.001)"><tspan x="0" y="0"> </tspan></text>
    <text id="évaluer_les_variantes" data-name="évaluer les variantes" class="cls-6" transform="translate(54 312.001)"><tspan class="cls-10" x="0" y="0">é</tspan><tspan class="cls-9" y="0">v</tspan><tspan y="0">aluer les </tspan><tspan class="cls-21" y="0">v</tspan><tspan y="0">aria</tspan><tspan class="cls-16" y="0">n</tspan><tspan class="cls-20" y="0">t</tspan><tspan y="0">es</tspan></text>
    <text id="_3" data-name="•" class="cls-6" transform="translate(36 348)"><tspan x="0" y="0">•</tspan></text>
    <text id="_4" data-name=" " class="cls-6" transform="translate(45.061 348)"><tspan x="0" y="0"> </tspan></text>
    <text id="ajouter_des_observations_des_remarques_des_propositions" data-name="ajouter des observations, des remarques, des propositions" class="cls-6" transform="translate(54 348)"><tspan x="0" y="0">ajou</tspan><tspan class="cls-20" y="0">t</tspan><tspan y="0">er des obse</tspan><tspan class="cls-23" y="0">r</tspan><tspan class="cls-9" y="0">v</tspan><tspan class="cls-18" y="0">a</tspan><tspan y="0">tion</tspan><tspan class="cls-22" y="0">s</tspan><tspan y="0">, des </tspan><tspan class="cls-9" y="0">r</tspan><tspan y="0">ema</tspan><tspan class="cls-9" y="0">r</tspan><tspan y="0">que</tspan><tspan class="cls-16" y="0">s</tspan><tspan y="0">, des p</tspan><tspan class="cls-9" y="0">r</tspan><tspan y="0">opositions</tspan></text>
    <text id="A_remplir_d_ici_au_plus_tard_le_XXX" data-name="A remplir d’ici au plus tard le XXX" class="cls-6" transform="translate(36 420)"><tspan x="0" y="0">A </tspan><tspan class="cls-9" y="0">r</tspan><tspan y="0">e</tspan><tspan class="cls-18" y="0">m</tspan><tspan y="0">plir d’ici au plus </tspan><tspan class="cls-10" y="0">t</tspan><tspan y="0">a</tspan><tspan class="cls-9" y="0">r</tspan><tspan y="0">d le XXX</tspan></text>
    <path id="Tracé_7" data-name="Tracé 7" d="M6160.06,1779.04v4.8h-4.77v-4.8h-9.6V1775.8l9.03-13.26h5.34v12.96h3.12v3.539Zm-4.53-12.089h-.06a9.968,9.968,0,0,1-1.2,2.16l-2.97,4.56a13.436,13.436,0,0,1-1.38,1.83h5.55v-6.18C6155.47,1768.211,6155.47,1767.7,6155.53,1766.951Zm14.82,16.889h-5.13v-4.92h5.13Zm28.439.75a5.981,5.981,0,0,0,1.68-.24v3.93a13.676,13.676,0,0,1-2.25.18c-3.6,0-5.939-1.53-6.959-4.11h-.42c-6.39,0-10.5-4.32-10.5-11.159,0-6.87,4.11-11.16,10.5-11.16s10.5,4.29,10.5,11.16c0,5.039-2.22,8.7-5.91,10.289A4.886,4.886,0,0,0,6198.789,1784.59Zm-7.949-4.2c3.33,0,5.279-2.7,5.279-7.2s-1.949-7.2-5.279-7.2-5.31,2.7-5.31,7.2C6185.53,1777.661,6187.51,1780.39,6190.84,1780.39Zm18.3-17.849v13.65a3.96,3.96,0,1,0,7.919,0v-13.65h5.07v13.86c0,4.859-3.36,7.949-9.029,7.949s-9.03-3.09-9.03-7.949v-13.86ZM6241,1780.09v3.75H6226.21v-21.3h14.579v3.75h-9.509v4.8h9v3.72h-9v5.279Zm1.381-.69,3.75-2.639a6.172,6.172,0,0,0,5.789,3.659c2.04,0,3.66-.75,3.66-2.43,0-1.589-.93-2.189-3.09-2.639l-2.849-.6c-3.72-.81-5.88-2.82-5.88-6.39,0-3.9,3.18-6.33,8.309-6.33,3.78,0,6.96,1.38,8.46,4.23l-3.3,2.79a5.975,5.975,0,0,0-5.49-3.27c-2.009,0-3.3.84-3.3,2.19,0,1.38.84,2.07,3.089,2.58l3.09.66c3.78.84,5.82,2.64,5.82,6.3,0,4.05-3.12,6.84-8.7,6.84C6247.15,1784.35,6243.85,1782.4,6242.38,1779.4Zm36.419-12.839h-6.209v17.279h-5.04v-17.279h-6.18v-4.02H6278.8Zm2.4,17.279v-21.3h5.07v21.3Zm8.16-10.649c0-6.87,4.11-11.16,10.5-11.16s10.5,4.29,10.5,11.16-4.11,11.159-10.5,11.159S6289.36,1780.03,6289.36,1773.191Zm15.779,0c0-4.5-1.95-7.2-5.28-7.2s-5.309,2.7-5.309,7.2c0,4.47,1.98,7.2,5.309,7.2S6305.139,1777.691,6305.139,1773.191Zm8.311-10.65h5.609l6.84,12.15a22.16,22.16,0,0,1,1.29,2.76h.06c0-.84-.03-1.71-.03-2.73v-12.18h4.65v21.3h-5.4l-7.08-12.269a18.341,18.341,0,0,1-1.259-2.61h-.06c0,.87.03,1.77.03,2.82v12.059h-4.65Zm22.86,0h5.609l6.84,12.15a22.16,22.16,0,0,1,1.29,2.76h.06c0-.84-.03-1.71-.03-2.73v-12.18h4.65v21.3h-5.4l-7.08-12.269a18.411,18.411,0,0,1-1.26-2.61h-.06c0,.87.03,1.77.03,2.82v12.059h-4.649Zm35.609,16.319h-7.86l-1.62,4.98h-5.07l7.74-21.3h5.79l7.74,21.3h-5.1Zm-1.17-3.569-1.95-5.94a25.678,25.678,0,0,1-.78-3h-.06a20.87,20.87,0,0,1-.78,3l-1.95,5.94Zm10.5,8.549v-21.3h5.07v21.3Zm17.64-8.159h-3.06v8.159h-5.07v-21.3h9.36c5.4,0,7.8,2.64,7.8,6.54a5.891,5.891,0,0,1-4.169,5.85l4.709,8.909h-5.489Zm-3.06-3.48h3.27c2.46,0,3.54-1.2,3.54-3.12,0-1.86-1.05-2.97-3.54-2.97h-3.27Zm30.509,7.889v3.75h-14.789v-21.3h14.579v3.75h-9.509v4.8h9v3.72h-9v5.279Zm25.89,0v3.75h-14.789v-21.3h14.579v3.75h-9.51v4.8h9v3.72h-9v5.279Zm3.691-17.549h5.609l6.84,12.15a22.16,22.16,0,0,1,1.29,2.76h.06c0-.84-.03-1.71-.03-2.73v-12.18h4.65v21.3h-5.4l-7.08-12.269a18.349,18.349,0,0,1-1.26-2.61h-.06c0,.87.03,1.77.03,2.82v12.059h-4.649Zm30.269,0h5.07v17.189h8.64v4.11h-13.71Zm16.617,21.3v-21.3h5.07v21.3Zm8.16-10.619c0-6.69,4.02-11.19,10.56-11.19,5.58,0,8.61,3,9.27,6.54l-5.01.93a4.1,4.1,0,0,0-4.29-3.66c-3.39,0-5.34,2.82-5.34,7.32,0,4.469,1.83,7.289,5.4,7.289a4.488,4.488,0,0,0,4.71-4.379v-.45h-5.25v-3.63h9.87v11.849h-3.6l-.21-3.12c-1.08,2.28-3.45,3.63-6.66,3.63C6514.535,1784.35,6510.965,1779.97,6510.965,1773.221Zm23.7-10.68h5.61l6.84,12.15a22.153,22.153,0,0,1,1.29,2.76h.06c0-.84-.03-1.71-.03-2.73v-12.18h4.649v21.3h-5.4l-7.08-12.269a18.349,18.349,0,0,1-1.26-2.61h-.06c0,.87.03,1.77.03,2.82v12.059h-4.65Zm37.649,17.549v3.75h-14.789v-21.3H6572.1v3.75H6562.6v4.8h9v3.72h-9v5.279Z" transform="translate(-6052.75 -1723.78)"/>
    <rect id="Rectangle_18" data-name="Rectangle 18" class="cls-4" width="1190.55" height="841.89"/>
    <rect id="Rectangle_19" data-name="Rectangle 19" class="cls-4" width="1190.55" height="841.89"/>
  </g>
</svg>
